<svg data-v-0dd9719b="" version="1.0" xmlns="http://www.w3.org/2000/svg" xmlns:xlink="http://www.w3.org/1999/xlink" width="100%" height="100%" viewBox="0 0 340.000000 250.000000" preserveAspectRatio="xMidYMid meet" color-interpolation-filters="sRGB" style="margin: auto;">
	<rect data-v-0dd9719b="" x="0" y="0" width="100%" height="100%" fill="#fff" fill-opacity="1" stroke-opacity="1" class="background"/>
	
	<g data-v-0dd9719b="" fill="#cc2229" class="iconbordersvg" transform="translate(7.6797027587890625,94.28532409667969)">
		<g data-gra="graph-icon-name">
			<g>
				<rect data-gra="graph-name-bg" stroke-width="2" class="i-icon-bg" x="0" y="0" width="324.6405944824219" height="61.429351806640625" fill-opacity="0" stroke="rgb(204, 34, 41)"/>
				<!---->
				<!---->
			</g>
			<g transform="translate(0,0)">
				<g data-gra="graph-icon" transform="translate(0,0)">
					<g>
						<rect data-gra="graph-name-bg" stroke-width="2" class="i-icon-bg" x="0" y="0" width="55.599998474121094" height="61.429351806640625" fill-opacity="0"/>
						<!---->
						<!---->
					</g>
					<g transform="translate(5,7.914676666259766)">
						<g class="iconsvg-imagesvg">
							<g>
								<!---->
								<svg filter="url(#colors3556339424)" x="0" y="0" width="45.59999999999999" height="45.59999999999999" filtersec="colorsf8363776992" class="image-svg-svg primary" style="overflow: visible;">
									<svg xmlns="http://www.w3.org/2000/svg" viewBox="0.7999999999999998 0.7999999999999998 95.39999 95.39999">
										<path d="M48.5 94.2L2.8 48.5 48.5 2.8l45.7 45.7-45.7 45.7zm22.9-68.5L25.7 71.4m60.9-15.3L71.4 40.9 33.3 79M79 63.8l-7.6-7.6-30.5 30.4M10.4 40.9l15.2 15.2L63.7 18M18.1 33.3l7.6 7.6 30.5-30.5" fill="none" stroke="#333" stroke-width="4" stroke-miterlimit="10"/>
									</svg>
								</svg>
								<defs>
									<filter id="colors3556339424">
										<feColorMatrix type="matrix" values="0 0 0 0 0.3125  0 0 0 0 0.3671875  0 0 0 0 0.5234375  0 0 0 1 0" class="icon-fecolormatrix"/>
									</filter>
									<filter id="colorsf8363776992">
										<feColorMatrix type="matrix" values="0 0 0 0 0.99609375  0 0 0 0 0.99609375  0 0 0 0 0.99609375  0 0 0 1 0" class="icon-fecolormatrix"/>
									</filter>
									<filter id="colorsb6874119205">
										<feColorMatrix type="matrix" values="0 0 0 0 0  0 0 0 0 0  0 0 0 0 0  0 0 0 1 0" class="icon-fecolormatrix"/>
									</filter>
								</defs>
							</g>
						</g>
					</g>
				</g>
				<g data-gra="graph-name" transform="translate(55.59999465942383,0)" mask="url(#6da7d781-51e2-45bd-9f38-5479fd91388a)">
					<g>
						<rect data-gra="graph-name-bg" stroke-width="2" class="i-icon-bg" x="0" y="0" width="269.04058837890625" height="61.429351806640625" fill-opacity="1"/>
						<!---->
						<!---->
					</g>
					<g transform="translate(5,5)">
						<g data-gra="path-name" fill-rule="" class="tp-name" transform="translate(0,0)">
							<g transform="scale(0.8599999999999999)">
								<g>
									<path d="M20.83-15.03L20.83-15.03 17.08-15.03Q16.56-19.98 11.78-19.98L11.78-19.98Q5.64-19.64 5.29-11.44L5.29-11.44Q5.29-2.56 11.61-2.56L11.61-2.56Q16.22-2.9 17.08-8.03L17.08-8.03 20.83-8.03Q19.47 0.17 11.61 0.34L11.61 0.34Q1.71 0 1.37-10.76L1.37-10.76Q1.71-23.22 12.29-23.56L12.29-23.56Q19.81-23.39 20.83-15.03ZM28.18-15.88L28.18-15.88 24.59-15.88Q24.76-23.56 33.98-23.56L33.98-23.56Q42.18-23.22 42.35-17.08L42.35-17.08 42.35-3.93Q42.35-2.56 43.71-2.56L43.71-2.56Q43.88-2.56 44.23-2.56L44.23-2.56Q44.74-2.73 45.08-2.73L45.08-2.73 45.08 0Q44.74 0 44.23 0L44.23 0Q43.37 0.17 42.86 0.17L42.86 0.17Q38.76 0.17 38.93-3.07L38.93-3.07Q35.52 0.34 30.57 0.34L30.57 0.34Q23.74 0 23.39-5.98L23.39-5.98Q23.56-12.12 30.39-13.15L30.39-13.15 36.71-13.83Q38.76-14.17 38.76-16.56L38.76-16.56Q38.76-20.32 33.3-20.32L33.3-20.32Q28.52-20.32 28.18-15.88ZM38.59-7.85L38.59-7.85 38.59-11.61Q37.23-10.76 32.27-10.07L32.27-10.07Q27.49-9.73 27.49-6.49L27.49-6.49Q27.49-2.56 31.42-2.56L31.42-2.56Q38.08-3.07 38.59-7.85ZM67.45-15.54L67.45-15.54 67.45 0 63.69 0 63.69-14Q64.03-20.32 58.74-19.98L58.74-19.98Q52.93-19.64 52.76-12.47L52.76-12.47 52.76 0 48.84 0 48.84-22.88 52.59-22.88 52.59-19.64Q55.33-23.56 59.59-23.56L59.59-23.56Q67.28-23.39 67.45-15.54ZM73.26-22.88L77.18-22.88 77.18 2.9Q77.35 8.71 71.21 8.71L71.21 8.71Q70.52 8.71 70.01 8.71L70.01 8.71 70.01 5.46 70.52 5.46Q73.6 5.81 73.26 2.56L73.26 2.56 73.26-22.88ZM73.26-31.25L77.18-31.25 77.18-26.98 73.26-26.98 73.26-31.25ZM82.82-22.88L86.74-22.88 86.74 0 82.82 0 82.82-22.88ZM86.74-31.25L86.74-26.98 82.82-26.98 82.82-31.25 86.74-31.25ZM95.8-15.88L95.8-15.88 92.21-15.88Q92.38-23.56 101.6-23.56L101.6-23.56Q109.8-23.22 109.97-17.08L109.97-17.08 109.97-3.93Q109.97-2.56 111.33-2.56L111.33-2.56Q111.5-2.56 111.85-2.56L111.85-2.56Q112.36-2.73 112.7-2.73L112.7-2.73 112.7 0Q112.36 0 111.85 0L111.85 0Q110.99 0.17 110.48 0.17L110.48 0.17Q106.38 0.17 106.55-3.07L106.55-3.07Q103.14 0.34 98.19 0.34L98.19 0.34Q91.36 0 91.01-5.98L91.01-5.98Q91.18-12.12 98.01-13.15L98.01-13.15 104.33-13.83Q106.38-14.17 106.38-16.56L106.38-16.56Q106.38-20.32 100.92-20.32L100.92-20.32Q96.14-20.32 95.8-15.88ZM106.21-7.85L106.21-7.85 106.21-11.61Q104.85-10.76 99.89-10.07L99.89-10.07Q95.11-9.73 95.11-6.49L95.11-6.49Q95.11-2.56 99.04-2.56L99.04-2.56Q105.7-3.07 106.21-7.85ZM135.07-15.54L135.07-15.54 135.07 0 131.31 0 131.31-14Q131.65-20.32 126.36-19.98L126.36-19.98Q120.55-19.64 120.38-12.47L120.38-12.47 120.38 0 116.46 0 116.46-22.88 120.21-22.88 120.21-19.64Q122.95-23.56 127.21-23.56L127.21-23.56Q134.9-23.39 135.07-15.54ZM144.29-15.88L144.29-15.88 140.7-15.88Q140.88-23.56 150.1-23.56L150.1-23.56Q158.29-23.22 158.46-17.08L158.46-17.08 158.46-3.93Q158.46-2.56 159.83-2.56L159.83-2.56Q160-2.56 160.34-2.56L160.34-2.56Q160.85-2.73 161.2-2.73L161.2-2.73 161.2 0Q160.85 0 160.34 0L160.34 0Q159.49 0.17 158.98 0.17L158.98 0.17Q154.88 0.17 155.05-3.07L155.05-3.07Q151.63 0.34 146.68 0.34L146.68 0.34Q139.85 0 139.51-5.98L139.51-5.98Q139.68-12.12 146.51-13.15L146.51-13.15 152.83-13.83Q154.88-14.17 154.88-16.56L154.88-16.56Q154.88-20.32 149.41-20.32L149.41-20.32Q144.63-20.32 144.29-15.88ZM154.71-7.85L154.71-7.85 154.71-11.61Q153.34-10.76 148.39-10.07L148.39-10.07Q143.61-9.73 143.61-6.49L143.61-6.49Q143.61-2.56 147.53-2.56L147.53-2.56Q154.19-3.07 154.71-7.85ZM168.37-10.25L168.37-10.25Q168.54-3.07 174.69-2.56L174.69-2.56Q180.66-2.73 180.83-11.44L180.83-11.44Q181-19.98 174.51-19.98L174.51-19.98Q168.37-19.98 168.37-10.25ZM168.54 8.71L164.78 8.71 164.78-22.88 168.37-22.88 168.37-19.64 168.54-19.64Q168.54-19.64 168.71-19.81L168.71-19.81Q171.1-23.56 175.2-23.56L175.2-23.56Q184.25-23.05 184.76-12.12L184.76-12.12Q184.25 0 174.69 0.34L174.69 0.34Q170.76 0.34 168.71-2.39L168.71-2.39 168.54-2.39 168.54 8.71ZM192.61-10.25L192.61-10.25Q192.79-3.07 198.93-2.56L198.93-2.56Q204.91-2.73 205.08-11.44L205.08-11.44Q205.25-19.98 198.76-19.98L198.76-19.98Q192.61-19.98 192.61-10.25ZM192.79 8.71L189.03 8.71 189.03-22.88 192.61-22.88 192.61-19.64 192.79-19.64Q192.79-19.64 192.96-19.81L192.96-19.81Q195.35-23.56 199.45-23.56L199.45-23.56Q208.5-23.05 209.01-12.12L209.01-12.12Q208.5 0 198.93 0.34L198.93 0.34Q195.01 0.34 192.96-2.39L192.96-2.39 192.79-2.39 192.79 8.71ZM214.47-4.61L219.08-4.61 219.08 0 214.47 0 214.47-4.61ZM243.67-15.03L243.67-15.03 239.91-15.03Q239.4-19.98 234.62-19.98L234.62-19.98Q228.47-19.64 228.13-11.44L228.13-11.44Q228.13-2.56 234.45-2.56L234.45-2.56Q239.06-2.9 239.91-8.03L239.91-8.03 243.67-8.03Q242.31 0.17 234.45 0.34L234.45 0.34Q224.55 0 224.2-10.76L224.2-10.76Q224.55-23.22 235.13-23.56L235.13-23.56Q242.65-23.39 243.67-15.03ZM246.23-11.44L246.23-11.44Q246.92-23.05 256.82-23.56L256.82-23.56Q266.72-23.05 267.41-11.44L267.41-11.44Q266.72 0 256.82 0.34L256.82 0.34Q246.92 0 246.23-11.44ZM250.16-11.44L250.16-11.44Q250.67-2.9 256.82-2.73L256.82-2.73Q262.97-2.9 263.48-11.44L263.48-11.44Q262.97-19.98 256.82-20.15L256.82-20.15Q250.67-19.98 250.16-11.44ZM275.6 0L271.68 0 271.68-22.88 275.43-22.88 275.43-19.64Q277.99-23.56 282.43-23.56L282.43-23.56Q286.36-23.56 288.24-19.98L288.24-19.98Q288.41-19.81 288.41-19.81L288.41-19.81Q291.48-23.74 295.41-23.56L295.41-23.56Q302.41-23.05 302.58-15.71L302.58-15.71 302.58 0 298.66 0 298.66-14.69Q298.83-20.15 294.39-19.98L294.39-19.98Q289.61-19.47 289.09-13.83L289.09-13.83 289.09 0 285.17 0 285.17-15.71Q285.17-19.98 281.58-19.98L281.58-19.98Q275.77-19.64 275.6-12.47L275.6-12.47 275.6 0Z" transform="translate(-1.3700000047683716, 31.25)"/>
								</g>
								<!---->
								<!---->
								<!---->
								<!---->
								<!---->
								<!---->
								<!---->
							</g>
						</g>
						<g data-gra="path-slogan" fill-rule="" class="tp-slogan" fill="" transform="translate(88.0602912902832,40.3656005859375)">
							<!---->
							<!---->
							<g transform="scale(1, 1)">
								<g transform="scale(1)">
									<path d="M2.39-9.19L3.56-9.56Q3.89-9.14 4.31-8.02L4.31-8.02L3.19-7.64Q3-8.30 2.39-9.19L2.39-9.19ZM7.03-9.52L7.03-9.52Q7.17-9.52 7.50-9.52L7.50-9.52Q8.44-9.56 8.44-9.42L8.44-9.42Q8.44-9.42 8.39-9.38L8.39-9.38Q8.16-9.14 8.16-8.86L8.16-8.86L8.16-1.13Q8.16-1.08 8.16-1.03L8.16-1.03Q8.11-0.14 8.63-0.09L8.63-0.09Q8.67-0.09 8.77-0.09L8.77-0.09Q9.66-0.05 9.94-0.19L9.94-0.19Q10.45-0.47 10.41-1.59L10.41-1.59Q10.97-0.94 11.63-0.80L11.63-0.80Q11.25 0.47 10.88 0.61L10.88 0.61Q9.80 1.03 8.11 0.80L8.11 0.80Q7.08 0.61 7.13-0.23L7.13-0.23L7.13-8.53Q7.13-9.23 7.03-9.52ZM5.86-7.41L5.86-7.41Q5.06-5.77 3.89-4.22L3.89-4.22L3.89-0.09Q3.89 0.75 3.98 1.22L3.98 1.22L2.81 1.22Q2.91 0.80 2.91-0.09L2.91-0.09L2.91-3.28Q2.58-2.86 1.22-1.64L1.22-1.64Q1.08-2.20 0.52-2.72L0.52-2.72Q2.67-3.80 4.27-6.38L4.27-6.38L2.20-6.38Q1.22-6.38 0.66-6.28L0.66-6.28L0.66-7.41Q1.17-7.31 2.20-7.31L2.20-7.31L4.31-7.31Q5.30-7.31 5.86-7.41ZM4.08-3.56L4.97-4.13Q5.72-3.42 6.23-2.72L6.23-2.72L5.34-2.02Q4.73-3 4.08-3.56L4.08-3.56ZM15.80-8.25L15.80-6.23L20.16-6.23L20.16-8.25L15.80-8.25ZM21.84-3.42L19.45-3.42L19.45-0.94L21.84-0.94L21.84-3.42ZM16.41-3.42L14.20-3.42L14.20-0.94L16.41-0.94L16.41-3.42ZM21.19-9.23L21.19-9.23Q21.19-9.23 21.14-8.30L21.14-8.30L21.14-6.14Q21.14-5.91 21.19-5.53L21.19-5.53Q21.19-5.34 21.19-5.25L21.19-5.25L20.06-5.30L15.84-5.30Q15.28-5.30 14.77-5.25L14.77-5.25Q14.81-5.48 14.81-6.09L14.81-6.09L14.81-8.30Q14.81-9.23 14.77-9.23L14.77-9.23Q15.23-9.19 15.80-9.19L15.80-9.19L20.11-9.19Q20.86-9.19 21.19-9.23ZM22.92-4.36L22.92-4.36Q22.88-3.94 22.88-3.47L22.88-3.47L22.88-0.09Q22.88 0.66 22.92 0.70L22.92 0.70L21.80 0.70Q21.80 0.70 21.80 0.61L21.80 0.61Q21.84 0.19 21.84-0.05L21.84-0.05L19.45-0.05Q19.45 0.75 19.55 0.84L19.55 0.84L18.42 0.84Q18.42 0.84 18.42 0.75L18.42 0.75Q18.47 0.28 18.47-0.05L18.47-0.05L18.47-3.47Q18.47-4.08 18.42-4.36L18.42-4.36Q18.70-4.31 19.41-4.31L19.41-4.31L21.84-4.31Q21.94-4.31 22.27-4.31L22.27-4.31Q22.73-4.36 22.92-4.36ZM17.48-4.36L17.48-4.36Q17.48-4.36 17.44-3.38L17.44-3.38L17.44-0.05Q17.44 0.56 17.48 0.75L17.48 0.75L16.36 0.75Q16.36 0.70 16.36 0.52L16.36 0.52Q16.41 0.14 16.41-0.05L16.41-0.05L14.20-0.05Q14.20 0.47 14.30 0.84L14.30 0.84L13.13 0.84Q13.13 0.84 13.13 0.70L13.13 0.70Q13.17 0.19 13.17-0.05L13.17-0.05L13.17-3.42Q13.17-4.08 13.13-4.36L13.13-4.36Q13.31-4.31 14.16-4.31L14.16-4.31L16.41-4.31Q16.97-4.31 17.48-4.36ZM29.25-9.75L29.25-9.75Q30.05-9.75 30.42-9.70L30.42-9.70Q30.70-9.66 30.52-9.33L30.52-9.33Q30.33-9.05 30.33-8.81L30.33-8.81L30.33-7.88L32.63-7.88Q33.70-7.88 34.03-7.97L34.03-7.97L34.03-6.89Q33.66-6.98 32.63-6.98L32.63-6.98L30.38-6.98L30.38-5.20L34.03-5.20Q34.88-5.20 35.34-5.30L35.34-5.30L35.34-4.17Q34.97-4.27 34.08-4.27L34.08-4.27L30.38-4.27L30.38-2.95L30.80-3.56Q32.20-2.81 33.80-1.50L33.80-1.50L32.95-0.56Q32.20-1.31 30.38-2.44L30.38-2.44L30.38-0.28Q30.38 0.80 30.47 1.17L30.47 1.17L29.20 1.17Q29.30 0.84 29.30-0.28L29.30-0.28L29.30-4.27L26.20-4.27Q25.22-4.27 24.75-4.17L24.75-4.17L24.75-5.30Q25.17-5.20 26.30-5.20L26.30-5.20L29.30-5.20L29.30-8.67Q29.30-9.28 29.25-9.70L29.25-9.70Q29.25-9.75 29.25-9.75ZM37.97-9.61L37.97-9.61Q39.09-9.61 39.14-9.47L39.14-9.47Q39.14-9.38 39.05-9.23L39.05-9.23Q38.86-8.95 38.86-8.58L38.86-8.58L38.86-7.17L39.28-7.17Q40.08-7.17 40.45-7.27L40.45-7.27L40.45-6.28Q40.13-6.38 39.23-6.38L39.23-6.38L38.86-6.38L38.86-4.36Q39.33-4.55 40.17-5.02L40.17-5.02L40.17-3.94L38.86-3.38L38.86-0.33Q38.95 0.89 37.17 1.03L37.17 1.03Q37.03 0.28 36.75-0.09L36.75-0.09Q38.16 0.14 38.06-0.84L38.06-0.84L38.06-3.14Q37.92-3.05 37.69-2.95L37.69-2.95Q37.08-2.63 36.70-2.30L36.70-2.30L36.42-3.56Q37.36-3.70 38.06-4.13L38.06-4.13L38.06-6.38L37.59-6.38Q36.84-6.38 36.42-6.28L36.42-6.28L36.42-7.27Q36.89-7.17 37.59-7.17L37.59-7.17L38.06-7.17L38.06-8.58Q38.06-9.14 37.97-9.56L37.97-9.56Q37.97-9.61 37.97-9.61ZM46.45-9.33L46.45-9.33Q46.45-9.28 46.45-9.14L46.45-9.14Q46.41-8.67 46.41-8.20L46.41-8.20L46.41-6.09Q46.45-5.02 46.45-5.02L46.45-5.02Q46.41-5.02 46.31-5.02L46.31-5.02Q45.84-5.06 45.23-5.06L45.23-5.06L42.23-5.06Q41.58-5.06 41.06-5.02L41.06-5.02Q40.97-5.02 40.97-5.02L40.97-5.02Q41.06-5.53 41.06-6.09L41.06-6.09L41.06-8.25Q41.06-8.81 40.97-9.33L40.97-9.33Q41.25-9.23 42.19-9.23L42.19-9.23L45.23-9.23Q45.98-9.23 46.45-9.33ZM45.52-8.48L41.95-8.48L41.95-7.59L45.52-7.59L45.52-8.48ZM45.52-6.75L41.95-6.75L41.95-5.86L45.52-5.86L45.52-6.75ZM40.45-3.47L40.45-4.45Q41.02-4.36 42.09-4.36L42.09-4.36L45.66-4.36Q46.78-4.36 47.30-4.45L47.30-4.45L47.30-3.47Q46.73-3.56 45.66-3.56L45.66-3.56L44.25-3.56L44.25-2.53L45.19-2.53Q46.08-2.53 46.59-2.63L46.59-2.63L46.59-1.69Q46.08-1.78 45.19-1.78L45.19-1.78L44.25-1.78L44.25-0.28Q45.05-0.09 47.53-0.28L47.53-0.28L47.06 0.80Q44.72 0.84 43.59 0.47L43.59 0.47Q42.56 0.14 41.44-0.98L41.44-0.98Q40.92 0 40.31 0.94L40.31 0.94L39.33 0.42Q40.64-0.75 41.20-3.14L41.20-3.14Q41.34-3.09 41.63-3L41.63-3Q42.38-2.77 42.33-2.72L42.33-2.72Q42.33-2.67 42.23-2.53L42.23-2.53Q41.95-2.25 41.77-1.69L41.77-1.69Q42.19-1.08 43.31-0.52L43.31-0.52L43.31-3.56L42.14-3.56Q41.02-3.56 40.45-3.47L40.45-3.47ZM51.80-9.66L51.80-9.66Q53.02-9.14 53.02-8.91L53.02-8.91Q53.02-8.86 52.88-8.81L52.88-8.81Q52.31-8.48 51.70-7.73L51.70-7.73L51.70-6.23Q51.70-5.25 51.80-4.55L51.80-4.55L50.67-4.55Q50.72-4.88 50.72-5.95L50.72-5.95Q50.77-6.42 50.77-6.70L50.77-6.70L49.50-5.44Q49.22-5.72 48.56-6.14L48.56-6.14Q50.67-7.59 51.80-9.66ZM54.23-9.52L54.23-9.52Q55.45-9.47 55.45-9.28L55.45-9.28Q55.45-9.19 55.36-9.05L55.36-9.05Q55.22-8.77 55.22-8.53L55.22-8.53L55.22-7.45Q56.67-8.20 57.66-9L57.66-9Q58.64-8.30 58.64-8.06L58.64-8.06Q58.64-8.02 58.45-7.97L58.45-7.97Q58.22-7.92 58.03-7.88L58.03-7.88Q57.70-7.73 57.14-7.50L57.14-7.50Q56.06-7.03 55.27-6.70L55.27-6.70L55.27-5.91Q55.03-5.48 56.53-5.53L56.53-5.53Q58.03-5.30 58.13-6.84L58.13-6.84Q58.64-6.38 59.20-6.19L59.20-6.19Q58.78-5.06 58.41-4.88L58.41-4.88Q58.08-4.64 56.58-4.69L56.58-4.69Q53.91-4.59 54.33-5.44L54.33-5.44L54.33-6.38Q54.28-6.38 54.23-6.33L54.23-6.33Q53.44-6 52.73-5.77L52.73-5.77Q52.64-6.23 52.17-6.66L52.17-6.66Q53.44-6.89 54.28-7.17L54.28-7.17L54.28-8.53Q54.28-9.19 54.23-9.52ZM53.44-2.72L53.44-2.72Q54.61-2.48 54.66-2.34L54.66-2.34Q54.66-2.25 54.56-2.11L54.56-2.11Q54.42-1.97 54.38-1.78L54.38-1.78Q54.19 0.47 49.50 1.03L49.50 1.03Q49.22 0.42 48.70-0.05L48.70-0.05Q53.67 0.23 53.44-2.72ZM54.56-0.56L55.17-1.31Q57.38-0.61 58.92 0.19L58.92 0.19L58.08 1.13Q56.81 0.19 54.56-0.56L54.56-0.56ZM50.53-4.13L50.53-4.13Q50.86-3.98 52.83-3.98L52.83-3.98L56.06-3.98Q56.72-3.98 57.70-4.08L57.70-4.08Q57.56-3.38 57.61-2.72L57.61-2.72Q57.61-1.97 57.66-1.17L57.66-1.17L56.58-1.17Q56.72-1.69 56.72-3.28L56.72-3.28L51.47-3.28Q51.52-1.08 51.52-1.08L51.52-1.08L50.44-1.08Q50.58-1.50 50.58-2.77L50.58-2.77Q50.58-3.66 50.53-4.13ZM69.80-9.23L69.80-9.23Q69.84-9.14 69.98-8.95L69.98-8.95Q70.55-8.11 70.45-8.11L70.45-8.11Q69.19-8.11 65.72-7.78L65.72-7.78Q66.42-7.50 66.56-7.36L66.56-7.36Q66.56-7.31 66.28-7.22L66.28-7.22Q65.86-7.08 65.63-6.89L65.63-6.89Q65.34-6.70 64.55-6.19L64.55-6.19Q64.03-5.86 63.70-5.67L63.70-5.67L66.80-5.86Q67.92-6.70 68.44-7.27L68.44-7.27Q69.33-6.70 69.47-6.52L69.47-6.52Q69.47-6.47 69.28-6.38L69.28-6.38Q68.86-6.19 68.48-5.95L68.48-5.95Q68.44-5.91 68.30-5.81L68.30-5.81Q65.91-4.27 63.98-3.52L63.98-3.52L68.81-3.70Q67.78-4.41 67.73-4.41L67.73-4.41L68.48-5.11Q70.17-3.84 71.02-3L71.02-3L70.22-2.25Q69.94-2.67 69.52-3L69.52-3L66.75-2.86L66.75-0.14Q67.13 0.80 64.88 0.89L64.88 0.89Q64.78 0.33 64.59-0.05L64.59-0.05Q64.55-0.14 64.55-0.14L64.55-0.14Q65.91 0 65.77-0.61L65.77-0.61L65.77-2.81L63.61-2.72Q63.47-2.72 63.23-2.67L63.23-2.67Q62.48-2.63 62.11-2.53L62.11-2.53L61.78-3.56Q62.86-3.61 65.72-5.16L65.72-5.16Q63.38-5.02 62.77-4.78L62.77-4.78L62.20-5.77Q63.84-6.47 65.16-7.73L65.16-7.73L61.92-7.36Q61.83-7.69 61.64-8.06L61.64-8.06Q61.50-8.30 61.41-8.44L61.41-8.44Q65.77-8.44 69.80-9.23ZM67.78-1.50L68.53-2.20Q69.09-1.83 70.55-0.70L70.55-0.70Q70.88-0.42 71.02-0.33L71.02-0.33L70.13 0.42Q68.91-0.84 67.78-1.50L67.78-1.50ZM63.61-2.20L63.61-2.20L64.50-1.59Q62.86 0 62.20 0.47L62.20 0.47Q61.83 0 61.27-0.14L61.27-0.14Q62.63-1.03 63.61-2.20ZM79.13-9.61L79.97-9.84Q80.34-8.95 80.53-8.34L80.53-8.34L79.69-8.11Q79.64-8.72 79.13-9.61L79.13-9.61ZM74.39-9.52L74.39-9.52Q74.58-9.42 74.91-9.33L74.91-9.33Q75.56-9.05 75.56-8.95L75.56-8.95Q75.61-8.86 75.28-8.58L75.28-8.58Q75.09-8.44 75.05-8.39L75.05-8.39Q74.48-7.55 73.55-5.95L73.55-5.95L75.33-6L75.84-7.03Q76.03-6.94 76.36-6.75L76.36-6.75Q76.92-6.52 76.88-6.42L76.88-6.42Q76.88-6.38 76.73-6.28L76.73-6.28Q76.45-6.05 76.27-5.77L76.27-5.77Q75.84-5.11 74.67-3.56L74.67-3.56Q74.25-3.09 74.06-2.81L74.06-2.81Q74.39-2.91 75-3L75-3Q75.98-3.23 76.69-3.38L76.69-3.38L76.50-2.44Q74.34-2.16 73.13-1.78L73.13-1.78L72.75-2.86Q73.78-3.52 74.91-5.30L74.91-5.30L73.78-5.25Q73.31-5.20 72.84-5.06L72.84-5.06L72.47-6.05Q73.55-7.13 74.39-9.52ZM83.30-8.02L83.30-8.02L83.30-7.03Q82.69-7.13 81.98-7.13L81.98-7.13L78.05-7.13Q77.44-7.13 76.69-7.03L76.69-7.03L76.69-8.02Q77.34-7.92 78.14-7.92L78.14-7.92L81.98-7.92Q82.50-7.92 83.30-8.02ZM76.88-1.36L76.88-1.36L76.78-0.38Q74.39-0.05 72.80 0.38L72.80 0.38L72.52-0.56Q74.34-0.75 76.88-1.36ZM78.98-7.03L78.98-7.03Q79.31-6.80 79.64-6.61L79.64-6.61Q79.83-6.52 79.92-6.47L79.92-6.47Q79.92-6.42 79.73-6.28L79.73-6.28Q78.89-5.58 77.95-4.55L77.95-4.55L81.38-4.69Q80.86-5.44 80.53-5.67L80.53-5.67L81.33-6.23Q81.42-6.09 81.80-5.67L81.80-5.67Q82.97-4.22 83.20-3.89L83.20-3.89L82.27-3.23Q82.22-3.56 81.89-3.98L81.89-3.98L80.81-3.98L80.81-0.33Q80.77 0.09 81.28 0.05L81.28 0.05L81.75 0.05Q82.36 0.19 82.45-1.03L82.45-1.03Q82.73-0.66 83.44-0.42L83.44-0.42Q83.16 0.98 82.27 0.94L82.27 0.94L80.72 0.94Q79.97 0.94 79.97 0.05L79.97 0.05L79.97-3.89L79.13-3.89Q79.13-1.50 78.66-0.56L78.66-0.56Q78.33 0.33 76.92 1.22L76.92 1.22Q76.59 0.94 75.98 0.66L75.98 0.66Q75.84 0.56 75.84 0.56L75.84 0.56Q77.39 0 77.77-0.80L77.77-0.80Q78.23-1.59 78.23-3.80L78.23-3.80Q78.19-3.80 78.09-3.80L78.09-3.80Q77.77-3.75 77.11-3.61L77.11-3.61L76.73-4.64Q77.48-5.02 78.98-7.03Z" transform="translate(-0.515625, 9.84375)"/>
								</g>
							</g>
						</g>
					</g>
				</g>
			</g>
		</g>
	</g>
	<mask id="6da7d781-51e2-45bd-9f38-5479fd91388a">
		<g fill="white">
			<rect data-gra="graph-name-bg" stroke-width="2" class="i-icon-bg" x="0" y="0" width="269.04058837890625" height="61.429351806640625" fill-opacity="1"/>
		</g>
		<g transform="translate(5,5)" fill="black">
			<g data-gra="path-name" fill-rule="" class="tp-name" transform="translate(0,0)">
				<g transform="scale(0.8599999999999999)">
					<g>
						<path d="M20.83-15.03L20.83-15.03 17.08-15.03Q16.56-19.98 11.78-19.98L11.78-19.98Q5.64-19.64 5.29-11.44L5.29-11.44Q5.29-2.56 11.61-2.56L11.61-2.56Q16.22-2.9 17.08-8.03L17.08-8.03 20.83-8.03Q19.47 0.17 11.61 0.34L11.61 0.34Q1.71 0 1.37-10.76L1.37-10.76Q1.71-23.22 12.29-23.56L12.29-23.56Q19.81-23.39 20.83-15.03ZM28.18-15.88L28.18-15.88 24.59-15.88Q24.76-23.56 33.98-23.56L33.98-23.56Q42.18-23.22 42.35-17.08L42.35-17.08 42.35-3.93Q42.35-2.56 43.71-2.56L43.71-2.56Q43.88-2.56 44.23-2.56L44.23-2.56Q44.74-2.73 45.08-2.73L45.08-2.73 45.08 0Q44.74 0 44.23 0L44.23 0Q43.37 0.17 42.86 0.17L42.86 0.17Q38.76 0.17 38.93-3.07L38.93-3.07Q35.52 0.34 30.57 0.34L30.57 0.34Q23.74 0 23.39-5.98L23.39-5.98Q23.56-12.12 30.39-13.15L30.39-13.15 36.71-13.83Q38.76-14.17 38.76-16.56L38.76-16.56Q38.76-20.32 33.3-20.32L33.3-20.32Q28.52-20.32 28.18-15.88ZM38.59-7.85L38.59-7.85 38.59-11.61Q37.23-10.76 32.27-10.07L32.27-10.07Q27.49-9.73 27.49-6.49L27.49-6.49Q27.49-2.56 31.42-2.56L31.42-2.56Q38.08-3.07 38.59-7.85ZM67.45-15.54L67.45-15.54 67.45 0 63.69 0 63.69-14Q64.03-20.32 58.74-19.98L58.74-19.98Q52.93-19.64 52.76-12.47L52.76-12.47 52.76 0 48.84 0 48.84-22.88 52.59-22.88 52.59-19.64Q55.33-23.56 59.59-23.56L59.59-23.56Q67.28-23.39 67.45-15.54ZM73.26-22.88L77.18-22.88 77.18 2.9Q77.35 8.71 71.21 8.71L71.21 8.71Q70.52 8.71 70.01 8.71L70.01 8.71 70.01 5.46 70.52 5.46Q73.6 5.81 73.26 2.56L73.26 2.56 73.26-22.88ZM73.26-31.25L77.18-31.25 77.18-26.98 73.26-26.98 73.26-31.25ZM82.82-22.88L86.74-22.88 86.74 0 82.82 0 82.82-22.88ZM86.74-31.25L86.74-26.98 82.82-26.98 82.82-31.25 86.74-31.25ZM95.8-15.88L95.8-15.88 92.21-15.88Q92.38-23.56 101.6-23.56L101.6-23.56Q109.8-23.22 109.97-17.08L109.97-17.08 109.97-3.93Q109.97-2.56 111.33-2.56L111.33-2.56Q111.5-2.56 111.85-2.56L111.85-2.56Q112.36-2.73 112.7-2.73L112.7-2.73 112.7 0Q112.36 0 111.85 0L111.85 0Q110.99 0.17 110.48 0.17L110.48 0.17Q106.38 0.17 106.55-3.07L106.55-3.07Q103.14 0.34 98.19 0.34L98.19 0.34Q91.36 0 91.01-5.98L91.01-5.98Q91.18-12.12 98.01-13.15L98.01-13.15 104.33-13.83Q106.38-14.17 106.38-16.56L106.38-16.56Q106.38-20.32 100.92-20.32L100.92-20.32Q96.14-20.32 95.8-15.88ZM106.21-7.85L106.21-7.85 106.21-11.61Q104.85-10.76 99.89-10.07L99.89-10.07Q95.11-9.73 95.11-6.49L95.11-6.49Q95.11-2.56 99.04-2.56L99.04-2.56Q105.7-3.07 106.21-7.85ZM135.07-15.54L135.07-15.54 135.07 0 131.31 0 131.31-14Q131.65-20.32 126.36-19.98L126.36-19.98Q120.55-19.64 120.38-12.47L120.38-12.47 120.38 0 116.46 0 116.46-22.88 120.21-22.88 120.21-19.64Q122.95-23.56 127.21-23.56L127.21-23.56Q134.9-23.39 135.07-15.54ZM144.29-15.88L144.29-15.88 140.7-15.88Q140.88-23.56 150.1-23.56L150.1-23.56Q158.29-23.22 158.46-17.08L158.46-17.08 158.46-3.93Q158.46-2.56 159.83-2.56L159.83-2.56Q160-2.56 160.34-2.56L160.34-2.56Q160.85-2.73 161.2-2.73L161.2-2.73 161.2 0Q160.85 0 160.34 0L160.34 0Q159.49 0.17 158.98 0.17L158.98 0.17Q154.88 0.17 155.05-3.07L155.05-3.07Q151.63 0.34 146.68 0.34L146.68 0.34Q139.85 0 139.51-5.98L139.51-5.98Q139.68-12.12 146.51-13.15L146.51-13.15 152.83-13.83Q154.88-14.17 154.88-16.56L154.88-16.56Q154.88-20.32 149.41-20.32L149.41-20.32Q144.63-20.32 144.29-15.88ZM154.71-7.85L154.71-7.85 154.71-11.61Q153.34-10.76 148.39-10.07L148.39-10.07Q143.61-9.73 143.61-6.49L143.61-6.49Q143.61-2.56 147.53-2.56L147.53-2.56Q154.19-3.07 154.71-7.85ZM168.37-10.25L168.37-10.25Q168.54-3.07 174.69-2.56L174.69-2.56Q180.66-2.73 180.83-11.44L180.83-11.44Q181-19.98 174.51-19.98L174.51-19.98Q168.37-19.98 168.37-10.25ZM168.54 8.71L164.78 8.71 164.78-22.88 168.37-22.88 168.37-19.64 168.54-19.64Q168.54-19.64 168.71-19.81L168.71-19.81Q171.1-23.56 175.2-23.56L175.2-23.56Q184.25-23.05 184.76-12.12L184.76-12.12Q184.25 0 174.69 0.34L174.69 0.34Q170.76 0.34 168.71-2.39L168.71-2.39 168.54-2.39 168.54 8.71ZM192.61-10.25L192.61-10.25Q192.79-3.07 198.93-2.56L198.93-2.56Q204.91-2.73 205.08-11.44L205.08-11.44Q205.25-19.98 198.76-19.98L198.76-19.98Q192.61-19.98 192.61-10.25ZM192.79 8.71L189.03 8.71 189.03-22.88 192.61-22.88 192.61-19.64 192.79-19.64Q192.79-19.64 192.96-19.81L192.96-19.81Q195.35-23.56 199.45-23.56L199.45-23.56Q208.5-23.05 209.01-12.12L209.01-12.12Q208.5 0 198.93 0.34L198.93 0.34Q195.01 0.34 192.96-2.39L192.96-2.39 192.79-2.39 192.79 8.71ZM214.47-4.61L219.08-4.61 219.08 0 214.47 0 214.47-4.61ZM243.67-15.03L243.67-15.03 239.91-15.03Q239.4-19.98 234.62-19.98L234.62-19.98Q228.47-19.64 228.13-11.44L228.13-11.44Q228.13-2.56 234.45-2.56L234.45-2.56Q239.06-2.9 239.91-8.03L239.91-8.03 243.67-8.03Q242.31 0.17 234.45 0.34L234.45 0.34Q224.55 0 224.2-10.76L224.2-10.76Q224.55-23.22 235.13-23.56L235.13-23.56Q242.65-23.39 243.67-15.03ZM246.23-11.44L246.23-11.44Q246.92-23.05 256.82-23.56L256.82-23.56Q266.72-23.05 267.41-11.44L267.41-11.44Q266.72 0 256.82 0.34L256.82 0.34Q246.92 0 246.23-11.44ZM250.16-11.44L250.16-11.44Q250.67-2.9 256.82-2.73L256.82-2.73Q262.97-2.9 263.48-11.44L263.48-11.44Q262.97-19.98 256.82-20.15L256.82-20.15Q250.67-19.98 250.16-11.44ZM275.6 0L271.68 0 271.68-22.88 275.43-22.88 275.43-19.64Q277.99-23.56 282.43-23.56L282.43-23.56Q286.36-23.56 288.24-19.98L288.24-19.98Q288.41-19.81 288.41-19.81L288.41-19.81Q291.48-23.74 295.41-23.56L295.41-23.56Q302.41-23.05 302.58-15.71L302.58-15.71 302.58 0 298.66 0 298.66-14.69Q298.83-20.15 294.39-19.98L294.39-19.98Q289.61-19.47 289.09-13.83L289.09-13.83 289.09 0 285.17 0 285.17-15.71Q285.17-19.98 281.58-19.98L281.58-19.98Q275.77-19.64 275.6-12.47L275.6-12.47 275.6 0Z" transform="translate(-1.3700000047683716, 31.25)"/>
					</g>
				</g>
			</g>
			<g data-gra="path-slogan" fill-rule="" class="tp-slogan" transform="translate(88.0602912902832,40.3656005859375)">
				<g transform="scale(1, 1)">
					<g transform="scale(1)">
						<path d="M2.39-9.19L3.56-9.56Q3.89-9.14 4.31-8.02L4.31-8.02L3.19-7.64Q3-8.30 2.39-9.19L2.39-9.19ZM7.03-9.52L7.03-9.52Q7.17-9.52 7.50-9.52L7.50-9.52Q8.44-9.56 8.44-9.42L8.44-9.42Q8.44-9.42 8.39-9.38L8.39-9.38Q8.16-9.14 8.16-8.86L8.16-8.86L8.16-1.13Q8.16-1.08 8.16-1.03L8.16-1.03Q8.11-0.14 8.63-0.09L8.63-0.09Q8.67-0.09 8.77-0.09L8.77-0.09Q9.66-0.05 9.94-0.19L9.94-0.19Q10.45-0.47 10.41-1.59L10.41-1.59Q10.97-0.94 11.63-0.80L11.63-0.80Q11.25 0.47 10.88 0.61L10.88 0.61Q9.80 1.03 8.11 0.80L8.11 0.80Q7.08 0.61 7.13-0.23L7.13-0.23L7.13-8.53Q7.13-9.23 7.03-9.52ZM5.86-7.41L5.86-7.41Q5.06-5.77 3.89-4.22L3.89-4.22L3.89-0.09Q3.89 0.75 3.98 1.22L3.98 1.22L2.81 1.22Q2.91 0.80 2.91-0.09L2.91-0.09L2.91-3.28Q2.58-2.86 1.22-1.64L1.22-1.64Q1.08-2.20 0.52-2.72L0.52-2.72Q2.67-3.80 4.27-6.38L4.27-6.38L2.20-6.38Q1.22-6.38 0.66-6.28L0.66-6.28L0.66-7.41Q1.17-7.31 2.20-7.31L2.20-7.31L4.31-7.31Q5.30-7.31 5.86-7.41ZM4.08-3.56L4.97-4.13Q5.72-3.42 6.23-2.72L6.23-2.72L5.34-2.02Q4.73-3 4.08-3.56L4.08-3.56ZM15.80-8.25L15.80-6.23L20.16-6.23L20.16-8.25L15.80-8.25ZM21.84-3.42L19.45-3.42L19.45-0.94L21.84-0.94L21.84-3.42ZM16.41-3.42L14.20-3.42L14.20-0.94L16.41-0.94L16.41-3.42ZM21.19-9.23L21.19-9.23Q21.19-9.23 21.14-8.30L21.14-8.30L21.14-6.14Q21.14-5.91 21.19-5.53L21.19-5.53Q21.19-5.34 21.19-5.25L21.19-5.25L20.06-5.30L15.84-5.30Q15.28-5.30 14.77-5.25L14.77-5.25Q14.81-5.48 14.81-6.09L14.81-6.09L14.81-8.30Q14.81-9.23 14.77-9.23L14.77-9.23Q15.23-9.19 15.80-9.19L15.80-9.19L20.11-9.19Q20.86-9.19 21.19-9.23ZM22.92-4.36L22.92-4.36Q22.88-3.94 22.88-3.47L22.88-3.47L22.88-0.09Q22.88 0.66 22.92 0.70L22.92 0.70L21.80 0.70Q21.80 0.70 21.80 0.61L21.80 0.61Q21.84 0.19 21.84-0.05L21.84-0.05L19.45-0.05Q19.45 0.75 19.55 0.84L19.55 0.84L18.42 0.84Q18.42 0.84 18.42 0.75L18.42 0.75Q18.47 0.28 18.47-0.05L18.47-0.05L18.47-3.47Q18.47-4.08 18.42-4.36L18.42-4.36Q18.70-4.31 19.41-4.31L19.41-4.31L21.84-4.31Q21.94-4.31 22.27-4.31L22.27-4.31Q22.73-4.36 22.92-4.36ZM17.48-4.36L17.48-4.36Q17.48-4.36 17.44-3.38L17.44-3.38L17.44-0.05Q17.44 0.56 17.48 0.75L17.48 0.75L16.36 0.75Q16.36 0.70 16.36 0.52L16.36 0.52Q16.41 0.14 16.41-0.05L16.41-0.05L14.20-0.05Q14.20 0.47 14.30 0.84L14.30 0.84L13.13 0.84Q13.13 0.84 13.13 0.70L13.13 0.70Q13.17 0.19 13.17-0.05L13.17-0.05L13.17-3.42Q13.17-4.08 13.13-4.36L13.13-4.36Q13.31-4.31 14.16-4.31L14.16-4.31L16.41-4.31Q16.97-4.31 17.48-4.36ZM29.25-9.75L29.25-9.75Q30.05-9.75 30.42-9.70L30.42-9.70Q30.70-9.66 30.52-9.33L30.52-9.33Q30.33-9.05 30.33-8.81L30.33-8.81L30.33-7.88L32.63-7.88Q33.70-7.88 34.03-7.97L34.03-7.97L34.03-6.89Q33.66-6.98 32.63-6.98L32.63-6.98L30.38-6.98L30.38-5.20L34.03-5.20Q34.88-5.20 35.34-5.30L35.34-5.30L35.34-4.17Q34.97-4.27 34.08-4.27L34.08-4.27L30.38-4.27L30.38-2.95L30.80-3.56Q32.20-2.81 33.80-1.50L33.80-1.50L32.95-0.56Q32.20-1.31 30.38-2.44L30.38-2.44L30.38-0.28Q30.38 0.80 30.47 1.17L30.47 1.17L29.20 1.17Q29.30 0.84 29.30-0.28L29.30-0.28L29.30-4.27L26.20-4.27Q25.22-4.27 24.75-4.17L24.75-4.17L24.75-5.30Q25.17-5.20 26.30-5.20L26.30-5.20L29.30-5.20L29.30-8.67Q29.30-9.28 29.25-9.70L29.25-9.70Q29.25-9.75 29.25-9.75ZM37.97-9.61L37.97-9.61Q39.09-9.61 39.14-9.47L39.14-9.47Q39.14-9.38 39.05-9.23L39.05-9.23Q38.86-8.95 38.86-8.58L38.86-8.58L38.86-7.17L39.28-7.17Q40.08-7.17 40.45-7.27L40.45-7.27L40.45-6.28Q40.13-6.38 39.23-6.38L39.23-6.38L38.86-6.38L38.86-4.36Q39.33-4.55 40.17-5.02L40.17-5.02L40.17-3.94L38.86-3.38L38.86-0.33Q38.95 0.89 37.17 1.03L37.17 1.03Q37.03 0.28 36.75-0.09L36.75-0.09Q38.16 0.14 38.06-0.84L38.06-0.84L38.06-3.14Q37.92-3.05 37.69-2.95L37.69-2.95Q37.08-2.63 36.70-2.30L36.70-2.30L36.42-3.56Q37.36-3.70 38.06-4.13L38.06-4.13L38.06-6.38L37.59-6.38Q36.84-6.38 36.42-6.28L36.42-6.28L36.42-7.27Q36.89-7.17 37.59-7.17L37.59-7.17L38.06-7.17L38.06-8.58Q38.06-9.14 37.97-9.56L37.97-9.56Q37.97-9.61 37.97-9.61ZM46.45-9.33L46.45-9.33Q46.45-9.28 46.45-9.14L46.45-9.14Q46.41-8.67 46.41-8.20L46.41-8.20L46.41-6.09Q46.45-5.02 46.45-5.02L46.45-5.02Q46.41-5.02 46.31-5.02L46.31-5.02Q45.84-5.06 45.23-5.06L45.23-5.06L42.23-5.06Q41.58-5.06 41.06-5.02L41.06-5.02Q40.97-5.02 40.97-5.02L40.97-5.02Q41.06-5.53 41.06-6.09L41.06-6.09L41.06-8.25Q41.06-8.81 40.97-9.33L40.97-9.33Q41.25-9.23 42.19-9.23L42.19-9.23L45.23-9.23Q45.98-9.23 46.45-9.33ZM45.52-8.48L41.95-8.48L41.95-7.59L45.52-7.59L45.52-8.48ZM45.52-6.75L41.95-6.75L41.95-5.86L45.52-5.86L45.52-6.75ZM40.45-3.47L40.45-4.45Q41.02-4.36 42.09-4.36L42.09-4.36L45.66-4.36Q46.78-4.36 47.30-4.45L47.30-4.45L47.30-3.47Q46.73-3.56 45.66-3.56L45.66-3.56L44.25-3.56L44.25-2.53L45.19-2.53Q46.08-2.53 46.59-2.63L46.59-2.63L46.59-1.69Q46.08-1.78 45.19-1.78L45.19-1.78L44.25-1.78L44.25-0.28Q45.05-0.09 47.53-0.28L47.53-0.28L47.06 0.80Q44.72 0.84 43.59 0.47L43.59 0.47Q42.56 0.14 41.44-0.98L41.44-0.98Q40.92 0 40.31 0.94L40.31 0.94L39.33 0.42Q40.64-0.75 41.20-3.14L41.20-3.14Q41.34-3.09 41.63-3L41.63-3Q42.38-2.77 42.33-2.72L42.33-2.72Q42.33-2.67 42.23-2.53L42.23-2.53Q41.95-2.25 41.77-1.69L41.77-1.69Q42.19-1.08 43.31-0.52L43.31-0.52L43.31-3.56L42.14-3.56Q41.02-3.56 40.45-3.47L40.45-3.47ZM51.80-9.66L51.80-9.66Q53.02-9.14 53.02-8.91L53.02-8.91Q53.02-8.86 52.88-8.81L52.88-8.81Q52.31-8.48 51.70-7.73L51.70-7.73L51.70-6.23Q51.70-5.25 51.80-4.55L51.80-4.55L50.67-4.55Q50.72-4.88 50.72-5.95L50.72-5.95Q50.77-6.42 50.77-6.70L50.77-6.70L49.50-5.44Q49.22-5.72 48.56-6.14L48.56-6.14Q50.67-7.59 51.80-9.66ZM54.23-9.52L54.23-9.52Q55.45-9.47 55.45-9.28L55.45-9.28Q55.45-9.19 55.36-9.05L55.36-9.05Q55.22-8.77 55.22-8.53L55.22-8.53L55.22-7.45Q56.67-8.20 57.66-9L57.66-9Q58.64-8.30 58.64-8.06L58.64-8.06Q58.64-8.02 58.45-7.97L58.45-7.97Q58.22-7.92 58.03-7.88L58.03-7.88Q57.70-7.73 57.14-7.50L57.14-7.50Q56.06-7.03 55.27-6.70L55.27-6.70L55.27-5.91Q55.03-5.48 56.53-5.53L56.53-5.53Q58.03-5.30 58.13-6.84L58.13-6.84Q58.64-6.38 59.20-6.19L59.20-6.19Q58.78-5.06 58.41-4.88L58.41-4.88Q58.08-4.64 56.58-4.69L56.58-4.69Q53.91-4.59 54.33-5.44L54.33-5.44L54.33-6.38Q54.28-6.38 54.23-6.33L54.23-6.33Q53.44-6 52.73-5.77L52.73-5.77Q52.64-6.23 52.17-6.66L52.17-6.66Q53.44-6.89 54.28-7.17L54.28-7.17L54.28-8.53Q54.28-9.19 54.23-9.52ZM53.44-2.72L53.44-2.72Q54.61-2.48 54.66-2.34L54.66-2.34Q54.66-2.25 54.56-2.11L54.56-2.11Q54.42-1.97 54.38-1.78L54.38-1.78Q54.19 0.47 49.50 1.03L49.50 1.03Q49.22 0.42 48.70-0.05L48.70-0.05Q53.67 0.23 53.44-2.72ZM54.56-0.56L55.17-1.31Q57.38-0.61 58.92 0.19L58.92 0.19L58.08 1.13Q56.81 0.19 54.56-0.56L54.56-0.56ZM50.53-4.13L50.53-4.13Q50.86-3.98 52.83-3.98L52.83-3.98L56.06-3.98Q56.72-3.98 57.70-4.08L57.70-4.08Q57.56-3.38 57.61-2.72L57.61-2.72Q57.61-1.97 57.66-1.17L57.66-1.17L56.58-1.17Q56.72-1.69 56.72-3.28L56.72-3.28L51.47-3.28Q51.52-1.08 51.52-1.08L51.52-1.08L50.44-1.08Q50.58-1.50 50.58-2.77L50.58-2.77Q50.58-3.66 50.53-4.13ZM69.80-9.23L69.80-9.23Q69.84-9.14 69.98-8.95L69.98-8.95Q70.55-8.11 70.45-8.11L70.45-8.11Q69.19-8.11 65.72-7.78L65.72-7.78Q66.42-7.50 66.56-7.36L66.56-7.36Q66.56-7.31 66.28-7.22L66.28-7.22Q65.86-7.08 65.63-6.89L65.63-6.89Q65.34-6.70 64.55-6.19L64.55-6.19Q64.03-5.86 63.70-5.67L63.70-5.67L66.80-5.86Q67.92-6.70 68.44-7.27L68.44-7.27Q69.33-6.70 69.47-6.52L69.47-6.52Q69.47-6.47 69.28-6.38L69.28-6.38Q68.86-6.19 68.48-5.95L68.48-5.95Q68.44-5.91 68.30-5.81L68.30-5.81Q65.91-4.27 63.98-3.52L63.98-3.52L68.81-3.70Q67.78-4.41 67.73-4.41L67.73-4.41L68.48-5.11Q70.17-3.84 71.02-3L71.02-3L70.22-2.25Q69.94-2.67 69.52-3L69.52-3L66.75-2.86L66.75-0.14Q67.13 0.80 64.88 0.89L64.88 0.89Q64.78 0.33 64.59-0.05L64.59-0.05Q64.55-0.14 64.55-0.14L64.55-0.14Q65.91 0 65.77-0.61L65.77-0.61L65.77-2.81L63.61-2.72Q63.47-2.72 63.23-2.67L63.23-2.67Q62.48-2.63 62.11-2.53L62.11-2.53L61.78-3.56Q62.86-3.61 65.72-5.16L65.72-5.16Q63.38-5.02 62.77-4.78L62.77-4.78L62.20-5.77Q63.84-6.47 65.16-7.73L65.16-7.73L61.92-7.36Q61.83-7.69 61.64-8.06L61.64-8.06Q61.50-8.30 61.41-8.44L61.41-8.44Q65.77-8.44 69.80-9.23ZM67.78-1.50L68.53-2.20Q69.09-1.83 70.55-0.70L70.55-0.70Q70.88-0.42 71.02-0.33L71.02-0.33L70.13 0.42Q68.91-0.84 67.78-1.50L67.78-1.50ZM63.61-2.20L63.61-2.20L64.50-1.59Q62.86 0 62.20 0.47L62.20 0.47Q61.83 0 61.27-0.14L61.27-0.14Q62.63-1.03 63.61-2.20ZM79.13-9.61L79.97-9.84Q80.34-8.95 80.53-8.34L80.53-8.34L79.69-8.11Q79.64-8.72 79.13-9.61L79.13-9.61ZM74.39-9.52L74.39-9.52Q74.58-9.42 74.91-9.33L74.91-9.33Q75.56-9.05 75.56-8.95L75.56-8.95Q75.61-8.86 75.28-8.58L75.28-8.58Q75.09-8.44 75.05-8.39L75.05-8.39Q74.48-7.55 73.55-5.95L73.55-5.95L75.33-6L75.84-7.03Q76.03-6.94 76.36-6.75L76.36-6.75Q76.92-6.52 76.88-6.42L76.88-6.42Q76.88-6.38 76.73-6.28L76.73-6.28Q76.45-6.05 76.27-5.77L76.27-5.77Q75.84-5.11 74.67-3.56L74.67-3.56Q74.25-3.09 74.06-2.81L74.06-2.81Q74.39-2.91 75-3L75-3Q75.98-3.23 76.69-3.38L76.69-3.38L76.50-2.44Q74.34-2.16 73.13-1.78L73.13-1.78L72.75-2.86Q73.78-3.52 74.91-5.30L74.91-5.30L73.78-5.25Q73.31-5.20 72.84-5.06L72.84-5.06L72.47-6.05Q73.55-7.13 74.39-9.52ZM83.30-8.02L83.30-8.02L83.30-7.03Q82.69-7.13 81.98-7.13L81.98-7.13L78.05-7.13Q77.44-7.13 76.69-7.03L76.69-7.03L76.69-8.02Q77.34-7.92 78.14-7.92L78.14-7.92L81.98-7.92Q82.50-7.92 83.30-8.02ZM76.88-1.36L76.88-1.36L76.78-0.38Q74.39-0.05 72.80 0.38L72.80 0.38L72.52-0.56Q74.34-0.75 76.88-1.36ZM78.98-7.03L78.98-7.03Q79.31-6.80 79.64-6.61L79.64-6.61Q79.83-6.52 79.92-6.47L79.92-6.47Q79.92-6.42 79.73-6.28L79.73-6.28Q78.89-5.58 77.95-4.55L77.95-4.55L81.38-4.69Q80.86-5.44 80.53-5.67L80.53-5.67L81.33-6.23Q81.42-6.09 81.80-5.67L81.80-5.67Q82.97-4.22 83.20-3.89L83.20-3.89L82.27-3.23Q82.22-3.56 81.89-3.98L81.89-3.98L80.81-3.98L80.81-0.33Q80.77 0.09 81.28 0.05L81.28 0.05L81.75 0.05Q82.36 0.19 82.45-1.03L82.45-1.03Q82.73-0.66 83.44-0.42L83.44-0.42Q83.16 0.98 82.27 0.94L82.27 0.94L80.72 0.94Q79.97 0.94 79.97 0.05L79.97 0.05L79.97-3.89L79.13-3.89Q79.13-1.50 78.66-0.56L78.66-0.56Q78.33 0.33 76.92 1.22L76.92 1.22Q76.59 0.94 75.98 0.66L75.98 0.66Q75.84 0.56 75.84 0.56L75.84 0.56Q77.39 0 77.77-0.80L77.77-0.80Q78.23-1.59 78.23-3.80L78.23-3.80Q78.19-3.80 78.09-3.80L78.09-3.80Q77.77-3.75 77.11-3.61L77.11-3.61L76.73-4.64Q77.48-5.02 78.98-7.03Z" transform="translate(-0.515625, 9.84375)"/>
					</g>
				</g>
			</g>
		</g>
	</mask>
	<defs v-gra="od"/>
</svg>