<svg data-v-0dd9719b="" version="1.0" xmlns="http://www.w3.org/2000/svg" xmlns:xlink="http://www.w3.org/1999/xlink" width="100%" height="100%" viewBox="0 0 340.000000 250.000000" preserveAspectRatio="xMidYMid meet" color-interpolation-filters="sRGB" style="margin: auto;"> <rect data-v-0dd9719b="" x="0" y="0" width="100%" height="100%" fill="#ffffff" fill-opacity="1" class="background"></rect> <rect data-v-0dd9719b="" x="0" y="0" width="100%" height="100%" fill="url(#watermark)" fill-opacity="1" class="watermarklayer"></rect> <g data-v-0dd9719b="" fill="#cc2229" class="iconbordersvg" transform="translate(56.87870788574219,97.20000267028809)"><g data-gra="graph-icon-name"><g><rect data-gra="graph-name-bg" stroke-width="2" class="i-icon-bg" x="0" y="0" width="226.24258422851562" height="55.59999465942383" fill-opacity="0" stroke="rgb(204, 34, 41)"></rect> <!----> <!----> </g> <g transform="translate(0,0)"><g data-gra="graph-icon" transform="translate(0,0)"><g><rect data-gra="graph-name-bg" stroke-width="2" class="i-icon-bg" x="0" y="0" width="55.599998474121094" height="55.599998474121094" fill-opacity="0"></rect> <!----> <!----> </g> <g transform="translate(5,5)"><g class="iconsvg-imagesvg"><g><!----> <svg filter="url(#colors1244964637)" x="0" y="0" width="45.59999999999999" height="45.59999999999999" filtersec="colorsf5729304826" class="image-svg-svg primary" style="overflow: visible;"><svg xmlns="http://www.w3.org/2000/svg" viewBox="0.7999999999999998 0.7999999999999998 95.39999 95.39999"><path d="M48.5 94.2L2.8 48.5 48.5 2.8l45.7 45.7-45.7 45.7zm22.9-68.5L25.7 71.4m60.9-15.3L71.4 40.9 33.3 79M79 63.8l-7.6-7.6-30.5 30.4M10.4 40.9l15.2 15.2L63.7 18M18.1 33.3l7.6 7.6 30.5-30.5" fill="none" stroke="#333" stroke-width="4" stroke-miterlimit="10"></path></svg></svg> <defs><filter id="colors1244964637"><feColorMatrix type="matrix" values="0 0 0 0 0.3125  0 0 0 0 0.3671875  0 0 0 0 0.5234375  0 0 0 1 0" class="icon-fecolormatrix"></feColorMatrix></filter> <filter id="colorsf5729304826"><feColorMatrix type="matrix" values="0 0 0 0 0.99609375  0 0 0 0 0.99609375  0 0 0 0 0.99609375  0 0 0 1 0" class="icon-fecolormatrix"></feColorMatrix></filter> <filter id="colorsb7596763740"><feColorMatrix type="matrix" values="0 0 0 0 0  0 0 0 0 0  0 0 0 0 0  0 0 0 1 0" class="icon-fecolormatrix"></feColorMatrix></filter></defs></g></g></g></g> <g data-gra="graph-name" transform="translate(55.59999465942383,0)" mask="url(#ae97d3c9-c102-4633-a7fc-659603bb094b)"><g><rect data-gra="graph-name-bg" stroke-width="2" class="i-icon-bg" x="0" y="0" width="170.64259338378906" height="55.599998474121094" fill-opacity="1"></rect> <!----> <!----> </g> <g transform="translate(5,10.082023620605469)"><g data-gra="path-name" fill-rule="" class="tp-name" transform="translate(0,0)"><g transform="scale(0.5799999999999998)"><g><path d="M17.93-31.25L21.69-31.25 21.69 0 18.1 0 18.1-3.07Q16.05 0.34 11.61 0.34L11.61 0.34Q2.05 0 1.54-12.12L1.54-12.12Q2.05-23.05 11.1-23.56L11.1-23.56Q14.69-23.56 17.59-20.15L17.59-20.15Q17.76-19.81 17.93-19.64L17.93-19.64 17.93-19.81 17.93-31.25ZM5.46-11.44L5.46-11.44Q5.81-2.9 11.61-2.56L11.61-2.56Q17.76-3.24 17.93-10.25L17.93-10.25Q17.93-19.98 11.78-19.98L11.78-19.98Q5.29-19.98 5.46-11.44ZM30.57-15.88L30.57-15.88 26.98-15.88Q27.15-23.56 36.37-23.56L36.37-23.56Q44.57-23.22 44.74-17.08L44.74-17.08 44.74-3.93Q44.74-2.56 46.1-2.56L46.1-2.56Q46.28-2.56 46.62-2.56L46.62-2.56Q47.13-2.73 47.47-2.73L47.47-2.73 47.47 0Q47.13 0 46.62 0L46.62 0Q45.76 0.17 45.25 0.17L45.25 0.17Q41.15 0.17 41.32-3.07L41.32-3.07Q37.91 0.34 32.96 0.34L32.96 0.34Q26.13 0 25.78-5.98L25.78-5.98Q25.96-12.12 32.79-13.15L32.79-13.15 39.1-13.83Q41.15-14.17 41.15-16.56L41.15-16.56Q41.15-20.32 35.69-20.32L35.69-20.32Q30.91-20.32 30.57-15.88ZM40.98-7.85L40.98-7.85 40.98-11.61Q39.62-10.76 34.66-10.07L34.66-10.07Q29.88-9.73 29.88-6.49L29.88-6.49Q29.88-2.56 33.81-2.56L33.81-2.56Q40.47-3.07 40.98-7.85ZM68.47-22.88L68.47-19.64 54.98-3.07 68.99-3.07 68.99 0 49.86 0 49.86-2.9 63.52-19.64 50.89-19.64 50.89-22.88 68.47-22.88ZM91.7-15.54L91.7-15.54 91.7 0 87.94 0 87.94-14.86Q88.11-20.15 83.33-19.98L83.33-19.98Q77.18-19.81 77.01-12.47L77.01-12.47 77.01 0 73.08 0 73.08-31.25 77.01-31.25 77.01-19.81 77.18-19.81Q79.91-23.56 83.84-23.56L83.84-23.56Q91.53-23.39 91.7-15.54ZM100.92-15.88L100.92-15.88 97.33-15.88Q97.5-23.56 106.72-23.56L106.72-23.56Q114.92-23.22 115.09-17.08L115.09-17.08 115.09-3.93Q115.09-2.56 116.46-2.56L116.46-2.56Q116.63-2.56 116.97-2.56L116.97-2.56Q117.48-2.73 117.82-2.73L117.82-2.73 117.82 0Q117.48 0 116.97 0L116.97 0Q116.12 0.17 115.6 0.17L115.6 0.17Q111.5 0.17 111.68-3.07L111.68-3.07Q108.26 0.34 103.31 0.34L103.31 0.34Q96.48 0 96.14-5.98L96.14-5.98Q96.31-12.12 103.14-13.15L103.14-13.15 109.46-13.83Q111.5-14.17 111.5-16.56L111.5-16.56Q111.5-20.32 106.04-20.32L106.04-20.32Q101.26-20.32 100.92-15.88ZM111.33-7.85L111.33-7.85 111.33-11.61Q109.97-10.76 105.02-10.07L105.02-10.07Q100.23-9.73 100.23-6.49L100.23-6.49Q100.23-2.56 104.16-2.56L104.16-2.56Q110.82-3.07 111.33-7.85ZM139.85-22.88L132.17-11.78 140.19 0 135.41 0 129.61-8.54 124.14 0 119.36 0 127.39-11.78 119.7-22.88 124.65-22.88 129.95-14.69 135.24-22.88 139.85-22.88ZM143.61-22.88L147.53-22.88 147.53 0 143.61 0 143.61-22.88ZM147.53-31.25L147.53-26.98 143.61-26.98 143.61-31.25 147.53-31.25ZM168.71-7.17L168.71-7.17 172.47-7.17Q171.78-3.24 168.37-0.85L168.37-0.85Q166.49 0.34 162.22 0.34L162.22 0.34Q152.49 0 151.97-10.76L151.97-10.76Q152.32-23.22 162.9-23.56L162.9-23.56Q172.64-23.39 172.81-10.07L172.81-10.07 156.07-10.07Q156.07-2.56 162.73-2.56L162.73-2.56Q167.51-2.9 168.71-7.17ZM156.07-13.15L156.07-13.15 168.88-13.15Q168.37-19.98 162.39-19.98L162.39-19.98Q156.76-19.47 156.07-13.15ZM178.27-4.61L182.88-4.61 182.88 0 178.27 0 178.27-4.61ZM202.35-17.76L202.18-17.76 197.91 0 193.81 0 187.32-22.88 191.42-22.88 195.69-4.78 195.86-4.78 200.3-22.88 204.57-22.88 209.01-4.78 209.18-4.78 213.62-22.88 217.55-22.88 210.89 0 206.96 0 202.35-17.76ZM219.59-11.44L219.59-11.44Q220.28-23.05 230.18-23.56L230.18-23.56Q240.09-23.05 240.77-11.44L240.77-11.44Q240.09 0 230.18 0.34L230.18 0.34Q220.28 0 219.59-11.44ZM223.52-11.44L223.52-11.44Q224.03-2.9 230.18-2.73L230.18-2.73Q236.33-2.9 236.84-11.44L236.84-11.44Q236.33-19.98 230.18-20.15L230.18-20.15Q224.03-19.98 223.52-11.44ZM249.48-13.32L249.48-13.32 249.48 0 245.55 0 245.55-22.88 249.31-22.88 249.31-18.95Q251.87-23.56 255.8-23.56L255.8-23.56Q256.14-23.56 256.48-23.39L256.48-23.39Q256.65-23.39 256.82-23.39L256.82-23.39 256.82-19.3 255.28-19.3Q249.82-18.95 249.48-13.32ZM277.99-22.88L269.28-14.34 278.51 0 273.55 0 266.38-11.61 263.31-8.54 263.31 0 259.55 0 259.55-31.25 263.31-31.25 263.31-13.15 273.21-22.88 277.99-22.88Z" transform="translate(-1.5399999618530273, 31.25)"></path></g> <!----> <!----> <!----> <!----> <!----> <!----> <!----></g></g> <g data-gra="path-slogan" fill-rule="" class="tp-slogan" fill="" transform="translate(38.79129409790039,24.32219886779785)"><!----> <!----> <g transform="scale(1, 1)"><g transform="scale(1)"><path d="M5.30-9.61L5.30-9.61Q6.70-9.61 6.70-9.42L6.70-9.42Q6.70-9.33 6.61-9.19L6.61-9.19Q6.38-8.77 6.38-8.06L6.38-8.06L6.38-6.42L8.58-6.42Q10.27-6.42 10.83-6.52L10.83-6.52L10.83-5.34Q10.17-5.44 8.58-5.44L8.58-5.44L6.56-5.44Q7.41-1.13 11.39-0.23L11.39-0.23Q10.73 0.05 10.17 0.89L10.17 0.89Q6.61-1.03 6.05-4.22L6.05-4.22Q5.63-0.66 1.55 1.08L1.55 1.08Q1.17 0.56 0.38 0.09L0.38 0.09Q4.83-0.98 5.34-5.44L5.34-5.44L2.81-5.44Q1.45-5.44 0.94-5.34L0.94-5.34L0.94-6.52Q1.50-6.42 2.86-6.42L2.86-6.42L5.39-6.42L5.39-8.44Q5.39-9.05 5.30-9.52L5.30-9.52Q5.30-9.56 5.30-9.61ZM14.16-9.14L15.14-9.61Q15.80-8.67 16.22-7.83L16.22-7.83L15.19-7.31Q14.81-8.39 14.16-9.14L14.16-9.14ZM16.92-7.78L16.92-8.86Q17.30-8.77 18.47-8.77L18.47-8.77L21.09-8.77Q22.22-8.81 22.69-8.86L22.69-8.86Q22.59-8.39 22.59-7.08L22.59-7.08L22.59-0.19Q22.64 0.52 22.27 0.70L22.27 0.70Q22.03 0.89 20.53 1.08L20.53 1.08Q20.58 0.38 20.06-0.09L20.06-0.09Q21.80 0.09 21.56-0.47L21.56-0.47L21.56-7.92L18.52-7.92Q17.48-7.88 16.92-7.78L16.92-7.78ZM13.41-7.27L13.41-7.27Q14.77-7.17 14.77-7.08L14.77-7.08Q14.77-7.08 14.72-6.98L14.72-6.98Q14.44-6.56 14.44-5.44L14.44-5.44L14.44-0.94Q14.44 0 14.53 0.84L14.53 0.84L13.36 0.84Q13.45 0.56 13.45-0.98L13.45-0.98L13.45-5.53Q13.45-6.89 13.41-7.27ZM15.33-6.80L15.33-6.80Q15.61-6.75 16.92-6.75L16.92-6.75L18.98-6.75Q20.16-6.75 20.63-6.80L20.63-6.80Q20.58-6.38 20.58-5.53L20.58-5.53L20.58-3.61Q20.63-2.34 20.67-2.06L20.67-2.06Q20.34-2.11 19.50-2.06L19.50-2.06L18.38-2.06L18.38-0.70Q18.38 0 18.47 0.56L18.47 0.56L17.34 0.56Q17.48 0.09 17.48-0.70L17.48-0.70L17.48-2.06L16.64-2.06Q15.70-2.06 15.33-2.02L15.33-2.02Q15.42-2.58 15.42-3.38L15.42-3.38L15.42-5.58Q15.42-6.52 15.33-6.80ZM17.48-4.78L17.48-5.95L16.27-5.95L16.27-4.78L17.48-4.78ZM19.73-6L18.38-6L18.38-4.78L19.73-4.78L19.73-6ZM17.48-4.13L16.27-4.13L16.27-2.81L17.48-2.81L17.48-4.13ZM19.73-2.81L19.73-4.13L18.38-4.13L18.38-2.81L19.73-2.81ZM26.67-9.80L26.67-9.80Q27.80-9.61 27.80-9.47L27.80-9.47Q27.80-9.42 27.70-9.38L27.70-9.38Q27.38-9.19 27.09-8.81L27.09-8.81L28.41-8.81Q29.06-8.81 29.53-8.91L29.53-8.91L28.50-7.55Q29.63-7.55 30.19-7.59L30.19-7.59Q30.14-7.41 30.14-6.66L30.14-6.66L30.14-4.22Q30.14-3.52 29.63-3.33L29.63-3.33Q30.38-3.33 30.38-3.23L30.38-3.23Q30.38-3.19 30.33-3.09L30.33-3.09Q30.19-2.91 30.19-2.67L30.19-2.67L32.48-2.67Q32.30-2.67 33.28-2.67L33.28-2.67Q33.66-2.67 33.84-2.72L33.84-2.72Q33.70-1.59 33.84-0.61L33.84-0.61Q33.38-0.66 32.63-0.66L32.63-0.66L30.19-0.66L30.19 0.05L32.53 0.05L32.02-0.28L32.63-0.61Q33.42-0.09 34.50 0.75L34.50 0.75L33.75 1.27Q33.56 1.03 33.09 0.56L33.09 0.56Q32.25 0.61 30.80 0.66L30.80 0.66Q25.97 0.80 25.27 0.94L25.27 0.94Q25.22 0.52 24.98 0L24.98 0Q25.45 0.05 26.30 0.05L26.30 0.05Q26.91 0.05 29.39 0.05L29.39 0.05L29.39-0.66L26.91-0.66Q26.91-0.47 26.95-0.23L26.95-0.23L26.02-0.23Q26.16-1.64 26.02-2.72L26.02-2.72Q26.39-2.67 27.14-2.67L27.14-2.67L29.39-2.67Q29.39-3.05 29.34-3.23L29.34-3.23Q29.06-3.14 28.83-3.09L28.83-3.09Q28.73-3.56 28.45-3.94L28.45-3.94Q29.39-3.75 29.30-4.41L29.30-4.41L28.13-4.41L28.17-3.42L27.33-3.42Q27.38-3.84 27.38-4.41L27.38-4.41L26.25-4.41Q26.11-3.84 25.31-2.81L25.31-2.81Q24.94-3.14 24.38-3.28L24.38-3.28Q25.27-3.80 25.41-4.45L25.41-4.45Q25.59-5.02 25.59-7.27L25.59-7.27Q25.55-7.22 25.36-7.03L25.36-7.03Q25.17-6.89 25.13-6.84L25.13-6.84Q24.89-7.17 24.42-7.41L24.42-7.41Q25.92-8.39 26.67-9.80ZM28.13-8.25L26.63-8.25Q26.48-8.16 26.30-7.97L26.30-7.97Q26.06-7.69 25.88-7.59L25.88-7.59Q26.20-7.55 26.63-7.55L26.63-7.55L27.61-7.55Q27.70-7.64 27.84-7.83L27.84-7.83Q27.98-8.11 28.13-8.25L28.13-8.25ZM27.38-6.23L27.38-6.94L26.34-6.94L26.34-6.23L27.38-6.23ZM29.30-6.94L28.13-6.94L28.13-6.23L29.30-6.23L29.30-6.94ZM32.53-6.56L32.53-6.56Q33.56-6.47 33.56-6.42L33.56-6.42Q33.56-6.38 33.52-6.28L33.52-6.28Q33.38-6.09 33.38-5.86L33.38-5.86Q34.27-5.86 34.97-5.95L34.97-5.95L34.97-5.20Q34.41-5.25 33.38-5.25L33.38-5.25L33.38-4.45L33.89-4.45Q34.17-4.45 34.69-4.50L34.69-4.50Q34.97-4.55 35.11-4.55L35.11-4.55L35.11-3.80Q34.59-3.89 33.89-3.84L33.89-3.84L33.38-3.84Q33.38-3.28 33.42-2.91L33.42-2.91L32.53-2.91Q32.58-3.23 32.58-3.84L32.58-3.84L31.78-3.84Q30.94-3.84 30.47-3.80L30.47-3.80L30.47-4.59Q31.13-4.45 31.78-4.45L31.78-4.45L32.58-4.45L32.58-5.25L31.45-5.25Q31.41-5.11 31.22-4.88L31.22-4.88Q31.27-4.92 31.13-4.69L31.13-4.69Q30.75-4.92 30.47-4.92L30.47-4.92Q31.08-5.63 31.17-6.47L31.17-6.47Q31.45-6.42 31.78-6.33L31.78-6.33Q32.06-6.33 32.02-6.28L32.02-6.28Q32.06-6.23 31.97-6.14L31.97-6.14Q31.88-6 31.83-5.86L31.83-5.86L32.58-5.86Q32.58-6.33 32.53-6.56ZM27.38-5.63L26.34-5.63L26.34-5.02L27.38-5.02L27.38-5.63ZM29.30-5.63L28.13-5.63L28.13-5.02L29.30-5.02L29.30-5.63ZM29.39-2.06L26.91-2.06L26.91-1.27L29.39-1.27L29.39-2.06ZM32.91-2.06L30.19-2.06L30.19-1.27L32.91-1.27L32.91-2.06ZM30.23-6.94L30.23-6.94Q31.45-7.08 31.73-8.30L31.73-8.30Q30.84-8.30 30.42-8.20L30.42-8.20L30.42-9.05Q30.84-8.95 32.58-8.95L32.58-8.95Q34.41-8.95 34.83-9.05L34.83-9.05Q34.78-8.91 34.73-8.44L34.73-8.44Q34.64-7.83 34.55-7.55L34.55-7.55Q34.55-6.66 32.95-6.61L32.95-6.61Q32.95-6.84 32.67-7.41L32.67-7.41Q32.63-7.45 32.63-7.50L32.63-7.50Q33.89-7.08 33.89-8.30L33.89-8.30L32.48-8.30Q32.34-6.98 30.84-6.38L30.84-6.38Q30.61-6.61 30.23-6.94ZM37.97-9.61L37.97-9.61Q39.09-9.61 39.14-9.47L39.14-9.47Q39.14-9.38 39.05-9.23L39.05-9.23Q38.86-8.95 38.86-8.58L38.86-8.58L38.86-7.17L39.28-7.17Q40.08-7.17 40.45-7.27L40.45-7.27L40.45-6.28Q40.13-6.38 39.23-6.38L39.23-6.38L38.86-6.38L38.86-4.36Q39.33-4.55 40.17-5.02L40.17-5.02L40.17-3.94L38.86-3.38L38.86-0.33Q38.95 0.89 37.17 1.03L37.17 1.03Q37.03 0.28 36.75-0.09L36.75-0.09Q38.16 0.14 38.06-0.84L38.06-0.84L38.06-3.14Q37.92-3.05 37.69-2.95L37.69-2.95Q37.08-2.63 36.70-2.30L36.70-2.30L36.42-3.56Q37.36-3.70 38.06-4.13L38.06-4.13L38.06-6.38L37.59-6.38Q36.84-6.38 36.42-6.28L36.42-6.28L36.42-7.27Q36.89-7.17 37.59-7.17L37.59-7.17L38.06-7.17L38.06-8.58Q38.06-9.14 37.97-9.56L37.97-9.56Q37.97-9.61 37.97-9.61ZM46.45-9.33L46.45-9.33Q46.45-9.28 46.45-9.14L46.45-9.14Q46.41-8.67 46.41-8.20L46.41-8.20L46.41-6.09Q46.45-5.02 46.45-5.02L46.45-5.02Q46.41-5.02 46.31-5.02L46.31-5.02Q45.84-5.06 45.23-5.06L45.23-5.06L42.23-5.06Q41.58-5.06 41.06-5.02L41.06-5.02Q40.97-5.02 40.97-5.02L40.97-5.02Q41.06-5.53 41.06-6.09L41.06-6.09L41.06-8.25Q41.06-8.81 40.97-9.33L40.97-9.33Q41.25-9.23 42.19-9.23L42.19-9.23L45.23-9.23Q45.98-9.23 46.45-9.33ZM45.52-8.48L41.95-8.48L41.95-7.59L45.52-7.59L45.52-8.48ZM45.52-6.75L41.95-6.75L41.95-5.86L45.52-5.86L45.52-6.75ZM40.45-3.47L40.45-4.45Q41.02-4.36 42.09-4.36L42.09-4.36L45.66-4.36Q46.78-4.36 47.30-4.45L47.30-4.45L47.30-3.47Q46.73-3.56 45.66-3.56L45.66-3.56L44.25-3.56L44.25-2.53L45.19-2.53Q46.08-2.53 46.59-2.63L46.59-2.63L46.59-1.69Q46.08-1.78 45.19-1.78L45.19-1.78L44.25-1.78L44.25-0.28Q45.05-0.09 47.53-0.28L47.53-0.28L47.06 0.80Q44.72 0.84 43.59 0.47L43.59 0.47Q42.56 0.14 41.44-0.98L41.44-0.98Q40.92 0 40.31 0.94L40.31 0.94L39.33 0.42Q40.64-0.75 41.20-3.14L41.20-3.14Q41.34-3.09 41.63-3L41.63-3Q42.38-2.77 42.33-2.72L42.33-2.72Q42.33-2.67 42.23-2.53L42.23-2.53Q41.95-2.25 41.77-1.69L41.77-1.69Q42.19-1.08 43.31-0.52L43.31-0.52L43.31-3.56L42.14-3.56Q41.02-3.56 40.45-3.47L40.45-3.47ZM51.80-9.66L51.80-9.66Q53.02-9.14 53.02-8.91L53.02-8.91Q53.02-8.86 52.88-8.81L52.88-8.81Q52.31-8.48 51.70-7.73L51.70-7.73L51.70-6.23Q51.70-5.25 51.80-4.55L51.80-4.55L50.67-4.55Q50.72-4.88 50.72-5.95L50.72-5.95Q50.77-6.42 50.77-6.70L50.77-6.70L49.50-5.44Q49.22-5.72 48.56-6.14L48.56-6.14Q50.67-7.59 51.80-9.66ZM54.23-9.52L54.23-9.52Q55.45-9.47 55.45-9.28L55.45-9.28Q55.45-9.19 55.36-9.05L55.36-9.05Q55.22-8.77 55.22-8.53L55.22-8.53L55.22-7.45Q56.67-8.20 57.66-9L57.66-9Q58.64-8.30 58.64-8.06L58.64-8.06Q58.64-8.02 58.45-7.97L58.45-7.97Q58.22-7.92 58.03-7.88L58.03-7.88Q57.70-7.73 57.14-7.50L57.14-7.50Q56.06-7.03 55.27-6.70L55.27-6.70L55.27-5.91Q55.03-5.48 56.53-5.53L56.53-5.53Q58.03-5.30 58.13-6.84L58.13-6.84Q58.64-6.38 59.20-6.19L59.20-6.19Q58.78-5.06 58.41-4.88L58.41-4.88Q58.08-4.64 56.58-4.69L56.58-4.69Q53.91-4.59 54.33-5.44L54.33-5.44L54.33-6.38Q54.28-6.38 54.23-6.33L54.23-6.33Q53.44-6 52.73-5.77L52.73-5.77Q52.64-6.23 52.17-6.66L52.17-6.66Q53.44-6.89 54.28-7.17L54.28-7.17L54.28-8.53Q54.28-9.19 54.23-9.52ZM53.44-2.72L53.44-2.72Q54.61-2.48 54.66-2.34L54.66-2.34Q54.66-2.25 54.56-2.11L54.56-2.11Q54.42-1.97 54.38-1.78L54.38-1.78Q54.19 0.47 49.50 1.03L49.50 1.03Q49.22 0.42 48.70-0.05L48.70-0.05Q53.67 0.23 53.44-2.72ZM54.56-0.56L55.17-1.31Q57.38-0.61 58.92 0.19L58.92 0.19L58.08 1.13Q56.81 0.19 54.56-0.56L54.56-0.56ZM50.53-4.13L50.53-4.13Q50.86-3.98 52.83-3.98L52.83-3.98L56.06-3.98Q56.72-3.98 57.70-4.08L57.70-4.08Q57.56-3.38 57.61-2.72L57.61-2.72Q57.61-1.97 57.66-1.17L57.66-1.17L56.58-1.17Q56.72-1.69 56.72-3.28L56.72-3.28L51.47-3.28Q51.52-1.08 51.52-1.08L51.52-1.08L50.44-1.08Q50.58-1.50 50.58-2.77L50.58-2.77Q50.58-3.66 50.53-4.13ZM69.80-9.23L69.80-9.23Q69.84-9.14 69.98-8.95L69.98-8.95Q70.55-8.11 70.45-8.11L70.45-8.11Q69.19-8.11 65.72-7.78L65.72-7.78Q66.42-7.50 66.56-7.36L66.56-7.36Q66.56-7.31 66.28-7.22L66.28-7.22Q65.86-7.08 65.63-6.89L65.63-6.89Q65.34-6.70 64.55-6.19L64.55-6.19Q64.03-5.86 63.70-5.67L63.70-5.67L66.80-5.86Q67.92-6.70 68.44-7.27L68.44-7.27Q69.33-6.70 69.47-6.52L69.47-6.52Q69.47-6.47 69.28-6.38L69.28-6.38Q68.86-6.19 68.48-5.95L68.48-5.95Q68.44-5.91 68.30-5.81L68.30-5.81Q65.91-4.27 63.98-3.52L63.98-3.52L68.81-3.70Q67.78-4.41 67.73-4.41L67.73-4.41L68.48-5.11Q70.17-3.84 71.02-3L71.02-3L70.22-2.25Q69.94-2.67 69.52-3L69.52-3L66.75-2.86L66.75-0.14Q67.13 0.80 64.88 0.89L64.88 0.89Q64.78 0.33 64.59-0.05L64.59-0.05Q64.55-0.14 64.55-0.14L64.55-0.14Q65.91 0 65.77-0.61L65.77-0.61L65.77-2.81L63.61-2.72Q63.47-2.72 63.23-2.67L63.23-2.67Q62.48-2.63 62.11-2.53L62.11-2.53L61.78-3.56Q62.86-3.61 65.72-5.16L65.72-5.16Q63.38-5.02 62.77-4.78L62.77-4.78L62.20-5.77Q63.84-6.47 65.16-7.73L65.16-7.73L61.92-7.36Q61.83-7.69 61.64-8.06L61.64-8.06Q61.50-8.30 61.41-8.44L61.41-8.44Q65.77-8.44 69.80-9.23ZM67.78-1.50L68.53-2.20Q69.09-1.83 70.55-0.70L70.55-0.70Q70.88-0.42 71.02-0.33L71.02-0.33L70.13 0.42Q68.91-0.84 67.78-1.50L67.78-1.50ZM63.61-2.20L63.61-2.20L64.50-1.59Q62.86 0 62.20 0.47L62.20 0.47Q61.83 0 61.27-0.14L61.27-0.14Q62.63-1.03 63.61-2.20ZM79.13-9.61L79.97-9.84Q80.34-8.95 80.53-8.34L80.53-8.34L79.69-8.11Q79.64-8.72 79.13-9.61L79.13-9.61ZM74.39-9.52L74.39-9.52Q74.58-9.42 74.91-9.33L74.91-9.33Q75.56-9.05 75.56-8.95L75.56-8.95Q75.61-8.86 75.28-8.58L75.28-8.58Q75.09-8.44 75.05-8.39L75.05-8.39Q74.48-7.55 73.55-5.95L73.55-5.95L75.33-6L75.84-7.03Q76.03-6.94 76.36-6.75L76.36-6.75Q76.92-6.52 76.88-6.42L76.88-6.42Q76.88-6.38 76.73-6.28L76.73-6.28Q76.45-6.05 76.27-5.77L76.27-5.77Q75.84-5.11 74.67-3.56L74.67-3.56Q74.25-3.09 74.06-2.81L74.06-2.81Q74.39-2.91 75-3L75-3Q75.98-3.23 76.69-3.38L76.69-3.38L76.50-2.44Q74.34-2.16 73.13-1.78L73.13-1.78L72.75-2.86Q73.78-3.52 74.91-5.30L74.91-5.30L73.78-5.25Q73.31-5.20 72.84-5.06L72.84-5.06L72.47-6.05Q73.55-7.13 74.39-9.52ZM83.30-8.02L83.30-8.02L83.30-7.03Q82.69-7.13 81.98-7.13L81.98-7.13L78.05-7.13Q77.44-7.13 76.69-7.03L76.69-7.03L76.69-8.02Q77.34-7.92 78.14-7.92L78.14-7.92L81.98-7.92Q82.50-7.92 83.30-8.02ZM76.88-1.36L76.88-1.36L76.78-0.38Q74.39-0.05 72.80 0.38L72.80 0.38L72.52-0.56Q74.34-0.75 76.88-1.36ZM78.98-7.03L78.98-7.03Q79.31-6.80 79.64-6.61L79.64-6.61Q79.83-6.52 79.92-6.47L79.92-6.47Q79.92-6.42 79.73-6.28L79.73-6.28Q78.89-5.58 77.95-4.55L77.95-4.55L81.38-4.69Q80.86-5.44 80.53-5.67L80.53-5.67L81.33-6.23Q81.42-6.09 81.80-5.67L81.80-5.67Q82.97-4.22 83.20-3.89L83.20-3.89L82.27-3.23Q82.22-3.56 81.89-3.98L81.89-3.98L80.81-3.98L80.81-0.33Q80.77 0.09 81.28 0.05L81.28 0.05L81.75 0.05Q82.36 0.19 82.45-1.03L82.45-1.03Q82.73-0.66 83.44-0.42L83.44-0.42Q83.16 0.98 82.27 0.94L82.27 0.94L80.72 0.94Q79.97 0.94 79.97 0.05L79.97 0.05L79.97-3.89L79.13-3.89Q79.13-1.50 78.66-0.56L78.66-0.56Q78.33 0.33 76.92 1.22L76.92 1.22Q76.59 0.94 75.98 0.66L75.98 0.66Q75.84 0.56 75.84 0.56L75.84 0.56Q77.39 0 77.77-0.80L77.77-0.80Q78.23-1.59 78.23-3.80L78.23-3.80Q78.19-3.80 78.09-3.80L78.09-3.80Q77.77-3.75 77.11-3.61L77.11-3.61L76.73-4.64Q77.48-5.02 78.98-7.03Z" transform="translate(-0.375, 9.84375)"></path></g></g></g></g></g></g></g></g><mask id="ae97d3c9-c102-4633-a7fc-659603bb094b"><g fill="white"><rect data-gra="graph-name-bg" stroke-width="2" class="i-icon-bg" x="0" y="0" width="170.64259338378906" height="55.599998474121094" fill-opacity="1"></rect>   </g> <g transform="translate(5,10.082023620605469)" fill="black"><g data-gra="path-name" fill-rule="" class="tp-name" transform="translate(0,0)"><g transform="scale(0.5799999999999998)"><g><path d="M17.93-31.25L21.69-31.25 21.69 0 18.1 0 18.1-3.07Q16.05 0.34 11.61 0.34L11.61 0.34Q2.05 0 1.54-12.12L1.54-12.12Q2.05-23.05 11.1-23.56L11.1-23.56Q14.69-23.56 17.59-20.15L17.59-20.15Q17.76-19.81 17.93-19.64L17.93-19.64 17.93-19.81 17.93-31.25ZM5.46-11.44L5.46-11.44Q5.81-2.9 11.61-2.56L11.61-2.56Q17.76-3.24 17.93-10.25L17.93-10.25Q17.93-19.98 11.78-19.98L11.78-19.98Q5.29-19.98 5.46-11.44ZM30.57-15.88L30.57-15.88 26.98-15.88Q27.15-23.56 36.37-23.56L36.37-23.56Q44.57-23.22 44.74-17.08L44.74-17.08 44.74-3.93Q44.74-2.56 46.1-2.56L46.1-2.56Q46.28-2.56 46.62-2.56L46.62-2.56Q47.13-2.73 47.47-2.73L47.47-2.73 47.47 0Q47.13 0 46.62 0L46.62 0Q45.76 0.17 45.25 0.17L45.25 0.17Q41.15 0.17 41.32-3.07L41.32-3.07Q37.91 0.34 32.96 0.34L32.96 0.34Q26.13 0 25.78-5.98L25.78-5.98Q25.96-12.12 32.79-13.15L32.79-13.15 39.1-13.83Q41.15-14.17 41.15-16.56L41.15-16.56Q41.15-20.32 35.69-20.32L35.69-20.32Q30.91-20.32 30.57-15.88ZM40.98-7.85L40.98-7.85 40.98-11.61Q39.62-10.76 34.66-10.07L34.66-10.07Q29.88-9.73 29.88-6.49L29.88-6.49Q29.88-2.56 33.81-2.56L33.81-2.56Q40.47-3.07 40.98-7.85ZM68.47-22.88L68.47-19.64 54.98-3.07 68.99-3.07 68.99 0 49.86 0 49.86-2.9 63.52-19.64 50.89-19.64 50.89-22.88 68.47-22.88ZM91.7-15.54L91.7-15.54 91.7 0 87.94 0 87.94-14.86Q88.11-20.15 83.33-19.98L83.33-19.98Q77.18-19.81 77.01-12.47L77.01-12.47 77.01 0 73.08 0 73.08-31.25 77.01-31.25 77.01-19.81 77.18-19.81Q79.91-23.56 83.84-23.56L83.84-23.56Q91.53-23.39 91.7-15.54ZM100.92-15.88L100.92-15.88 97.33-15.88Q97.5-23.56 106.72-23.56L106.72-23.56Q114.92-23.22 115.09-17.08L115.09-17.08 115.09-3.93Q115.09-2.56 116.46-2.56L116.46-2.56Q116.63-2.56 116.97-2.56L116.97-2.56Q117.48-2.73 117.82-2.73L117.82-2.73 117.82 0Q117.48 0 116.97 0L116.97 0Q116.12 0.17 115.6 0.17L115.6 0.17Q111.5 0.17 111.68-3.07L111.68-3.07Q108.26 0.34 103.31 0.34L103.31 0.34Q96.48 0 96.14-5.98L96.14-5.98Q96.31-12.12 103.14-13.15L103.14-13.15 109.46-13.83Q111.5-14.17 111.5-16.56L111.5-16.56Q111.5-20.32 106.04-20.32L106.04-20.32Q101.26-20.32 100.92-15.88ZM111.33-7.85L111.33-7.85 111.33-11.61Q109.97-10.76 105.02-10.07L105.02-10.07Q100.23-9.73 100.23-6.49L100.23-6.49Q100.23-2.56 104.16-2.56L104.16-2.56Q110.82-3.07 111.33-7.85ZM139.85-22.88L132.17-11.78 140.19 0 135.41 0 129.61-8.54 124.14 0 119.36 0 127.39-11.78 119.7-22.88 124.65-22.88 129.95-14.69 135.24-22.88 139.85-22.88ZM143.61-22.88L147.53-22.88 147.53 0 143.61 0 143.61-22.88ZM147.53-31.25L147.53-26.98 143.61-26.98 143.61-31.25 147.53-31.25ZM168.71-7.17L168.71-7.17 172.47-7.17Q171.78-3.24 168.37-0.85L168.37-0.85Q166.49 0.34 162.22 0.34L162.22 0.34Q152.49 0 151.97-10.76L151.97-10.76Q152.32-23.22 162.9-23.56L162.9-23.56Q172.64-23.39 172.81-10.07L172.81-10.07 156.07-10.07Q156.07-2.56 162.73-2.56L162.73-2.56Q167.51-2.9 168.71-7.17ZM156.07-13.15L156.07-13.15 168.88-13.15Q168.37-19.98 162.39-19.98L162.39-19.98Q156.76-19.47 156.07-13.15ZM178.27-4.61L182.88-4.61 182.88 0 178.27 0 178.27-4.61ZM202.35-17.76L202.18-17.76 197.91 0 193.81 0 187.32-22.88 191.42-22.88 195.69-4.78 195.86-4.78 200.3-22.88 204.57-22.88 209.01-4.78 209.18-4.78 213.62-22.88 217.55-22.88 210.89 0 206.96 0 202.35-17.76ZM219.59-11.44L219.59-11.44Q220.28-23.05 230.18-23.56L230.18-23.56Q240.09-23.05 240.77-11.44L240.77-11.44Q240.09 0 230.18 0.34L230.18 0.34Q220.28 0 219.59-11.44ZM223.52-11.44L223.52-11.44Q224.03-2.9 230.18-2.73L230.18-2.73Q236.33-2.9 236.84-11.44L236.84-11.44Q236.33-19.98 230.18-20.15L230.18-20.15Q224.03-19.98 223.52-11.44ZM249.48-13.32L249.48-13.32 249.48 0 245.55 0 245.55-22.88 249.31-22.88 249.31-18.95Q251.87-23.56 255.8-23.56L255.8-23.56Q256.14-23.56 256.48-23.39L256.48-23.39Q256.65-23.39 256.82-23.39L256.82-23.39 256.82-19.3 255.28-19.3Q249.82-18.95 249.48-13.32ZM277.99-22.88L269.28-14.34 278.51 0 273.55 0 266.38-11.61 263.31-8.54 263.31 0 259.55 0 259.55-31.25 263.31-31.25 263.31-13.15 273.21-22.88 277.99-22.88Z" transform="translate(-1.5399999618530273, 31.25)"></path></g>       </g></g> <g data-gra="path-slogan" fill-rule="" class="tp-slogan" transform="translate(38.79129409790039,24.32219886779785)">  <g transform="scale(1, 1)"><g transform="scale(1)"><path d="M5.30-9.61L5.30-9.61Q6.70-9.61 6.70-9.42L6.70-9.42Q6.70-9.33 6.61-9.19L6.61-9.19Q6.38-8.77 6.38-8.06L6.38-8.06L6.38-6.42L8.58-6.42Q10.27-6.42 10.83-6.52L10.83-6.52L10.83-5.34Q10.17-5.44 8.58-5.44L8.58-5.44L6.56-5.44Q7.41-1.13 11.39-0.23L11.39-0.23Q10.73 0.05 10.17 0.89L10.17 0.89Q6.61-1.03 6.05-4.22L6.05-4.22Q5.63-0.66 1.55 1.08L1.55 1.08Q1.17 0.56 0.38 0.09L0.38 0.09Q4.83-0.98 5.34-5.44L5.34-5.44L2.81-5.44Q1.45-5.44 0.94-5.34L0.94-5.34L0.94-6.52Q1.50-6.42 2.86-6.42L2.86-6.42L5.39-6.42L5.39-8.44Q5.39-9.05 5.30-9.52L5.30-9.52Q5.30-9.56 5.30-9.61ZM14.16-9.14L15.14-9.61Q15.80-8.67 16.22-7.83L16.22-7.83L15.19-7.31Q14.81-8.39 14.16-9.14L14.16-9.14ZM16.92-7.78L16.92-8.86Q17.30-8.77 18.47-8.77L18.47-8.77L21.09-8.77Q22.22-8.81 22.69-8.86L22.69-8.86Q22.59-8.39 22.59-7.08L22.59-7.08L22.59-0.19Q22.64 0.52 22.27 0.70L22.27 0.70Q22.03 0.89 20.53 1.08L20.53 1.08Q20.58 0.38 20.06-0.09L20.06-0.09Q21.80 0.09 21.56-0.47L21.56-0.47L21.56-7.92L18.52-7.92Q17.48-7.88 16.92-7.78L16.92-7.78ZM13.41-7.27L13.41-7.27Q14.77-7.17 14.77-7.08L14.77-7.08Q14.77-7.08 14.72-6.98L14.72-6.98Q14.44-6.56 14.44-5.44L14.44-5.44L14.44-0.94Q14.44 0 14.53 0.84L14.53 0.84L13.36 0.84Q13.45 0.56 13.45-0.98L13.45-0.98L13.45-5.53Q13.45-6.89 13.41-7.27ZM15.33-6.80L15.33-6.80Q15.61-6.75 16.92-6.75L16.92-6.75L18.98-6.75Q20.16-6.75 20.63-6.80L20.63-6.80Q20.58-6.38 20.58-5.53L20.58-5.53L20.58-3.61Q20.63-2.34 20.67-2.06L20.67-2.06Q20.34-2.11 19.50-2.06L19.50-2.06L18.38-2.06L18.38-0.70Q18.38 0 18.47 0.56L18.47 0.56L17.34 0.56Q17.48 0.09 17.48-0.70L17.48-0.70L17.48-2.06L16.64-2.06Q15.70-2.06 15.33-2.02L15.33-2.02Q15.42-2.58 15.42-3.38L15.42-3.38L15.42-5.58Q15.42-6.52 15.33-6.80ZM17.48-4.78L17.48-5.95L16.27-5.95L16.27-4.78L17.48-4.78ZM19.73-6L18.38-6L18.38-4.78L19.73-4.78L19.73-6ZM17.48-4.13L16.27-4.13L16.27-2.81L17.48-2.81L17.48-4.13ZM19.73-2.81L19.73-4.13L18.38-4.13L18.38-2.81L19.73-2.81ZM26.67-9.80L26.67-9.80Q27.80-9.61 27.80-9.47L27.80-9.47Q27.80-9.42 27.70-9.38L27.70-9.38Q27.38-9.19 27.09-8.81L27.09-8.81L28.41-8.81Q29.06-8.81 29.53-8.91L29.53-8.91L28.50-7.55Q29.63-7.55 30.19-7.59L30.19-7.59Q30.14-7.41 30.14-6.66L30.14-6.66L30.14-4.22Q30.14-3.52 29.63-3.33L29.63-3.33Q30.38-3.33 30.38-3.23L30.38-3.23Q30.38-3.19 30.33-3.09L30.33-3.09Q30.19-2.91 30.19-2.67L30.19-2.67L32.48-2.67Q32.30-2.67 33.28-2.67L33.28-2.67Q33.66-2.67 33.84-2.72L33.84-2.72Q33.70-1.59 33.84-0.61L33.84-0.61Q33.38-0.66 32.63-0.66L32.63-0.66L30.19-0.66L30.19 0.05L32.53 0.05L32.02-0.28L32.63-0.61Q33.42-0.09 34.50 0.75L34.50 0.75L33.75 1.27Q33.56 1.03 33.09 0.56L33.09 0.56Q32.25 0.61 30.80 0.66L30.80 0.66Q25.97 0.80 25.27 0.94L25.27 0.94Q25.22 0.52 24.98 0L24.98 0Q25.45 0.05 26.30 0.05L26.30 0.05Q26.91 0.05 29.39 0.05L29.39 0.05L29.39-0.66L26.91-0.66Q26.91-0.47 26.95-0.23L26.95-0.23L26.02-0.23Q26.16-1.64 26.02-2.72L26.02-2.72Q26.39-2.67 27.14-2.67L27.14-2.67L29.39-2.67Q29.39-3.05 29.34-3.23L29.34-3.23Q29.06-3.14 28.83-3.09L28.83-3.09Q28.73-3.56 28.45-3.94L28.45-3.94Q29.39-3.75 29.30-4.41L29.30-4.41L28.13-4.41L28.17-3.42L27.33-3.42Q27.38-3.84 27.38-4.41L27.38-4.41L26.25-4.41Q26.11-3.84 25.31-2.81L25.31-2.81Q24.94-3.14 24.38-3.28L24.38-3.28Q25.27-3.80 25.41-4.45L25.41-4.45Q25.59-5.02 25.59-7.27L25.59-7.27Q25.55-7.22 25.36-7.03L25.36-7.03Q25.17-6.89 25.13-6.84L25.13-6.84Q24.89-7.17 24.42-7.41L24.42-7.41Q25.92-8.39 26.67-9.80ZM28.13-8.25L26.63-8.25Q26.48-8.16 26.30-7.97L26.30-7.97Q26.06-7.69 25.88-7.59L25.88-7.59Q26.20-7.55 26.63-7.55L26.63-7.55L27.61-7.55Q27.70-7.64 27.84-7.83L27.84-7.83Q27.98-8.11 28.13-8.25L28.13-8.25ZM27.38-6.23L27.38-6.94L26.34-6.94L26.34-6.23L27.38-6.23ZM29.30-6.94L28.13-6.94L28.13-6.23L29.30-6.23L29.30-6.94ZM32.53-6.56L32.53-6.56Q33.56-6.47 33.56-6.42L33.56-6.42Q33.56-6.38 33.52-6.28L33.52-6.28Q33.38-6.09 33.38-5.86L33.38-5.86Q34.27-5.86 34.97-5.95L34.97-5.95L34.97-5.20Q34.41-5.25 33.38-5.25L33.38-5.25L33.38-4.45L33.89-4.45Q34.17-4.45 34.69-4.50L34.69-4.50Q34.97-4.55 35.11-4.55L35.11-4.55L35.11-3.80Q34.59-3.89 33.89-3.84L33.89-3.84L33.38-3.84Q33.38-3.28 33.42-2.91L33.42-2.91L32.53-2.91Q32.58-3.23 32.58-3.84L32.58-3.84L31.78-3.84Q30.94-3.84 30.47-3.80L30.47-3.80L30.47-4.59Q31.13-4.45 31.78-4.45L31.78-4.45L32.58-4.45L32.58-5.25L31.45-5.25Q31.41-5.11 31.22-4.88L31.22-4.88Q31.27-4.92 31.13-4.69L31.13-4.69Q30.75-4.92 30.47-4.92L30.47-4.92Q31.08-5.63 31.17-6.47L31.17-6.47Q31.45-6.42 31.78-6.33L31.78-6.33Q32.06-6.33 32.02-6.28L32.02-6.28Q32.06-6.23 31.97-6.14L31.97-6.14Q31.88-6 31.83-5.86L31.83-5.86L32.58-5.86Q32.58-6.33 32.53-6.56ZM27.38-5.63L26.34-5.63L26.34-5.02L27.38-5.02L27.38-5.63ZM29.30-5.63L28.13-5.63L28.13-5.02L29.30-5.02L29.30-5.63ZM29.39-2.06L26.91-2.06L26.91-1.27L29.39-1.27L29.39-2.06ZM32.91-2.06L30.19-2.06L30.19-1.27L32.91-1.27L32.91-2.06ZM30.23-6.94L30.23-6.94Q31.45-7.08 31.73-8.30L31.73-8.30Q30.84-8.30 30.42-8.20L30.42-8.20L30.42-9.05Q30.84-8.95 32.58-8.95L32.58-8.95Q34.41-8.95 34.83-9.05L34.83-9.05Q34.78-8.91 34.73-8.44L34.73-8.44Q34.64-7.83 34.55-7.55L34.55-7.55Q34.55-6.66 32.95-6.61L32.95-6.61Q32.95-6.84 32.67-7.41L32.67-7.41Q32.63-7.45 32.63-7.50L32.63-7.50Q33.89-7.08 33.89-8.30L33.89-8.30L32.48-8.30Q32.34-6.98 30.84-6.38L30.84-6.38Q30.61-6.61 30.23-6.94ZM37.97-9.61L37.97-9.61Q39.09-9.61 39.14-9.47L39.14-9.47Q39.14-9.38 39.05-9.23L39.05-9.23Q38.86-8.95 38.86-8.58L38.86-8.58L38.86-7.17L39.28-7.17Q40.08-7.17 40.45-7.27L40.45-7.27L40.45-6.28Q40.13-6.38 39.23-6.38L39.23-6.38L38.86-6.38L38.86-4.36Q39.33-4.55 40.17-5.02L40.17-5.02L40.17-3.94L38.86-3.38L38.86-0.33Q38.95 0.89 37.17 1.03L37.17 1.03Q37.03 0.28 36.75-0.09L36.75-0.09Q38.16 0.14 38.06-0.84L38.06-0.84L38.06-3.14Q37.92-3.05 37.69-2.95L37.69-2.95Q37.08-2.63 36.70-2.30L36.70-2.30L36.42-3.56Q37.36-3.70 38.06-4.13L38.06-4.13L38.06-6.38L37.59-6.38Q36.84-6.38 36.42-6.28L36.42-6.28L36.42-7.27Q36.89-7.17 37.59-7.17L37.59-7.17L38.06-7.17L38.06-8.58Q38.06-9.14 37.97-9.56L37.97-9.56Q37.97-9.61 37.97-9.61ZM46.45-9.33L46.45-9.33Q46.45-9.28 46.45-9.14L46.45-9.14Q46.41-8.67 46.41-8.20L46.41-8.20L46.41-6.09Q46.45-5.02 46.45-5.02L46.45-5.02Q46.41-5.02 46.31-5.02L46.31-5.02Q45.84-5.06 45.23-5.06L45.23-5.06L42.23-5.06Q41.58-5.06 41.06-5.02L41.06-5.02Q40.97-5.02 40.97-5.02L40.97-5.02Q41.06-5.53 41.06-6.09L41.06-6.09L41.06-8.25Q41.06-8.81 40.97-9.33L40.97-9.33Q41.25-9.23 42.19-9.23L42.19-9.23L45.23-9.23Q45.98-9.23 46.45-9.33ZM45.52-8.48L41.95-8.48L41.95-7.59L45.52-7.59L45.52-8.48ZM45.52-6.75L41.95-6.75L41.95-5.86L45.52-5.86L45.52-6.75ZM40.45-3.47L40.45-4.45Q41.02-4.36 42.09-4.36L42.09-4.36L45.66-4.36Q46.78-4.36 47.30-4.45L47.30-4.45L47.30-3.47Q46.73-3.56 45.66-3.56L45.66-3.56L44.25-3.56L44.25-2.53L45.19-2.53Q46.08-2.53 46.59-2.63L46.59-2.63L46.59-1.69Q46.08-1.78 45.19-1.78L45.19-1.78L44.25-1.78L44.25-0.28Q45.05-0.09 47.53-0.28L47.53-0.28L47.06 0.80Q44.72 0.84 43.59 0.47L43.59 0.47Q42.56 0.14 41.44-0.98L41.44-0.98Q40.92 0 40.31 0.94L40.31 0.94L39.33 0.42Q40.64-0.75 41.20-3.14L41.20-3.14Q41.34-3.09 41.63-3L41.63-3Q42.38-2.77 42.33-2.72L42.33-2.72Q42.33-2.67 42.23-2.53L42.23-2.53Q41.95-2.25 41.77-1.69L41.77-1.69Q42.19-1.08 43.31-0.52L43.31-0.52L43.31-3.56L42.14-3.56Q41.02-3.56 40.45-3.47L40.45-3.47ZM51.80-9.66L51.80-9.66Q53.02-9.14 53.02-8.91L53.02-8.91Q53.02-8.86 52.88-8.81L52.88-8.81Q52.31-8.48 51.70-7.73L51.70-7.73L51.70-6.23Q51.70-5.25 51.80-4.55L51.80-4.55L50.67-4.55Q50.72-4.88 50.72-5.95L50.72-5.95Q50.77-6.42 50.77-6.70L50.77-6.70L49.50-5.44Q49.22-5.72 48.56-6.14L48.56-6.14Q50.67-7.59 51.80-9.66ZM54.23-9.52L54.23-9.52Q55.45-9.47 55.45-9.28L55.45-9.28Q55.45-9.19 55.36-9.05L55.36-9.05Q55.22-8.77 55.22-8.53L55.22-8.53L55.22-7.45Q56.67-8.20 57.66-9L57.66-9Q58.64-8.30 58.64-8.06L58.64-8.06Q58.64-8.02 58.45-7.97L58.45-7.97Q58.22-7.92 58.03-7.88L58.03-7.88Q57.70-7.73 57.14-7.50L57.14-7.50Q56.06-7.03 55.27-6.70L55.27-6.70L55.27-5.91Q55.03-5.48 56.53-5.53L56.53-5.53Q58.03-5.30 58.13-6.84L58.13-6.84Q58.64-6.38 59.20-6.19L59.20-6.19Q58.78-5.06 58.41-4.88L58.41-4.88Q58.08-4.64 56.58-4.69L56.58-4.69Q53.91-4.59 54.33-5.44L54.33-5.44L54.33-6.38Q54.28-6.38 54.23-6.33L54.23-6.33Q53.44-6 52.73-5.77L52.73-5.77Q52.64-6.23 52.17-6.66L52.17-6.66Q53.44-6.89 54.28-7.17L54.28-7.17L54.28-8.53Q54.28-9.19 54.23-9.52ZM53.44-2.72L53.44-2.72Q54.61-2.48 54.66-2.34L54.66-2.34Q54.66-2.25 54.56-2.11L54.56-2.11Q54.42-1.97 54.38-1.78L54.38-1.78Q54.19 0.47 49.50 1.03L49.50 1.03Q49.22 0.42 48.70-0.05L48.70-0.05Q53.67 0.23 53.44-2.72ZM54.56-0.56L55.17-1.31Q57.38-0.61 58.92 0.19L58.92 0.19L58.08 1.13Q56.81 0.19 54.56-0.56L54.56-0.56ZM50.53-4.13L50.53-4.13Q50.86-3.98 52.83-3.98L52.83-3.98L56.06-3.98Q56.72-3.98 57.70-4.08L57.70-4.08Q57.56-3.38 57.61-2.72L57.61-2.72Q57.61-1.97 57.66-1.17L57.66-1.17L56.58-1.17Q56.72-1.69 56.72-3.28L56.72-3.28L51.47-3.28Q51.52-1.08 51.52-1.08L51.52-1.08L50.44-1.08Q50.58-1.50 50.58-2.77L50.58-2.77Q50.58-3.66 50.53-4.13ZM69.80-9.23L69.80-9.23Q69.84-9.14 69.98-8.95L69.98-8.95Q70.55-8.11 70.45-8.11L70.45-8.11Q69.19-8.11 65.72-7.78L65.72-7.78Q66.42-7.50 66.56-7.36L66.56-7.36Q66.56-7.31 66.28-7.22L66.28-7.22Q65.86-7.08 65.63-6.89L65.63-6.89Q65.34-6.70 64.55-6.19L64.55-6.19Q64.03-5.86 63.70-5.67L63.70-5.67L66.80-5.86Q67.92-6.70 68.44-7.27L68.44-7.27Q69.33-6.70 69.47-6.52L69.47-6.52Q69.47-6.47 69.28-6.38L69.28-6.38Q68.86-6.19 68.48-5.95L68.48-5.95Q68.44-5.91 68.30-5.81L68.30-5.81Q65.91-4.27 63.98-3.52L63.98-3.52L68.81-3.70Q67.78-4.41 67.73-4.41L67.73-4.41L68.48-5.11Q70.17-3.84 71.02-3L71.02-3L70.22-2.25Q69.94-2.67 69.52-3L69.52-3L66.75-2.86L66.75-0.14Q67.13 0.80 64.88 0.89L64.88 0.89Q64.78 0.33 64.59-0.05L64.59-0.05Q64.55-0.14 64.55-0.14L64.55-0.14Q65.91 0 65.77-0.61L65.77-0.61L65.77-2.81L63.61-2.72Q63.47-2.72 63.23-2.67L63.23-2.67Q62.48-2.63 62.11-2.53L62.11-2.53L61.78-3.56Q62.86-3.61 65.72-5.16L65.72-5.16Q63.38-5.02 62.77-4.78L62.77-4.78L62.20-5.77Q63.84-6.47 65.16-7.73L65.16-7.73L61.92-7.36Q61.83-7.69 61.64-8.06L61.64-8.06Q61.50-8.30 61.41-8.44L61.41-8.44Q65.77-8.44 69.80-9.23ZM67.78-1.50L68.53-2.20Q69.09-1.83 70.55-0.70L70.55-0.70Q70.88-0.42 71.02-0.33L71.02-0.33L70.13 0.42Q68.91-0.84 67.78-1.50L67.78-1.50ZM63.61-2.20L63.61-2.20L64.50-1.59Q62.86 0 62.20 0.47L62.20 0.47Q61.83 0 61.27-0.14L61.27-0.14Q62.63-1.03 63.61-2.20ZM79.13-9.61L79.97-9.84Q80.34-8.95 80.53-8.34L80.53-8.34L79.69-8.11Q79.64-8.72 79.13-9.61L79.13-9.61ZM74.39-9.52L74.39-9.52Q74.58-9.42 74.91-9.33L74.91-9.33Q75.56-9.05 75.56-8.95L75.56-8.95Q75.61-8.86 75.28-8.58L75.28-8.58Q75.09-8.44 75.05-8.39L75.05-8.39Q74.48-7.55 73.55-5.95L73.55-5.95L75.33-6L75.84-7.03Q76.03-6.94 76.36-6.75L76.36-6.75Q76.92-6.52 76.88-6.42L76.88-6.42Q76.88-6.38 76.73-6.28L76.73-6.28Q76.45-6.05 76.27-5.77L76.27-5.77Q75.84-5.11 74.67-3.56L74.67-3.56Q74.25-3.09 74.06-2.81L74.06-2.81Q74.39-2.91 75-3L75-3Q75.98-3.23 76.69-3.38L76.69-3.38L76.50-2.44Q74.34-2.16 73.13-1.78L73.13-1.78L72.75-2.86Q73.78-3.52 74.91-5.30L74.91-5.30L73.78-5.25Q73.31-5.20 72.84-5.06L72.84-5.06L72.47-6.05Q73.55-7.13 74.39-9.52ZM83.30-8.02L83.30-8.02L83.30-7.03Q82.69-7.13 81.98-7.13L81.98-7.13L78.05-7.13Q77.44-7.13 76.69-7.03L76.69-7.03L76.69-8.02Q77.34-7.92 78.14-7.92L78.14-7.92L81.98-7.92Q82.50-7.92 83.30-8.02ZM76.88-1.36L76.88-1.36L76.78-0.38Q74.39-0.05 72.80 0.38L72.80 0.38L72.52-0.56Q74.34-0.75 76.88-1.36ZM78.98-7.03L78.98-7.03Q79.31-6.80 79.64-6.61L79.64-6.61Q79.83-6.52 79.92-6.47L79.92-6.47Q79.92-6.42 79.73-6.28L79.73-6.28Q78.89-5.58 77.95-4.55L77.95-4.55L81.38-4.69Q80.86-5.44 80.53-5.67L80.53-5.67L81.33-6.23Q81.42-6.09 81.80-5.67L81.80-5.67Q82.97-4.22 83.20-3.89L83.20-3.89L82.27-3.23Q82.22-3.56 81.89-3.98L81.89-3.98L80.81-3.98L80.81-0.33Q80.77 0.09 81.28 0.05L81.28 0.05L81.75 0.05Q82.36 0.19 82.45-1.03L82.45-1.03Q82.73-0.66 83.44-0.42L83.44-0.42Q83.16 0.98 82.27 0.94L82.27 0.94L80.72 0.94Q79.97 0.94 79.97 0.05L79.97 0.05L79.97-3.89L79.13-3.89Q79.13-1.50 78.66-0.56L78.66-0.56Q78.33 0.33 76.92 1.22L76.92 1.22Q76.59 0.94 75.98 0.66L75.98 0.66Q75.84 0.56 75.84 0.56L75.84 0.56Q77.39 0 77.77-0.80L77.77-0.80Q78.23-1.59 78.23-3.80L78.23-3.80Q78.19-3.80 78.09-3.80L78.09-3.80Q77.77-3.75 77.11-3.61L77.11-3.61L76.73-4.64Q77.48-5.02 78.98-7.03Z" transform="translate(-0.375, 9.84375)"></path></g></g></g></g></mask><defs v-gra="od"></defs></svg>