<svg data-v-0dd9719b="" version="1.0" xmlns="http://www.w3.org/2000/svg" xmlns:xlink="http://www.w3.org/1999/xlink" width="100%" height="100%" viewBox="0 0 340.000000 250.000000" preserveAspectRatio="xMidYMid meet" color-interpolation-filters="sRGB" style="margin: auto;">
	<rect data-v-0dd9719b="" x="0" y="0" width="100%" height="100%" fill="#fff" fill-opacity="1" stroke-opacity="1" class="background"/>
	
	<g data-v-0dd9719b="" fill="#008fd5" class="icon-text-wrapper icon-svg-group iconsvg" transform="translate(81.20999908447266,71.54962158203125)">
		<g class="iconsvg-imagesvg" transform="translate(58.790000915527344,0)">
			<g>
				<rect fill="#008fd5" fill-opacity="0" stroke-width="2" x="0" y="0" width="60" height="62.81012499214874" class="image-rect"/>
				<svg x="0" y="0" width="60" height="62.81012499214874" filtersec="colorsb1666330675" class="image-svg-svg primary" style="overflow: visible;">
					<svg viewBox="0 0 215.48399353027344 225.5760040283203" xmlns="http://www.w3.org/2000/svg">
						<path fill="none" pointer-events="none" d="M0 0h215.484v225.576H0z"/>
						<path class="st3" d="M132.638 72.113c0 25.5-22.2 39.5-22.2 39.5s-22.2-14.1-22.2-39.5c0-37.2 22.2-61.5 22.2-61.5s22.2 24.3 22.2 61.5z" opacity=".5" fill="#fd0"/>
						<path class="st4" d="M109.838 66.313c12.7 22.1.6 45.3.6 45.3s-26.2-1.1-39-23.1c-18.6-32.2-11.6-64.3-11.6-64.3s31.4 9.9 50 42.1z" opacity=".5" fill="#8dc63f"/>
						<path class="st4" d="M87.338 72.713c22.1 12.7 23.1 39 23.1 39s-23.2 12.2-45.3-.6c-32.2-18.6-42.2-49.9-42.2-49.9s32.1-7.1 64.4 11.5z" opacity=".5" fill="#8dc63f"/>
						<path class="st5" d="M70.938 89.413c25.5 0 39.5 22.2 39.5 22.2s-14.1 22.2-39.5 22.2c-37.2 0-61.5-22.2-61.5-22.2s24.3-22.2 61.5-22.2z" opacity=".5" fill="#008fd5"/>
						<path class="st5" d="M65.138 112.213c22.1-12.7 45.3-.6 45.3-.6s-1.1 26.2-23.1 39c-32.2 18.6-64.3 11.6-64.3 11.6s9.9-31.4 42.1-50z" opacity=".5" fill="#008fd5"/>
						<path class="st6" d="M71.438 134.813c12.7-22.1 39-23.1 39-23.1s12.2 23.2-.6 45.3c-18.6 32.2-49.9 42.2-49.9 42.2s-7.1-32.2 11.5-64.4z" opacity=".5" fill="#92278f"/>
						<path class="st6" d="M88.238 151.113c0-25.5 22.2-39.5 22.2-39.5s22.2 14.1 22.2 39.5c0 37.2-22.2 61.5-22.2 61.5s-22.2-24.3-22.2-61.5z" opacity=".5" fill="#92278f"/>
						<path class="st7" d="M111.038 156.913c-12.7-22.1-.6-45.3-.6-45.3s26.2 1.1 39 23.1c18.6 32.2 11.6 64.3 11.6 64.3s-31.4-9.9-50-42.1z" opacity=".6" fill="#ed1c24"/>
						<path class="st7" d="M133.538 150.613c-22.1-12.7-23.1-39-23.1-39s23.3-12.2 45.3.6c32.2 18.6 42.2 49.9 42.2 49.9s-32.1 7.1-64.4-11.5z" opacity=".6" fill="#ed1c24"/>
						<path class="st8" d="M149.938 133.813c-25.5 0-39.5-22.2-39.5-22.2s14.1-22.2 39.5-22.2c37.2 0 61.5 22.2 61.5 22.2s-24.3 22.2-61.5 22.2z" opacity=".5" fill="#fdb913"/>
						<path class="st8" d="M155.738 111.013c-22.1 12.7-45.3.6-45.3.6s1.1-26.2 23.2-39c32.2-18.6 64.3-11.6 64.3-11.6s-10 31.4-42.2 50z" opacity=".5" fill="#fdb913"/>
						<path class="st3" d="M149.438 88.513c-12.7 22.1-39 23.1-39 23.1s-12.2-23.3.6-45.3c18.6-32.2 49.9-42.2 49.9-42.2s7.1 32.2-11.5 64.4z" opacity=".5" fill="#fd0"/>
					</svg>
				</svg>
				<!---->
			</g>
		</g>
		<g transform="translate(0,69.81012344360352)">
			<g data-gra="path-name" fill-rule="" class="tp-name iconsvg-namesvg" transform="translate(0,0)">
				<g transform="scale(1)">
					<g>
						<path d="M9.87 0.87L9.16 0.87Q9.08 0.19 9.04-1.7L9.04-1.7Q8.56-0.39 7.61 0.34 6.66 1.06 5.34 1.06L5.34 1.06Q4.06 1.06 3.09 0.36 2.11-0.35 1.57-1.62 1.03-2.88 1.03-4.53L1.03-4.53Q1.03-6.17 1.57-7.45 2.11-8.73 3.09-9.44 4.06-10.14 5.34-10.14L5.34-10.14Q6.64-10.14 7.59-9.43 8.54-8.71 9.02-7.43L9.02-7.43 9.02-14.71 9.81-14.71 9.81-1.72Q9.81-0.1 9.87 0.87L9.87 0.87ZM9.02-4.53L9.02-4.53Q9.02-5.96 8.57-7.07 8.11-8.17 7.3-8.77 6.48-9.37 5.44-9.37L5.44-9.37Q4.39-9.37 3.59-8.76 2.79-8.15 2.33-7.06 1.88-5.96 1.88-4.53L1.88-4.53Q1.88-3.12 2.33-2.02 2.79-0.93 3.6-0.32 4.41 0.29 5.44 0.29L5.44 0.29Q6.48 0.29 7.3-0.32 8.11-0.93 8.57-2.02 9.02-3.12 9.02-4.53ZM16.71-10.14L16.71-10.14Q18-10.14 19-9.43 20-8.71 20.55-7.43 21.1-6.16 21.1-4.53L21.1-4.53Q21.1-2.9 20.55-1.64 20-0.37 19 0.35 18 1.06 16.71 1.06L16.71 1.06Q15.41 1.06 14.41 0.35 13.41-0.37 12.86-1.65 12.31-2.92 12.31-4.53L12.31-4.53Q12.31-6.16 12.86-7.43 13.41-8.71 14.41-9.43 15.41-10.14 16.71-10.14ZM16.71-9.37L16.71-9.37Q15.66-9.37 14.86-8.77 14.05-8.17 13.61-7.07 13.16-5.96 13.16-4.53L13.16-4.53Q13.16-3.1 13.61-2 14.05-0.91 14.86-0.31 15.66 0.29 16.71 0.29L16.71 0.29Q17.75 0.29 18.56-0.31 19.38-0.91 19.83-2 20.29-3.1 20.29-4.53L20.29-4.53Q20.29-5.96 19.83-7.07 19.38-8.17 18.56-8.77 17.75-9.37 16.71-9.37ZM31.88-6.39L31.88-6.39 31.88 0.87 31.09 0.87 31.09-6.27Q31.09-7.86 30.37-8.61 29.65-9.37 28.14-9.37L28.14-9.37Q27.06-9.37 26.21-8.83 25.36-8.28 24.88-7.3 24.41-6.31 24.41-5.05L24.41-5.05 24.41 0.87 23.58 0.87 23.58-7.36Q23.58-9 23.52-9.95L23.52-9.95 24.22-9.95Q24.29-9.31 24.33-7.51L24.33-7.51Q24.87-8.81 25.87-9.48 26.87-10.14 28.3-10.14L28.3-10.14Q30-10.14 30.94-9.16 31.88-8.17 31.88-6.39ZM42.45-9.95L43.15-9.95Q43.09-8.96 43.09-7.36L43.09-7.36 43.09 0.43Q43.09 2.71 41.96 3.92 40.82 5.13 38.68 5.13L38.68 5.13Q37.07 5.13 35.92 4.48 34.77 3.83 34.42 2.75L34.42 2.75 35.13 2.42Q35.44 3.35 36.35 3.84 37.26 4.34 38.68 4.34L38.68 4.34Q40.46 4.34 41.38 3.36 42.29 2.38 42.29 0.5L42.29 0.5 42.29-1.63Q41.79-0.33 40.84 0.37 39.89 1.06 38.62 1.06L38.62 1.06Q37.34 1.06 36.36 0.37 35.38-0.33 34.84-1.6 34.3-2.86 34.3-4.53L34.3-4.53Q34.3-6.19 34.84-7.46 35.38-8.73 36.36-9.44 37.34-10.14 38.62-10.14L38.62-10.14Q39.93-10.14 40.89-9.41 41.85-8.67 42.33-7.34L42.33-7.34Q42.37-9.43 42.45-9.95L42.45-9.95ZM42.29-4.53L42.29-4.53Q42.29-5.96 41.84-7.06 41.39-8.15 40.57-8.76 39.76-9.37 38.71-9.37L38.71-9.37Q37.67-9.37 36.86-8.76 36.04-8.15 35.6-7.06 35.15-5.96 35.15-4.53L35.15-4.53Q35.15-3.12 35.61-2.02 36.06-0.93 36.87-0.31 37.67 0.31 38.71 0.31L38.71 0.31Q39.76 0.31 40.57-0.31 41.39-0.93 41.84-2.02 42.29-3.12 42.29-4.53ZM46.65-13.69L46.65-13.69Q47.02-13.69 47.21-13.48 47.41-13.28 47.41-12.93L47.41-12.93Q47.41-12.56 47.21-12.37 47.02-12.18 46.65-12.18L46.65-12.18Q46.3-12.18 46.1-12.38 45.9-12.58 45.9-12.93L45.9-12.93Q45.9-13.28 46.11-13.48 46.32-13.69 46.65-13.69ZM44.7 5.13L44.7 5.13Q44 5.13 43.48 4.9L43.48 4.9 43.48 4.2Q44.1 4.34 44.7 4.34L44.7 4.34Q45.45 4.34 45.84 3.94 46.22 3.54 46.22 2.79L46.22 2.79 46.22-9.95 47.08-9.95 47.08 2.75Q47.08 3.87 46.45 4.5 45.82 5.13 44.7 5.13ZM50.75-13.69L50.75-13.69Q51.12-13.69 51.32-13.48 51.51-13.28 51.51-12.93L51.51-12.93Q51.51-12.56 51.32-12.37 51.12-12.18 50.75-12.18L50.75-12.18Q50.41-12.18 50.2-12.38 50-12.58 50-12.93L50-12.93Q50-13.28 50.21-13.48 50.42-13.69 50.75-13.69ZM50.33-9.95L51.18-9.95 51.18 0.87 50.33 0.87 50.33-9.95ZM62.62-7.36L62.62-1.72Q62.62-0.1 62.68 0.87L62.68 0.87 61.96 0.87Q61.88 0.19 61.85-1.7L61.85-1.7Q61.36-0.39 60.41 0.34 59.46 1.06 58.15 1.06L58.15 1.06Q56.87 1.06 55.89 0.36 54.92-0.35 54.37-1.62 53.83-2.88 53.83-4.53L53.83-4.53Q53.83-6.17 54.37-7.45 54.92-8.73 55.89-9.44 56.87-10.14 58.15-10.14L58.15-10.14Q59.46-10.14 60.41-9.41 61.36-8.67 61.85-7.37L61.85-7.37Q61.88-9.27 61.96-9.95L61.96-9.95 62.68-9.95Q62.62-9 62.62-7.36L62.62-7.36ZM61.83-4.53L61.83-4.53Q61.83-5.96 61.37-7.07 60.92-8.17 60.1-8.77 59.29-9.37 58.24-9.37L58.24-9.37Q57.2-9.37 56.4-8.76 55.59-8.15 55.14-7.06 54.68-5.96 54.68-4.53L54.68-4.53Q54.68-3.12 55.14-2.02 55.59-0.93 56.41-0.32 57.22 0.29 58.24 0.29L58.24 0.29Q59.29 0.29 60.1-0.32 60.92-0.93 61.37-2.02 61.83-3.12 61.83-4.53ZM69.51-10.14L69.51-10.14Q70.81-10.14 71.8-9.43 72.8-8.71 73.35-7.43 73.9-6.16 73.9-4.53L73.9-4.53Q73.9-2.9 73.35-1.64 72.8-0.37 71.8 0.35 70.81 1.06 69.51 1.06L69.51 1.06Q68.21 1.06 67.22 0.35 66.22-0.37 65.67-1.65 65.12-2.92 65.12-4.53L65.12-4.53Q65.12-6.16 65.67-7.43 66.22-8.71 67.22-9.43 68.21-10.14 69.51-10.14ZM69.51-9.37L69.51-9.37Q68.47-9.37 67.66-8.77 66.86-8.17 66.41-7.07 65.97-5.96 65.97-4.53L65.97-4.53Q65.97-3.1 66.41-2 66.86-0.91 67.66-0.31 68.47 0.29 69.51 0.29L69.51 0.29Q70.56 0.29 71.37-0.31 72.18-0.91 72.64-2 73.09-3.1 73.09-4.53L73.09-4.53Q73.09-5.96 72.64-7.07 72.18-8.17 71.37-8.77 70.56-9.37 69.51-9.37ZM84.22 0.87L83.2 0.87 79.91-3.99 76.58 0.87 75.63 0.87 79.5-4.61 75.72-9.95 76.75-9.95 79.96-5.27 83.2-9.95 84.11-9.95 80.37-4.61 84.22 0.87ZM86.97-13.69L86.97-13.69Q87.34-13.69 87.53-13.48 87.73-13.28 87.73-12.93L87.73-12.93Q87.73-12.56 87.53-12.37 87.34-12.18 86.97-12.18L86.97-12.18Q86.62-12.18 86.42-12.38 86.22-12.58 86.22-12.93L86.22-12.93Q86.22-13.28 86.43-13.48 86.64-13.69 86.97-13.69ZM86.54-9.95L87.4-9.95 87.4 0.87 86.54 0.87 86.54-9.95ZM98.84-7.36L98.84-1.72Q98.84-0.1 98.89 0.87L98.89 0.87 98.18 0.87Q98.1 0.19 98.06-1.7L98.06-1.7Q97.58-0.39 96.63 0.34 95.68 1.06 94.36 1.06L94.36 1.06Q93.09 1.06 92.11 0.36 91.13-0.35 90.59-1.62 90.05-2.88 90.05-4.53L90.05-4.53Q90.05-6.17 90.59-7.45 91.13-8.73 92.11-9.44 93.09-10.14 94.36-10.14L94.36-10.14Q95.68-10.14 96.63-9.41 97.58-8.67 98.06-7.37L98.06-7.37Q98.1-9.27 98.18-9.95L98.18-9.95 98.89-9.95Q98.84-9 98.84-7.36L98.84-7.36ZM98.04-4.53L98.04-4.53Q98.04-5.96 97.59-7.07 97.13-8.17 96.32-8.77 95.51-9.37 94.46-9.37L94.46-9.37Q93.42-9.37 92.61-8.76 91.81-8.15 91.35-7.06 90.9-5.96 90.9-4.53L90.9-4.53Q90.9-3.12 91.35-2.02 91.81-0.93 92.62-0.32 93.44 0.29 94.46 0.29L94.46 0.29Q95.51 0.29 96.32-0.32 97.13-0.93 97.59-2.02 98.04-3.12 98.04-4.53ZM105.73-10.14L105.73-10.14Q107.02-10.14 108.02-9.43 109.02-8.71 109.57-7.43 110.12-6.16 110.12-4.53L110.12-4.53Q110.12-2.9 109.57-1.64 109.02-0.37 108.02 0.35 107.02 1.06 105.73 1.06L105.73 1.06Q104.43 1.06 103.43 0.35 102.44-0.37 101.89-1.65 101.33-2.92 101.33-4.53L101.33-4.53Q101.33-6.16 101.89-7.43 102.44-8.71 103.43-9.43 104.43-10.14 105.73-10.14ZM105.73-9.37L105.73-9.37Q104.68-9.37 103.88-8.77 103.08-8.17 102.63-7.07 102.19-5.96 102.19-4.53L102.19-4.53Q102.19-3.1 102.63-2 103.08-0.91 103.88-0.31 104.68 0.29 105.73 0.29L105.73 0.29Q106.77 0.29 107.59-0.31 108.4-0.91 108.85-2 109.31-3.1 109.31-4.53L109.31-4.53Q109.31-5.96 108.85-7.07 108.4-8.17 107.59-8.77 106.77-9.37 105.73-9.37ZM113.45 0.08L120.44 0.08 120.44 0.87 112.23 0.87 112.23 0.31 119.14-9.18 112.41-9.18 112.41-9.95 120.32-9.95 120.32-9.41 113.45 0.08ZM131.28-6.39L131.28-6.39 131.28 0.87 130.48 0.87 130.48-6.27Q130.48-7.86 129.77-8.61 129.05-9.37 127.54-9.37L127.54-9.37Q126.46-9.37 125.61-8.83 124.76-8.28 124.28-7.3 123.81-6.31 123.81-5.05L123.81-5.05 123.81 0.87 122.97 0.87 122.97-14.71 123.81-14.71 123.81-7.67Q124.35-8.9 125.33-9.52 126.3-10.14 127.7-10.14L127.7-10.14Q129.4-10.14 130.34-9.16 131.28-8.17 131.28-6.39ZM142.39-4.67L142.39-4.53 134.55-4.53Q134.55-2.28 135.6-1 136.64 0.29 138.46 0.29L138.46 0.29Q139.66 0.29 140.35-0.19 141.03-0.68 141.5-1.84L141.5-1.84 142.2-1.51Q141.75-0.19 140.82 0.44 139.89 1.06 138.44 1.06L138.44 1.06Q137.03 1.06 135.95 0.39 134.88-0.29 134.29-1.56 133.7-2.83 133.7-4.53L133.7-4.53Q133.7-6.19 134.26-7.46 134.82-8.73 135.82-9.44 136.81-10.14 138.09-10.14L138.09-10.14Q140.11-10.14 141.25-8.67 142.39-7.2 142.39-4.67L142.39-4.67ZM134.59-5.3L134.59-5.3 141.56-5.3Q141.4-7.26 140.51-8.31 139.62-9.37 138.09-9.37L138.09-9.37Q136.66-9.37 135.71-8.27 134.76-7.16 134.59-5.3ZM153.19-6.39L153.19-6.39 153.19 0.87 152.4 0.87 152.4-6.27Q152.4-7.86 151.68-8.61 150.96-9.37 149.45-9.37L149.45-9.37Q148.37-9.37 147.52-8.83 146.67-8.28 146.19-7.3 145.72-6.31 145.72-5.05L145.72-5.05 145.72 0.87 144.89 0.87 144.89-7.36Q144.89-9 144.83-9.95L144.83-9.95 145.53-9.95Q145.6-9.31 145.64-7.51L145.64-7.51Q146.18-8.81 147.18-9.48 148.18-10.14 149.61-10.14L149.61-10.14Q151.31-10.14 152.25-9.16 153.19-8.17 153.19-6.39ZM156.98-0.52L156.98-0.52Q157.33-0.52 157.54-0.32 157.74-0.12 157.74 0.25L157.74 0.25Q157.74 0.62 157.54 0.83 157.33 1.05 156.98 1.05L156.98 1.05Q156.62 1.05 156.4 0.83 156.19 0.62 156.19 0.25L156.19 0.25Q156.19-0.12 156.39-0.32 156.6-0.52 156.98-0.52ZM164.77-10.14L164.77-10.14Q166.14-10.14 167.02-9.49 167.9-8.85 168.1-7.9L168.1-7.9 167.36-7.57Q167.22-8.4 166.58-8.88 165.93-9.37 164.8-9.37L164.8-9.37Q163.74-9.37 162.93-8.77 162.11-8.17 161.67-7.07 161.22-5.98 161.22-4.53L161.22-4.53Q161.22-3.1 161.68-1.99 162.13-0.89 162.95-0.29 163.76 0.31 164.8 0.31L164.8 0.31Q165.91 0.31 166.56-0.15 167.21-0.62 167.36-1.49L167.36-1.49 168.1-1.16Q167.9-0.23 167.01 0.42 166.12 1.06 164.77 1.06L164.77 1.06Q163.47 1.06 162.47 0.35 161.48-0.37 160.92-1.65 160.37-2.92 160.37-4.53L160.37-4.53Q160.37-6.16 160.92-7.43 161.48-8.71 162.47-9.43 163.47-10.14 164.77-10.14ZM178.61-6.39L178.61-6.39 178.61 0.87 177.81 0.87 177.81-6.27Q177.81-7.86 177.1-8.61 176.38-9.37 174.87-9.37L174.87-9.37Q173.79-9.37 172.93-8.83 172.08-8.28 171.61-7.3 171.13-6.31 171.13-5.05L171.13-5.05 171.13 0.87 170.3 0.87 170.3-7.36Q170.3-9 170.24-9.95L170.24-9.95 170.94-9.95Q171.02-9.31 171.06-7.51L171.06-7.51Q171.6-8.81 172.6-9.48 173.59-10.14 175.03-10.14L175.03-10.14Q176.73-10.14 177.67-9.16 178.61-8.17 178.61-6.39Z" transform="translate(-1.0299999713897705, 14.710000038146973)"/>
					</g>
					<!---->
					<!---->
					<!---->
					<!---->
					<!---->
					<!---->
					<!---->
				</g>
			</g>
			<g data-gra="path-slogan" fill-rule="" class="tp-slogan iconsvg-slogansvg" fill="#008fd5" transform="translate(5,25.84000015258789)">
				<rect x="0" height="1" y="5.125" width="39.470001220703125"/>
				<rect height="1" y="5.125" width="39.470001220703125" x="128.11000061035156"/>
				<g transform="translate(42.470001220703125,0)">
					<g transform="scale(1)">
						<path d="M5.34-9.66L5.34-9.66Q6.42-9.70 6.70-9.47L6.70-9.47Q6.75-9.42 6.66-9.28L6.66-9.28Q6.38-8.91 6.38-8.20L6.38-8.20L9.47-8.20Q10.36-8.20 11.25-8.30L11.25-8.30L11.25-7.22Q10.41-7.31 9.52-7.31L9.52-7.31L6.38-7.31L6.38-6.09L8.67-6.09Q9.70-6.09 10.41-6.19L10.41-6.19Q10.41-6.19 10.41-6.05L10.41-6.05Q10.36-5.39 10.36-4.64L10.36-4.64L10.36 0.14Q10.36 0.70 10.03 0.84L10.03 0.84Q9.84 0.98 8.44 1.13L8.44 1.13Q8.44 0.56 7.97 0L7.97 0Q9.56 0.19 9.42-0.38L9.42-0.38L9.42-5.25L2.63-5.25L2.63-0.42Q2.67 1.13 2.67 1.13L2.67 1.13L1.59 1.13Q1.69 0.56 1.69-0.38L1.69-0.38L1.69-4.64Q1.69-5.34 1.59-6L1.59-6Q1.59-6.14 1.59-6.19L1.59-6.19Q2.25-6.09 3.05-6.09L3.05-6.09L5.39-6.09L5.39-7.27L2.44-7.27Q1.03-7.27 0.70-7.17L0.70-7.17L0.70-8.30Q1.03-8.20 2.53-8.20L2.53-8.20L5.39-8.20L5.39-8.95Q5.39-9.42 5.34-9.66ZM6.80-5.11L6.80-5.11Q7.97-4.78 7.97-4.73L7.97-4.73Q7.97-4.69 7.88-4.59L7.88-4.59Q7.45-4.22 7.08-3.47L7.08-3.47L7.64-3.47Q7.78-3.47 8.67-3.52L8.67-3.52L8.67-2.67Q8.72-2.72 7.55-2.72L7.55-2.72L6.33-2.72L6.33-1.78L7.64-1.78Q8.02-1.78 8.72-1.83L8.72-1.83L8.72-1.03Q8.02-1.08 7.64-1.08L7.64-1.08L6.33-1.08L6.33-0.23Q6.33 0.38 6.42 0.94L6.42 0.94L5.34 0.94Q5.44 0.61 5.44-0.23L5.44-0.23L5.44-1.08L4.22-1.08Q3.89-1.08 3.05-1.03L3.05-1.03L3.05-1.83Q3.70-1.78 4.22-1.78L4.22-1.78L5.44-1.78L5.44-2.72L4.36-2.72Q4.17-2.72 3.28-2.67L3.28-2.67L3.28-3.52Q3.84-3.47 4.31-3.47L4.31-3.47L6.28-3.47Q6.75-4.36 6.80-5.11ZM4.08-4.78L4.92-5.11Q5.16-4.78 5.44-3.98L5.44-3.98L4.59-3.66Q4.36-4.45 4.08-4.78L4.08-4.78ZM16.97-9.52L18.23-9.61Q18.47-9 18.66-8.16L18.66-8.16L21.70-8.16Q22.22-8.16 23.25-8.30L23.25-8.30L23.25-7.22Q22.17-7.31 21.70-7.31L21.70-7.31L14.16-7.31Q13.73-7.31 12.66-7.22L12.66-7.22L12.66-8.25Q13.45-8.16 14.11-8.16L14.11-8.16L17.53-8.16Q17.11-9.42 16.97-9.52L16.97-9.52ZM21.66-6.38L21.66-6.38Q21.66-6.33 21.66-6.23L21.66-6.23Q21.61-5.77 21.61-5.30L21.61-5.30L21.61-4.17Q21.61-3.47 21.66-2.95L21.66-2.95Q21.66-2.95 21.61-2.95L21.61-2.95Q21.09-3.05 20.44-3.05L20.44-3.05L18.56-3.05L18.56 0Q18.56 0.98 16.78 1.03L16.78 1.03Q16.69 0.52 16.27 0L16.27 0Q17.72 0.19 17.58-0.47L17.58-0.47L17.58-3.05L15.52-3.05Q14.95-3.05 14.44-2.95L14.44-2.95Q14.34-2.95 14.30-2.95L14.30-2.95Q14.34-3.52 14.34-4.03L14.34-4.03L14.34-5.30Q14.34-5.72 14.30-6.23L14.30-6.23Q14.30-6.33 14.30-6.38L14.30-6.38Q14.72-6.28 15.47-6.28L15.47-6.28L20.48-6.28Q21.19-6.28 21.66-6.38ZM20.63-3.89L20.63-5.44L15.33-5.44L15.33-3.89L20.63-3.89ZM15.38-2.39L15.38-2.39Q16.36-1.92 16.36-1.83L16.36-1.83Q16.36-1.78 16.27-1.73L16.27-1.73Q16.03-1.64 15.84-1.45L15.84-1.45Q14.72-0.42 13.55 0.42L13.55 0.42L12.66-0.14Q14.11-0.89 15.38-2.39ZM19.64-1.73L20.44-2.30Q21.80-1.45 23.06-0.42L23.06-0.42L22.13 0.23Q21.33-0.56 19.64-1.73L19.64-1.73ZM28.92-9.42L30.09-9.70Q30.42-9.05 30.61-8.30L30.61-8.30L29.48-8.02Q29.44-8.48 28.92-9.42L28.92-9.42ZM26.39-7.92L33.56-7.92Q34.69-7.92 35.34-8.02L35.34-8.02L35.34-6.89Q34.83-6.94 33.61-6.94L33.61-6.94L30.42-6.94L30.42-5.48L32.30-5.48Q33.38-5.48 33.98-5.53L33.98-5.53Q33.98-5.53 33.98-5.39L33.98-5.39Q33.94-4.83 33.94-4.17L33.94-4.17L33.94-0.89Q34.13 0.05 31.97 0.23L31.97 0.23Q31.78-0.42 31.41-0.80L31.41-0.80Q32.91-0.61 32.91-1.13L32.91-1.13L32.91-4.55L30.42-4.55L30.42-0.47Q30.42 0.33 30.52 1.13L30.52 1.13L29.30 1.13Q29.39 0.28 29.39-0.42L29.39-0.42L29.39-4.55L27.14-4.55L27.14-1.17Q27.14-0.38 27.23 0.09L27.23 0.09L26.06 0.09Q26.16-0.23 26.16-1.41L26.16-1.41L26.16-4.17Q26.16-5.39 26.06-5.53L26.06-5.53Q26.06-5.53 26.16-5.53L26.16-5.53Q26.72-5.48 27.42-5.48L27.42-5.48L29.39-5.48L29.39-6.94L26.39-6.94Q25.27-6.94 24.70-6.84L24.70-6.84L24.70-8.02Q25.22-7.92 26.39-7.92L26.39-7.92ZM41.20-9.84L41.20-9.84Q42.05-9.61 42.42-9.42L42.42-9.42Q42.52-9.38 42.33-9.28L42.33-9.28Q42.14-9.09 42.09-9L42.09-9Q41.91-8.81 41.58-8.25L41.58-8.25Q41.44-8.06 41.44-8.06L41.44-8.06L45.61-8.06Q46.31-8.06 47.11-8.16L47.11-8.16L47.11-7.13Q46.31-7.17 45.66-7.17L45.66-7.17L41.06-7.17Q40.92-6.98 40.64-6.52L40.64-6.52Q39.84-5.25 39.33-4.55L39.33-4.55L41.91-4.55L41.91-5.25Q41.91-5.81 41.81-6.38L41.81-6.38Q43.03-6.38 43.08-6.23L43.08-6.23Q43.08-6.19 43.03-6.09L43.03-6.09Q42.84-5.91 42.84-5.53L42.84-5.53L42.84-4.55L44.95-4.55Q45.75-4.55 46.50-4.64L46.50-4.64L46.50-3.66Q46.36-3.66 46.08-3.70L46.08-3.70Q45.42-3.75 44.95-3.75L44.95-3.75L42.84-3.75L42.84 0.05Q43.17 1.27 40.88 1.31L40.88 1.31Q40.73 0.70 40.41 0.14L40.41 0.14Q42.14 0.52 41.91-0.47L41.91-0.47L41.91-3.70Q40.50-3.70 39.61-3.66L39.61-3.66Q38.53-3.56 38.02-3.42L38.02-3.42Q37.97-3.42 37.97-3.42L37.97-3.42L37.55-4.41Q38.30-4.64 38.72-5.20L38.72-5.20Q39.23-5.81 40.03-7.17L40.03-7.17L38.44-7.17Q37.73-7.17 36.98-7.13L36.98-7.13L36.98-8.16Q37.83-8.06 38.39-8.06L38.39-8.06L40.45-8.06Q40.92-8.86 41.20-9.84ZM39.80-2.81L39.80-2.81Q39.94-2.77 40.17-2.63L40.17-2.63Q40.97-2.30 40.92-2.25L40.92-2.25Q40.92-2.20 40.83-2.16L40.83-2.16Q40.55-2.06 40.36-1.88L40.36-1.88Q39.19-0.56 38.02 0.52L38.02 0.52L36.98-0.05Q38.58-1.13 39.80-2.81ZM43.78-2.11L44.58-2.72Q45.75-1.69 47.11-0.33L47.11-0.33L46.17 0.33Q45.19-0.94 43.78-2.11L43.78-2.11ZM50.95-9.61L52.17-9.89Q52.45-9.38 52.69-8.39L52.69-8.39L51.56-8.06Q51.38-8.91 50.95-9.61L50.95-9.61ZM59.20-9.19L59.20-9.19Q59.11-9.05 58.78-8.02L58.78-8.02Q58.17-6.19 57.75-5.16L57.75-5.16Q59.63-3.52 59.48-2.06L59.48-2.06Q59.25-0.70 57.09-0.28L57.09-0.28Q57-0.98 56.58-1.59L56.58-1.59Q58.17-1.41 58.31-2.44L58.31-2.44Q58.31-3.56 56.77-4.92L56.77-4.92Q57.28-6.19 57.84-8.25L57.84-8.25L56.11-8.25L56.11-0.56Q56.06 0.23 56.20 1.36L56.20 1.36L55.03 1.36Q55.08 1.22 55.13 0.28L55.13 0.28Q55.17-0.52 55.13-0.56L55.13-0.56L55.13-8.02Q55.17-8.53 55.03-9.19L55.03-9.19Q55.13-9.14 56.25-9.09L56.25-9.09L57.94-9.09Q59.06-9.14 59.20-9.19ZM54.56-7.92L54.56-7.92L54.56-6.84Q54.47-6.89 53.77-6.94L53.77-6.94Q53.11-6.98 53.06-6.94L53.06-6.94L50.16-6.94Q49.55-6.98 48.70-6.84L48.70-6.84L48.70-7.92Q48.80-7.88 49.45-7.83L49.45-7.83Q50.06-7.78 50.11-7.83L50.11-7.83L53.02-7.83Q53.72-7.78 54.56-7.92ZM52.13-5.95L52.88-6.56Q53.67-6.14 54.94-4.97L54.94-4.97L54.09-4.22Q53.34-5.25 52.13-5.95L52.13-5.95ZM50.53-6.56L50.53-6.56Q51.47-6.23 51.56-5.95L51.56-5.95Q51.56-5.91 51.42-5.81L51.42-5.81Q50.95-5.53 50.63-5.16L50.63-5.16Q49.78-4.17 49.27-3.70L49.27-3.70Q49.17-3.75 48.98-3.89L48.98-3.89Q48.66-4.17 48.38-4.27L48.38-4.27Q49.59-5.11 50.53-6.56ZM52.55-4.64L52.55-4.64Q53.44-4.45 53.63-4.22L53.63-4.22Q53.63-4.17 53.58-4.08L53.58-4.08Q53.34-3.84 53.16-3.42L53.16-3.42Q53.16-3.42 53.11-3.28L53.11-3.28Q52.73-2.53 52.59-2.30L52.59-2.30Q52.73-2.16 53.11-1.78L53.11-1.78Q53.91-1.03 54.42-0.47L54.42-0.47L53.39 0.14Q52.50-1.08 52.08-1.59L52.08-1.59Q50.91-0.23 49.17 0.70L49.17 0.70Q49.13 0.66 49.03 0.56L49.03 0.56Q48.66 0 48.38 0L48.38 0Q50.11-0.70 51.47-2.16L51.47-2.16Q50.48-3.28 49.83-3.70L49.83-3.70L50.67-4.31Q51.23-3.61 51.98-2.86L51.98-2.86Q52.27-3.38 52.55-4.64ZM65.25-9.52L65.25-9.52Q66.61-9.47 66.84-9.33L66.84-9.33Q66.84-9.28 66.80-9.19L66.80-9.19Q66.52-8.72 66.52-7.73L66.52-7.73L66.52 0Q66.89 0.75 64.27 0.94L64.27 0.94Q64.22 0.23 63.70-0.33L63.70-0.33Q65.58-0.09 65.39-0.66L65.39-0.66L65.39-7.69Q65.39-9 65.25-9.52ZM67.64-6.33L68.67-6.89Q70.22-4.41 71.34-1.88L71.34-1.88L70.03-1.27Q69-4.17 67.64-6.33L67.64-6.33ZM62.67-6.84L62.67-6.84Q63.89-6.61 64.08-6.42L64.08-6.42Q64.08-6.38 63.98-6.33L63.98-6.33Q63.70-6 63.56-5.53L63.56-5.53Q62.86-3.61 61.73-1.03L61.73-1.03Q61.13-1.41 60.38-1.41L60.38-1.41Q61.88-3 62.67-6.84ZM79.22-9.75L79.22-9.75Q80.30-9.75 80.53-9.66L80.53-9.66Q80.53-9.61 80.48-9.52L80.48-9.52Q80.25-9.19 80.20-8.58L80.20-8.58L81.98-8.58Q82.41-8.58 83.06-8.67L83.06-8.67L83.06-7.78Q82.41-7.88 82.03-7.88L82.03-7.88L80.11-7.88L80.02-7.08L81.05-7.08Q81.56-7.08 82.13-7.17L82.13-7.17Q82.22-7.17 82.22-7.17L82.22-7.17Q82.22-7.13 82.22-7.03L82.22-7.03Q82.13-6.52 82.13-5.95L82.13-5.95L82.13-1.59Q82.73-1.59 83.20-1.69L83.20-1.69L83.20-0.84Q83.11-0.84 82.88-0.89L82.88-0.89Q82.50-0.94 82.17-0.94L82.17-0.94L77.72-0.94Q77.30-0.94 76.64-0.84L76.64-0.84Q76.69-0.84 76.55-0.84L76.55-0.84L76.55-1.69Q76.92-1.59 77.39-1.59L77.39-1.59L77.39-6.05Q77.39-6.61 77.34-7.17L77.34-7.17Q77.39-7.17 77.48-7.17L77.48-7.17Q77.95-7.08 78.42-7.08L78.42-7.08L79.08-7.08L79.17-7.88L77.86-7.88Q77.44-7.88 76.73-7.78L76.73-7.78L76.73-8.67Q77.25-8.58 77.81-8.58L77.81-8.58L79.22-8.58Q79.27-8.91 79.22-9.52L79.22-9.52Q79.22-9.70 79.22-9.75ZM74.25-9.66L74.25-9.66Q74.34-9.61 74.48-9.56L74.48-9.56Q75.52-9.23 75.47-9.14L75.47-9.14Q75.47-9.14 75.42-9.09L75.42-9.09Q74.95-8.81 74.53-7.78L74.53-7.78L75.52-7.78Q75.89-7.78 76.45-7.88L76.45-7.88L76.45-6.98Q75.98-7.08 75.52-7.08L75.52-7.08L74.16-7.08Q73.88-6.61 73.41-5.91L73.41-5.91Q73.41-5.91 73.45-5.91L73.45-5.91Q73.64-5.81 74.11-5.81L74.11-5.81L75.42-5.81Q75.89-5.81 76.31-5.91L76.31-5.91L76.31-5.02Q75.94-5.11 75.47-5.11L75.47-5.11L74.91-5.11L74.91-3.66L75.42-3.66Q75.80-3.66 76.55-3.75L76.55-3.75L76.55-2.81Q75.80-2.91 75.42-2.91L75.42-2.91L74.91-2.91L74.91-0.61Q75.23-0.84 75.89-1.41L75.89-1.41Q75.80-1.31 76.08-1.55L76.08-1.55L76.27-0.56Q74.91 0.23 74.11 1.08L74.11 1.08L73.41 0.09Q73.83 0 74.06-0.23L74.06-0.23L74.06-2.91L73.69-2.91Q73.08-2.91 72.70-2.81L72.70-2.81L72.70-3.70Q72.80-3.70 72.94-3.66L72.94-3.66Q73.31-3.61 73.64-3.61L73.64-3.61L74.06-3.61L74.06-5.06Q73.69-5.06 73.27-5.02L73.27-5.02L73.27-5.72Q73.17-5.53 72.94-5.20L72.94-5.20Q72.75-5.63 72.38-6.09L72.38-6.09Q73.78-7.45 74.25-9.66ZM81.28-6.42L78.28-6.42L78.28-5.63L81.28-5.63L81.28-6.42ZM81.28-5.11L78.28-5.11L78.28-4.27L81.28-4.27L81.28-5.11ZM81.28-3.75L78.28-3.75L78.28-2.95L81.28-2.95L81.28-3.75ZM81.28-2.44L78.28-2.44L78.28-1.59L81.28-1.59L81.28-2.44ZM80.16-0.23L80.86-0.80Q82.69 0.05 83.34 0.47L83.34 0.47L82.50 1.27Q81.70 0.42 80.16-0.23L80.16-0.23ZM78.66-0.75L78.66-0.75L79.59-0.14Q79.59-0.09 79.31 0L79.31 0Q79.08 0.05 78.94 0.09L78.94 0.09Q78.61 0.28 78.05 0.61L78.05 0.61Q77.20 1.08 76.69 1.31L76.69 1.31L75.94 0.66Q77.53 0.19 78.66-0.75Z" transform="translate(-0.703125, 9.890625)"/>
					</g>
				</g>
			</g>
		</g>
	</g>
	<defs v-gra="od"/>
</svg>