<svg data-v-0dd9719b="" version="1.0" xmlns="http://www.w3.org/2000/svg" xmlns:xlink="http://www.w3.org/1999/xlink" width="100%" height="100%" viewBox="0 0 340.000000 250.000000" preserveAspectRatio="xMidYMid meet" color-interpolation-filters="sRGB" style="margin: auto;"> <rect data-v-0dd9719b="" x="0" y="0" width="100%" height="100%" fill="#ffffff" fill-opacity="1" class="background"></rect> <rect data-v-0dd9719b="" x="0" y="0" width="100%" height="100%" fill="url(#watermark)" fill-opacity="1" class="watermarklayer"></rect> <g data-v-0dd9719b="" fill="#cc2229" class="iconbordersvg" transform="translate(50.78871154785156,97.20000267028809)"><g data-gra="graph-icon-name"><g><rect data-gra="graph-name-bg" stroke-width="2" class="i-icon-bg" x="0" y="0" width="238.42257690429688" height="55.59999465942383" fill-opacity="0" stroke="rgb(204, 34, 41)"></rect> <!----> <!----> </g> <g transform="translate(0,0)"><g data-gra="graph-icon" transform="translate(0,0)"><g><rect data-gra="graph-name-bg" stroke-width="2" class="i-icon-bg" x="0" y="0" width="55.599998474121094" height="55.599998474121094" fill-opacity="0"></rect> <!----> <!----> </g> <g transform="translate(5,5)"><g class="iconsvg-imagesvg"><g><!----> <svg filter="url(#colors4504300927)" x="0" y="0" width="45.59999999999999" height="45.59999999999999" filtersec="colorsf7625953222" class="image-svg-svg primary" style="overflow: visible;"><svg xmlns="http://www.w3.org/2000/svg" viewBox="0.7999999999999998 0.7999999999999998 95.39999 95.39999"><path d="M48.5 94.2L2.8 48.5 48.5 2.8l45.7 45.7-45.7 45.7zm22.9-68.5L25.7 71.4m60.9-15.3L71.4 40.9 33.3 79M79 63.8l-7.6-7.6-30.5 30.4M10.4 40.9l15.2 15.2L63.7 18M18.1 33.3l7.6 7.6 30.5-30.5" fill="none" stroke="#333" stroke-width="4" stroke-miterlimit="10"></path></svg></svg> <defs><filter id="colors4504300927"><feColorMatrix type="matrix" values="0 0 0 0 0.3125  0 0 0 0 0.3671875  0 0 0 0 0.5234375  0 0 0 1 0" class="icon-fecolormatrix"></feColorMatrix></filter> <filter id="colorsf7625953222"><feColorMatrix type="matrix" values="0 0 0 0 0.99609375  0 0 0 0 0.99609375  0 0 0 0 0.99609375  0 0 0 1 0" class="icon-fecolormatrix"></feColorMatrix></filter> <filter id="colorsb4652468894"><feColorMatrix type="matrix" values="0 0 0 0 0  0 0 0 0 0  0 0 0 0 0  0 0 0 1 0" class="icon-fecolormatrix"></feColorMatrix></filter></defs></g></g></g></g> <g data-gra="graph-name" transform="translate(55.59999465942383,0)" mask="url(#442f3b9d-6ae8-4494-9c5b-fa895557dacb)"><g><rect data-gra="graph-name-bg" stroke-width="2" class="i-icon-bg" x="0" y="0" width="182.82260131835938" height="55.599998474121094" fill-opacity="1"></rect> <!----> <!----> </g> <g transform="translate(5,7.65472412109375)"><g data-gra="path-name" fill-rule="" class="tp-name" transform="translate(0,0)"><g transform="scale(0.5799999999999998)"><g><path d="M2.9-22.88L6.83-22.88 6.83 2.9Q7 8.71 0.85 8.71L0.85 8.71Q0.17 8.71-0.34 8.71L-0.34 8.71-0.34 5.46 0.17 5.46Q3.24 5.81 2.9 2.56L2.9 2.56 2.9-22.88ZM2.9-31.25L6.83-31.25 6.83-26.98 2.9-26.98 2.9-31.25ZM12.47-22.88L16.39-22.88 16.39 0 12.47 0 12.47-22.88ZM16.39-31.25L16.39-26.98 12.47-26.98 12.47-31.25 16.39-31.25ZM40.47-15.54L40.47-15.54 40.47 0 36.71 0 36.71-14Q37.05-20.32 31.76-19.98L31.76-19.98Q25.96-19.64 25.78-12.47L25.78-12.47 25.78 0 21.86 0 21.86-22.88 25.61-22.88 25.61-19.64Q28.35-23.56 32.61-23.56L32.61-23.56Q40.3-23.39 40.47-15.54ZM64.38-22.88L56.69-11.78 64.72 0 59.94 0 54.13-8.54 48.67 0 43.88 0 51.91-11.78 44.23-22.88 49.18-22.88 54.47-14.69 59.77-22.88 64.38-22.88ZM68.13-22.88L72.06-22.88 72.06 0 68.13 0 68.13-22.88ZM72.06-31.25L72.06-26.98 68.13-26.98 68.13-31.25 72.06-31.25ZM81.11-15.88L81.11-15.88 77.52-15.88Q77.69-23.56 86.92-23.56L86.92-23.56Q95.11-23.22 95.28-17.08L95.28-17.08 95.28-3.93Q95.28-2.56 96.65-2.56L96.65-2.56Q96.82-2.56 97.16-2.56L97.16-2.56Q97.67-2.73 98.01-2.73L98.01-2.73 98.01 0Q97.67 0 97.16 0L97.16 0Q96.31 0.17 95.8 0.17L95.8 0.17Q91.7 0.17 91.87-3.07L91.87-3.07Q88.45 0.34 83.5 0.34L83.5 0.34Q76.67 0 76.33-5.98L76.33-5.98Q76.5-12.12 83.33-13.15L83.33-13.15 89.65-13.83Q91.7-14.17 91.7-16.56L91.7-16.56Q91.7-20.32 86.23-20.32L86.23-20.32Q81.45-20.32 81.11-15.88ZM91.53-7.85L91.53-7.85 91.53-11.61Q90.16-10.76 85.21-10.07L85.21-10.07Q80.43-9.73 80.43-6.49L80.43-6.49Q80.43-2.56 84.35-2.56L84.35-2.56Q91.01-3.07 91.53-7.85ZM100.58-11.44L100.58-11.44Q101.26-23.05 111.16-23.56L111.16-23.56Q121.07-23.05 121.75-11.44L121.75-11.44Q121.07 0 111.16 0.34L111.16 0.34Q101.26 0 100.58-11.44ZM104.5-11.44L104.5-11.44Q105.02-2.9 111.16-2.73L111.16-2.73Q117.31-2.9 117.82-11.44L117.82-11.44Q117.31-19.98 111.16-20.15L111.16-20.15Q105.02-19.98 104.5-11.44ZM144.12-15.03L144.12-15.03 140.36-15.03Q139.85-19.98 135.07-19.98L135.07-19.98Q128.92-19.64 128.58-11.44L128.58-11.44Q128.58-2.56 134.9-2.56L134.9-2.56Q139.51-2.9 140.36-8.03L140.36-8.03 144.12-8.03Q142.75 0.17 134.9 0.34L134.9 0.34Q124.99 0 124.65-10.76L124.65-10.76Q124.99-23.22 135.58-23.56L135.58-23.56Q143.09-23.39 144.12-15.03ZM166.49-22.88L166.49 0 162.9 0 162.9-3.24 162.73-3.42Q160.34 0.51 155.39 0.34L155.39 0.34Q148.22 0 148.05-6.49L148.05-6.49 148.05-22.88 151.97-22.88 151.97-7.68Q151.97-2.56 156.41-2.56L156.41-2.56Q162.22-2.73 162.73-10.25L162.73-10.25 162.73-22.88 166.49-22.88ZM190.74-15.54L190.74-15.54 190.74 0 186.98 0 186.98-14Q187.32-20.32 182.03-19.98L182.03-19.98Q176.22-19.64 176.05-12.47L176.05-12.47 176.05 0 172.12 0 172.12-22.88 175.88-22.88 175.88-19.64Q178.61-23.56 182.88-23.56L182.88-23.56Q190.57-23.39 190.74-15.54ZM197.4-4.61L202.01-4.61 202.01 0 197.4 0 197.4-4.61ZM221.47-17.76L221.3-17.76 217.03 0 212.93 0 206.45-22.88 210.54-22.88 214.81-4.78 214.98-4.78 219.42-22.88 223.69-22.88 228.13-4.78 228.3-4.78 232.74-22.88 236.67-22.88 230.01 0 226.08 0 221.47-17.76ZM238.72-11.44L238.72-11.44Q239.4-23.05 249.31-23.56L249.31-23.56Q259.21-23.05 259.89-11.44L259.89-11.44Q259.21 0 249.31 0.34L249.31 0.34Q239.4 0 238.72-11.44ZM242.65-11.44L242.65-11.44Q243.16-2.9 249.31-2.73L249.31-2.73Q255.45-2.9 255.97-11.44L255.97-11.44Q255.45-19.98 249.31-20.15L249.31-20.15Q243.16-19.98 242.65-11.44ZM268.6-13.32L268.6-13.32 268.6 0 264.67 0 264.67-22.88 268.43-22.88 268.43-18.95Q270.99-23.56 274.92-23.56L274.92-23.56Q275.26-23.56 275.6-23.39L275.6-23.39Q275.77-23.39 275.94-23.39L275.94-23.39 275.94-19.3 274.41-19.3Q268.94-18.95 268.6-13.32ZM297.12-22.88L288.41-14.34 297.63 0 292.68 0 285.51-11.61 282.43-8.54 282.43 0 278.68 0 278.68-31.25 282.43-31.25 282.43-13.15 292.34-22.88 297.12-22.88Z" transform="translate(0.3400000035762787, 31.25)"></path></g> <!----> <!----> <!----> <!----> <!----> <!----> <!----></g></g> <g data-gra="path-slogan" fill-rule="" class="tp-slogan" fill="" transform="translate(44.90129852294922,29.17679786682129)"><!----> <!----> <g transform="scale(1, 1)"><g transform="scale(1)"><path d="M5.58-9.61L5.58-9.61Q6.89-9.33 6.89-9.23L6.89-9.23Q6.94-9.19 6.75-9.05L6.75-9.05Q6.66-8.95 6.61-8.91L6.61-8.91Q7.88-6.42 11.58-5.44L11.58-5.44Q11.02-4.83 10.78-4.22L10.78-4.22Q7.69-5.72 6.09-8.11L6.09-8.11Q4.27-5.63 1.41-3.94L1.41-3.94Q0.94-4.50 0.42-4.73L0.42-4.73Q4.31-6.38 5.58-9.61ZM5.77-5.25L5.72-6.09Q6.89-6.09 6.94-5.95L6.94-5.95Q6.94-5.91 6.89-5.86L6.89-5.86Q6.75-5.48 6.75-5.06L6.75-5.06L6.75-3.52L7.92-3.52Q9.09-3.52 9.75-3.61L9.75-3.61L9.75-2.63Q9.56-2.67 8.58-2.67L8.58-2.67Q8.16-2.67 7.92-2.67L7.92-2.67L6.75-2.67L6.75-0.09L8.34-0.09Q10.22-0.09 10.69-0.23L10.69-0.23L10.69 0.84Q10.31 0.70 8.34 0.70L8.34 0.70L3 0.70Q1.41 0.70 0.94 0.80L0.94 0.80L0.94-0.19Q1.45-0.09 3-0.09L3-0.09L3-3.61Q3-3.89 2.95-4.69L2.95-4.69Q3.89-4.69 4.22-4.55L4.22-4.55Q4.22-4.50 4.17-4.36L4.17-4.36Q3.98-4.03 3.98-3.75L3.98-3.75L3.98-0.09L5.77-0.09L5.77-5.25ZM18.56-9.28L18.56-9.28Q18.61-9.28 18.66-9.28L18.66-9.28Q19.83-9.19 19.83-9.05L19.83-9.05Q19.83-8.95 19.73-8.81L19.73-8.81Q19.59-8.53 19.55-8.30L19.55-8.30L19.55-0.42L21.19-0.42Q22.13-0.42 23.16-0.52L23.16-0.52L23.16 0.52Q22.31 0.42 21.19 0.42L21.19 0.42L14.44 0.42Q13.59 0.42 12.80 0.52L12.80 0.52L12.80-0.52Q13.50-0.42 14.44-0.42L14.44-0.42L16.31-0.42L16.31-8.11Q16.31-8.48 16.27-9.05L16.27-9.05Q16.27-9.23 16.27-9.28L16.27-9.28Q17.63-9.14 17.58-8.95L17.58-8.95Q17.58-8.91 17.48-8.77L17.48-8.77Q17.25-8.48 17.25-8.11L17.25-8.11L17.25-0.42L18.61-0.42L18.61-8.20Q18.61-9.19 18.56-9.28ZM21.56-7.17L21.56-7.17Q23.02-6.75 23.02-6.56L23.02-6.56Q23.02-6.47 22.88-6.38L22.88-6.38Q22.64-6.19 22.59-5.95L22.59-5.95Q22.50-5.77 22.36-5.34L22.36-5.34Q21.47-2.81 21.09-2.11L21.09-2.11Q20.58-2.44 19.92-2.44L19.92-2.44Q21.09-4.59 21.56-7.17ZM13.27-6.75L14.34-7.13Q15.23-4.83 15.80-2.63L15.80-2.63L14.58-2.30Q14.44-3.94 13.27-6.75L13.27-6.75ZM29.48-9.42L29.48-9.42Q30.66-9.33 30.80-9.23L30.80-9.23Q30.80-9.23 30.75-9.19L30.75-9.19Q30.61-9 30.56-8.72L30.56-8.72Q30.56-8.63 30.56-8.44L30.56-8.44Q30.52-7.88 30.52-7.36L30.52-7.36L32.06-7.36L32.06-8.16Q32.06-8.81 32.02-9.28L32.02-9.28Q32.02-9.38 32.02-9.38L32.02-9.38Q32.11-9.38 32.39-9.33L32.39-9.33Q33.38-9.28 33.33-9.23L33.33-9.23Q33.33-9.19 33.28-9.14L33.28-9.14Q33.14-8.95 33.09-8.72L33.09-8.72Q33.09-8.67 33.09-8.53L33.09-8.53Q33.05-8.30 33.05-8.16L33.05-8.16L33.05-7.36L33.38-7.36Q34.36-7.41 34.88-7.45L34.88-7.45L34.88-6.52Q34.27-6.61 33.42-6.61L33.42-6.61L33.05-6.61L33.05-4.69L33.47-4.69Q34.59-4.73 35.11-4.78L35.11-4.78L35.11-3.84Q34.55-3.89 33.47-3.94L33.47-3.94L33.05-3.94L33.05-2.39Q33.05-2.16 33.09-1.31L33.09-1.31Q33.14-0.56 33.14-0.42L33.14-0.42L32.02-0.42Q32.06-0.75 32.06-2.44L32.06-2.44L32.06-3.94L30.47-3.94Q30.28-1.78 28.92-0.52L28.92-0.52Q28.36-0.89 27.75-0.98L27.75-0.98Q29.25-1.88 29.48-3.94L29.48-3.94L29.25-3.94Q28.22-3.89 27.61-3.84L27.61-3.84L27.61-4.78Q28.17-4.73 29.25-4.69L29.25-4.69L29.53-4.69Q29.58-4.97 29.58-6.61L29.58-6.61L29.39-6.61Q28.41-6.56 27.89-6.52L27.89-6.52L27.89-7.45Q28.55-7.36 29.34-7.36L29.34-7.36L29.58-7.36Q29.63-8.25 29.48-9.42ZM25.17-8.67L26.20-9.09Q26.81-8.20 27.28-6.98L27.28-6.98L26.11-6.61Q25.83-7.55 25.17-8.67L25.17-8.67ZM32.06-6.61L30.52-6.61Q30.52-6.38 30.52-4.69L30.52-4.69L32.06-4.69L32.06-6.61ZM24.66-4.59L24.66-5.63Q25.73-5.53 26.95-5.63L26.95-5.63Q26.91-5.25 26.91-3.94L26.91-3.94L26.91-0.94Q29.53 0.52 35.20-0.33L35.20-0.33Q34.83 0.05 34.64 0.89L34.64 0.89Q34.36 0.89 33.80 0.89L33.80 0.89Q29.30 0.94 28.27 0.52L28.27 0.52Q27.84 0.38 27.23 0.09L27.23 0.09Q26.58-0.23 26.34-0.14L26.34-0.14Q25.88-0.05 25.27 0.89L25.27 0.89L24.38 0Q25.50-0.66 25.92-0.94L25.92-0.94L25.92-4.69Q25.08-4.64 24.66-4.59L24.66-4.59ZM43.45-9.61L43.45-9.61Q44.77-9.61 44.72-9.47L44.72-9.47Q44.72-9.42 44.67-9.33L44.67-9.33Q44.48-9.05 44.48-8.63L44.48-8.63L44.48-5.95Q46.36-5.95 46.78-6.05L46.78-6.05Q46.69-5.25 46.69-4.36L46.69-4.36L46.69 0.28Q46.92 1.27 44.77 1.27L44.77 1.27Q44.77 0.80 44.34 0.14L44.34 0.14Q45.70 0.47 45.75-0.09L45.75-0.09L45.75-1.22L42.47-1.22L42.47-0.56Q42.47 0 42.52 0.61L42.52 0.61Q42.56 0.98 42.56 1.17L42.56 1.17L41.44 1.17Q41.53 0.38 41.53-0.56L41.53-0.56L41.53-4.31Q41.53-5.67 41.44-6.09L41.44-6.09Q41.44-6.09 41.53-6.09L41.53-6.09Q42.28-6 43.55-5.95L43.55-5.95L43.55-8.67Q43.55-9.23 43.45-9.61ZM46.13-8.95L46.13-8.95Q47.30-8.48 47.30-8.25L47.30-8.25Q47.30-8.20 47.25-8.20L47.25-8.20Q47.02-8.16 46.78-7.88L46.78-7.88Q46.73-7.78 46.59-7.55L46.59-7.55Q46.03-6.70 45.75-6.33L45.75-6.33Q45.47-6.56 44.91-6.70L44.91-6.70Q45.61-7.64 46.13-8.95ZM41.11-8.34L42-8.67Q42.66-7.83 43.08-6.89L43.08-6.89L42.19-6.52Q41.81-7.31 41.11-8.34L41.11-8.34ZM45.75-5.25L42.47-5.25L42.47-3.94L45.75-3.94L45.75-5.25ZM45.75-3.28L42.47-3.28L42.47-1.92L45.75-1.92L45.75-3.28ZM38.25-9.75L38.25-9.75Q39.47-9.47 39.42-9.28L39.42-9.28Q39.42-9.28 39.38-9.19L39.38-9.19Q38.95-8.81 38.48-7.69L38.48-7.69L39.14-7.69Q39.42-7.69 40.22-7.73L40.22-7.73Q40.69-7.73 40.83-7.73L40.83-7.73L40.83-6.84Q40.64-6.84 40.03-6.84L40.03-6.84Q39.38-6.89 39.14-6.89L39.14-6.89L38.11-6.89Q37.97-6.66 37.08-5.34L37.08-5.34Q36.89-5.81 36.47-6.19L36.47-6.19Q37.83-7.88 38.25-9.75ZM38.77-5.77L39.38-5.77Q39.52-5.77 39.84-5.77L39.84-5.77Q40.36-5.81 40.59-5.81L40.59-5.81L40.59-4.92Q40.41-5.02 39.14-5.02L39.14-5.02L39.14-3.56Q40.03-3.56 40.59-3.66L40.59-3.66Q40.69-3.66 40.73-3.66L40.73-3.66L40.73-2.72Q40.69-2.72 40.59-2.72L40.59-2.72Q40.03-2.77 39.14-2.77L39.14-2.77L39.14-0.66L40.36-1.88L40.59-0.80Q39.52 0 38.63 0.80L38.63 0.80Q38.44 0.94 38.39 0.98L38.39 0.98L37.73 0.05Q38.16-0.19 38.25-0.47L38.25-0.47L38.25-2.77Q37.31-2.72 36.80-2.67L36.80-2.67L36.80-3.66Q37.17-3.56 38.25-3.56L38.25-3.56L38.25-5.02Q37.92-5.02 37.45-4.97L37.45-4.97L37.45-5.81Q37.83-5.77 38.77-5.77L38.77-5.77ZM52.92-9.80L52.92-9.80Q54.28-9.56 54.19-9.42L54.19-9.42Q54.19-9.42 54.09-9.33L54.09-9.33Q53.63-8.95 53.34-8.11L53.34-8.11L57.14-8.11Q58.55-8.11 59.30-8.20L59.30-8.20L59.30-7.17Q58.64-7.27 57.14-7.27L57.14-7.27L52.97-7.27Q52.83-7.08 52.64-6.70L52.64-6.70Q51.89-5.44 51.56-5.02L51.56-5.02L51.56-0.56Q51.56 0.89 51.61 1.17L51.61 1.17L50.48 1.17Q50.53 1.08 50.53-0.61L50.53-0.61L50.53-3.84Q49.64-2.81 49.08-2.34L49.08-2.34Q49.03-2.44 48.47-2.81L48.47-2.81Q48.28-2.95 48.19-3.05L48.19-3.05Q49.64-3.98 50.58-5.16L50.58-5.16L50.53-5.95L51.05-5.86Q51.33-6.19 51.75-6.89L51.75-6.89Q51.89-7.13 51.94-7.22L51.94-7.22L50.58-7.22Q49.73-7.22 48.80-7.17L48.80-7.17L48.80-8.16Q48.89-8.16 49.17-8.16L49.17-8.16Q49.92-8.11 50.67-8.11L50.67-8.11L52.31-8.11Q52.83-9 52.92-9.80ZM58.59-5.81L58.59-5.81L58.59-4.78Q57.84-4.69 56.44-3.70L56.44-3.70L56.44-2.95L57.61-2.95Q58.97-2.95 59.44-3.05L59.44-3.05L59.44-2.06Q59.25-2.06 58.69-2.11L58.69-2.11Q57.94-2.16 57.61-2.16L57.61-2.16L56.44-2.16L56.44 0Q56.67 1.31 54.70 1.22L54.70 1.22Q54.56 0.66 54.14 0.09L54.14 0.09Q55.69 0.38 55.45-0.28L55.45-0.28L55.45-2.11L53.91-2.11Q52.64-2.11 52.13-2.06L52.13-2.06L52.13-3Q52.97-2.91 53.91-2.91L53.91-2.91L55.45-2.91L55.45-3.98L57.09-5.02L54.75-5.02Q53.39-5.02 53.02-4.97L53.02-4.97L53.02-5.81Q53.34-5.77 54.70-5.77L54.70-5.77L56.91-5.77Q57.33-5.77 58.08-5.81L58.08-5.81Q58.50-5.81 58.59-5.81ZM69.80-9.23L69.80-9.23Q69.84-9.14 69.98-8.95L69.98-8.95Q70.55-8.11 70.45-8.11L70.45-8.11Q69.19-8.11 65.72-7.78L65.72-7.78Q66.42-7.50 66.56-7.36L66.56-7.36Q66.56-7.31 66.28-7.22L66.28-7.22Q65.86-7.08 65.63-6.89L65.63-6.89Q65.34-6.70 64.55-6.19L64.55-6.19Q64.03-5.86 63.70-5.67L63.70-5.67L66.80-5.86Q67.92-6.70 68.44-7.27L68.44-7.27Q69.33-6.70 69.47-6.52L69.47-6.52Q69.47-6.47 69.28-6.38L69.28-6.38Q68.86-6.19 68.48-5.95L68.48-5.95Q68.44-5.91 68.30-5.81L68.30-5.81Q65.91-4.27 63.98-3.52L63.98-3.52L68.81-3.70Q67.78-4.41 67.73-4.41L67.73-4.41L68.48-5.11Q70.17-3.84 71.02-3L71.02-3L70.22-2.25Q69.94-2.67 69.52-3L69.52-3L66.75-2.86L66.75-0.14Q67.13 0.80 64.88 0.89L64.88 0.89Q64.78 0.33 64.59-0.05L64.59-0.05Q64.55-0.14 64.55-0.14L64.55-0.14Q65.91 0 65.77-0.61L65.77-0.61L65.77-2.81L63.61-2.72Q63.47-2.72 63.23-2.67L63.23-2.67Q62.48-2.63 62.11-2.53L62.11-2.53L61.78-3.56Q62.86-3.61 65.72-5.16L65.72-5.16Q63.38-5.02 62.77-4.78L62.77-4.78L62.20-5.77Q63.84-6.47 65.16-7.73L65.16-7.73L61.92-7.36Q61.83-7.69 61.64-8.06L61.64-8.06Q61.50-8.30 61.41-8.44L61.41-8.44Q65.77-8.44 69.80-9.23ZM67.78-1.50L68.53-2.20Q69.09-1.83 70.55-0.70L70.55-0.70Q70.88-0.42 71.02-0.33L71.02-0.33L70.13 0.42Q68.91-0.84 67.78-1.50L67.78-1.50ZM63.61-2.20L63.61-2.20L64.50-1.59Q62.86 0 62.20 0.47L62.20 0.47Q61.83 0 61.27-0.14L61.27-0.14Q62.63-1.03 63.61-2.20ZM79.13-9.61L79.97-9.84Q80.34-8.95 80.53-8.34L80.53-8.34L79.69-8.11Q79.64-8.72 79.13-9.61L79.13-9.61ZM74.39-9.52L74.39-9.52Q74.58-9.42 74.91-9.33L74.91-9.33Q75.56-9.05 75.56-8.95L75.56-8.95Q75.61-8.86 75.28-8.58L75.28-8.58Q75.09-8.44 75.05-8.39L75.05-8.39Q74.48-7.55 73.55-5.95L73.55-5.95L75.33-6L75.84-7.03Q76.03-6.94 76.36-6.75L76.36-6.75Q76.92-6.52 76.88-6.42L76.88-6.42Q76.88-6.38 76.73-6.28L76.73-6.28Q76.45-6.05 76.27-5.77L76.27-5.77Q75.84-5.11 74.67-3.56L74.67-3.56Q74.25-3.09 74.06-2.81L74.06-2.81Q74.39-2.91 75-3L75-3Q75.98-3.23 76.69-3.38L76.69-3.38L76.50-2.44Q74.34-2.16 73.13-1.78L73.13-1.78L72.75-2.86Q73.78-3.52 74.91-5.30L74.91-5.30L73.78-5.25Q73.31-5.20 72.84-5.06L72.84-5.06L72.47-6.05Q73.55-7.13 74.39-9.52ZM83.30-8.02L83.30-8.02L83.30-7.03Q82.69-7.13 81.98-7.13L81.98-7.13L78.05-7.13Q77.44-7.13 76.69-7.03L76.69-7.03L76.69-8.02Q77.34-7.92 78.14-7.92L78.14-7.92L81.98-7.92Q82.50-7.92 83.30-8.02ZM76.88-1.36L76.88-1.36L76.78-0.38Q74.39-0.05 72.80 0.38L72.80 0.38L72.52-0.56Q74.34-0.75 76.88-1.36ZM78.98-7.03L78.98-7.03Q79.31-6.80 79.64-6.61L79.64-6.61Q79.83-6.52 79.92-6.47L79.92-6.47Q79.92-6.42 79.73-6.28L79.73-6.28Q78.89-5.58 77.95-4.55L77.95-4.55L81.38-4.69Q80.86-5.44 80.53-5.67L80.53-5.67L81.33-6.23Q81.42-6.09 81.80-5.67L81.80-5.67Q82.97-4.22 83.20-3.89L83.20-3.89L82.27-3.23Q82.22-3.56 81.89-3.98L81.89-3.98L80.81-3.98L80.81-0.33Q80.77 0.09 81.28 0.05L81.28 0.05L81.75 0.05Q82.36 0.19 82.45-1.03L82.45-1.03Q82.73-0.66 83.44-0.42L83.44-0.42Q83.16 0.98 82.27 0.94L82.27 0.94L80.72 0.94Q79.97 0.94 79.97 0.05L79.97 0.05L79.97-3.89L79.13-3.89Q79.13-1.50 78.66-0.56L78.66-0.56Q78.33 0.33 76.92 1.22L76.92 1.22Q76.59 0.94 75.98 0.66L75.98 0.66Q75.84 0.56 75.84 0.56L75.84 0.56Q77.39 0 77.77-0.80L77.77-0.80Q78.23-1.59 78.23-3.80L78.23-3.80Q78.19-3.80 78.09-3.80L78.09-3.80Q77.77-3.75 77.11-3.61L77.11-3.61L76.73-4.64Q77.48-5.02 78.98-7.03Z" transform="translate(-0.421875, 9.84375)"></path></g></g></g></g></g></g></g></g><mask id="442f3b9d-6ae8-4494-9c5b-fa895557dacb"><g fill="white"><rect data-gra="graph-name-bg" stroke-width="2" class="i-icon-bg" x="0" y="0" width="182.82260131835938" height="55.599998474121094" fill-opacity="1"></rect>   </g> <g transform="translate(5,7.65472412109375)" fill="black"><g data-gra="path-name" fill-rule="" class="tp-name" transform="translate(0,0)"><g transform="scale(0.5799999999999998)"><g><path d="M2.9-22.88L6.83-22.88 6.83 2.9Q7 8.71 0.85 8.71L0.85 8.71Q0.17 8.71-0.34 8.71L-0.34 8.71-0.34 5.46 0.17 5.46Q3.24 5.81 2.9 2.56L2.9 2.56 2.9-22.88ZM2.9-31.25L6.83-31.25 6.83-26.98 2.9-26.98 2.9-31.25ZM12.47-22.88L16.39-22.88 16.39 0 12.47 0 12.47-22.88ZM16.39-31.25L16.39-26.98 12.47-26.98 12.47-31.25 16.39-31.25ZM40.47-15.54L40.47-15.54 40.47 0 36.71 0 36.71-14Q37.05-20.32 31.76-19.98L31.76-19.98Q25.96-19.64 25.78-12.47L25.78-12.47 25.78 0 21.86 0 21.86-22.88 25.61-22.88 25.61-19.64Q28.35-23.56 32.61-23.56L32.61-23.56Q40.3-23.39 40.47-15.54ZM64.38-22.88L56.69-11.78 64.72 0 59.94 0 54.13-8.54 48.67 0 43.88 0 51.91-11.78 44.23-22.88 49.18-22.88 54.47-14.69 59.77-22.88 64.38-22.88ZM68.13-22.88L72.06-22.88 72.06 0 68.13 0 68.13-22.88ZM72.06-31.25L72.06-26.98 68.13-26.98 68.13-31.25 72.06-31.25ZM81.11-15.88L81.11-15.88 77.52-15.88Q77.69-23.56 86.92-23.56L86.92-23.56Q95.11-23.22 95.28-17.08L95.28-17.08 95.28-3.93Q95.28-2.56 96.65-2.56L96.65-2.56Q96.82-2.56 97.16-2.56L97.16-2.56Q97.67-2.73 98.01-2.73L98.01-2.73 98.01 0Q97.67 0 97.16 0L97.16 0Q96.31 0.17 95.8 0.17L95.8 0.17Q91.7 0.17 91.87-3.07L91.87-3.07Q88.45 0.34 83.5 0.34L83.5 0.34Q76.67 0 76.33-5.98L76.33-5.98Q76.5-12.12 83.33-13.15L83.33-13.15 89.65-13.83Q91.7-14.17 91.7-16.56L91.7-16.56Q91.7-20.32 86.23-20.32L86.23-20.32Q81.45-20.32 81.11-15.88ZM91.53-7.85L91.53-7.85 91.53-11.61Q90.16-10.76 85.21-10.07L85.21-10.07Q80.43-9.73 80.43-6.49L80.43-6.49Q80.43-2.56 84.35-2.56L84.35-2.56Q91.01-3.07 91.53-7.85ZM100.58-11.44L100.58-11.44Q101.26-23.05 111.16-23.56L111.16-23.56Q121.07-23.05 121.75-11.44L121.75-11.44Q121.07 0 111.16 0.34L111.16 0.34Q101.26 0 100.58-11.44ZM104.5-11.44L104.5-11.44Q105.02-2.9 111.16-2.73L111.16-2.73Q117.31-2.9 117.82-11.44L117.82-11.44Q117.31-19.98 111.16-20.15L111.16-20.15Q105.02-19.98 104.5-11.44ZM144.12-15.03L144.12-15.03 140.36-15.03Q139.85-19.98 135.07-19.98L135.07-19.98Q128.92-19.64 128.58-11.44L128.58-11.44Q128.58-2.56 134.9-2.56L134.9-2.56Q139.51-2.9 140.36-8.03L140.36-8.03 144.12-8.03Q142.75 0.17 134.9 0.34L134.9 0.34Q124.99 0 124.65-10.76L124.65-10.76Q124.99-23.22 135.58-23.56L135.58-23.56Q143.09-23.39 144.12-15.03ZM166.49-22.88L166.49 0 162.9 0 162.9-3.24 162.73-3.42Q160.34 0.51 155.39 0.34L155.39 0.34Q148.22 0 148.05-6.49L148.05-6.49 148.05-22.88 151.97-22.88 151.97-7.68Q151.97-2.56 156.41-2.56L156.41-2.56Q162.22-2.73 162.73-10.25L162.73-10.25 162.73-22.88 166.49-22.88ZM190.74-15.54L190.74-15.54 190.74 0 186.98 0 186.98-14Q187.32-20.32 182.03-19.98L182.03-19.98Q176.22-19.64 176.05-12.47L176.05-12.47 176.05 0 172.12 0 172.12-22.88 175.88-22.88 175.88-19.64Q178.61-23.56 182.88-23.56L182.88-23.56Q190.57-23.39 190.74-15.54ZM197.4-4.61L202.01-4.61 202.01 0 197.4 0 197.4-4.61ZM221.47-17.76L221.3-17.76 217.03 0 212.93 0 206.45-22.88 210.54-22.88 214.81-4.78 214.98-4.78 219.42-22.88 223.69-22.88 228.13-4.78 228.3-4.78 232.74-22.88 236.67-22.88 230.01 0 226.08 0 221.47-17.76ZM238.72-11.44L238.72-11.44Q239.4-23.05 249.31-23.56L249.31-23.56Q259.21-23.05 259.89-11.44L259.89-11.44Q259.21 0 249.31 0.34L249.31 0.34Q239.4 0 238.72-11.44ZM242.65-11.44L242.65-11.44Q243.16-2.9 249.31-2.73L249.31-2.73Q255.45-2.9 255.97-11.44L255.97-11.44Q255.45-19.98 249.31-20.15L249.31-20.15Q243.16-19.98 242.65-11.44ZM268.6-13.32L268.6-13.32 268.6 0 264.67 0 264.67-22.88 268.43-22.88 268.43-18.95Q270.99-23.56 274.92-23.56L274.92-23.56Q275.26-23.56 275.6-23.39L275.6-23.39Q275.77-23.39 275.94-23.39L275.94-23.39 275.94-19.3 274.41-19.3Q268.94-18.95 268.6-13.32ZM297.12-22.88L288.41-14.34 297.63 0 292.68 0 285.51-11.61 282.43-8.54 282.43 0 278.68 0 278.68-31.25 282.43-31.25 282.43-13.15 292.34-22.88 297.12-22.88Z" transform="translate(0.3400000035762787, 31.25)"></path></g>       </g></g> <g data-gra="path-slogan" fill-rule="" class="tp-slogan" transform="translate(44.90129852294922,29.17679786682129)">  <g transform="scale(1, 1)"><g transform="scale(1)"><path d="M5.58-9.61L5.58-9.61Q6.89-9.33 6.89-9.23L6.89-9.23Q6.94-9.19 6.75-9.05L6.75-9.05Q6.66-8.95 6.61-8.91L6.61-8.91Q7.88-6.42 11.58-5.44L11.58-5.44Q11.02-4.83 10.78-4.22L10.78-4.22Q7.69-5.72 6.09-8.11L6.09-8.11Q4.27-5.63 1.41-3.94L1.41-3.94Q0.94-4.50 0.42-4.73L0.42-4.73Q4.31-6.38 5.58-9.61ZM5.77-5.25L5.72-6.09Q6.89-6.09 6.94-5.95L6.94-5.95Q6.94-5.91 6.89-5.86L6.89-5.86Q6.75-5.48 6.75-5.06L6.75-5.06L6.75-3.52L7.92-3.52Q9.09-3.52 9.75-3.61L9.75-3.61L9.75-2.63Q9.56-2.67 8.58-2.67L8.58-2.67Q8.16-2.67 7.92-2.67L7.92-2.67L6.75-2.67L6.75-0.09L8.34-0.09Q10.22-0.09 10.69-0.23L10.69-0.23L10.69 0.84Q10.31 0.70 8.34 0.70L8.34 0.70L3 0.70Q1.41 0.70 0.94 0.80L0.94 0.80L0.94-0.19Q1.45-0.09 3-0.09L3-0.09L3-3.61Q3-3.89 2.95-4.69L2.95-4.69Q3.89-4.69 4.22-4.55L4.22-4.55Q4.22-4.50 4.17-4.36L4.17-4.36Q3.98-4.03 3.98-3.75L3.98-3.75L3.98-0.09L5.77-0.09L5.77-5.25ZM18.56-9.28L18.56-9.28Q18.61-9.28 18.66-9.28L18.66-9.28Q19.83-9.19 19.83-9.05L19.83-9.05Q19.83-8.95 19.73-8.81L19.73-8.81Q19.59-8.53 19.55-8.30L19.55-8.30L19.55-0.42L21.19-0.42Q22.13-0.42 23.16-0.52L23.16-0.52L23.16 0.52Q22.31 0.42 21.19 0.42L21.19 0.42L14.44 0.42Q13.59 0.42 12.80 0.52L12.80 0.52L12.80-0.52Q13.50-0.42 14.44-0.42L14.44-0.42L16.31-0.42L16.31-8.11Q16.31-8.48 16.27-9.05L16.27-9.05Q16.27-9.23 16.27-9.28L16.27-9.28Q17.63-9.14 17.58-8.95L17.58-8.95Q17.58-8.91 17.48-8.77L17.48-8.77Q17.25-8.48 17.25-8.11L17.25-8.11L17.25-0.42L18.61-0.42L18.61-8.20Q18.61-9.19 18.56-9.28ZM21.56-7.17L21.56-7.17Q23.02-6.75 23.02-6.56L23.02-6.56Q23.02-6.47 22.88-6.38L22.88-6.38Q22.64-6.19 22.59-5.95L22.59-5.95Q22.50-5.77 22.36-5.34L22.36-5.34Q21.47-2.81 21.09-2.11L21.09-2.11Q20.58-2.44 19.92-2.44L19.92-2.44Q21.09-4.59 21.56-7.17ZM13.27-6.75L14.34-7.13Q15.23-4.83 15.80-2.63L15.80-2.63L14.58-2.30Q14.44-3.94 13.27-6.75L13.27-6.75ZM29.48-9.42L29.48-9.42Q30.66-9.33 30.80-9.23L30.80-9.23Q30.80-9.23 30.75-9.19L30.75-9.19Q30.61-9 30.56-8.72L30.56-8.72Q30.56-8.63 30.56-8.44L30.56-8.44Q30.52-7.88 30.52-7.36L30.52-7.36L32.06-7.36L32.06-8.16Q32.06-8.81 32.02-9.28L32.02-9.28Q32.02-9.38 32.02-9.38L32.02-9.38Q32.11-9.38 32.39-9.33L32.39-9.33Q33.38-9.28 33.33-9.23L33.33-9.23Q33.33-9.19 33.28-9.14L33.28-9.14Q33.14-8.95 33.09-8.72L33.09-8.72Q33.09-8.67 33.09-8.53L33.09-8.53Q33.05-8.30 33.05-8.16L33.05-8.16L33.05-7.36L33.38-7.36Q34.36-7.41 34.88-7.45L34.88-7.45L34.88-6.52Q34.27-6.61 33.42-6.61L33.42-6.61L33.05-6.61L33.05-4.69L33.47-4.69Q34.59-4.73 35.11-4.78L35.11-4.78L35.11-3.84Q34.55-3.89 33.47-3.94L33.47-3.94L33.05-3.94L33.05-2.39Q33.05-2.16 33.09-1.31L33.09-1.31Q33.14-0.56 33.14-0.42L33.14-0.42L32.02-0.42Q32.06-0.75 32.06-2.44L32.06-2.44L32.06-3.94L30.47-3.94Q30.28-1.78 28.92-0.52L28.92-0.52Q28.36-0.89 27.75-0.98L27.75-0.98Q29.25-1.88 29.48-3.94L29.48-3.94L29.25-3.94Q28.22-3.89 27.61-3.84L27.61-3.84L27.61-4.78Q28.17-4.73 29.25-4.69L29.25-4.69L29.53-4.69Q29.58-4.97 29.58-6.61L29.58-6.61L29.39-6.61Q28.41-6.56 27.89-6.52L27.89-6.52L27.89-7.45Q28.55-7.36 29.34-7.36L29.34-7.36L29.58-7.36Q29.63-8.25 29.48-9.42ZM25.17-8.67L26.20-9.09Q26.81-8.20 27.28-6.98L27.28-6.98L26.11-6.61Q25.83-7.55 25.17-8.67L25.17-8.67ZM32.06-6.61L30.52-6.61Q30.52-6.38 30.52-4.69L30.52-4.69L32.06-4.69L32.06-6.61ZM24.66-4.59L24.66-5.63Q25.73-5.53 26.95-5.63L26.95-5.63Q26.91-5.25 26.91-3.94L26.91-3.94L26.91-0.94Q29.53 0.52 35.20-0.33L35.20-0.33Q34.83 0.05 34.64 0.89L34.64 0.89Q34.36 0.89 33.80 0.89L33.80 0.89Q29.30 0.94 28.27 0.52L28.27 0.52Q27.84 0.38 27.23 0.09L27.23 0.09Q26.58-0.23 26.34-0.14L26.34-0.14Q25.88-0.05 25.27 0.89L25.27 0.89L24.38 0Q25.50-0.66 25.92-0.94L25.92-0.94L25.92-4.69Q25.08-4.64 24.66-4.59L24.66-4.59ZM43.45-9.61L43.45-9.61Q44.77-9.61 44.72-9.47L44.72-9.47Q44.72-9.42 44.67-9.33L44.67-9.33Q44.48-9.05 44.48-8.63L44.48-8.63L44.48-5.95Q46.36-5.95 46.78-6.05L46.78-6.05Q46.69-5.25 46.69-4.36L46.69-4.36L46.69 0.28Q46.92 1.27 44.77 1.27L44.77 1.27Q44.77 0.80 44.34 0.14L44.34 0.14Q45.70 0.47 45.75-0.09L45.75-0.09L45.75-1.22L42.47-1.22L42.47-0.56Q42.47 0 42.52 0.61L42.52 0.61Q42.56 0.98 42.56 1.17L42.56 1.17L41.44 1.17Q41.53 0.38 41.53-0.56L41.53-0.56L41.53-4.31Q41.53-5.67 41.44-6.09L41.44-6.09Q41.44-6.09 41.53-6.09L41.53-6.09Q42.28-6 43.55-5.95L43.55-5.95L43.55-8.67Q43.55-9.23 43.45-9.61ZM46.13-8.95L46.13-8.95Q47.30-8.48 47.30-8.25L47.30-8.25Q47.30-8.20 47.25-8.20L47.25-8.20Q47.02-8.16 46.78-7.88L46.78-7.88Q46.73-7.78 46.59-7.55L46.59-7.55Q46.03-6.70 45.75-6.33L45.75-6.33Q45.47-6.56 44.91-6.70L44.91-6.70Q45.61-7.64 46.13-8.95ZM41.11-8.34L42-8.67Q42.66-7.83 43.08-6.89L43.08-6.89L42.19-6.52Q41.81-7.31 41.11-8.34L41.11-8.34ZM45.75-5.25L42.47-5.25L42.47-3.94L45.75-3.94L45.75-5.25ZM45.75-3.28L42.47-3.28L42.47-1.92L45.75-1.92L45.75-3.28ZM38.25-9.75L38.25-9.75Q39.47-9.47 39.42-9.28L39.42-9.28Q39.42-9.28 39.38-9.19L39.38-9.19Q38.95-8.81 38.48-7.69L38.48-7.69L39.14-7.69Q39.42-7.69 40.22-7.73L40.22-7.73Q40.69-7.73 40.83-7.73L40.83-7.73L40.83-6.84Q40.64-6.84 40.03-6.84L40.03-6.84Q39.38-6.89 39.14-6.89L39.14-6.89L38.11-6.89Q37.97-6.66 37.08-5.34L37.08-5.34Q36.89-5.81 36.47-6.19L36.47-6.19Q37.83-7.88 38.25-9.75ZM38.77-5.77L39.38-5.77Q39.52-5.77 39.84-5.77L39.84-5.77Q40.36-5.81 40.59-5.81L40.59-5.81L40.59-4.92Q40.41-5.02 39.14-5.02L39.14-5.02L39.14-3.56Q40.03-3.56 40.59-3.66L40.59-3.66Q40.69-3.66 40.73-3.66L40.73-3.66L40.73-2.72Q40.69-2.72 40.59-2.72L40.59-2.72Q40.03-2.77 39.14-2.77L39.14-2.77L39.14-0.66L40.36-1.88L40.59-0.80Q39.52 0 38.63 0.80L38.63 0.80Q38.44 0.94 38.39 0.98L38.39 0.98L37.73 0.05Q38.16-0.19 38.25-0.47L38.25-0.47L38.25-2.77Q37.31-2.72 36.80-2.67L36.80-2.67L36.80-3.66Q37.17-3.56 38.25-3.56L38.25-3.56L38.25-5.02Q37.92-5.02 37.45-4.97L37.45-4.97L37.45-5.81Q37.83-5.77 38.77-5.77L38.77-5.77ZM52.92-9.80L52.92-9.80Q54.28-9.56 54.19-9.42L54.19-9.42Q54.19-9.42 54.09-9.33L54.09-9.33Q53.63-8.95 53.34-8.11L53.34-8.11L57.14-8.11Q58.55-8.11 59.30-8.20L59.30-8.20L59.30-7.17Q58.64-7.27 57.14-7.27L57.14-7.27L52.97-7.27Q52.83-7.08 52.64-6.70L52.64-6.70Q51.89-5.44 51.56-5.02L51.56-5.02L51.56-0.56Q51.56 0.89 51.61 1.17L51.61 1.17L50.48 1.17Q50.53 1.08 50.53-0.61L50.53-0.61L50.53-3.84Q49.64-2.81 49.08-2.34L49.08-2.34Q49.03-2.44 48.47-2.81L48.47-2.81Q48.28-2.95 48.19-3.05L48.19-3.05Q49.64-3.98 50.58-5.16L50.58-5.16L50.53-5.95L51.05-5.86Q51.33-6.19 51.75-6.89L51.75-6.89Q51.89-7.13 51.94-7.22L51.94-7.22L50.58-7.22Q49.73-7.22 48.80-7.17L48.80-7.17L48.80-8.16Q48.89-8.16 49.17-8.16L49.17-8.16Q49.92-8.11 50.67-8.11L50.67-8.11L52.31-8.11Q52.83-9 52.92-9.80ZM58.59-5.81L58.59-5.81L58.59-4.78Q57.84-4.69 56.44-3.70L56.44-3.70L56.44-2.95L57.61-2.95Q58.97-2.95 59.44-3.05L59.44-3.05L59.44-2.06Q59.25-2.06 58.69-2.11L58.69-2.11Q57.94-2.16 57.61-2.16L57.61-2.16L56.44-2.16L56.44 0Q56.67 1.31 54.70 1.22L54.70 1.22Q54.56 0.66 54.14 0.09L54.14 0.09Q55.69 0.38 55.45-0.28L55.45-0.28L55.45-2.11L53.91-2.11Q52.64-2.11 52.13-2.06L52.13-2.06L52.13-3Q52.97-2.91 53.91-2.91L53.91-2.91L55.45-2.91L55.45-3.98L57.09-5.02L54.75-5.02Q53.39-5.02 53.02-4.97L53.02-4.97L53.02-5.81Q53.34-5.77 54.70-5.77L54.70-5.77L56.91-5.77Q57.33-5.77 58.08-5.81L58.08-5.81Q58.50-5.81 58.59-5.81ZM69.80-9.23L69.80-9.23Q69.84-9.14 69.98-8.95L69.98-8.95Q70.55-8.11 70.45-8.11L70.45-8.11Q69.19-8.11 65.72-7.78L65.72-7.78Q66.42-7.50 66.56-7.36L66.56-7.36Q66.56-7.31 66.28-7.22L66.28-7.22Q65.86-7.08 65.63-6.89L65.63-6.89Q65.34-6.70 64.55-6.19L64.55-6.19Q64.03-5.86 63.70-5.67L63.70-5.67L66.80-5.86Q67.92-6.70 68.44-7.27L68.44-7.27Q69.33-6.70 69.47-6.52L69.47-6.52Q69.47-6.47 69.28-6.38L69.28-6.38Q68.86-6.19 68.48-5.95L68.48-5.95Q68.44-5.91 68.30-5.81L68.30-5.81Q65.91-4.27 63.98-3.52L63.98-3.52L68.81-3.70Q67.78-4.41 67.73-4.41L67.73-4.41L68.48-5.11Q70.17-3.84 71.02-3L71.02-3L70.22-2.25Q69.94-2.67 69.52-3L69.52-3L66.75-2.86L66.75-0.14Q67.13 0.80 64.88 0.89L64.88 0.89Q64.78 0.33 64.59-0.05L64.59-0.05Q64.55-0.14 64.55-0.14L64.55-0.14Q65.91 0 65.77-0.61L65.77-0.61L65.77-2.81L63.61-2.72Q63.47-2.72 63.23-2.67L63.23-2.67Q62.48-2.63 62.11-2.53L62.11-2.53L61.78-3.56Q62.86-3.61 65.72-5.16L65.72-5.16Q63.38-5.02 62.77-4.78L62.77-4.78L62.20-5.77Q63.84-6.47 65.16-7.73L65.16-7.73L61.92-7.36Q61.83-7.69 61.64-8.06L61.64-8.06Q61.50-8.30 61.41-8.44L61.41-8.44Q65.77-8.44 69.80-9.23ZM67.78-1.50L68.53-2.20Q69.09-1.83 70.55-0.70L70.55-0.70Q70.88-0.42 71.02-0.33L71.02-0.33L70.13 0.42Q68.91-0.84 67.78-1.50L67.78-1.50ZM63.61-2.20L63.61-2.20L64.50-1.59Q62.86 0 62.20 0.47L62.20 0.47Q61.83 0 61.27-0.14L61.27-0.14Q62.63-1.03 63.61-2.20ZM79.13-9.61L79.97-9.84Q80.34-8.95 80.53-8.34L80.53-8.34L79.69-8.11Q79.64-8.72 79.13-9.61L79.13-9.61ZM74.39-9.52L74.39-9.52Q74.58-9.42 74.91-9.33L74.91-9.33Q75.56-9.05 75.56-8.95L75.56-8.95Q75.61-8.86 75.28-8.58L75.28-8.58Q75.09-8.44 75.05-8.39L75.05-8.39Q74.48-7.55 73.55-5.95L73.55-5.95L75.33-6L75.84-7.03Q76.03-6.94 76.36-6.75L76.36-6.75Q76.92-6.52 76.88-6.42L76.88-6.42Q76.88-6.38 76.73-6.28L76.73-6.28Q76.45-6.05 76.27-5.77L76.27-5.77Q75.84-5.11 74.67-3.56L74.67-3.56Q74.25-3.09 74.06-2.81L74.06-2.81Q74.39-2.91 75-3L75-3Q75.98-3.23 76.69-3.38L76.69-3.38L76.50-2.44Q74.34-2.16 73.13-1.78L73.13-1.78L72.75-2.86Q73.78-3.52 74.91-5.30L74.91-5.30L73.78-5.25Q73.31-5.20 72.84-5.06L72.84-5.06L72.47-6.05Q73.55-7.13 74.39-9.52ZM83.30-8.02L83.30-8.02L83.30-7.03Q82.69-7.13 81.98-7.13L81.98-7.13L78.05-7.13Q77.44-7.13 76.69-7.03L76.69-7.03L76.69-8.02Q77.34-7.92 78.14-7.92L78.14-7.92L81.98-7.92Q82.50-7.92 83.30-8.02ZM76.88-1.36L76.88-1.36L76.78-0.38Q74.39-0.05 72.80 0.38L72.80 0.38L72.52-0.56Q74.34-0.75 76.88-1.36ZM78.98-7.03L78.98-7.03Q79.31-6.80 79.64-6.61L79.64-6.61Q79.83-6.52 79.92-6.47L79.92-6.47Q79.92-6.42 79.73-6.28L79.73-6.28Q78.89-5.58 77.95-4.55L77.95-4.55L81.38-4.69Q80.86-5.44 80.53-5.67L80.53-5.67L81.33-6.23Q81.42-6.09 81.80-5.67L81.80-5.67Q82.97-4.22 83.20-3.89L83.20-3.89L82.27-3.23Q82.22-3.56 81.89-3.98L81.89-3.98L80.81-3.98L80.81-0.33Q80.77 0.09 81.28 0.05L81.28 0.05L81.75 0.05Q82.36 0.19 82.45-1.03L82.45-1.03Q82.73-0.66 83.44-0.42L83.44-0.42Q83.16 0.98 82.27 0.94L82.27 0.94L80.72 0.94Q79.97 0.94 79.97 0.05L79.97 0.05L79.97-3.89L79.13-3.89Q79.13-1.50 78.66-0.56L78.66-0.56Q78.33 0.33 76.92 1.22L76.92 1.22Q76.59 0.94 75.98 0.66L75.98 0.66Q75.84 0.56 75.84 0.56L75.84 0.56Q77.39 0 77.77-0.80L77.77-0.80Q78.23-1.59 78.23-3.80L78.23-3.80Q78.19-3.80 78.09-3.80L78.09-3.80Q77.77-3.75 77.11-3.61L77.11-3.61L76.73-4.64Q77.48-5.02 78.98-7.03Z" transform="translate(-0.421875, 9.84375)"></path></g></g></g></g></mask><defs v-gra="od"></defs></svg>