<svg data-v-0dd9719b="" version="1.0" xmlns="http://www.w3.org/2000/svg" xmlns:xlink="http://www.w3.org/1999/xlink" width="100%" height="100%" viewBox="0 0 340.000000 250.000000" preserveAspectRatio="xMidYMid meet" color-interpolation-filters="sRGB" style="margin: auto;"> <rect data-v-0dd9719b="" x="0" y="0" width="100%" height="100%" fill="#ffffff" fill-opacity="1" class="background"></rect> <rect data-v-0dd9719b="" x="0" y="0" width="100%" height="100%" fill="url(#watermark)" fill-opacity="1" class="watermarklayer"></rect> <g data-v-0dd9719b="" fill="#0a0619" class="icon-text-wrapper icon-svg-group iconsvg" transform="translate(48.44499969482422,95)"><g class="iconsvg-imagesvg" transform="translate(0,0)"><g><rect fill="#0a0619" fill-opacity="0" stroke-width="2" x="0" y="0" width="60" height="60" class="image-rect"></rect> <svg filter="url(#colors9835046855)" x="0" y="0" width="60" height="60" filtersec="colorsf4277203920" class="image-svg-svg primary" style="overflow: visible;"><svg xmlns="http://www.w3.org/2000/svg" viewBox="16 16 480 480" x="0px" y="0px"><circle cx="136" cy="208" r="8"></circle><circle cx="216" cy="208" r="8"></circle><path d="M488,288H280a8,8,0,0,0-8,8v8H233.631a112.769,112.769,0,0,0,43.548-48H280a39.978,39.978,0,0,0,25.294-70.955A101.972,101.972,0,0,0,320,131.852c0-50.158-34.965-90.963-77.942-90.963a67.627,67.627,0,0,0-18.8,2.662A114.692,114.692,0,0,0,148.8,16C84.4,16,32,69.832,32,136a122.865,122.865,0,0,0,11.506,51.957A39.979,39.979,0,0,0,72,256h2.821a112.769,112.769,0,0,0,43.548,48H56a40.045,40.045,0,0,0-40,40V488a8,8,0,0,0,8,8H488a8,8,0,0,0,8-8V296A8,8,0,0,0,488,288Zm-8,16V448H288V304ZM206.165,320c-4.4,9.311-16.26,16-30.165,16s-25.762-6.689-30.165-16Zm77.243-80.246A111.652,111.652,0,0,0,288,208V193.376a24,24,0,0,1-4.592,46.378ZM304,131.852a85.6,85.6,0,0,1-12.888,45.723c-1.022-.3-2.059-.557-3.112-.771V153a8,8,0,0,0-8-8c-32.314,0-59.047-17.577-75.217-31.585,19.557-28.2,26.631-54.17,26.946-55.353L231.48,58a51.607,51.607,0,0,1,10.578-1.106C276.213,56.889,304,90.517,304,131.852ZM48,136C48,78.654,93.219,32,148.8,32a98.826,98.826,0,0,1,66.3,25.7,189.54,189.54,0,0,1-28.787,53.87C157.416,149.014,118.955,168,72,168a8,8,0,0,0-8,8v.8a39.59,39.59,0,0,0-7.03,2.134A106.954,106.954,0,0,1,48,136Zm88,48a24,24,0,1,1-24,24A24.028,24.028,0,0,1,136,184ZM96.805,200H80V183.825a165.856,165.856,0,0,0,27.07-3.4A39.933,39.933,0,0,0,96.805,200ZM48,216a24.039,24.039,0,0,1,16-22.624V208a111.652,111.652,0,0,0,4.592,31.754A24.035,24.035,0,0,1,48,216Zm32.336,0H96.805a40,40,0,1,0,45.246-47.542,160.392,160.392,0,0,0,53.054-42.266c16.881,14.44,43.806,32,76.9,34.505V200H255.2a40,40,0,1,0,0,16h16.469a96,96,0,0,1-191.328,0ZM240,208a24,24,0,1,1-24-24A24.028,24.028,0,0,1,240,208ZM190.624,480H168V464A24.039,24.039,0,0,1,190.624,480ZM152,480H129.376A24.039,24.039,0,0,1,152,464Zm88-24v24H207.2A40.069,40.069,0,0,0,168,448H152a40.069,40.069,0,0,0-39.195,32H32V344a24.028,24.028,0,0,1,24-24h72.966c4.46,18.235,23.853,32,47.034,32s42.574-13.765,47.034-32H272V448H248A8,8,0,0,0,240,456Zm240,24H256V464H480Z"></path><path d="M312,336h16a8,8,0,0,0,0-16H312a8,8,0,0,0,0,16Z"></path><path d="M312,368h16a8,8,0,0,0,0-16H312a8,8,0,0,0,0,16Z"></path><path d="M392,384H376a8,8,0,0,0,0,16h16a8,8,0,0,0,0-16Z"></path><circle cx="312" cy="392" r="8"></circle><path d="M392,368h16a8,8,0,0,0,0-16H392a8,8,0,0,0,0,16Z"></path><path d="M360,336h16a8,8,0,0,0,0-16H360a8,8,0,0,0,0,16Z"></path><circle cx="408" cy="328" r="8"></circle><circle cx="360" cy="360" r="8"></circle><circle cx="312" cy="424" r="8"></circle><circle cx="344" cy="392" r="8"></circle><circle cx="392" cy="424" r="8"></circle><circle cx="424" cy="424" r="8"></circle><circle cx="424" cy="392" r="8"></circle><circle cx="440" cy="360" r="8"></circle><path d="M360,416H344a8,8,0,0,0,0,16h16a8,8,0,0,0,0-16Z"></path><path d="M195.562,257.344c-13.345,8.9-25.779,8.9-39.124,0a8,8,0,1,0-8.876,13.312c9.3,6.2,18.871,9.3,28.438,9.3s19.136-3.1,28.438-9.3a8,8,0,0,0-8.876-13.312Z"></path></svg></svg> <defs><filter id="colors9835046855"><feColorMatrix type="matrix" values="0 0 0 0 0.99609375  0 0 0 0 0.03125  0 0 0 0 0.265625  0 0 0 1 0" class="icon-fecolormatrix"></feColorMatrix></filter> <filter id="colorsf4277203920"><feColorMatrix type="matrix" values="0 0 0 0 0.99609375  0 0 0 0 0.99609375  0 0 0 0 0.99609375  0 0 0 1 0" class="icon-fecolormatrix"></feColorMatrix></filter> <filter id="colorsb6755004200"><feColorMatrix type="matrix" values="0 0 0 0 0  0 0 0 0 0  0 0 0 0 0  0 0 0 1 0" class="icon-fecolormatrix"></feColorMatrix></filter></defs></g></g> <g transform="translate(67,7.569999694824219)"><g data-gra="path-name" fill-rule="" class="tp-name iconsvg-namesvg" transform="translate(0,0)"><g transform="scale(1)"><g><path d="M3.9 0.18Q3.07 0.18 2.53-0.29 1.99-0.77 1.99-1.66L1.99-1.66 1.99-19.97Q1.99-20.86 2.53-21.32 3.07-21.78 3.9-21.78L3.9-21.78Q4.72-21.78 5.28-21.32 5.83-20.86 5.83-19.97L5.83-19.97 5.83-1.66Q5.83-0.77 5.28-0.29 4.72 0.18 3.9 0.18L3.9 0.18ZM11.69 0.18Q10.86 0.18 10.32-0.29 9.79-0.77 9.79-1.66L9.79-1.66 9.79-13.5Q9.79-14.39 10.32-14.85 10.86-15.31 11.69-15.31L11.69-15.31Q12.52-15.31 13.07-14.85 13.62-14.39 13.62-13.5L13.62-13.5 13.62-1.66Q13.62-0.77 13.07-0.29 12.52 0.18 11.69 0.18L11.69 0.18ZM11.69-18.04Q10.64-18.04 10.03-18.6 9.42-19.17 9.42-20.09L9.42-20.09Q9.42-21.01 10.03-21.56 10.64-22.12 11.69-22.12L11.69-22.12Q12.7-22.12 13.33-21.56 13.96-21.01 13.96-20.09L13.96-20.09Q13.96-19.17 13.34-18.6 12.73-18.04 11.69-18.04L11.69-18.04ZM19.48 0.18Q18.65 0.18 18.11-0.29 17.58-0.77 17.58-1.66L17.58-1.66 17.58-19.97Q17.58-20.86 18.11-21.32 18.65-21.78 19.48-21.78L19.48-21.78Q20.31-21.78 20.86-21.32 21.41-20.86 21.41-19.97L21.41-19.97 21.41-1.66Q21.41-0.77 20.86-0.29 20.31 0.18 19.48 0.18L19.48 0.18ZM27.27 0.18Q26.44 0.18 25.9-0.29 25.37-0.77 25.37-1.66L25.37-1.66 25.37-13.5Q25.37-14.39 25.9-14.85 26.44-15.31 27.27-15.31L27.27-15.31Q28.1-15.31 28.65-14.85 29.2-14.39 29.2-13.5L29.2-13.5 29.2-1.66Q29.2-0.77 28.65-0.29 28.1 0.18 27.27 0.18L27.27 0.18ZM27.27-18.04Q26.23-18.04 25.61-18.6 25-19.17 25-20.09L25-20.09Q25-21.01 25.61-21.56 26.23-22.12 27.27-22.12L27.27-22.12Q28.28-22.12 28.91-21.56 29.54-21.01 29.54-20.09L29.54-20.09Q29.54-19.17 28.93-18.6 28.31-18.04 27.27-18.04L27.27-18.04ZM39.66-15.37Q42.79-15.37 44.31-13.82 45.83-12.27 45.83-9.11L45.83-9.11 45.83-1.63Q45.83-0.8 45.34-0.32 44.85 0.15 43.99 0.15L43.99 0.15Q43.19 0.15 42.68-0.34 42.18-0.83 42.18-1.63L42.18-1.63 42.18-2.3Q41.66-1.1 40.54-0.43 39.42 0.25 37.94 0.25L37.94 0.25Q36.44 0.25 35.21-0.37 33.99-0.98 33.28-2.06 32.58-3.13 32.58-4.45L32.58-4.45Q32.58-6.1 33.42-7.06 34.26-8.01 36.17-8.44 38.07-8.87 41.41-8.87L41.41-8.87 42.18-8.87 42.18-9.57Q42.18-11.07 41.53-11.76 40.89-12.45 39.45-12.45L39.45-12.45Q38.56-12.45 37.64-12.19 36.72-11.93 35.46-11.44L35.46-11.44Q34.66-11.04 34.29-11.04L34.29-11.04Q33.74-11.04 33.39-11.44 33.04-11.84 33.04-12.48L33.04-12.48Q33.04-13.01 33.3-13.39 33.56-13.77 34.17-14.11L34.17-14.11Q35.25-14.69 36.73-15.03 38.22-15.37 39.66-15.37L39.66-15.37ZM38.71-2.52Q40.25-2.52 41.21-3.54 42.18-4.57 42.18-6.2L42.18-6.2 42.18-6.84 41.63-6.84Q39.57-6.84 38.44-6.66 37.3-6.47 36.81-6.01 36.32-5.55 36.32-4.75L36.32-4.75Q36.32-3.77 37.01-3.14 37.7-2.52 38.71-2.52L38.71-2.52ZM58.44-15.37Q61.13-15.37 62.45-13.83 63.77-12.3 63.77-9.2L63.77-9.2 63.77-1.66Q63.77-0.8 63.27-0.31 62.76 0.18 61.87 0.18L61.87 0.18Q60.98 0.18 60.46-0.31 59.94-0.8 59.94-1.66L59.94-1.66 59.94-8.99Q59.94-10.74 59.28-11.53 58.62-12.33 57.21-12.33L57.21-12.33Q55.55-12.33 54.56-11.29 53.56-10.25 53.56-8.5L53.56-8.5 53.56-1.66Q53.56-0.8 53.04-0.31 52.52 0.18 51.63 0.18L51.63 0.18Q50.74 0.18 50.23-0.31 49.72-0.8 49.72-1.66L49.72-1.66 49.72-13.53Q49.72-14.33 50.25-14.82 50.77-15.31 51.66-15.31L51.66-15.31Q52.45-15.31 52.96-14.83 53.47-14.36 53.47-13.59L53.47-13.59 53.47-12.76Q54.23-14.02 55.52-14.69 56.81-15.37 58.44-15.37L58.44-15.37ZM80.37-15.31Q81.23-15.31 81.75-14.82 82.27-14.33 82.27-13.5L82.27-13.5 82.27-1.38Q82.27 2.15 80.31 3.96 78.34 5.77 74.51 5.77L74.51 5.77Q71.17 5.77 68.93 4.51L68.93 4.51Q67.79 3.83 67.79 2.88L67.79 2.88Q67.79 2.21 68.11 1.81 68.44 1.41 68.96 1.41L68.96 1.41Q69.23 1.41 69.63 1.55 70.03 1.69 70.46 1.87L70.46 1.87Q71.56 2.33 72.44 2.58 73.31 2.82 74.45 2.82L74.45 2.82Q78.47 2.82 78.47-1.1L78.47-1.1 78.47-3.07Q77.79-1.81 76.5-1.12 75.21-0.43 73.56-0.43L73.56-0.43Q71.6-0.43 70.08-1.37 68.56-2.3 67.7-3.99 66.84-5.67 66.84-7.88L66.84-7.88Q66.84-10.09 67.68-11.79 68.53-13.5 70.06-14.43 71.6-15.37 73.56-15.37L73.56-15.37Q75.21-15.37 76.5-14.68 77.79-13.99 78.47-12.73L78.47-12.73 78.47-13.53Q78.47-14.33 78.99-14.82 79.51-15.31 80.37-15.31L80.37-15.31ZM74.57-3.4Q76.41-3.4 77.44-4.6 78.47-5.8 78.47-7.88L78.47-7.88Q78.47-10 77.44-11.2 76.41-12.39 74.57-12.39L74.57-12.39Q72.76-12.39 71.72-11.2 70.67-10 70.67-7.88L70.67-7.88Q70.67-5.8 71.72-4.6 72.76-3.4 74.57-3.4L74.57-3.4ZM88.04 0.18Q87.06 0.18 86.41-0.48 85.77-1.13 85.77-2.12L85.77-2.12Q85.77-3.1 86.41-3.76 87.06-4.42 88.04-4.42L88.04-4.42Q89.02-4.42 89.66-3.76 90.31-3.1 90.31-2.12L90.31-2.12Q90.31-1.13 89.66-0.48 89.02 0.18 88.04 0.18L88.04 0.18ZM100.67 0.25Q98.37 0.25 96.64-0.71 94.91-1.66 93.96-3.44 93.01-5.21 93.01-7.58L93.01-7.58Q93.01-9.94 93.96-11.7 94.91-13.47 96.64-14.42 98.37-15.37 100.67-15.37L100.67-15.37Q102.98-15.37 104.71-14.42 106.44-13.47 107.38-11.7 108.31-9.94 108.31-7.58L108.31-7.58Q108.31-5.21 107.38-3.44 106.44-1.66 104.71-0.71 102.98 0.25 100.67 0.25L100.67 0.25ZM100.64-2.73Q102.52-2.73 103.5-3.96 104.48-5.18 104.48-7.58L104.48-7.58Q104.48-9.94 103.5-11.18 102.52-12.42 100.67-12.42L100.67-12.42Q98.83-12.42 97.84-11.18 96.84-9.94 96.84-7.58L96.84-7.58Q96.84-5.18 97.82-3.96 98.8-2.73 100.64-2.73L100.64-2.73ZM119.85-15.31Q120.64-15.37 121.1-14.97 121.56-14.57 121.56-13.77L121.56-13.77Q121.56-12.94 121.17-12.55 120.77-12.15 119.72-12.02L119.72-12.02 118.8-11.93Q116.99-11.75 116.15-10.71 115.31-9.66 115.31-8.1L115.31-8.1 115.31-1.66Q115.31-0.77 114.75-0.29 114.2 0.18 113.37 0.18L113.37 0.18Q112.55 0.18 112.01-0.29 111.47-0.77 111.47-1.66L111.47-1.66 111.47-13.53Q111.47-14.39 112.01-14.85 112.55-15.31 113.34-15.31L113.34-15.31Q114.14-15.31 114.63-14.86 115.12-14.42 115.12-13.59L115.12-13.59 115.12-12.36Q115.71-13.71 116.86-14.45 118.01-15.18 119.42-15.28L119.42-15.28 119.85-15.31ZM135.61-15.31Q136.47-15.31 136.99-14.82 137.52-14.33 137.52-13.5L137.52-13.5 137.52-1.38Q137.52 2.15 135.55 3.96 133.59 5.77 129.75 5.77L129.75 5.77Q126.41 5.77 124.17 4.51L124.17 4.51Q123.04 3.83 123.04 2.88L123.04 2.88Q123.04 2.21 123.36 1.81 123.68 1.41 124.2 1.41L124.2 1.41Q124.48 1.41 124.88 1.55 125.28 1.69 125.71 1.87L125.71 1.87Q126.81 2.33 127.68 2.58 128.56 2.82 129.69 2.82L129.69 2.82Q133.71 2.82 133.71-1.1L133.71-1.1 133.71-3.07Q133.04-1.81 131.75-1.12 130.46-0.43 128.8-0.43L128.8-0.43Q126.84-0.43 125.32-1.37 123.8-2.3 122.94-3.99 122.09-5.67 122.09-7.88L122.09-7.88Q122.09-10.09 122.93-11.79 123.77-13.5 125.31-14.43 126.84-15.37 128.8-15.37L128.8-15.37Q130.46-15.37 131.75-14.68 133.04-13.99 133.71-12.73L133.71-12.73 133.71-13.53Q133.71-14.33 134.23-14.82 134.75-15.31 135.61-15.31L135.61-15.31ZM129.82-3.4Q131.66-3.4 132.68-4.6 133.71-5.8 133.71-7.88L133.71-7.88Q133.71-10 132.68-11.2 131.66-12.39 129.82-12.39L129.82-12.39Q128.01-12.39 126.96-11.2 125.92-10 125.92-7.88L125.92-7.88Q125.92-5.8 126.96-4.6 128.01-3.4 129.82-3.4L129.82-3.4ZM143.28 0.18Q142.3 0.18 141.66-0.48 141.01-1.13 141.01-2.12L141.01-2.12Q141.01-3.1 141.66-3.76 142.3-4.42 143.28-4.42L143.28-4.42Q144.26-4.42 144.91-3.76 145.55-3.1 145.55-2.12L145.55-2.12Q145.55-1.13 144.91-0.48 144.26 0.18 143.28 0.18L143.28 0.18ZM155.74 0.25Q153.5 0.25 151.79-0.71 150.09-1.66 149.17-3.4 148.25-5.15 148.25-7.48L148.25-7.48Q148.25-9.82 149.22-11.61 150.18-13.4 151.93-14.39 153.68-15.37 155.95-15.37L155.95-15.37Q157.15-15.37 158.36-15.03 159.57-14.69 160.49-14.11L160.49-14.11Q161.47-13.47 161.47-12.48L161.47-12.48Q161.47-11.81 161.15-11.4 160.83-10.98 160.31-10.98L160.31-10.98Q159.97-10.98 159.6-11.13 159.23-11.29 158.87-11.5L158.87-11.5Q158.19-11.9 157.58-12.13 156.96-12.36 156.17-12.36L156.17-12.36Q154.26-12.36 153.24-11.12 152.21-9.88 152.21-7.55L152.21-7.55Q152.21-5.25 153.24-4 154.26-2.76 156.17-2.76L156.17-2.76Q156.93-2.76 157.53-2.99 158.13-3.22 158.87-3.62L158.87-3.62Q159.33-3.9 159.66-4.03 160-4.17 160.34-4.17L160.34-4.17Q160.83-4.17 161.17-3.74 161.5-3.31 161.5-2.67L161.5-2.67Q161.5-2.15 161.27-1.76 161.04-1.38 160.52-1.07L160.52-1.07Q159.57-0.46 158.31-0.11 157.06 0.25 155.74 0.25L155.74 0.25ZM172.76-15.37Q175.46-15.37 176.78-13.83 178.1-12.3 178.1-9.2L178.1-9.2 178.1-1.66Q178.1-0.8 177.59-0.31 177.09 0.18 176.2 0.18L176.2 0.18Q175.31 0.18 174.79-0.31 174.26-0.8 174.26-1.66L174.26-1.66 174.26-8.99Q174.26-10.74 173.6-11.53 172.94-12.33 171.53-12.33L171.53-12.33Q169.88-12.33 168.88-11.29 167.88-10.25 167.88-8.5L167.88-8.5 167.88-1.66Q167.88-0.8 167.36-0.31 166.84 0.18 165.95 0.18L165.95 0.18Q165.06 0.18 164.56-0.31 164.05-0.8 164.05-1.66L164.05-1.66 164.05-13.53Q164.05-14.33 164.57-14.82 165.09-15.31 165.98-15.31L165.98-15.31Q166.78-15.31 167.29-14.83 167.79-14.36 167.79-13.59L167.79-13.59 167.79-12.76Q168.56-14.02 169.85-14.69 171.13-15.37 172.76-15.37L172.76-15.37Z" transform="translate(-1.9900000095367432, 22.1200008392334)"></path></g> <!----> <!----> <!----> <!----> <!----> <!----> <!----></g></g> <g data-gra="path-slogan" fill-rule="" class="tp-slogan iconsvg-slogansvg" fill="#0a0619" transform="translate(58.56999969482422,33.89000129699707)"><!----> <!----> <g transform="scale(1, 1)"><g transform="scale(1)"><path d="M4.55-9.47L4.55-9.47Q5.30-8.72 5.20-8.58L5.20-8.58Q5.16-8.53 5.02-8.53L5.02-8.53Q4.78-8.53 4.64-8.48L4.64-8.48Q4.55-8.48 4.31-8.44L4.31-8.44Q3.84-8.34 3.66-8.30L3.66-8.30L3.66-6.33L3.84-6.33Q4.73-6.33 5.06-6.38L5.06-6.38L5.06-5.48Q4.69-5.53 3.80-5.53L3.80-5.53L3.66-5.53L3.66-4.22L4.17-4.55Q4.64-3.98 5.16-3.19L5.16-3.19L4.31-2.77Q4.08-3.42 3.66-3.98L3.66-3.98L3.66-0.38Q3.66 0.66 3.70 0.94L3.70 0.94L2.67 0.94Q2.77 0.42 2.77-0.38L2.77-0.38L2.77-3.89Q2.20-2.53 1.27-1.08L1.27-1.08Q0.89-1.64 0.61-2.02L0.61-2.02Q1.59-2.77 2.77-5.53L2.77-5.53L2.16-5.53Q1.22-5.53 0.94-5.48L0.94-5.48L0.94-6.38Q1.27-6.33 2.16-6.33L2.16-6.33L2.77-6.33L2.77-8.11Q1.64-7.83 1.31-7.83L1.31-7.83L0.89-8.63Q2.67-8.77 4.55-9.47ZM6.70-8.11L6.70-6.47L9.61-6.47L9.61-8.11L6.70-8.11ZM5.34-3.75L5.34-4.78Q6.14-4.69 7.08-4.69L7.08-4.69L9.09-4.69Q9.70-4.69 10.83-4.78L10.83-4.78L10.83-3.75Q10.08-3.80 9.09-3.84L9.09-3.84L8.53-3.84L8.53-2.53L9.05-2.53Q9.66-2.53 10.69-2.63L10.69-2.63L10.69-1.69Q10.45-1.69 9.61-1.73L9.61-1.73Q9.19-1.73 9.09-1.73L9.09-1.73L8.53-1.73L8.53-0.23L9.38-0.23Q9.52-0.23 10.13-0.28L10.13-0.28Q11.06-0.33 11.34-0.33L11.34-0.33L11.34 0.56Q10.59 0.52 9.38 0.47L9.38 0.47L6.70 0.47Q5.63 0.52 4.83 0.56L4.83 0.56L4.83-0.33Q5.63-0.28 6.70-0.23L6.70-0.23L7.59-0.23L7.59-1.73L7.08-1.73Q5.86-1.73 5.44-1.69L5.44-1.69L5.44-2.63Q6.19-2.53 7.03-2.53L7.03-2.53L7.59-2.53L7.59-3.84L7.08-3.84Q6.09-3.84 5.34-3.75L5.34-3.75ZM5.67-9.05L5.67-9.05Q5.95-8.91 6.66-8.91L6.66-8.91L9.61-8.91Q10.17-8.91 10.69-9.05L10.69-9.05Q10.59-8.72 10.59-8.11L10.59-8.11L10.59-6.47Q10.59-5.86 10.69-5.53L10.69-5.53Q10.03-5.67 9.66-5.63L9.66-5.63L6.66-5.63Q6.05-5.63 5.67-5.53L5.67-5.53Q5.77-5.95 5.77-6.47L5.77-6.47L5.77-8.16Q5.77-8.48 5.67-9.05ZM17.34-9.42L18.52-9.56Q18.61-9.23 18.75-8.77L18.75-8.77Q18.84-8.34 18.94-8.16L18.94-8.16L20.72-8.16Q21.75-8.16 22.83-8.25L22.83-8.25L22.83-7.27Q21.70-7.36 20.67-7.36L20.67-7.36L14.77-7.36Q14.81-4.08 14.53-2.39L14.53-2.39Q14.20-0.56 13.36 0.80L13.36 0.80Q12.89 0.47 12.23 0.42L12.23 0.42Q13.22-0.52 13.55-2.53L13.55-2.53Q13.73-3.52 13.78-4.88L13.78-4.88Q13.78-6 13.73-8.25L13.73-8.25Q14.48-8.16 15.42-8.16L15.42-8.16L17.86-8.16Q17.86-8.11 17.86-8.20L17.86-8.20Q17.67-8.86 17.34-9.42L17.34-9.42ZM17.53-6.47L21.89-6.47L21.89-5.39Q21.84-5.39 21.80-5.39L21.80-5.39Q20.91-5.34 19.03-3.84L19.03-3.84L22.69-3.84Q22.59-3.66 22.45-3.28L22.45-3.28Q22.08-2.44 21.89-1.92L21.89-1.92L20.72-1.97Q20.95-2.25 21.52-3.09L21.52-3.09L19.31-3.09L19.31 0.23Q19.31 0.80 17.81 0.98L17.81 0.98Q17.53 1.03 17.44 1.03L17.44 1.03Q17.30 0.38 16.97 0L16.97 0Q18.52 0.05 18.38-0.28L18.38-0.28L18.38-3.09L16.78-3.09Q15.84-3.09 15.05-3L15.05-3L15.05-3.94Q16.31-3.84 16.83-3.84L16.83-3.84L18.33-3.84Q17.81-4.36 16.97-4.83L16.97-4.83L17.77-5.39Q18.61-4.78 18.80-4.59L18.80-4.59L20.34-5.63L17.48-5.63Q16.13-5.63 15.61-5.58L15.61-5.58L15.61-6.52Q16.27-6.47 17.53-6.47L17.53-6.47ZM32.72-8.39L27.42-8.39L27.42-6.89L32.72-6.89L32.72-8.39ZM34.22-5.39L34.22-5.39Q34.13-4.92 34.13-3.56L34.13-3.56L34.13-3.14Q34.13-1.78 34.22-1.45L34.22-1.45L33-1.45Q33.05-2.20 33.09-3.23L33.09-3.23L33.09-4.41L27.14-4.41L27.14-3.05Q27.19-1.78 27.23-1.13L27.23-1.13L26.02-1.13Q26.02-1.22 26.06-1.88L26.06-1.88Q26.11-2.86 26.11-3.05L26.11-3.05L26.11-3.61Q26.06-4.69 26.02-5.39L26.02-5.39Q26.63-5.30 27.94-5.25L27.94-5.25L31.92-5.25Q33.42-5.30 34.22-5.39ZM29.44-3.89L29.44-3.89Q30.84-3.80 30.80-3.61L30.80-3.61Q30.80-3.56 30.70-3.47L30.70-3.47Q30.61-3.38 30.56-3.23L30.56-3.23Q30.56-3.19 30.56-3.14L30.56-3.14Q30.28-1.13 29.30-0.38L29.30-0.38Q27.66 0.80 25.64 1.17L25.64 1.17Q25.22 0.47 24.61 0.05L24.61 0.05Q27.05 0.05 28.69-1.03L28.69-1.03Q29.44-1.69 29.44-3.80L29.44-3.80Q29.44-3.84 29.44-3.89ZM30.33-0.80L31.13-1.73Q32.06-1.36 34.31-0.23L34.31-0.23Q34.78 0 35.02 0.09L35.02 0.09L34.17 1.13Q32.25-0.05 30.33-0.80L30.33-0.80ZM26.39-9.33L26.39-9.33Q26.72-9.23 27.47-9.23L27.47-9.23L32.67-9.23Q33.33-9.23 33.80-9.33L33.80-9.33Q33.70-8.95 33.70-8.39L33.70-8.39L33.70-6.94Q33.70-6.38 33.80-5.95L33.80-5.95Q33.38-6.05 32.67-6.05L32.67-6.05L27.47-6.05Q26.86-6.05 26.39-5.95L26.39-5.95Q26.48-6.42 26.48-6.89L26.48-6.89L26.48-8.30Q26.48-8.77 26.39-9.33ZM41.25-9.52L41.25-9.52Q42.61-9.47 42.84-9.33L42.84-9.33Q42.84-9.28 42.80-9.19L42.80-9.19Q42.52-8.72 42.52-7.73L42.52-7.73L42.52 0Q42.89 0.75 40.27 0.94L40.27 0.94Q40.22 0.23 39.70-0.33L39.70-0.33Q41.58-0.09 41.39-0.66L41.39-0.66L41.39-7.69Q41.39-9 41.25-9.52ZM43.64-6.33L44.67-6.89Q46.22-4.41 47.34-1.88L47.34-1.88L46.03-1.27Q45-4.17 43.64-6.33L43.64-6.33ZM38.67-6.84L38.67-6.84Q39.89-6.61 40.08-6.42L40.08-6.42Q40.08-6.38 39.98-6.33L39.98-6.33Q39.70-6 39.56-5.53L39.56-5.53Q38.86-3.61 37.73-1.03L37.73-1.03Q37.13-1.41 36.38-1.41L36.38-1.41Q37.88-3 38.67-6.84ZM54.98-9.42L55.97-9.75Q56.30-9.33 56.67-8.53L56.67-8.53L55.78-8.16L57-8.16Q57.80-8.16 58.45-8.25L58.45-8.25Q58.31-7.78 58.31-6.56L58.31-6.56L58.31-4.88Q58.31-4.08 58.41-3.47L58.41-3.47Q57.84-3.56 57.19-3.56L57.19-3.56L56.16-3.56Q56.25-3.09 56.77-1.97L56.77-1.97Q57.56-2.44 58.22-3.19L58.22-3.19Q58.31-3.09 58.45-2.95L58.45-2.95Q59.11-2.34 59.02-2.25L59.02-2.25Q59.02-2.25 58.97-2.25L58.97-2.25Q58.41-2.16 57.23-1.41L57.23-1.41Q58.08-0.70 59.58-0.19L59.58-0.19Q59.16 0.09 58.83 0.80L58.83 0.80Q55.83-0.56 55.27-3.56L55.27-3.56L54.33-3.56L54.33-0.19Q54.84-0.47 55.59-1.36L55.59-1.36Q55.59-0.80 55.92-0.28L55.92-0.28Q54.89 0.14 53.72 1.22L53.72 1.22Q53.48 0.80 53.11 0.42L53.11 0.42Q53.44 0 53.44-1.31L53.44-1.31L53.44-6.33Q53.44-7.59 53.34-8.25L53.34-8.25Q53.72-8.16 54.66-8.16L54.66-8.16L55.64-8.16Q55.55-8.53 54.98-9.42L54.98-9.42ZM57.38-6.19L57.38-7.36L54.33-7.36L54.33-6.19L57.38-6.19ZM57.38-5.48L54.33-5.48L54.33-4.31L57.38-4.31L57.38-5.48ZM48.75-8.53L49.45-9.28Q50.25-8.48 50.86-7.78L50.86-7.78Q51.61-8.67 51.75-9.19L51.75-9.19Q52.69-8.48 52.78-8.25L52.78-8.25Q52.31-8.16 51.38-7.03L51.38-7.03Q52.59-4.50 52.17-0.47L52.17-0.47Q52.13 0.80 49.83 1.03L49.83 1.03Q49.69 0.14 49.17-0.19L49.17-0.19Q50.86 0.09 51.14-0.75L51.14-0.75Q51.23-1.08 51.28-2.20L51.28-2.20Q51.33-3.52 51.23-4.27L51.23-4.27Q50.53-3 49.22-1.64L49.22-1.64Q48.80-2.20 48.33-2.44L48.33-2.44Q49.59-3.09 51-5.39L51-5.39Q50.86-5.95 50.67-6.38L50.67-6.38Q50.25-5.86 49.08-4.83L49.08-4.83Q48.89-5.30 48.47-5.67L48.47-5.67Q49.50-6.38 50.20-7.13L50.20-7.13Q49.41-8.02 48.75-8.53L48.75-8.53Z" transform="translate(-0.609375, 9.75)"></path></g></g></g></g></g><defs v-gra="od"></defs></svg>