<svg data-v-0dd9719b="" version="1.0" xmlns="http://www.w3.org/2000/svg" xmlns:xlink="http://www.w3.org/1999/xlink" width="100%" height="100%" viewBox="0 0 340.000000 250.000000" preserveAspectRatio="xMidYMid meet" color-interpolation-filters="sRGB" style="margin: auto;">
	<rect data-v-0dd9719b="" x="0" y="0" width="100%" height="100%" fill="#ffffff" fill-opacity="1" stroke-opacity="1" class="background"/>
	<g data-v-0dd9719b="" fill="#333" class="icon-text-wrapper icon-svg-group iconsvg" transform="translate(46.88499450683594,97.63522720336914)">
		<g class="iconsvg-imagesvg" transform="translate(0,0)">
			<g>
				<rect fill="#333" fill-opacity="0" stroke-width="2" x="0" y="0" width="60" height="54.72954483261881" class="image-rect"/>
				<svg x="0" y="0" width="60" height="54.72954483261881" filtersec="colorsb1639447211" class="image-svg-svg primary" style="overflow: visible;">
					<svg xmlns="http://www.w3.org/2000/svg" viewBox="0 0 109.62999725341797 100">
						<path fill="none" d="M39.99 78.43l.01.01.01.01-.02-.02zM69.64 78.45l.01-.01.01-.01-.02.02z"/>
						<path d="M72.42 82.39A70 70 0 0 0 54.82 100a67.68 67.68 0 0 1 20.11-13 47.69 47.69 0 0 1 22.15-3.78l-.32-10.42a55.59 55.59 0 0 0-24.34 9.59zM37.23 82.39a55.64 55.64 0 0 0-24.34-9.64l-.32 10.42A47.69 47.69 0 0 1 34.72 87a67.51 67.51 0 0 1 20.1 13 69.75 69.75 0 0 0-17.59-17.61z" fill="#25bcaf"/>
						<path fill="#f79663" d="M36.48 13.69h36.68V4.24h8.35v20.59h2.15V4.24h6.31V0H19.68v4.24h16.8v9.45z"/>
						<path d="M36.49 16.52v7.53a18.34 18.34 0 1 0 36.67 0v-7.53H36.49zM83.88 29.22l-1.3-2.63-1.3 2.63-2.9.42 2.1 2.04-.49 2.89 2.59-1.36 2.6 1.36-.5-2.89 2.1-2.04-2.9-.42z" fill="#f79663"/>
						<path d="M54.82 49.92L0 32.22l21.63 37.47A60.86 60.86 0 0 1 40 78.44 75.06 75.06 0 0 1 54.82 92a75.4 75.4 0 0 1 14.83-13.56A60.86 60.86 0 0 1 88 69.69l21.63-37.47z" fill="#f79663"/>
					</svg>
				</svg>
				<!---->
			</g>
		</g>
		<g transform="translate(67,12.172828674316406)">
			<g data-gra="path-name" fill-rule="" class="tp-name iconsvg-namesvg" transform="translate(0,0)">
				<g transform="scale(1)">
					<g>
						<path d="M4.8-4.88L8.54-4.88 8.15-0.79 0.4-0.18 0.7-13.32 5.48-13.32 4.8-4.88ZM8.88-12.7L13.78-12.96 13.13-0.42 9.25-0.22 8.88-12.7ZM21.45-12.77L25.87-12.46 21.54-5.39 21.67-0.18 16.94-0.18 17.05-5.36 13.68-12.18 18.38-12.77 19.85-8.8 21.45-12.77ZM25.84-12.7L30.73-12.96 30.09-0.42 26.21-0.22 25.84-12.7ZM42.9-4.66L42.9-4.66Q42.9-3.62 42.88-2.6 42.85-1.58 42.81-0.55L42.81-0.55 37.51-0.64Q37.78-2.27 37.99-3.9 38.19-5.52 38.19-7.18L38.19-7.18Q38.19-7.3 38.18-7.56 38.17-7.83 38.14-8.17 38.11-8.5 38.06-8.86 38.01-9.21 37.93-9.51 37.84-9.8 37.71-9.99 37.59-10.18 37.42-10.18L37.42-10.18Q37.1-10.18 36.89-9.99 36.67-9.81 36.53-9.52 36.38-9.23 36.3-8.87 36.22-8.51 36.18-8.15 36.14-7.79 36.12-7.48 36.11-7.16 36.11-6.96L36.11-6.96Q36.06-5.33 36.03-3.72 36.01-2.12 35.96-0.48L35.96-0.48 31.27-0.28Q31.45-3.52 31.62-6.74 31.79-9.95 31.89-13.2L31.89-13.2 36.24-13.42 36.2-11.94Q36.46-12.26 36.76-12.53 37.06-12.81 37.4-13.01 37.74-13.2 38.12-13.32 38.5-13.43 38.92-13.43L38.92-13.43Q39.71-13.43 40.3-13.18 40.88-12.92 41.31-12.48 41.73-12.04 42.02-11.43 42.3-10.83 42.48-10.15 42.65-9.47 42.74-8.73 42.84-7.99 42.87-7.27 42.9-6.55 42.9-5.88 42.9-5.21 42.9-4.66ZM50.31-12.77L54.72-12.46 50.4-5.39 50.53-0.18 45.8-0.18 45.91-5.36 42.54-12.18 47.23-12.77 48.71-8.8 50.31-12.77ZM54.7-12.7L59.59-12.96 58.95-0.42 55.06-0.22 54.7-12.7ZM63.9-1.9L63.9-1.9Q63.9-1.49 63.74-1.14 63.59-0.79 63.32-0.53 63.06-0.27 62.71-0.12 62.36 0.04 61.97 0.04L61.97 0.04Q61.56 0.04 61.21-0.12 60.86-0.27 60.6-0.53 60.34-0.79 60.19-1.14 60.03-1.49 60.03-1.9L60.03-1.9Q60.03-2.29 60.19-2.65 60.34-3.01 60.6-3.27 60.86-3.53 61.21-3.69 61.56-3.85 61.97-3.85L61.97-3.85Q62.36-3.85 62.71-3.69 63.06-3.53 63.32-3.27 63.59-3.01 63.74-2.65 63.9-2.29 63.9-1.9ZM68.85-4.88L72.59-4.88 72.2-0.79 64.45-0.18 64.75-13.32 69.53-13.32 68.85-4.88ZM83.99-12.96L83.99-12.96Q83.57-9.72 83.28-6.51 82.98-3.3 82.72-0.06L82.72-0.06 78.94 0.22 79.11-1.2Q78.93-0.98 78.68-0.83 78.44-0.67 78.16-0.58 77.89-0.48 77.59-0.44 77.3-0.4 77.03-0.4L77.03-0.4Q76.4-0.41 75.85-0.65 75.3-0.88 74.84-1.27 74.38-1.67 74.01-2.19 73.64-2.71 73.39-3.28 73.14-3.86 73-4.45 72.87-5.05 72.87-5.61L72.87-5.61Q72.87-6.44 72.9-7.33 72.93-8.22 73.02-9.11 73.1-10 73.23-10.88 73.37-11.75 73.57-12.55L73.57-12.55Q74.69-12.5 75.82-12.45 76.96-12.4 78.08-12.42L78.08-12.42Q77.87-11.62 77.66-10.82 77.45-10.01 77.29-9.2 77.12-8.38 77.02-7.56 76.92-6.75 76.92-5.91L76.92-5.91Q76.92-5.71 76.94-5.36 76.96-5 77.03-4.65 77.11-4.3 77.27-4.04 77.43-3.77 77.73-3.77L77.73-3.77Q78.08-3.77 78.35-4.07 78.63-4.37 78.84-4.88 79.05-5.38 79.21-6.05 79.36-6.71 79.46-7.43 79.57-8.15 79.63-8.89 79.7-9.63 79.73-10.27 79.76-10.92 79.78-11.44 79.79-11.95 79.79-12.24L79.79-12.24Q79.79-12.42 79.78-12.6 79.77-12.77 79.75-12.96L79.75-12.96Q80.35-12.94 80.94-12.93 81.53-12.92 82.13-12.92L82.13-12.92Q82.59-12.92 83.05-12.92 83.52-12.93 83.99-12.96ZM93.16-12.57L93.16-12.57 92.83-8.69Q92.56-8.76 92.31-8.79 92.05-8.82 91.78-8.82L91.78-8.82Q91.13-8.82 90.53-8.65 89.94-8.48 89.48-8.14 89.03-7.8 88.76-7.28 88.49-6.76 88.49-6.05L88.49-6.05Q88.49-5.54 88.64-5.16 88.79-4.78 89.07-4.52 89.35-4.27 89.75-4.14 90.15-4.01 90.64-4.01L90.64-4.01Q90.98-4.01 91.34-4.08 91.7-4.15 92.06-4.27 92.42-4.39 92.75-4.55 93.08-4.7 93.36-4.88L93.36-4.88 93.22-0.55Q92.86-0.37 92.44-0.23 92.03-0.08 91.59 0.02 91.15 0.13 90.72 0.18 90.28 0.24 89.88 0.24L89.88 0.24Q88.58 0.24 87.51-0.25 86.43-0.74 85.67-1.58 84.9-2.42 84.47-3.53 84.05-4.65 84.05-5.91L84.05-5.91Q84.05-7.42 84.48-8.72 84.91-10.03 85.74-10.99 86.57-11.95 87.8-12.5 89.03-13.05 90.62-13.05L90.62-13.05Q91.26-13.05 91.91-12.95 92.56-12.85 93.16-12.57ZM100.9-12.99L105.35-11.89 101.29-7.05 105.02-0.72 100.75 0.04 97.96-3.75 97.81-0.15 93.98 0 94.27-13.18 98.56-12.94 98.23-9.15 100.9-12.99ZM116.03-12.94L116.32-0.37 111.72-0.15 111.68-4.03 109.57-4.03 109.44 0 105.32 0 105.67-12.94 110.05-12.74 109.77-6.13 111.81-6.13 111.83-13.05 116.03-12.94ZM128.17-12.96L128.17-12.96Q127.75-9.72 127.46-6.51 127.16-3.3 126.9-0.06L126.9-0.06 123.12 0.22 123.29-1.2Q123.1-0.98 122.86-0.83 122.62-0.67 122.34-0.58 122.06-0.48 121.77-0.44 121.48-0.4 121.21-0.4L121.21-0.4Q120.58-0.41 120.03-0.65 119.48-0.88 119.02-1.27 118.56-1.67 118.19-2.19 117.82-2.71 117.57-3.28 117.32-3.86 117.18-4.45 117.05-5.05 117.05-5.61L117.05-5.61Q117.05-6.44 117.08-7.33 117.11-8.22 117.2-9.11 117.28-10 117.41-10.88 117.55-11.75 117.75-12.55L117.75-12.55Q118.87-12.5 120-12.45 121.13-12.4 122.26-12.42L122.26-12.42Q122.05-11.62 121.84-10.82 121.63-10.01 121.47-9.2 121.3-8.38 121.2-7.56 121.1-6.75 121.1-5.91L121.1-5.91Q121.1-5.71 121.12-5.36 121.13-5 121.21-4.65 121.29-4.3 121.45-4.04 121.61-3.77 121.91-3.77L121.91-3.77Q122.26-3.77 122.53-4.07 122.81-4.37 123.02-4.88 123.23-5.38 123.38-6.05 123.54-6.71 123.64-7.43 123.75-8.15 123.81-8.89 123.88-9.63 123.91-10.27 123.94-10.92 123.96-11.44 123.97-11.95 123.97-12.24L123.97-12.24Q123.97-12.42 123.96-12.6 123.95-12.77 123.93-12.96L123.93-12.96Q124.53-12.94 125.12-12.93 125.71-12.92 126.31-12.92L126.31-12.92Q126.77-12.92 127.23-12.92 127.7-12.93 128.17-12.96ZM128.43-12.96L138.46-12.97 138.37-9.07 135.63-8.96 135.3-0.42 131.41-0.22 131.06-8.76 128.32-8.61 128.43-12.96ZM141.57-1.9L141.57-1.9Q141.57-1.49 141.42-1.14 141.26-0.79 141-0.53 140.74-0.27 140.39-0.12 140.04 0.04 139.64 0.04L139.64 0.04Q139.24 0.04 138.89-0.12 138.54-0.27 138.27-0.53 138.01-0.79 137.86-1.14 137.71-1.49 137.71-1.9L137.71-1.9Q137.71-2.29 137.86-2.65 138.01-3.01 138.27-3.27 138.54-3.53 138.89-3.69 139.24-3.85 139.64-3.85L139.64-3.85Q140.04-3.85 140.39-3.69 140.74-3.53 141-3.27 141.26-3.01 141.42-2.65 141.57-2.29 141.57-1.9ZM150.97-12.57L150.97-12.57 150.64-8.69Q150.37-8.76 150.11-8.79 149.85-8.82 149.59-8.82L149.59-8.82Q148.93-8.82 148.34-8.65 147.75-8.48 147.29-8.14 146.84-7.8 146.56-7.28 146.29-6.76 146.29-6.05L146.29-6.05Q146.29-5.54 146.44-5.16 146.6-4.78 146.88-4.52 147.16-4.27 147.56-4.14 147.96-4.01 148.45-4.01L148.45-4.01Q148.79-4.01 149.15-4.08 149.5-4.15 149.86-4.27 150.22-4.39 150.55-4.55 150.88-4.7 151.17-4.88L151.17-4.88 151.02-0.55Q150.66-0.37 150.25-0.23 149.84-0.08 149.4 0.02 148.96 0.13 148.52 0.18 148.09 0.24 147.69 0.24L147.69 0.24Q146.39 0.24 145.31-0.25 144.24-0.74 143.47-1.58 142.7-2.42 142.28-3.53 141.86-4.65 141.86-5.91L141.86-5.91Q141.86-7.42 142.29-8.72 142.71-10.03 143.55-10.99 144.38-11.95 145.61-12.5 146.84-13.05 148.43-13.05L148.43-13.05Q149.06-13.05 149.72-12.95 150.37-12.85 150.97-12.57ZM163.07-7.05L163.07-7.05Q163.07-6.21 162.88-5.43 162.68-4.66 162.32-3.98 161.95-3.29 161.43-2.73 160.92-2.16 160.27-1.76 159.62-1.35 158.85-1.13 158.09-0.9 157.23-0.9L157.23-0.9Q156.41-0.9 155.66-1.11 154.91-1.33 154.25-1.71 153.6-2.09 153.07-2.63 152.54-3.17 152.17-3.82 151.8-4.48 151.59-5.24 151.38-5.99 151.38-6.81L151.38-6.81Q151.38-7.61 151.58-8.38 151.77-9.15 152.13-9.83 152.5-10.51 153.01-11.08 153.53-11.65 154.17-12.06 154.8-12.48 155.55-12.71 156.3-12.94 157.12-12.94L157.12-12.94Q158.46-12.94 159.56-12.52 160.66-12.11 161.43-11.34 162.21-10.57 162.64-9.48 163.07-8.39 163.07-7.05ZM158.98-6.81L158.98-6.81Q158.98-7.21 158.87-7.58 158.75-7.95 158.53-8.24 158.31-8.53 157.98-8.71 157.66-8.89 157.23-8.89L157.23-8.89Q156.8-8.89 156.46-8.73 156.12-8.58 155.88-8.3 155.63-8.03 155.5-7.67 155.38-7.31 155.38-6.9L155.38-6.9Q155.38-6.52 155.49-6.13 155.6-5.74 155.82-5.43 156.04-5.12 156.36-4.92 156.69-4.73 157.12-4.73L157.12-4.73Q157.56-4.73 157.9-4.9 158.25-5.07 158.49-5.36 158.73-5.65 158.85-6.03 158.98-6.4 158.98-6.81ZM179.63-6.24L179.63-6.24Q179.63-4.92 179.55-3.62 179.47-2.31 179.36-0.99L179.36-0.99 174.63-0.77Q174.84-2.37 175.01-3.98 175.18-5.59 175.18-7.2L175.18-7.2Q175.18-7.3 175.17-7.55 175.16-7.8 175.14-8.13 175.11-8.45 175.07-8.79 175.03-9.14 174.96-9.43 174.89-9.72 174.79-9.9 174.69-10.09 174.55-10.09L174.55-10.09Q174.23-10.09 174.05-9.84 173.86-9.6 173.77-9.26 173.69-8.92 173.67-8.56 173.65-8.21 173.65-7.99L173.65-7.99Q173.65-7.6 173.67-7.21 173.69-6.83 173.69-6.42L173.69-6.42Q173.69-5 173.62-3.58 173.55-2.16 173.45-0.74L173.45-0.74 169.09-0.57Q169.3-2.17 169.46-3.77 169.62-5.36 169.62-6.98L169.62-6.98Q169.62-7.08 169.61-7.34 169.6-7.61 169.58-7.94 169.56-8.27 169.51-8.63 169.46-8.99 169.39-9.29 169.33-9.59 169.22-9.78 169.12-9.97 168.98-9.97L168.98-9.97Q168.75-9.97 168.59-9.8 168.43-9.62 168.34-9.33 168.24-9.05 168.19-8.7 168.14-8.36 168.12-8.02 168.09-7.69 168.09-7.41 168.08-7.13 168.07-6.99L168.07-6.99 167.87-0.28 163.23-0.28Q163.38-1.83 163.53-3.4 163.68-4.96 163.8-6.52 163.91-8.08 163.99-9.64 164.06-11.21 164.06-12.77L164.06-12.77 168.44-12.96 168.42-11.89Q168.63-12.15 168.88-12.41 169.14-12.67 169.43-12.88 169.72-13.09 170.05-13.21 170.37-13.34 170.72-13.34L170.72-13.34Q171.18-13.34 171.53-13.27 171.89-13.2 172.18-13.04 172.47-12.87 172.69-12.58 172.91-12.29 173.08-11.85L173.08-11.85Q173.37-12.17 173.67-12.45 173.97-12.73 174.3-12.92 174.64-13.12 175.02-13.23 175.41-13.34 175.88-13.34L175.88-13.34Q176.77-13.34 177.4-13 178.02-12.65 178.44-12.08 178.86-11.51 179.09-10.78 179.33-10.04 179.45-9.25 179.57-8.46 179.6-7.67 179.63-6.89 179.63-6.24Z" transform="translate(-0.4000000059604645, 13.430000305175781)"/>
					</g>
					<!---->
					<!---->
					<!---->
					<!---->
					<!---->
					<!---->
					<!---->
				</g>
			</g>
			<g data-gra="path-slogan" fill-rule="" class="tp-slogan iconsvg-slogansvg" fill="#333" transform="translate(5,19.670000076293945)">
				<rect x="0" height="1" y="4.8569440841674805" width="52.38261032104492"/>
				<rect height="1" y="4.8569440841674805" width="52.38261032104492" x="116.8474006652832"/>
				<g transform="translate(55.38261032104492,0)">
					<g transform="scale(1)">
						<path d="M9.13-0.06L9.13-0.06Q8.54-0.66 8.05-1.46L8.05-1.46Q7.49-1.01 6.89-0.58Q6.30-0.16 5.65 0.25L5.65 0.25Q5.30 0.47 5.10 0.12L5.10 0.12Q4.90-0.23 5.22-0.47L5.22-0.47Q5.87-0.97 6.45-1.49Q7.03-2.02 7.54-2.56L7.54-2.56Q7.27-3.25 7.09-3.97Q6.91-4.68 6.79-5.44L6.79-5.44L4.51-5.44L4.48-4.00L6.02-4.27Q6.40-4.34 6.40-3.97L6.40-3.97Q6.40-3.60 6.05-3.46L6.05-3.46Q5.64-3.29 5.24-3.14Q4.84-3 4.45-2.87L4.45-2.87L4.40-0.58Q4.37 0.89 2.93 0.61L2.93 0.61L1.86 0.41Q1.49 0.34 1.49-0.05L1.49-0.05Q1.49-0.43 1.87-0.48L1.87-0.48L3.10-0.62L3.10-2.41Q2.78-2.32 2.48-2.23Q2.17-2.15 1.86-2.05L1.86-2.05Q1.07-1.84 0.83-2.65L0.83-2.65Q0.60-3.46 1.43-3.55L1.43-3.55Q1.85-3.61 2.26-3.67Q2.68-3.72 3.10-3.78L3.10-3.78L3.10-5.44L1.46-5.44Q0.97-5.44 0.84-5.93L0.84-5.93Q0.71-6.42 1.22-6.44L1.22-6.44L3.10-6.54L3.10-7.78Q2.80-7.74 2.47-7.71Q2.15-7.68 1.80-7.66L1.80-7.66Q1.40-7.62 1.31-8.00L1.31-8.00Q1.20-8.38 1.58-8.48L1.58-8.48Q2.46-8.70 3.26-8.96Q4.06-9.23 4.78-9.54L4.78-9.54Q5.54-9.88 5.92-9.13L5.92-9.13Q6.28-8.35 5.45-8.17L5.45-8.17Q5.22-8.12 5.00-8.08Q4.79-8.04 4.57-8.00L4.57-8.00L4.54-6.60L6.62-6.71Q6.56-7.28 6.52-7.88Q6.48-8.48 6.46-9.13L6.46-9.13Q6.42-9.91 7.19-9.78L7.19-9.78Q7.93-9.66 7.97-8.89L7.97-8.89Q7.99-8.35 8.02-7.82Q8.04-7.30 8.06-6.78L8.06-6.78L10.39-6.89Q11.14-6.92 11.14-6.18L11.14-6.18Q11.14-5.44 10.39-5.44L10.39-5.44L8.21-5.44Q8.27-4.98 8.35-4.57Q8.44-4.15 8.54-3.77L8.54-3.77Q8.69-3.97 8.84-4.18Q8.99-4.39 9.14-4.63L9.14-4.63Q9.56-5.30 10.24-4.88L10.24-4.88Q10.93-4.43 10.40-3.82L10.40-3.82Q10.08-3.44 9.76-3.09Q9.43-2.74 9.08-2.39L9.08-2.39Q9.47-1.72 9.96-1.26L9.96-1.26L10.74-2.24Q10.92-2.46 11.16-2.32L11.16-2.32Q11.40-2.15 11.30-1.90L11.30-1.90L10.88-0.64Q10.62 0.13 10.15 0.31Q9.68 0.49 9.13-0.06ZM9.64-7.42L9.64-7.42Q9.22-7.42 8.90-7.73L8.90-7.73Q8.59-8.04 8.59-8.46L8.59-8.46Q8.59-8.89 8.90-9.20L8.90-9.20Q9.20-9.50 9.64-9.50L9.64-9.50Q10.07-9.50 10.37-9.22L10.37-9.22Q10.67-8.92 10.67-8.46L10.67-8.46Q10.67-8.02 10.37-7.72L10.37-7.72Q10.07-7.42 9.64-7.42ZM20.36-5.03L15.62-5.03Q14.20-5.03 14.12-6.46L14.12-6.46L14.00-8.80Q13.97-9.55 14.72-9.55L14.72-9.55L15.28-9.55Q15.48-9.55 15.48-9.35L15.48-9.35L15.48-9.14L20.34-9.44Q22.02-9.55 21.94-7.87L21.94-7.87L21.86-6.46Q21.79-5.03 20.36-5.03L20.36-5.03ZM13.22 0.60L13.22 0.60Q12.92 0.34 13.14-0.04L13.14-0.04Q13.48-0.58 13.76-1.16Q14.04-1.75 14.28-2.42L14.28-2.42Q14.54-3.20 15.30-2.90L15.30-2.90L15.49-2.83Q16.08-2.58 15.79-2.03L15.79-2.03Q15.72-1.90 15.64-1.76Q15.56-1.62 15.48-1.49L15.48-1.49Q15.91-1.26 16.34-1.12Q16.78-0.97 17.20-0.89L17.20-0.89L17.20-3.36L13.44-3.36Q12.98-3.36 12.85-3.82L12.85-3.82Q12.72-4.27 13.20-4.30L13.20-4.30L22.61-4.72Q23.30-4.75 23.30-4.06L23.30-4.06Q23.30-3.36 22.61-3.36L22.61-3.36L18.72-3.36L18.55-0.78L22.31-0.95Q23.09-0.98 22.86-0.23L22.86-0.23Q22.61 0.53 21.82 0.53L21.82 0.53L18.85 0.53Q17.65 0.53 16.75 0.25L16.75 0.25Q15.85-0.05 14.98-0.72L14.98-0.72Q14.71-0.37 14.43-0.04Q14.15 0.29 13.84 0.60L13.84 0.60Q13.54 0.89 13.22 0.60ZM20.93-1.10L20.93-1.10Q20.50-1.10 20.20-1.40L20.20-1.40Q19.90-1.70 19.90-2.14L19.90-2.14Q19.90-2.57 20.20-2.87L20.20-2.87Q20.50-3.17 20.93-3.17L20.93-3.17Q21.36-3.17 21.66-2.87L21.66-2.87Q21.96-2.57 21.96-2.14L21.96-2.14Q21.96-1.70 21.66-1.40L21.66-1.40Q21.36-1.10 20.93-1.10ZM15.48-6.71L15.48-5.92L20.52-6.25L20.52-6.71L15.48-6.71ZM15.48-8.24L15.48-7.52L20.52-7.82L20.52-8.24L15.48-8.24ZM29.63 0.67L27.88 0.37Q27.56 0.31 27.56-0.01L27.56-0.01Q27.56-0.31 27.88-0.37L27.88-0.37L29.59-0.61L29.59-1.60L25.60-1.60Q25.09-1.60 24.96-2.10L24.96-2.10Q24.83-2.59 25.36-2.62L25.36-2.62L29.59-2.82L29.59-3.25Q29.59-3.58 29.93-3.56L29.93-3.56L30.25-3.54Q30.38-3.65 30.53-3.80Q30.68-3.96 30.85-4.16L30.85-4.16L27.68-4.16Q27.22-4.16 27.08-4.63L27.08-4.63Q26.96-5.10 27.44-5.15L27.44-5.15L29.24-5.30L29.24-6.86Q28.42-6.34 27.61-5.92Q26.81-5.51 26.02-5.18L26.02-5.18Q25.64-5.04 25.46-5.40L25.46-5.40Q25.27-5.75 25.63-5.95L25.63-5.95Q27.02-6.72 28.14-7.58L28.14-7.58L25.58-7.58Q25.09-7.58 24.97-8.06L24.97-8.06Q24.85-8.54 25.34-8.57L25.34-8.57L29.24-8.75L29.24-9.32Q29.24-9.91 29.81-9.82L29.81-9.82L30.37-9.72Q30.79-9.67 30.77-9.24L30.77-9.24L30.74-8.82L34.44-8.99Q35.16-9.02 35.16-8.30L35.16-8.30Q35.16-7.58 34.44-7.58L34.44-7.58L30.68-7.58L30.58-5.42L31.51-5.51Q32.26-5.58 32.71-4.98L32.71-4.98L32.96-4.63Q33.17-4.38 32.89-4.21L32.89-4.21L32.62-4.03Q32.35-3.85 31.97-3.64Q31.58-3.42 31.07-3.16L31.07-3.16L31.06-2.88L34.31-3.04Q35.04-3.07 35.04-2.34L35.04-2.34Q35.04-1.60 34.31-1.60L34.31-1.60L30.98-1.60L30.92-0.36Q30.85 0.89 29.63 0.67L29.63 0.67ZM33.56-5.18L33.56-5.18Q33.13-5.18 32.82-5.50L32.82-5.50Q32.51-5.81 32.51-6.24L32.51-6.24Q32.51-6.67 32.82-6.98L32.82-6.98Q33.13-7.30 33.56-7.30L33.56-7.30Q34.00-7.30 34.31-6.98L34.31-6.98Q34.62-6.67 34.62-6.24L34.62-6.24Q34.62-5.81 34.31-5.50L34.31-5.50Q34.00-5.18 33.56-5.18ZM44.78 0.29L44.78-4.02Q44.62-3.53 44.42-3Q44.22-2.47 43.97-1.88L43.97-1.88Q43.82-1.56 43.51-1.73L43.51-1.73Q43.19-1.90 43.30-2.23L43.30-2.23Q43.57-3.10 43.83-4.10Q44.09-5.10 44.33-6.26L44.33-6.26L43.99-6.26Q43.66-6.26 43.58-6.59L43.58-6.59L43.54-6.80Q43.42-7.34 43.97-7.39L43.97-7.39L44.78-7.48L44.78-9.19Q44.78-9.90 45.49-9.78L45.49-9.78Q46.20-9.66 46.18-8.95L46.18-8.95L46.14-7.60L46.72-7.66Q47.28-7.72 47.28-7.13L47.28-7.13L47.28-6.85Q47.28-6.26 46.70-6.26L46.70-6.26L46.12-6.26L46.10-5.69Q46.34-5.15 46.58-4.67Q46.81-4.20 47.05-3.78L47.05-3.78Q47.47-3.04 47.00-2.38L47.00-2.38Q46.52-1.68 46.34-2.51L46.34-2.51Q46.26-2.90 46.19-3.29Q46.13-3.67 46.07-4.04L46.07-4.04L45.98 0.05Q45.96 0.65 45.38 0.77L45.38 0.77Q44.78 0.89 44.78 0.29L44.78 0.29ZM40.99 0.29L40.99-4.10Q40.84-3.74 40.67-3.37Q40.50-3 40.32-2.62L40.32-2.62Q40.16-2.30 39.84-2.46L39.84-2.46Q39.52-2.62 39.65-2.96L39.65-2.96Q39.94-3.72 40.20-4.54Q40.46-5.36 40.70-6.26L40.70-6.26L40.26-6.26Q39.79-6.26 39.71-6.71L39.71-6.71L39.68-6.80Q39.56-7.34 40.12-7.39L40.12-7.39L40.99-7.48L40.99-9.19Q40.99-9.90 41.70-9.78L41.70-9.78Q42.41-9.66 42.38-8.95L42.38-8.95L42.35-7.61L42.83-7.66Q43.30-7.72 43.30-7.22L43.30-7.22L43.30-6.76Q43.30-6.26 42.82-6.26L42.82-6.26L42.32-6.26L42.30-5.27Q42.55-5.59 42.98-5.59L42.98-5.59Q43.34-5.59 43.60-5.34L43.60-5.34Q43.85-5.09 43.85-4.73L43.85-4.73Q43.85-4.37 43.60-4.12L43.60-4.12Q43.34-3.86 42.98-3.86L42.98-3.86Q42.59-3.86 42.28-4.22L42.28-4.22L42.19 0.05Q42.17 0.65 41.59 0.77L41.59 0.77Q40.99 0.89 40.99 0.29L40.99 0.29ZM36.72-1.01L36.68-1.27Q36.60-1.78 37.12-1.85L37.12-1.85L37.62-1.91L37.62-4.48L37.27-4.48Q36.92-4.48 36.85-4.81L36.85-4.81L36.80-5.09Q36.72-5.52 37.16-5.59L37.16-5.59L37.62-5.64L37.62-7.78L37.22-7.78Q36.83-7.78 36.73-8.17L36.73-8.17L36.71-8.30Q36.60-8.82 37.13-8.88L37.13-8.88L39.12-9.10Q39.82-9.18 39.82-8.48L39.82-8.48L39.82-8.17Q39.82-7.78 39.43-7.78L39.43-7.78L39.04-7.78L38.96-5.80L39.35-5.84Q39.73-5.88 39.73-5.50L39.73-5.50L39.73-4.88Q39.73-4.48 39.32-4.48L39.32-4.48L38.92-4.48L38.84-2.09L39.61-2.23Q39.97-2.30 39.98-1.94L39.98-1.94Q39.98-1.57 39.66-1.40L39.66-1.40Q38.89-1.01 37.57-0.50L37.57-0.50Q36.84-0.22 36.72-1.01L36.72-1.01ZM50.06 0.28L50.06-3.23Q49.87-3.02 49.67-2.82Q49.46-2.62 49.25-2.42L49.25-2.42Q49.01-2.21 48.82-2.47L48.82-2.47Q48.61-2.71 48.83-2.98L48.83-2.98Q49.51-3.78 50.05-4.61Q50.58-5.45 50.96-6.34L50.96-6.34L49.43-6.34Q48.94-6.34 48.80-6.83L48.80-6.83Q48.67-7.32 49.19-7.39L49.19-7.39L51.70-7.74Q52.15-7.80 52.45-7.44L52.45-7.44L52.74-7.08L52.64-7.48Q52.55-7.88 52.96-7.90L52.96-7.90L54.83-8.04L54.83-9.12Q54.83-9.90 55.60-9.78L55.60-9.78L55.62-9.78Q56.36-9.65 56.35-8.90L56.35-8.90L56.33-8.15L58.16-8.28Q58.85-8.34 58.85-7.64L58.85-7.64Q58.85-6.95 58.16-6.95L58.16-6.95L56.30-6.95L56.28-6.10L57.38-6.19Q58.07-6.25 58.07-5.57L58.07-5.57Q58.07-4.87 57.38-4.87L57.38-4.87L56.26-4.87L56.24-4.03L57.83-4.15Q59.39-4.26 59.23-2.69L59.23-2.69L59.08-1.25Q58.94-0.05 57.79-0.36L57.79-0.36L57.02-0.56Q56.64-0.66 56.64-1.06L56.64-1.06Q56.64-1.45 57.02-1.52L57.02-1.52L57.74-1.66L57.85-2.74L56.21-2.74L56.15-0.01Q56.14 0.65 55.49 0.77L55.49 0.77Q54.83 0.89 54.83 0.23L54.83 0.23L54.83-2.74L52.44-2.74L52.34-2.57Q52.24-2.40 52.12-2.56L52.12-2.56Q51.92-2.80 51.76-3.05Q51.60-3.31 51.44-3.59L51.44-3.59L51.30 0.10Q51.29 0.70 50.68 0.80L50.68 0.80Q50.06 0.90 50.06 0.28L50.06 0.28ZM54.83-6.95L52.85-6.95L52.93-6.85Q52.21-5.66 51.49-4.78L51.49-4.78L51.49-4.63Q52.04-4.14 52.84-3.79L52.84-3.79L54.83-3.94L54.83-4.87L53.22-4.87L53.00-5.80L54.83-5.96L54.83-6.95ZM50.75-7.92L50.75-7.92Q50.34-7.92 50.05-8.21L50.05-8.21Q49.75-8.50 49.75-8.90L49.75-8.90Q49.75-9.32 50.05-9.61L50.05-9.61Q50.34-9.90 50.75-9.90L50.75-9.90Q51.13-9.90 51.44-9.62L51.44-9.62Q51.74-9.34 51.74-8.90L51.74-8.90Q51.74-8.50 51.44-8.21L51.44-8.21Q51.14-7.92 50.75-7.92Z" transform="translate(-0.7787727272727275, 9.9)"/>
					</g>
				</g>
			</g>
		</g>
	</g>
	<defs v-gra="od"/>
</svg>