<svg data-v-0dd9719b="" version="1.0" xmlns="http://www.w3.org/2000/svg" xmlns:xlink="http://www.w3.org/1999/xlink" width="100%" height="100%" viewBox="0 0 340.000000 250.000000" preserveAspectRatio="xMidYMid meet" color-interpolation-filters="sRGB" style="margin: auto;"> <rect data-v-0dd9719b="" x="0" y="0" width="100%" height="100%" fill="#fff" fill-opacity="1" class="background"></rect> <rect data-v-0dd9719b="" x="0" y="0" width="100%" height="100%" fill="url(#watermark)" fill-opacity="1" class="watermarklayer"></rect> <g data-v-0dd9719b="" fill="#333" class="icon-text-wrapper icon-svg-group iconsvg" transform="translate(48.01000213623047,93.98262977600098)"><g class="iconsvg-imagesvg" transform="translate(0,0)"><g><rect fill="#333" fill-opacity="0" stroke-width="2" x="0" y="0" width="60" height="62.03473945409429" class="image-rect"></rect> <svg x="0" y="0" width="60" height="62.03473945409429" filtersec="colorsb9946830082" class="image-svg-svg primary" style="overflow: visible;"><svg xmlns="http://www.w3.org/2000/svg" viewBox="0 0 96.72000122070312 100"><path fill="#db595a" d="M14.96 80.35v-8.36L35.89 50 25.33 38.93 14.96 28.04v-8.36l2.07 2.19L43.86 50l-28.9 30.35z"></path><path fill="#e39829" d="M81.78 19.68v8.36L60.83 50l20.95 21.99v8.36L52.86 50l28.92-30.32z"></path><path fill="#82b44f" d="M19.46 15.69h7.97l20.93 21.99 20.95-21.99h7.97L48.36 46.02l-28.9-30.33z"></path><path fill="#01aac5" d="M77.28 84.34h-7.97l-10.58-11.1-10.37-10.89-20.93 21.99h-7.97l28.9-30.36 2.1 2.19 26.82 28.17z"></path><path fill="#db595a" d="M14.96 34.34L0 50l14.96 15.69L29.9 50 14.96 34.34z"></path><path fill="#e39829" d="M81.78 34.34L66.82 50l14.96 15.69L96.72 50 81.78 34.34z"></path><path fill="#82b44f" d="M48.36 0L33.42 15.69l14.94 15.7 14.96-15.7L48.36 0z"></path><path fill="#01aac5" d="M48.36 68.64l-14.94 15.7L48.36 100l14.96-15.66-14.96-15.7z"></path></svg></svg> <!----></g></g> <g transform="translate(67,12.365495681762695)"><g data-gra="path-name" fill-rule="" class="tp-name iconsvg-namesvg" transform="translate(0,0)"><g transform="scale(1)"><g><path d="M3.14 0.11Q3.27 0.11 3.37 0.01 3.47-0.09 3.47-0.21L3.47-0.21 3.47-15.94 1.5-15.94 1.5 0.11 3.14 0.11ZM8.11-12.75Q8.24-12.75 8.33-12.85 8.43-12.94 8.43-13.07L8.43-13.07 8.43-15 6.46-15 6.46-12.75 8.11-12.75ZM8.11 0Q8.24 0 8.33-0.1 8.43-0.19 8.43-0.32L8.43-0.32 8.43-11.74 6.46-11.74 6.46 0 8.11 0ZM13.07 0.11Q13.2 0.11 13.3 0.01 13.39-0.09 13.39-0.21L13.39-0.21 13.39-15.94 11.42-15.94 11.42 0.11 13.07 0.11ZM18.03-12.75Q18.16-12.75 18.26-12.85 18.36-12.94 18.36-13.07L18.36-13.07 18.36-15 16.39-15 16.39-12.75 18.03-12.75ZM18.03 0Q18.16 0 18.26-0.1 18.36-0.19 18.36-0.32L18.36-0.32 18.36-11.74 16.39-11.74 16.39 0 18.03 0ZM28.65-1.69Q28.71-0.88 28.99-0.26L28.99-0.26 30.98-0.26Q30.55-1.01 30.38-2.22L30.38-2.22Q30.23-3.25 30.23-4.81L30.23-4.81 30.23-5.97Q30.23-6.93 30.19-7.66L30.19-7.66Q30.12-8.9 29.71-9.88L29.71-9.88Q29.33-10.8 28.41-11.38L28.41-11.38Q27.28-12.07 25.44-12.07L25.44-12.07Q23.83-12.07 22.66-11.38L22.66-11.38Q21.35-10.61 20.9-8.84L20.9-8.84 22.87-8.84Q23.21-9.76 23.94-10.1L23.94-10.1Q24.69-10.42 25.8-10.42L25.8-10.42Q26.83-10.42 27.64-9.86L27.64-9.86Q28.47-9.28 28.47-8.07L28.47-8.07 28.47-7.55Q27.75-7.32 26.04-7.06L26.04-7.06Q24.43-6.82 23.28-6.5L23.28-6.5Q22.23-6.23 21.46-5.46L21.46-5.46Q20.71-4.71 20.71-3.29L20.71-3.29Q20.71-1.65 21.84-0.81L21.84-0.81Q22.98 0.02 24.54 0.02L24.54 0.02Q25.56 0.02 26.61-0.36L26.61-0.36Q27.53-0.71 28.65-1.69L28.65-1.69ZM28.47-5.33Q28.47-4.86 28.43-4.21L28.43-4.21Q28.37-3.74 28.17-3.36L28.17-3.36Q27.75-2.48 26.85-2.01L26.85-2.01Q25.91-1.52 24.94-1.52L24.94-1.52Q23.98-1.52 23.38-1.99L23.38-1.99Q22.74-2.48 22.74-3.34L22.74-3.34Q22.74-4.09 23.28-4.56L23.28-4.56Q23.79-5.01 24.54-5.2L24.54-5.2Q25.05-5.33 26.46-5.56L26.46-5.56 27.6-5.75Q28.11-5.84 28.47-6.01L28.47-6.01 28.47-5.33ZM34.55 0Q34.72 0 34.8-0.07 34.87-0.15 34.87-0.32L34.87-0.32 34.87-6.38Q34.87-7.66 35.29-8.56 35.7-9.46 36.37-9.9 37.03-10.35 37.76-10.35L37.76-10.35Q38.44-10.35 39.04-9.97 39.64-9.58 40-8.85 40.37-8.11 40.37-7.08L40.37-7.08 40.37 0 42.02 0Q42.19 0 42.26-0.07 42.34-0.15 42.34-0.32L42.34-0.32 42.34-7.17Q42.34-8.77 41.79-9.87 41.25-10.97 40.34-11.52 39.43-12.07 38.38-12.07L38.38-12.07Q37.31-12.07 36.33-11.53 35.34-11 34.68-10.01L34.68-10.01 34.68-11.98 32.9-11.98 32.9 0 34.55 0ZM44.56 0.68Q44.69 1.71 45.35 2.48 46.02 3.25 47 3.68 47.98 4.11 49.1 4.11L49.1 4.11Q50.14 4.11 51.17 3.68L51.17 3.68Q52.63 3.06 53.51 1.56 54.4 0.06 54.4-2.31L54.4-2.31 54.4-12.04 52.56-12.04 52.56-10.65Q51.19-11.96 49.42-11.96L49.42-11.96Q48.13-11.96 46.97-11.25 45.8-10.55 45.09-9.28 44.37-8.02 44.37-6.46L44.37-6.46Q44.37-4.86 45.05-3.52 45.74-2.18 46.85-1.42 47.96-0.66 49.2-0.66L49.2-0.66Q50.98-0.66 52.41-2.25L52.41-2.25Q52.41-0.66 51.92 0.4 51.43 1.45 50.64 1.97 49.85 2.48 48.97 2.48L48.97 2.48Q48.09 2.48 47.17 1.76 46.25 1.05 46.04 0.21L46.04 0.21 44.56 0.68ZM46.14-6.44Q46.14-7.62 46.59-8.46 47.04-9.31 47.76-9.73 48.48-10.16 49.31-10.16L49.31-10.16Q50.14-10.16 50.89-9.72 51.64-9.28 52.1-8.42 52.56-7.55 52.56-6.33L52.56-6.33Q52.56-5.16 52.09-4.3 51.62-3.44 50.87-3.01 50.12-2.57 49.29-2.57L49.29-2.57Q48.48-2.57 47.75-3.01 47.02-3.44 46.58-4.32 46.14-5.2 46.14-6.44L46.14-6.44ZM60.24-1.73L60.24 0.51 58 0.51 58-1.73 60.24-1.73ZM65.57 0.11Q65.7 0.11 65.79 0.01 65.89-0.09 65.89-0.21L65.89-0.21 65.89-15.94 63.92-15.94 63.92 0.11 65.57 0.11ZM77.34 0Q77.51 0 77.58-0.07 77.66-0.15 77.66-0.32L77.66-0.32 77.66-11.87 75.65-11.87 75.65-4.19Q75.65-2.7 74.9-1.95 74.15-1.2 73.08-1.2L73.08-1.2Q72.18-1.2 71.48-1.69 70.79-2.18 70.79-2.95L70.79-2.95 70.68-11.87 68.89-11.87 68.89-3.87Q68.89-1.99 69.9-1.02 70.92-0.04 72.42-0.04L72.42-0.04Q73.38-0.04 74.3-0.45 75.22-0.86 75.84-1.6L75.84-1.6 75.84 0 77.34 0ZM88.87-4.47Q88.61-3.29 87.56-2.4 86.51-1.5 85.51-1.5L85.51-1.5Q84.67-1.5 83.92-1.99 83.18-2.48 82.72-3.5 82.26-4.51 82.26-5.99L82.26-5.99Q82.26-7.42 82.74-8.43 83.22-9.43 84-9.95 84.78-10.46 85.64-10.46L85.64-10.46Q86.43-10.46 87.32-9.8 88.2-9.13 88.55-8.3L88.55-8.3 90.19-8.73Q89.76-10.27 88.47-11.16 87.18-12.04 85.57-12.04L85.57-12.04Q84.18-12.04 82.96-11.37 81.74-10.7 80.98-9.32 80.22-7.94 80.22-5.93L80.22-5.93Q80.22-3.98 80.97-2.63 81.72-1.28 82.92-0.61 84.12 0.06 85.49 0.06L85.49 0.06Q86.64 0.06 87.69-0.41 88.74-0.88 89.48-1.81 90.21-2.74 90.45-4.04L90.45-4.04 88.87-4.47ZM93.47 0Q93.59 0 93.69-0.1 93.79-0.19 93.79-0.32L93.79-0.32 93.79-4.62 95.07-5.95 98.66 0 100.93 0 96.38-7.32 100.91-12.04 98.54-12.04 93.79-6.91 93.79-16.04 91.95-16.04 91.95 0 93.47 0ZM103.78 0Q103.95 0 104.02-0.07 104.1-0.15 104.1-0.32L104.1-0.32 104.1-6.74Q104.1-7.96 104.49-8.79 104.89-9.63 105.53-10.03 106.17-10.44 106.92-10.44L106.92-10.44Q107.63-10.44 108.27-10.07 108.91-9.69 109.31-9 109.7-8.3 109.7-7.34L109.7-7.34 109.7 0 111.37 0Q111.54 0 111.62-0.07 111.69-0.15 111.69-0.32L111.69-0.32 111.69-7.34Q111.69-8.84 111.15-9.89 110.6-10.95 109.7-11.49 108.8-12.02 107.73-12.02L107.73-12.02Q106.75-12.02 105.8-11.57 104.85-11.12 104.1-10.25L104.1-10.25 104.1-16.02 102.11-16.02 102.11 0 103.78 0ZM122.71 0Q122.88 0 122.96-0.07 123.03-0.15 123.03-0.32L123.03-0.32 123.03-11.87 121.02-11.87 121.02-4.19Q121.02-2.7 120.27-1.95 119.52-1.2 118.45-1.2L118.45-1.2Q117.55-1.2 116.86-1.69 116.16-2.18 116.16-2.95L116.16-2.95 116.06-11.87 114.26-11.87 114.26-3.87Q114.26-1.99 115.28-1.02 116.29-0.04 117.79-0.04L117.79-0.04Q118.75-0.04 119.67-0.45 120.59-0.86 121.21-1.6L121.21-1.6 121.21 0 122.71 0ZM130.41-1.82Q129.71-1.71 129.32-1.71L129.32-1.71Q128.74-1.71 128.5-2.06 128.25-2.42 128.25-3.4L128.25-3.4 128.25-10.4 129.81-10.4Q129.98-10.4 130.06-10.47 130.13-10.55 130.13-10.72L130.13-10.72 130.13-11.94 128.25-11.94 128.25-14.23 126.35-14.23 126.35-11.94 124.96-11.94 124.96-10.4 126.35-10.4 126.35-3.51Q126.35-1.65 126.95-0.75 127.54 0.15 129.04 0.04L129.04 0.04Q129.64 0 130.41-0.56L130.41-0.56 130.41-1.82ZM135.2-1.73L135.2 0.51 132.96 0.51 132.96-1.73 135.2-1.73ZM147.1-4.47Q146.84-3.29 145.79-2.4 144.74-1.5 143.74-1.5L143.74-1.5Q142.9-1.5 142.16-1.99 141.41-2.48 140.95-3.5 140.49-4.51 140.49-5.99L140.49-5.99Q140.49-7.42 140.97-8.43 141.45-9.43 142.23-9.95 143.01-10.46 143.87-10.46L143.87-10.46Q144.66-10.46 145.55-9.8 146.43-9.13 146.78-8.3L146.78-8.3 148.42-8.73Q148-10.27 146.7-11.16 145.41-12.04 143.8-12.04L143.8-12.04Q142.41-12.04 141.19-11.37 139.97-10.7 139.21-9.32 138.45-7.94 138.45-5.93L138.45-5.93Q138.45-3.98 139.2-2.63 139.95-1.28 141.15-0.61 142.35 0.06 143.72 0.06L143.72 0.06Q144.87 0.06 145.92-0.41 146.97-0.88 147.71-1.81 148.45-2.74 148.68-4.04L148.68-4.04 147.1-4.47ZM150.07-6.12Q150.07-4.17 150.73-2.76 151.4-1.35 152.66-0.63 153.92 0.09 155.33 0.09L155.33 0.09Q156.75 0.09 157.99-0.63 159.23-1.35 159.88-2.79 160.53-4.24 160.53-6.29L160.53-6.29Q160.53-8.19 159.87-9.56 159.21-10.93 157.95-11.63 156.7-12.32 155.29-12.32L155.29-12.32Q153.88-12.32 152.64-11.62 151.4-10.91 150.73-9.51 150.07-8.11 150.07-6.12L150.07-6.12ZM152.08-6.12Q152.08-7.57 152.56-8.6 153.04-9.63 153.72-10.14 154.39-10.65 155.29-10.65L155.29-10.65Q156.17-10.65 156.96-10.14 157.75-9.63 158.14-8.61 158.52-7.59 158.52-6.18L158.52-6.18Q158.52-4.71 158.15-3.67 157.77-2.63 156.99-2.11 156.21-1.58 155.31-1.58L155.31-1.58Q154.41-1.58 153.62-2.11 152.83-2.63 152.46-3.66 152.08-4.69 152.08-6.12L152.08-6.12ZM164.68 0Q164.85 0 164.93-0.07 165-0.15 165-0.32L165-0.32 165-6.1Q165-7.49 165.4-8.46 165.8-9.43 166.4-9.92 167.01-10.4 167.7-10.4L167.7-10.4Q168.58-10.4 169.2-9.65 169.82-8.9 169.82-7.64L169.82-7.64 169.82 0 171.42 0Q171.59 0 171.67-0.07 171.74-0.15 171.74-0.32L171.74-0.32 171.74-6.82Q171.74-7.94 172.12-8.76 172.49-9.58 173.1-10 173.71-10.42 174.37-10.42L174.37-10.42Q175.27-10.42 175.91-9.63 176.56-8.84 176.56-7.4L176.56-7.4 176.56 0 178.16 0Q178.33 0 178.41-0.07 178.48-0.15 178.48-0.32L178.48-0.32 178.48-8.07Q178.48-9.37 178.02-10.27 177.56-11.17 176.78-11.62 176-12.07 175.08-12.07L175.08-12.07Q174.07-12.07 173.09-11.51 172.11-10.95 171.44-9.95L171.44-9.95Q171.08-10.97 170.26-11.5 169.43-12.02 168.38-12.02L168.38-12.02Q167.34-12.02 166.35-11.51 165.37-11 164.81-10.1L164.81-10.1 164.81-12 163.08-12 163.08 0 164.68 0Z" transform="translate(-1.5, 16.040000915527344)"></path></g> <!----> <!----> <!----> <!----> <!----> <!----> <!----></g></g> <g data-gra="path-slogan" fill-rule="" class="tp-slogan iconsvg-slogansvg" fill="#333" transform="translate(59.334999084472656,26.150001525878906)"><!----> <!----> <g transform="scale(1, 1)"><g transform="scale(1)"><path d="M4.55-9.47L4.55-9.47Q5.30-8.72 5.20-8.58L5.20-8.58Q5.16-8.53 5.02-8.53L5.02-8.53Q4.78-8.53 4.64-8.48L4.64-8.48Q4.55-8.48 4.31-8.44L4.31-8.44Q3.84-8.34 3.66-8.30L3.66-8.30L3.66-6.33L3.84-6.33Q4.73-6.33 5.06-6.38L5.06-6.38L5.06-5.48Q4.69-5.53 3.80-5.53L3.80-5.53L3.66-5.53L3.66-4.22L4.17-4.55Q4.64-3.98 5.16-3.19L5.16-3.19L4.31-2.77Q4.08-3.42 3.66-3.98L3.66-3.98L3.66-0.38Q3.66 0.66 3.70 0.94L3.70 0.94L2.67 0.94Q2.77 0.42 2.77-0.38L2.77-0.38L2.77-3.89Q2.20-2.53 1.27-1.08L1.27-1.08Q0.89-1.64 0.61-2.02L0.61-2.02Q1.59-2.77 2.77-5.53L2.77-5.53L2.16-5.53Q1.22-5.53 0.94-5.48L0.94-5.48L0.94-6.38Q1.27-6.33 2.16-6.33L2.16-6.33L2.77-6.33L2.77-8.11Q1.64-7.83 1.31-7.83L1.31-7.83L0.89-8.63Q2.67-8.77 4.55-9.47ZM6.70-8.11L6.70-6.47L9.61-6.47L9.61-8.11L6.70-8.11ZM5.34-3.75L5.34-4.78Q6.14-4.69 7.08-4.69L7.08-4.69L9.09-4.69Q9.70-4.69 10.83-4.78L10.83-4.78L10.83-3.75Q10.08-3.80 9.09-3.84L9.09-3.84L8.53-3.84L8.53-2.53L9.05-2.53Q9.66-2.53 10.69-2.63L10.69-2.63L10.69-1.69Q10.45-1.69 9.61-1.73L9.61-1.73Q9.19-1.73 9.09-1.73L9.09-1.73L8.53-1.73L8.53-0.23L9.38-0.23Q9.52-0.23 10.13-0.28L10.13-0.28Q11.06-0.33 11.34-0.33L11.34-0.33L11.34 0.56Q10.59 0.52 9.38 0.47L9.38 0.47L6.70 0.47Q5.63 0.52 4.83 0.56L4.83 0.56L4.83-0.33Q5.63-0.28 6.70-0.23L6.70-0.23L7.59-0.23L7.59-1.73L7.08-1.73Q5.86-1.73 5.44-1.69L5.44-1.69L5.44-2.63Q6.19-2.53 7.03-2.53L7.03-2.53L7.59-2.53L7.59-3.84L7.08-3.84Q6.09-3.84 5.34-3.75L5.34-3.75ZM5.67-9.05L5.67-9.05Q5.95-8.91 6.66-8.91L6.66-8.91L9.61-8.91Q10.17-8.91 10.69-9.05L10.69-9.05Q10.59-8.72 10.59-8.11L10.59-8.11L10.59-6.47Q10.59-5.86 10.69-5.53L10.69-5.53Q10.03-5.67 9.66-5.63L9.66-5.63L6.66-5.63Q6.05-5.63 5.67-5.53L5.67-5.53Q5.77-5.95 5.77-6.47L5.77-6.47L5.77-8.16Q5.77-8.48 5.67-9.05ZM17.34-9.42L18.52-9.56Q18.61-9.23 18.75-8.77L18.75-8.77Q18.84-8.34 18.94-8.16L18.94-8.16L20.72-8.16Q21.75-8.16 22.83-8.25L22.83-8.25L22.83-7.27Q21.70-7.36 20.67-7.36L20.67-7.36L14.77-7.36Q14.81-4.08 14.53-2.39L14.53-2.39Q14.20-0.56 13.36 0.80L13.36 0.80Q12.89 0.47 12.23 0.42L12.23 0.42Q13.22-0.52 13.55-2.53L13.55-2.53Q13.73-3.52 13.78-4.88L13.78-4.88Q13.78-6 13.73-8.25L13.73-8.25Q14.48-8.16 15.42-8.16L15.42-8.16L17.86-8.16Q17.86-8.11 17.86-8.20L17.86-8.20Q17.67-8.86 17.34-9.42L17.34-9.42ZM17.53-6.47L21.89-6.47L21.89-5.39Q21.84-5.39 21.80-5.39L21.80-5.39Q20.91-5.34 19.03-3.84L19.03-3.84L22.69-3.84Q22.59-3.66 22.45-3.28L22.45-3.28Q22.08-2.44 21.89-1.92L21.89-1.92L20.72-1.97Q20.95-2.25 21.52-3.09L21.52-3.09L19.31-3.09L19.31 0.23Q19.31 0.80 17.81 0.98L17.81 0.98Q17.53 1.03 17.44 1.03L17.44 1.03Q17.30 0.38 16.97 0L16.97 0Q18.52 0.05 18.38-0.28L18.38-0.28L18.38-3.09L16.78-3.09Q15.84-3.09 15.05-3L15.05-3L15.05-3.94Q16.31-3.84 16.83-3.84L16.83-3.84L18.33-3.84Q17.81-4.36 16.97-4.83L16.97-4.83L17.77-5.39Q18.61-4.78 18.80-4.59L18.80-4.59L20.34-5.63L17.48-5.63Q16.13-5.63 15.61-5.58L15.61-5.58L15.61-6.52Q16.27-6.47 17.53-6.47L17.53-6.47ZM32.72-8.39L27.42-8.39L27.42-6.89L32.72-6.89L32.72-8.39ZM34.22-5.39L34.22-5.39Q34.13-4.92 34.13-3.56L34.13-3.56L34.13-3.14Q34.13-1.78 34.22-1.45L34.22-1.45L33-1.45Q33.05-2.20 33.09-3.23L33.09-3.23L33.09-4.41L27.14-4.41L27.14-3.05Q27.19-1.78 27.23-1.13L27.23-1.13L26.02-1.13Q26.02-1.22 26.06-1.88L26.06-1.88Q26.11-2.86 26.11-3.05L26.11-3.05L26.11-3.61Q26.06-4.69 26.02-5.39L26.02-5.39Q26.63-5.30 27.94-5.25L27.94-5.25L31.92-5.25Q33.42-5.30 34.22-5.39ZM29.44-3.89L29.44-3.89Q30.84-3.80 30.80-3.61L30.80-3.61Q30.80-3.56 30.70-3.47L30.70-3.47Q30.61-3.38 30.56-3.23L30.56-3.23Q30.56-3.19 30.56-3.14L30.56-3.14Q30.28-1.13 29.30-0.38L29.30-0.38Q27.66 0.80 25.64 1.17L25.64 1.17Q25.22 0.47 24.61 0.05L24.61 0.05Q27.05 0.05 28.69-1.03L28.69-1.03Q29.44-1.69 29.44-3.80L29.44-3.80Q29.44-3.84 29.44-3.89ZM30.33-0.80L31.13-1.73Q32.06-1.36 34.31-0.23L34.31-0.23Q34.78 0 35.02 0.09L35.02 0.09L34.17 1.13Q32.25-0.05 30.33-0.80L30.33-0.80ZM26.39-9.33L26.39-9.33Q26.72-9.23 27.47-9.23L27.47-9.23L32.67-9.23Q33.33-9.23 33.80-9.33L33.80-9.33Q33.70-8.95 33.70-8.39L33.70-8.39L33.70-6.94Q33.70-6.38 33.80-5.95L33.80-5.95Q33.38-6.05 32.67-6.05L32.67-6.05L27.47-6.05Q26.86-6.05 26.39-5.95L26.39-5.95Q26.48-6.42 26.48-6.89L26.48-6.89L26.48-8.30Q26.48-8.77 26.39-9.33ZM41.44-9.84L41.44-9.84Q42-9.84 42.56-9.75L42.56-9.75Q42.75-9.70 42.61-9.42L42.61-9.42Q42.47-9.23 42.47-9.14L42.47-9.14L42.47-8.25L45.80-8.25Q46.69-8.25 46.97-8.34L46.97-8.34L46.97-7.27Q46.31-7.41 45.80-7.36L45.80-7.36L43.31-7.36Q44.91-5.67 47.63-5.48L47.63-5.48Q47.25-5.20 46.83-4.31L46.83-4.31Q43.36-5.53 42.47-7.31L42.47-7.31L42.47-5.91Q42.47-5.06 42.56-4.78L42.56-4.78L41.44-4.78Q41.53-5.11 41.53-5.86L41.53-5.86L41.53-7.31Q40.92-6.38 39.75-5.53L39.75-5.53Q38.16-4.50 37.22-4.17L37.22-4.17Q36.84-4.73 36.23-5.06L36.23-5.06Q39-5.77 40.50-7.36L40.50-7.36L38.34-7.36Q37.45-7.36 36.98-7.27L36.98-7.27L36.98-8.34Q37.36-8.25 38.34-8.25L38.34-8.25L41.48-8.25Q41.48-9.33 41.44-9.84ZM45.33-4.55L45.33-4.55L45.33-3.66Q44.34-3.52 42.56-2.34L42.56-2.34L42.56-2.11L45.84-2.11Q46.64-2.11 47.06-2.20L47.06-2.20L47.06-1.13Q46.41-1.27 45.84-1.27L45.84-1.27L42.56-1.27L42.56 0.38Q42.66 1.17 40.55 1.31L40.55 1.31Q40.41 0.75 40.08 0.19L40.08 0.19Q41.72 0.47 41.58-0.09L41.58-0.09L41.58-1.22L38.16-1.22Q37.22-1.22 36.75-1.13L36.75-1.13L36.75-2.20Q37.17-2.11 38.16-2.11L38.16-2.11L41.58-2.11L41.58-2.81Q42.33-3.14 43.36-3.70L43.36-3.70L39.70-3.70Q39.19-3.70 38.39-3.66L38.39-3.66L38.39-4.55Q38.86-4.45 39.70-4.45L39.70-4.45L41.53-4.45L43.88-4.45Q44.91-4.45 45.33-4.55ZM53.39-9.47L54.52-9.61Q54.56-9.42 54.75-8.86L54.75-8.86Q54.84-8.48 54.84-8.44L54.84-8.44L56.86-8.44Q58.27-8.44 58.92-8.53L58.92-8.53L58.92-7.64Q58.17-7.73 56.91-7.73L56.91-7.73L51.05-7.73Q49.69-7.73 49.17-7.69L49.17-7.69L49.17-8.53Q50.39-8.44 51.09-8.44L51.09-8.44L53.77-8.44Q53.72-8.58 53.58-8.95L53.58-8.95Q53.44-9.33 53.39-9.47L53.39-9.47ZM56.30-6.47L51.84-6.47L51.84-5.44L56.30-5.44L56.30-6.47ZM50.77-4.13L50.77-4.13L57.05-4.13Q58.08-4.13 58.78-4.22L58.78-4.22Q58.73-3.98 58.73-3.28L58.73-3.28L58.73-3.14Q58.73-2.91 58.78-2.53L58.78-2.53Q58.78-2.34 58.78-2.25L58.78-2.25L57.61-2.25Q57.70-2.72 57.70-3.42L57.70-3.42L50.25-3.42Q50.25-2.72 50.34-2.25L50.34-2.25L49.22-2.25Q49.27-2.53 49.27-3.23L49.27-3.23L49.27-3.47Q49.27-3.98 49.22-4.22L49.22-4.22Q49.92-4.13 50.77-4.13ZM50.86-7.17L50.86-7.17Q51.23-7.08 51.75-7.08L51.75-7.08L56.30-7.08Q56.63-7.08 57.28-7.17L57.28-7.17Q57.23-6.84 57.23-6.61L57.23-6.61L57.23-5.48Q57.23-5.16 57.33-4.73L57.33-4.73Q56.67-4.88 56.30-4.83L56.30-4.83L51.80-4.83Q51.05-4.83 50.81-4.78L50.81-4.78Q50.86-4.92 50.86-5.48L50.86-5.48L50.86-6.70Q50.86-7.08 50.86-7.17ZM51.94-2.58L51.94-2.58Q52.03-2.58 52.36-2.58L52.36-2.58Q52.78-2.53 52.92-2.53L52.92-2.53L55.03-2.53L55.92-2.58Q55.69-1.13 55.88-0.33L55.88-0.33Q56.53 0 57.42-0.23L57.42-0.23Q57.70-0.56 57.80-1.45L57.80-1.45Q58.22-1.03 58.88-0.84L58.88-0.84Q58.45 0.38 58.03 0.56L58.03 0.56Q57.75 0.66 56.91 0.66L56.91 0.66Q56.02 0.70 55.45 0.61L55.45 0.61Q54.89 0.52 54.89 0.09L54.89 0.09L54.89-1.88L52.88-1.88Q52.73 0 51.66 0.42L51.66 0.42Q50.77 0.84 50.06 1.08L50.06 1.08Q49.78 0.56 49.36 0.09L49.36 0.09Q52.36 0 51.94-2.58Z" transform="translate(-0.609375, 9.84375)"></path></g></g></g></g></g><defs v-gra="od"></defs></svg>