<svg data-v-0dd9719b="" version="1.0" xmlns="http://www.w3.org/2000/svg" xmlns:xlink="http://www.w3.org/1999/xlink" width="100%" height="100%" viewBox="0 0 340.000000 250.000000" preserveAspectRatio="xMidYMid meet" color-interpolation-filters="sRGB" style="margin: auto;">
	<rect data-v-0dd9719b="" x="0" y="0" width="100%" height="100%" fill="#ffffff" fill-opacity="1" stroke-opacity="1" class="background"/>
	<g data-v-0dd9719b="" fill="#333" class="icon-text-wrapper icon-svg-group iconsvg" transform="translate(47.68499755859375,94.99429893493652)">
		<g class="iconsvg-imagesvg" transform="translate(0,0)">
			<g>
				<rect fill="#333" fill-opacity="0" stroke-width="2" x="0" y="0" width="60" height="60.01140216641162" class="image-rect"/>
				<svg x="0" y="0" width="60" height="60.01140216641162" filtersec="colorsb8758956653" class="image-svg-svg primary" style="overflow: visible;">
					<svg xmlns="http://www.w3.org/2000/svg" viewBox="0.015911167487502098 -0.000005817697001475608 99.98900604248047 100.00848388671875">
						<g fill-rule="evenodd">
							<path d="M97.32 66.19a50 50 0 0 1-58.63 32.52l10.54-34.28z" fill="#1b807d"/>
							<path d="M68 3.35a50 50 0 0 1 31.43 54.21l-47.55-1.74z" fill="#207fc0"/>
							<path d="M50 0a50.28 50.28 0 0 1 9.65.93L30.42 96A50 50 0 0 1 50 0z" fill="#eb8323"/>
						</g>
					</svg>
				</svg>
				<!---->
			</g>
		</g>
		<g transform="translate(67,12.867658615112305)">
			<g data-gra="path-name" fill-rule="" class="tp-name iconsvg-namesvg" transform="translate(0,0)">
				<g transform="scale(1)">
					<g>
						<path d="M1.26-13.58L2.97-13.58 2.97 0 1.26 0 1.26-13.58ZM5.42-9.95L7.13-9.95 7.13 0 5.42 0 5.42-9.95ZM7.13-13.58L7.13-11.73 5.42-11.73 5.42-13.58 7.13-13.58ZM17.59-6.75L17.59-6.75 17.59 0 15.96 0 15.96-6.09Q16.11-8.83 13.81-8.68L13.81-8.68Q11.28-8.54 11.21-5.42L11.21-5.42 11.21 0 9.5 0 9.5-9.95 11.13-9.95 11.13-8.54Q12.32-10.24 14.18-10.24L14.18-10.24Q17.52-10.17 17.59-6.75ZM23.6-1.78L23.68-1.78 26.28-9.95 28.13-9.95Q27.76-8.98 27.09-7.05L27.09-7.05Q25.46-2.52 24.57-0.22L24.57-0.22Q23.31 2.89 22.79 3.27L22.79 3.27Q22.27 3.93 20.64 3.86L20.64 3.86Q20.34 3.86 19.97 3.71L19.97 3.71 19.97 2.23Q20.04 2.23 20.12 2.3L20.12 2.3Q20.56 2.45 20.93 2.45L20.93 2.45Q21.9 2.82 22.71 0.15L22.71 0.15 19.08-9.95 20.93-9.95 23.6-1.78ZM37.63-9.95L37.63 0 36.07 0 36.07-1.41 36-1.48Q34.96 0.22 32.81 0.15L32.81 0.15Q29.69 0 29.62-2.82L29.62-2.82 29.62-9.95 31.32-9.95 31.32-3.34Q31.32-1.11 33.25-1.11L33.25-1.11Q35.78-1.19 36-4.45L36-4.45 36-9.95 37.63-9.95ZM48.17-6.75L48.17-6.75 48.17 0 46.54 0 46.54-6.09Q46.69-8.83 44.39-8.68L44.39-8.68Q41.86-8.54 41.79-5.42L41.79-5.42 41.79 0 40.08 0 40.08-9.95 41.72-9.95 41.72-8.54Q42.9-10.24 44.76-10.24L44.76-10.24Q48.1-10.17 48.17-6.75ZM58.56-9.95L55.22-5.12 58.71 0 56.64 0 54.11-3.71 51.74 0 49.66 0 53.15-5.12 49.81-9.95 51.96-9.95 54.26-6.38 56.56-9.95 58.56-9.95ZM60.2-9.95L61.91-9.95 61.91 0 60.2 0 60.2-9.95ZM61.91-13.58L61.91-11.73 60.2-11.73 60.2-13.58 61.91-13.58ZM65.84-6.9L65.84-6.9 64.28-6.9Q64.35-10.24 68.36-10.24L68.36-10.24Q71.93-10.09 72-7.42L72-7.42 72-1.71Q72-1.11 72.59-1.11L72.59-1.11Q72.67-1.11 72.82-1.11L72.82-1.11Q73.04-1.19 73.19-1.19L73.19-1.19 73.19 0Q73.04 0 72.82 0L72.82 0Q72.45 0.07 72.22 0.07L72.22 0.07Q70.44 0.07 70.52-1.34L70.52-1.34Q69.03 0.15 66.88 0.15L66.88 0.15Q63.91 0 63.76-2.6L63.76-2.6Q63.84-5.27 66.8-5.72L66.8-5.72 69.55-6.01Q70.44-6.16 70.44-7.2L70.44-7.2Q70.44-8.83 68.07-8.83L68.07-8.83Q65.99-8.83 65.84-6.9ZM70.37-3.41L70.37-3.41 70.37-5.05Q69.77-4.68 67.62-4.38L67.62-4.38Q65.54-4.23 65.54-2.82L65.54-2.82Q65.54-1.11 67.25-1.11L67.25-1.11Q70.14-1.34 70.37-3.41ZM75.27-2L77.27-2 77.27 0 75.27 0 75.27-2ZM80.16-13.58L81.87-13.58 81.87 0 80.16 0 80.16-13.58ZM92.34-9.95L92.34 0 90.78 0 90.78-1.41 90.71-1.48Q89.67 0.22 87.51 0.15L87.51 0.15Q84.4 0 84.32-2.82L84.32-2.82 84.32-9.95 86.03-9.95 86.03-3.34Q86.03-1.11 87.96-1.11L87.96-1.11Q90.48-1.19 90.71-4.45L90.71-4.45 90.71-9.95 92.34-9.95ZM102.66-6.53L102.66-6.53 101.02-6.53Q100.8-8.68 98.72-8.68L98.72-8.68Q96.05-8.54 95.9-4.97L95.9-4.97Q95.9-1.11 98.65-1.11L98.65-1.11Q100.65-1.26 101.02-3.49L101.02-3.49 102.66-3.49Q102.06 0.07 98.65 0.15L98.65 0.15Q94.34 0 94.19-4.68L94.19-4.68Q94.34-10.09 98.94-10.24L98.94-10.24Q102.21-10.17 102.66-6.53ZM112.38-9.95L108.59-6.24 112.6 0 110.45 0 107.33-5.05 106-3.71 106 0 104.36 0 104.36-13.58 106-13.58 106-5.72 110.3-9.95 112.38-9.95ZM121.88-6.75L121.88-6.75 121.88 0 120.25 0 120.25-6.46Q120.32-8.76 118.24-8.68L118.24-8.68Q115.57-8.61 115.5-5.42L115.5-5.42 115.5 0 113.79 0 113.79-13.58 115.5-13.58 115.5-8.61 115.57-8.61Q116.76-10.24 118.47-10.24L118.47-10.24Q121.81-10.17 121.88-6.75ZM132.42-9.95L132.42 0 130.86 0 130.86-1.41 130.79-1.48Q129.75 0.22 127.6 0.15L127.6 0.15Q124.48 0 124.4-2.82L124.4-2.82 124.4-9.95 126.11-9.95 126.11-3.34Q126.11-1.11 128.04-1.11L128.04-1.11Q130.56-1.19 130.79-4.45L130.79-4.45 130.79-9.95 132.42-9.95ZM138.58-9.95L138.58-8.54 136.95-8.54 136.95-2.08Q136.95-1.26 137.91-1.26L137.91-1.26 138.58-1.26 138.58 0Q138.14 0 137.54 0L137.54 0Q137.39 0 137.32 0L137.32 0Q135.17 0 135.24-1.93L135.24-1.93 135.24-8.54 133.98-8.54 133.98-9.95 135.24-9.95 135.24-12.69 136.95-12.69 136.95-9.95 138.58-9.95ZM140.59-2L142.59-2 142.59 0 140.59 0 140.59-2ZM153.28-6.53L153.28-6.53 151.65-6.53Q151.42-8.68 149.34-8.68L149.34-8.68Q146.67-8.54 146.52-4.97L146.52-4.97Q146.52-1.11 149.27-1.11L149.27-1.11Q151.27-1.26 151.65-3.49L151.65-3.49 153.28-3.49Q152.68 0.07 149.27 0.15L149.27 0.15Q144.96 0 144.82-4.68L144.82-4.68Q144.96-10.09 149.57-10.24L149.57-10.24Q152.83-10.17 153.28-6.53ZM154.39-4.97L154.39-4.97Q154.69-10.02 158.99-10.24L158.99-10.24Q163.3-10.02 163.6-4.97L163.6-4.97Q163.3 0 158.99 0.15L158.99 0.15Q154.69 0 154.39-4.97ZM156.1-4.97L156.1-4.97Q156.32-1.26 158.99-1.19L158.99-1.19Q161.67-1.26 161.89-4.97L161.89-4.97Q161.67-8.68 158.99-8.76L158.99-8.76Q156.32-8.68 156.1-4.97ZM167.16 0L165.45 0 165.45-9.95 167.08-9.95 167.08-8.54Q168.2-10.24 170.13-10.24L170.13-10.24Q171.84-10.24 172.65-8.68L172.65-8.68Q172.73-8.61 172.73-8.61L172.73-8.61Q174.06-10.32 175.77-10.24L175.77-10.24Q178.81-10.02 178.89-6.83L178.89-6.83 178.89 0 177.18 0 177.18-6.38Q177.25-8.76 175.32-8.68L175.32-8.68Q173.25-8.46 173.02-6.01L173.02-6.01 173.02 0 171.32 0 171.32-6.83Q171.32-8.68 169.76-8.68L169.76-8.68Q167.23-8.54 167.16-5.42L167.16-5.42 167.16 0Z" transform="translate(-1.2599999904632568, 13.579999923706055)"/>
					</g>
					<!---->
					<!---->
					<!---->
					<!---->
					<!---->
					<!---->
					<!---->
				</g>
			</g>
			<g data-gra="path-slogan" fill-rule="" class="tp-slogan iconsvg-slogansvg" fill="#333" transform="translate(71.49055671691895,23.446712493896484)">
				<!---->
				<!---->
				<g transform="scale(1, 1)">
					<g transform="scale(1)">
						<path d="M7.50-9.52L7.50-9.52Q8.72-9.52 8.81-9.38L8.81-9.38Q8.81-9.33 8.77-9.19L8.77-9.19Q8.48-8.86 8.48-8.30L8.48-8.30L8.48-6.94L9.52-6.94Q10.31-6.94 10.92-7.03L10.92-7.03L10.92-6Q10.27-6.09 9.52-6.09L9.52-6.09L8.67-6.09Q9.52-3.05 11.53-1.73L11.53-1.73Q11.53-1.69 11.44-1.64L11.44-1.64Q11.06-1.31 10.59-0.80L10.59-0.80Q9.05-2.34 8.48-4.83L8.48-4.83L8.48-1.03Q8.48 0.28 8.58 0.98L8.58 0.98L7.50 0.98Q7.59 0.23 7.59-0.98L7.59-0.98L7.59-5.30Q6.80-2.53 5.25-0.66L5.25-0.66Q4.73-0.89 4.27-1.03L4.27-1.03Q4.03-1.08 4.08-1.17L4.08-1.17Q6.23-2.86 7.03-6.09L7.03-6.09L6.80-6.09Q6.28-6.09 5.67-6L5.67-6L5.67-7.03Q6.33-6.94 6.98-6.94L6.98-6.94L7.59-6.94L7.59-8.48Q7.59-8.95 7.50-9.38L7.50-9.38Q7.50-9.52 7.50-9.52ZM2.81-9.52L2.81-9.52Q4.17-9.42 4.17-9.33L4.17-9.33Q4.17-9.28 4.13-9.19L4.13-9.19Q3.84-8.81 3.84-7.92L3.84-7.92L3.84-6.89L4.08-6.89Q4.83-6.89 5.34-7.03L5.34-7.03L5.34-5.95Q4.92-6.09 4.13-6.09L4.13-6.09L3.84-6.09L3.84-0.94Q3.84 0.70 3.94 0.94L3.94 0.94L2.81 0.94Q2.91 0.33 2.91-0.94L2.91-0.94L2.91-4.97Q2.58-2.86 1.50-1.08L1.50-1.08Q1.08-1.50 0.66-1.73L0.66-1.73Q0.52-1.78 0.56-1.83L0.56-1.83Q1.88-3.19 2.63-6.09L2.63-6.09L2.20-6.09Q1.45-6.09 0.94-5.95L0.94-5.95L0.94-7.03Q1.45-6.94 2.20-6.94L2.20-6.94L2.91-6.94L2.91-8.30Q2.91-8.63 2.86-9.28L2.86-9.28Q2.81-9.42 2.81-9.52ZM3.89-4.64L3.89-4.64L4.45-5.11Q4.83-4.78 5.58-3.61L5.58-3.61L4.83-3Q4.36-4.13 3.89-4.64ZM14.30-7.92L14.30-9Q14.30-9.05 14.39-9L14.39-9Q14.95-8.91 16.03-8.91L16.03-8.91L19.97-8.91Q21.05-8.91 21.61-9L21.61-9Q21.70-9.05 21.70-9L21.70-9L21.70-7.92Q21.70-7.88 21.56-7.92L21.56-7.92Q21-8.02 19.97-8.02L19.97-8.02L16.03-8.02Q15-8.02 14.44-7.92L14.44-7.92Q14.30-7.88 14.30-7.92L14.30-7.92ZM12.80-4.78L12.80-5.86Q13.08-5.77 14.48-5.77L14.48-5.77L21.33-5.77Q22.78-5.77 23.11-5.86L23.11-5.86L23.11-4.78Q22.83-4.88 21.38-4.88L21.38-4.88L14.53-4.88Q13.08-4.88 12.80-4.78L12.80-4.78ZM18.61-4.22L18.61-4.22Q18.61-4.17 18.52-4.08L18.52-4.08Q18.14-3.84 17.72-3.42L17.72-3.42Q17.58-3.28 17.16-2.77L17.16-2.77Q15.66-0.94 15.19-0.66L15.19-0.66Q17.16-0.70 19.55-0.75L19.55-0.75Q20.48-0.80 20.67-0.80L20.67-0.80Q20.02-1.78 19.08-2.77L19.08-2.77L20.06-3.33Q21.05-1.97 22.78 0.14L22.78 0.14L21.70 0.80Q21.56 0.56 21.33 0.23L21.33 0.23Q21.19 0 21.14-0.05L21.14-0.05Q20.67-0.05 19.69 0L19.69 0Q15.38 0.05 14.02 0.42L14.02 0.42L13.59-0.70Q15.42-1.13 17.16-4.73L17.16-4.73Q18.56-4.31 18.61-4.22ZM25.88-8.58L25.88-9.61Q26.63-9.47 27.33-9.47L27.33-9.47L32.39-9.47Q33.19-9.47 33.94-9.56L33.94-9.56L33.94-8.58Q33.47-8.67 32.44-8.67L32.44-8.67L30.28-8.67L30.28-8.11L33.94-8.11Q34.64-8.11 34.97-8.20L34.97-8.20Q34.88-7.69 34.88-7.27L34.88-7.27Q34.88-6.52 34.97-5.86L34.97-5.86L33.84-5.86Q33.94-6.28 33.94-7.41L33.94-7.41L30.33-7.41L30.33-6.61Q30.33-5.95 30.42-5.20L30.42-5.20L29.30-5.20Q29.39-5.91 29.39-6.66L29.39-6.66L29.39-7.41L25.83-7.41Q25.78-6.89 25.88-5.86L25.88-5.86L24.84-5.86Q24.94-6.19 24.94-7.27L24.94-7.27Q24.94-7.83 24.84-8.20L24.84-8.20Q25.50-8.11 25.88-8.11L25.88-8.11L29.39-8.11L29.39-8.67L27.33-8.67Q26.53-8.67 25.88-8.58L25.88-8.58ZM26.39-6.28L26.39-6.98Q27.23-6.94 27.56-6.94L27.56-6.94Q28.13-6.94 28.73-6.98L28.73-6.98L28.73-6.28Q28.08-6.38 27.61-6.38L27.61-6.38Q27.23-6.42 26.39-6.28L26.39-6.28ZM30.94-6.28L30.94-6.98Q31.59-6.89 32.06-6.89L32.06-6.89Q32.58-6.89 33.33-6.98L33.33-6.98L33.33-6.28Q32.67-6.33 32.11-6.33L32.11-6.33Q31.41-6.33 30.94-6.28L30.94-6.28ZM26.39-5.25L26.39-5.91Q26.77-5.86 27.61-5.86L27.61-5.86Q28.17-5.86 28.78-5.91L28.78-5.91L28.78-5.25Q28.03-5.39 27.61-5.34L27.61-5.34Q27.23-5.34 26.39-5.25L26.39-5.25ZM30.94-5.25L30.94-5.91Q31.50-5.81 32.11-5.81L32.11-5.81Q32.63-5.81 33.33-5.91L33.33-5.91L33.33-5.25Q32.63-5.30 32.11-5.30L32.11-5.30Q31.31-5.30 30.94-5.25L30.94-5.25ZM29.91-4.03L29.91-4.83Q30.47-4.73 31.08-4.73L31.08-4.73L33.14-4.73Q33.42-4.73 33.89-4.78L33.89-4.78Q34.03-4.83 34.13-4.83L34.13-4.83Q34.08-4.41 34.03-3.89L34.03-3.89Q34.03-3.66 34.08-3.19L34.08-3.19Q34.13-2.95 34.13-2.77L34.13-2.77L33.23-2.86L31.27-2.86Q30.75-2.86 30.09-2.77L30.09-2.77L30.09-3.56Q30.80-3.47 31.27-3.47L31.27-3.47L33.19-3.47L33.19-4.13L31.08-4.13Q30.52-4.13 29.91-4.03L29.91-4.03ZM25.45-4.78L25.45-4.78Q25.92-4.73 26.44-4.73L26.44-4.73L28.50-4.73Q28.92-4.73 29.34-4.78L29.34-4.78Q29.25-4.27 29.30-3.80L29.30-3.80Q29.30-3.75 29.30-3.70L29.30-3.70Q29.25-3.14 29.34-2.86L29.34-2.86Q28.97-2.91 28.45-2.91L28.45-2.91L26.44-2.91L26.44-2.20L28.17-2.20Q28.41-2.20 28.88-2.25L28.88-2.25Q29.11-2.30 29.30-2.30L29.30-2.30L29.30-1.55Q28.92-1.64 28.17-1.64L28.17-1.64L26.44-1.64L26.44-0.94L28.17-0.94Q28.69-0.94 29.34-1.03L29.34-1.03L29.34-0.28Q29.30-0.28 29.25-0.28L29.25-0.28Q28.64-0.38 28.17-0.38L28.17-0.38L26.44-0.38Q26.44 0.38 26.53 0.98L26.53 0.98L25.41 0.98Q25.55 0.56 25.55-0.42L25.55-0.42L25.55-3.94Q25.55-4.45 25.45-4.78ZM28.50-4.13L26.44-4.13L26.44-3.47L28.50-3.47L28.50-4.13ZM29.91-1.64L29.91-2.44Q30.66-2.34 31.08-2.34L31.08-2.34L34.36-2.34Q33.70-1.13 32.53-0.23L32.53-0.23Q33.70 0.19 35.20 0.23L35.20 0.23Q34.64 0.80 34.55 1.22L34.55 1.22Q32.95 0.80 31.88 0.19L31.88 0.19Q30.70 0.80 29.30 1.13L29.30 1.13Q29.11 0.70 28.59 0.19L28.59 0.19Q30.38 0.05 31.17-0.28L31.17-0.28Q30.84-0.56 30.14-1.31L30.14-1.31L30.52-1.69Q30.19-1.69 29.91-1.64L29.91-1.64ZM32.91-1.73L30.89-1.73Q31.36-1.08 31.97-0.66L31.97-0.66Q32.58-1.08 32.91-1.73L32.91-1.73Z" transform="translate(-0.55078125, 9.609375)"/>
					</g>
				</g>
			</g>
		</g>
	</g>
	<defs v-gra="od"/>
</svg>