<svg data-v-0dd9719b="" version="1.0" xmlns="http://www.w3.org/2000/svg" xmlns:xlink="http://www.w3.org/1999/xlink" width="100%" height="100%" viewBox="0 0 340.000000 250.000000" preserveAspectRatio="xMidYMid meet" color-interpolation-filters="sRGB" style="margin: auto;">
	<rect data-v-0dd9719b="" x="0" y="0" width="100%" height="100%" fill="#ffffff" fill-opacity="1" stroke-opacity="1" class="background"/>
	
	<g data-v-0dd9719b="" fill="#333" class="icon-text-wrapper icon-svg-group iconsvg" transform="translate(45.81500244140625,98.19010925292969)">
		<g class="iconsvg-imagesvg" transform="translate(0,0)">
			<g>
				<rect fill="#333" fill-opacity="0" stroke-width="2" x="0" y="0" width="60" height="53.61978212495197" class="image-rect"/>
				<svg x="0" y="0" width="60" height="53.61978212495197" filtersec="colorsb2244199415" class="image-svg-svg primary" style="overflow: visible;">
					<svg xmlns="http://www.w3.org/2000/svg" viewBox="0.015439921990036964 0.00016565322584938258 111.89912414550781 99.9998550415039">
						<g fill-rule="evenodd">
							<path d="M85.8 40.09L66 5.81a11.58 11.58 0 0 0-20.08 0l-12 20.77a5.44 5.44 0 0 0 4.71 8.16A5.43 5.43 0 0 0 43.36 32l7.9-13.68a5.44 5.44 0 0 1 9.42 0l12.56 21.77a5.45 5.45 0 0 1 0 5.44L67 56.4a5.43 5.43 0 0 0 4.71 8.15 5.49 5.49 0 0 0 2.71-.72 5.35 5.35 0 0 0 2-2l9.38-16.3a5.45 5.45 0 0 0 0-5.44z" fill="#f04b37"/>
							<path d="M51.2 45.61H26.08a5.43 5.43 0 0 0-4.71 2.72L1.58 82.62a11.57 11.57 0 0 0 10 17.38h25a5.44 5.44 0 0 0 4.71-8.16 5.43 5.43 0 0 0-4.71-2.72H19.8A5.43 5.43 0 0 1 15.09 81l12.56-21.79a5.45 5.45 0 0 1 4.71-2.72H51.2a5.44 5.44 0 0 0 4.71-2.71 5.44 5.44 0 0 0-4.71-8.17z" fill="#215fac"/>
							<path d="M110.35 82.62l-12-20.78a5.44 5.44 0 0 0-9.42 0 5.43 5.43 0 0 0 0 5.43L96.84 81a5.44 5.44 0 0 1-4.71 8.15H68a5.43 5.43 0 0 1-4.71-2.72l-5.77-10a5.43 5.43 0 0 0-8.36-1.31l-.18.17-.61.61c-2.27 2.84.27 6.75.3 6.92Q52.8 90 57 97.28a5.46 5.46 0 0 0 4.68 2.72h38.64a11.57 11.57 0 0 0 10.03-17.38z" fill="#227e3b"/>
						</g>
					</svg>
				</svg>
				<!---->
			</g>
		</g>
		<g transform="translate(67,5.790828704833984)">
			<g data-gra="path-name" fill-rule="" class="tp-name iconsvg-namesvg" transform="translate(0,0)">
				<g transform="scale(1)">
					<g>
						<path d="M14.62-27.18L14.62-27.18Q18.67-27.18 21.75-25.8L21.75-25.8Q25.36-24.14 26.81-20.25L26.81-20.25Q27.95-17.21 27.95-13.12L27.95-13.12Q27.95-8.99 26.57-5.95L26.57-5.95Q24.83-2.35 21.22-0.89L21.22-0.89Q18.55 0.16 15.07 0.16L15.07 0.16Q10.49 0.16 7.13-1.54L7.13-1.54Q4.29-2.96 2.79-5.99 1.3-9.03 1.3-13.37L1.3-13.37Q1.3-21.1 5.14-24.38L5.14-24.38Q8.38-27.14 14.62-27.18ZM14.66-22.64L14.66-22.64Q10.69-22.64 8.99-20.05L8.99-20.05Q7.61-18.02 7.61-13.53L7.61-13.53Q7.61-8.79 9.32-6.56L9.32-6.56Q11.02-4.37 14.7-4.37L14.7-4.37Q18.27-4.37 19.95-6.6 21.63-8.83 21.63-13.49L21.63-13.49Q21.63-17.74 20.25-19.97L20.25-19.97Q18.67-22.6 14.66-22.64ZM31.88 0L31.88-19.73 42.33-19.73Q44.68-19.73 45.91-19.38 47.15-19.04 48.16-18.15L48.16-18.15Q50.23-16.24 50.23-12.15L50.23-12.15 50.23 0 44.8 0 44.8-12.76Q44.8-14.22 44.15-14.86 43.5-15.51 42-15.51L42-15.51 37.3-15.51 37.3 0 31.88 0ZM59.99-11.99L71.41-11.99 71.41-7.78 59.99-7.78Q60.15-5.83 61.24-5.02 62.34-4.21 64.81-4.21L64.81-4.21 71.41-4.21 71.41 0 64.2 0Q61.85 0 60.37-0.43 58.89-0.85 57.6-1.82L57.6-1.82Q53.99-4.62 53.99-10.13L53.99-10.13Q53.99-13.69 55.9-16.36L55.9-16.36Q57.19-18.19 59.01-18.96 60.84-19.73 63.79-19.73L63.79-19.73 71.41-19.73 71.41-15.51 64.2-15.51Q61.97-15.51 61.08-14.76 60.19-14.01 59.99-11.99L59.99-11.99ZM89.39 0L75.82 0 75.82-4.82 88.18-4.82Q91.13-4.82 92.11-5.39L92.11-5.39Q93.52-6.24 93.52-7.94L93.52-7.94Q93.52-9.92 91.86-10.81L91.86-10.81Q90.93-11.34 88.87-11.34L88.87-11.34 83.84-11.34Q79.27-11.34 77.24-13L77.24-13Q75.99-14.05 75.28-15.63 74.57-17.21 74.57-19.04L74.57-19.04Q74.57-21.87 76.23-24.22L76.23-24.22Q77.85-26.49 81.41-26.89L81.41-26.89Q82.63-27.02 85.02-27.02L85.02-27.02 98.42-27.02 98.42-22.2 86.31-22.2Q83.6-22.16 82.71-21.95L82.71-21.95Q80.89-21.51 80.89-19.2L80.89-19.2Q80.89-17.25 82.43-16.61L82.43-16.61Q83.44-16.12 85.83-16.12L85.83-16.12 90.16-16.12Q93.48-16.12 95.1-15.55L95.1-15.55Q97.98-14.58 99.07-12.15L99.07-12.15Q99.92-10.21 99.92-7.98L99.92-7.98Q99.92-5.51 98.79-3.56L98.79-3.56Q97.21-0.81 94.05-0.24L94.05-0.24Q92.51 0 89.39 0L89.39 0ZM101.99-19.73L105.43-19.73 105.43-27.02 110.86-27.02 110.86-19.73 115.88-19.73 115.88-15.51 110.86-15.51 110.86-8.34Q110.86-5.83 111.31-5.18L111.31-5.18Q111.99-4.21 113.74-4.21L113.74-4.21 115.88-4.21 115.88 0 111.95 0Q108.43 0 106.93-1.7 105.43-3.4 105.43-7.41L105.43-7.41 105.43-15.51 101.99-15.51 101.99-19.73ZM128.68-20.01L128.68-20.01Q134.15-20.01 136.74-16.85L136.74-16.85Q139.13-13.97 139.13-9.6L139.13-9.6Q139.13-4.98 136.13-2.23L136.13-2.23Q133.38 0.28 128.6 0.28L128.6 0.28Q123.66 0.28 120.86-2.55L120.86-2.55Q118.27-5.1 118.27-10L118.27-10Q118.27-14.14 120.74-16.89L120.74-16.89Q123.5-19.97 128.68-20.01ZM128.72-15.88L128.72-15.88Q123.82-15.88 123.82-9.8L123.82-9.8Q123.82-7.33 124.63-6.04L124.63-6.04Q125.97-3.85 128.76-3.85L128.76-3.85Q133.58-3.85 133.58-9.88L133.58-9.88Q133.58-15.8 128.72-15.88ZM143.14 0L143.14-19.73 153.59-19.73Q155.94-19.73 157.18-19.38 158.41-19.04 159.42-18.15L159.42-18.15Q161.49-16.24 161.49-12.15L161.49-12.15 161.49 0 156.06 0 156.06-12.76Q156.06-14.22 155.41-14.86 154.77-15.51 153.27-15.51L153.27-15.51 148.57-15.51 148.57 0 143.14 0ZM171.25-11.99L182.67-11.99 182.67-7.78 171.25-7.78Q171.41-5.83 172.51-5.02 173.6-4.21 176.07-4.21L176.07-4.21 182.67-4.21 182.67 0 175.46 0Q173.11 0 171.64-0.43 170.16-0.85 168.86-1.82L168.86-1.82Q165.26-4.62 165.26-10.13L165.26-10.13Q165.26-13.69 167.16-16.36L167.16-16.36Q168.46-18.19 170.28-18.96 172.1-19.73 175.06-19.73L175.06-19.73 182.67-19.73 182.67-15.51 175.46-15.51Q173.24-15.51 172.34-14.76 171.45-14.01 171.25-11.99L171.25-11.99Z" transform="translate(-1.2999999523162842, 27.18000030517578)"/>
					</g>
					<!---->
					<!---->
					<!---->
					<!---->
					<!---->
					<!---->
					<!---->
				</g>
			</g>
			<g data-gra="path-slogan" fill-rule="" class="tp-slogan iconsvg-slogansvg" fill="#333" transform="translate(45.21500015258789,33.46000099182129)">
				<!---->
				<!---->
				<g transform="scale(1, 1)">
					<g transform="scale(1)">
						<path d="M1.08-8.58L2.25-8.58L2.25 0L1.08 0L1.08-8.58ZM13.22 0L12.38-2.48L8.91-2.48L8.02 0L6.84 0L10.08-8.58L11.39-8.58L14.48 0L13.22 0ZM10.64-7.31L9.28-3.52L11.95-3.52L10.69-7.31L10.64-7.31ZM23.77-8.58L23.77 0L22.64 0L22.64-5.06Q22.64-5.77 22.64-7.22L22.64-7.22L20.20 0L19.03 0L16.64-7.22L16.59-7.22Q16.59-6.70 16.64-5.67L16.64-5.67Q16.64-5.16 16.64-5.06L16.64-5.06L16.64 0L15.47 0L15.47-8.58L17.16-8.58L19.64-1.31L22.08-8.58L23.77-8.58ZM30.09-1.03L35.25-1.03L35.25 0L28.92 0L28.92-8.58L35.16-8.58L35.16-7.59L30.09-7.59L30.09-4.92L34.78-4.92L34.78-3.89L30.09-3.89L30.09-1.03ZM36.75-8.58L37.92-8.58L37.92-1.03L42.28-1.03L42.28 0L36.75 0L36.75-8.58ZM43.59-8.58L44.77-8.58L44.77 0L43.59 0L43.59-8.58ZM47.58-1.03L52.88-1.03L52.88 0L46.13 0L46.13-0.94L51.38-7.59L46.50-7.59L46.50-8.58L52.88-8.58L52.88-7.59L47.58-1.03ZM59.67 0L58.83-2.48L55.36-2.48L54.47 0L53.30 0L56.53-8.58L57.84-8.58L60.94 0L59.67 0ZM57.09-7.31L55.73-3.52L58.41-3.52L57.14-7.31L57.09-7.31ZM65.20-7.64L63.14-7.64L63.14-4.97L65.20-4.97Q67.03-4.92 66.98-6.38L66.98-6.38Q66.98-7.64 65.20-7.64L65.20-7.64ZM65.67 0L61.97 0L61.97-8.58L65.77-8.58Q68.06-8.48 68.16-6.42L68.16-6.42Q68.16-5.16 67.03-4.64L67.03-4.64Q68.63-4.08 68.63-2.53L68.63-2.53Q68.48-0.09 65.67 0L65.67 0ZM65.39-3.98L63.14-3.98L63.14-0.98L65.63-0.98Q67.41-1.03 67.45-2.53L67.45-2.53Q67.45-3.98 65.39-3.98L65.39-3.98ZM71.25-1.03L76.41-1.03L76.41 0L70.08 0L70.08-8.58L76.31-8.58L76.31-7.59L71.25-7.59L71.25-4.92L75.94-4.92L75.94-3.89L71.25-3.89L71.25-1.03ZM80.11-7.59L77.20-7.59L77.20-8.58L84.14-8.58L84.14-7.59L81.23-7.59L81.23 0L80.11 0L80.11-7.59ZM86.34-5.06L90.84-5.06L90.84-8.58L92.02-8.58L92.02 0L90.84 0L90.84-3.98L86.34-3.98L86.34 0L85.17 0L85.17-8.58L86.34-8.58L86.34-5.06Z" transform="translate(-1.078125, 8.578125)"/>
					</g>
				</g>
			</g>
		</g>
	</g>
	<defs v-gra="od"/>
</svg>