<svg data-v-0dd9719b="" version="1.0" xmlns="http://www.w3.org/2000/svg" xmlns:xlink="http://www.w3.org/1999/xlink" width="100%" height="100%" viewBox="0 0 340.000000 250.000000" preserveAspectRatio="xMidYMid meet" color-interpolation-filters="sRGB" style="margin: auto;"> <rect data-v-0dd9719b="" x="0" y="0" width="100%" height="100%" fill="#fff" fill-opacity="1" stroke-opacity="1" class="background"></rect>  <g data-v-0dd9719b="" fill="#f15a29" class="icon-text-wrapper icon-svg-group iconsvg" transform="translate(46.99768829345703,100.40036010742188)"><g class="iconsvg-imagesvg" transform="translate(0,0)"><g><rect fill="#f15a29" fill-opacity="0" stroke-width="2" x="0" y="0" width="60" height="49.19928169048732" class="image-rect"></rect> <svg x="0" y="0" width="60" height="49.19928169048732" filtersec="colorsb7493469757" class="image-svg-svg primary" style="overflow: visible;"><svg xmlns="http://www.w3.org/2000/svg" viewBox="-0.003841400146484375 0 123.80384826660156 101.51798248291016"><title>10604</title><g id="a7a572d4-5a93-4414-8429-c7b41c0bc515"><g id="a0c6aa23-a0fe-4a20-93e4-1810a6e4343f"><path d="M62.85,10.07c-12.76.19-29.63,3.79-29.3,18.42.3,13.59,13.46,12.79,19.59,13,8.81.36,12,3.65,10.25,9.62-2.47,8.56-13.66,6.2-21.75,2.24S24.38,57.17,28.33,65.8,58.19,88.39,75.08,76.22c14.43-10.4,15.5-30.56,3-38.55-7.88-5.06-16-3.91-16.78-10-.57-4.42,4.11-7.71,12-8.48,19-1.81,35.29,10.81,32.7,33.13C102.87,79,85,104.63,45.05,101.21S-3.61,65.14,1.19,44.41C6.49,21.47,24.05,0,55.82,0,72.57,0,74.9,9.89,62.85,10.07Z" fill="#f15a29"></path><path d="M89.31,13.4c-.81.35-1.63.71-2.43,1.1-2.14,1.14-1.35,2.48.65,1.57l1.82-.83C104.55,37.1,123.8,11,123.8,11,108.94-3.6,92.55,1.43,89.31,13.4Z" fill="#8dc63f"></path><path d="M123.8,11C113.8,6.93,94.19,11,89,14.78,104.26,37.5,123.8,11,123.8,11Z" fill="#4f9a00"></path><path d="M89,14.75c4.61-3.41,20.67-7,31.18-4.83-8.77-1.76-23.22,1.28-29.9,6.6C89.86,16,89.43,15.38,89,14.75Z" fill="#408a00"></path><path d="M48.24,94.38C10.32,91.14,2,60.12,6.57,40.42,10.48,23.48,21.4,8,40.25,1.93c-22,5.75-34.7,23.61-39.06,42.48-4.79,20.73,4,53.39,43.86,56.8C77.63,104,95.54,87.46,102.72,66.76,95.11,84.41,77.79,96.91,48.24,94.38Z" fill="#f7941e"></path></g></g></svg></svg> <!----></g></g> <g transform="translate(67,16.669640064239502)"><g data-gra="path-name" fill-rule="" class="tp-name iconsvg-namesvg"><g transform="scale(1)"><g><path d="M12.7-10.79L12.7-10.79 10.79-10.79Q10.63-13.7 6.97-13.87L6.97-13.87Q3.57-13.78 3.57-11.21L3.57-11.21Q3.57-9.55 5.4-9.3L5.4-9.3 9.71-8.3Q13.12-7.47 13.12-4.15L13.12-4.15Q13.04 0.08 7.14 0.25L7.14 0.25Q3.9 0.25 2.57-1.08L2.57-1.08Q0.91-2.32 1-4.9L1-4.9 2.99-4.9Q3.07-1.41 7.14-1.33L7.14-1.33Q11.13-1.41 11.21-3.9L11.21-3.9Q11.54-5.98 7.89-6.64L7.89-6.64 4.73-7.31Q1.49-8.22 1.49-10.96L1.49-10.96Q1.74-15.44 6.81-15.61L6.81-15.61Q12.54-15.61 12.7-10.79ZM16.02-15.19L18.1-15.19 18.1 0 16.02 0 16.02-15.19ZM25.49-13.45L20.34-13.45 20.34-15.19 32.63-15.19 32.63-13.45 27.48-13.45 27.48 0 25.49 0 25.49-13.45ZM36.78-1.83L45.91-1.83 45.91 0 34.7 0 34.7-15.19 45.75-15.19 45.75-13.45 36.78-13.45 36.78-8.72 45.08-8.72 45.08-6.89 36.78-6.89 36.78-1.83ZM61.27-10.71L61.27-10.71 59.28-10.71Q58.53-13.78 55.05-13.87L55.05-13.87Q50.23-13.62 50.06-7.72L50.06-7.72Q50.06-1.41 55.13-1.41L55.13-1.41Q58.62-1.49 59.45-5.65L59.45-5.65 61.44-5.65Q60.53 0.08 54.71 0.25L54.71 0.25Q48.07 0 47.91-7.64L47.91-7.64Q48.24-15.28 55.05-15.61L55.05-15.61Q60.44-15.44 61.27-10.71ZM75.89-7.56L75.89-7.56Q75.55-13.53 70.57-13.87L70.57-13.87Q65.51-13.62 65.26-7.56L65.26-7.56Q65.51-1.66 70.57-1.41L70.57-1.41Q75.55-1.74 75.89-7.56ZM77.96-7.56L77.96-7.56Q77.46 0 70.57 0.25L70.57 0.25Q63.6 0 63.1-7.56L63.1-7.56Q63.51-15.44 70.57-15.61L70.57-15.61Q77.46-15.36 77.96-7.56ZM87.68-6.56L82.69-6.56 82.69 0 80.62 0 80.62-15.19 87.68-15.19Q92.74-15.19 92.74-11.13L92.74-11.13Q92.74-8.63 90.58-7.47L90.58-7.47Q92.41-6.97 92.41-4.57L92.41-4.57 92.57-1.83Q92.49-0.66 93.32-0.33L93.32-0.33 93.32 0 90.75 0Q90.5-1.08 90.42-3.82L90.42-3.82Q90.5-6.56 87.68-6.56L87.68-6.56ZM87.84-13.53L82.69-13.53 82.69-8.3 87.51-8.3Q90.58-8.3 90.58-10.96L90.58-10.96Q90.58-13.53 87.84-13.53L87.84-13.53ZM97.97-1.83L107.1-1.83 107.1 0 95.89 0 95.89-15.19 106.94-15.19 106.94-13.45 97.97-13.45 97.97-8.72 106.27-8.72 106.27-6.89 97.97-6.89 97.97-1.83ZM110.01-2.24L112.25-2.24 112.25 0 110.01 0 110.01-2.24ZM124.12-12.62L124.04-12.62 120.55 0 118.39 0 114.41-15.19 116.57-15.19 119.47-2.82 119.56-2.82 122.96-15.19 125.2-15.19 128.61-2.82 128.69-2.82 131.51-15.19 133.75-15.19 129.77 0 127.61 0 124.12-12.62ZM147.7-7.56L147.7-7.56Q147.37-13.53 142.39-13.87L142.39-13.87Q137.32-13.62 137.08-7.56L137.08-7.56Q137.32-1.66 142.39-1.41L142.39-1.41Q147.37-1.74 147.7-7.56ZM149.78-7.56L149.78-7.56Q149.28 0 142.39 0.25L142.39 0.25Q135.42 0 134.92-7.56L134.92-7.56Q135.33-15.44 142.39-15.61L142.39-15.61Q149.28-15.36 149.78-7.56ZM159.49-6.56L154.51-6.56 154.51 0 152.44 0 152.44-15.19 159.49-15.19Q164.56-15.19 164.56-11.13L164.56-11.13Q164.56-8.63 162.4-7.47L162.4-7.47Q164.23-6.97 164.23-4.57L164.23-4.57 164.39-1.83Q164.31-0.66 165.14-0.33L165.14-0.33 165.14 0 162.56 0Q162.32-1.08 162.23-3.82L162.23-3.82Q162.32-6.56 159.49-6.56L159.49-6.56ZM159.66-13.53L154.51-13.53 154.51-8.3 159.33-8.3Q162.4-8.3 162.4-10.96L162.4-10.96Q162.4-13.53 159.66-13.53L159.66-13.53ZM171.95-7.64L169.54-5.4 169.54 0 167.46 0 167.46-15.19 169.54-15.19 169.54-7.8 176.93-15.19 179.83-15.19 173.44-9.05 180 0 177.26 0 171.95-7.64Z" transform="translate(-0.9953715801239014, 15.609999656677246)"></path></g> <!----> <!----> <!----> <!----> <!----> <!----> <!----></g></g> <!----></g></g><defs v-gra="od"></defs></svg>