<svg data-v-0dd9719b="" version="1.0" xmlns="http://www.w3.org/2000/svg" xmlns:xlink="http://www.w3.org/1999/xlink" width="100%" height="100%" viewBox="0 0 340.000000 250.000000" preserveAspectRatio="xMidYMid meet" color-interpolation-filters="sRGB" style="margin: auto;"> <rect data-v-0dd9719b="" x="0" y="0" width="100%" height="100%" fill="#ffffff" fill-opacity="1" stroke-opacity="1" class="background"></rect>  <g data-v-0dd9719b="" fill="#333333" class="icon-text-wrapper icon-svg-group iconsvg" transform="translate(47.529998779296875,92.74817657470703)"><g class="iconsvg-imagesvg" transform="translate(0,0)"><g><rect fill="#333333" fill-opacity="0" stroke-width="2" x="0" y="0" width="60" height="64.50364445591175" class="image-rect"></rect> <svg filter="url(#colors1782484487)" x="0" y="0" width="60" height="64.50364445591175" filtersec="colorsf3448667965" class="image-svg-svg primary" style="overflow: visible;"><svg fill="#000000" xmlns="http://www.w3.org/2000/svg" xmlns:xlink="http://www.w3.org/1999/xlink" version="1.1" x="0px" y="0px" viewBox="10.002180099487305 7 79.99563598632812 86" style="enable-background:new 0 0 100 100;" xml:space="preserve"><g><polyline class="st0" points="78.54082,19.65909 86.95889,23.46339 87.25401,23.64294 87.49712,23.88828 87.67384,24.18508    87.77372,24.51577 87.79088,24.86077 87.72415,25.19978 87.57774,25.51258 87.36009,25.78085 87.08414,25.98871 78.32664,31.04483    77.97753,31.20997 77.60622,31.31627 77.22249,31.36069 76.83675,31.34227 76.45913,31.26133 76.09959,31.11999 67.63985,26.96973    67.35021,26.78071 67.11477,26.52737 66.94754,26.22458 66.85849,25.89042 66.8527,25.54456 66.9308,25.20756 67.08794,24.89939    67.31485,24.63839 67.59807,24.43988 76.4529,19.72666 76.85127,19.55932 77.27342,19.46712 77.70526,19.45312 78.13246,19.51785    78.54082,19.65909  "></polyline><polyline class="st0" points="73.30431,17.29259 73.60374,17.47551 73.84917,17.72611 74.02579,18.02932 74.12272,18.36643    74.13408,18.71712 74.05915,19.05991 73.90254,19.37387 73.67374,19.63983 73.38672,19.84159 64.73037,24.44925 64.3177,24.62112    63.88018,24.71226 63.43319,24.71974 62.99283,24.64301 62.57468,24.48482 54.08821,20.32142 53.79457,20.12903 53.55702,19.87053    53.3902,19.56174 53.30411,19.22136 53.30411,18.87036 53.3902,18.52999 53.55702,18.22109 53.79457,17.9626 54.08821,17.77021    62.80717,13.49281 63.19586,13.34294 63.60464,13.26348 64.02111,13.25685 64.43231,13.32337 64.82542,13.46082 73.30431,17.29259     "></polyline><polyline class="st0" points="59.73919,24.55387 60.02884,24.74289 60.26427,24.99623 60.43152,25.29902 60.52056,25.63318    60.52634,25.97903 60.44825,26.31604 60.29111,26.62421 60.0642,26.88522 59.78098,27.08372 51.11263,31.69759 50.75858,31.85051    50.38442,31.94387 49.99995,31.97534 49.61559,31.94387 49.24143,31.85051 48.88727,31.69759 40.21903,27.08372 39.9357,26.88522    39.70878,26.62421 39.55165,26.31604 39.47366,25.97903 39.47934,25.63318 39.56849,25.29902 39.73573,24.99623 39.97117,24.74289    40.26081,24.55387 48.95694,20.28753 49.36004,20.13365 49.7843,20.05535 50.21571,20.05535 50.63996,20.13365 51.04296,20.28753    59.73919,24.55387  "></polyline><polyline class="st0" points="46.21849,31.7942 46.49792,31.98923 46.72284,32.24509 46.8804,32.54715 46.96154,32.87805    46.96154,33.21873 46.8804,33.54974 46.72284,33.8518 46.49792,34.10767 46.21849,34.30268 37.54268,38.92055 37.17578,39.07779    36.78752,39.17115 36.38926,39.19788 35.99205,39.15747 35.60737,39.05075 35.24595,38.88099 26.44184,33.79792 26.16945,33.59352    25.95348,33.3303 25.80645,33.02319 25.73668,32.68997 25.74815,32.3497 25.84024,32.02185 26.00769,31.72538 26.24092,31.4773    26.52646,31.29175 35.19564,27.03878 35.61369,26.88059 36.05415,26.80386 36.50103,26.81134 36.93866,26.90248 37.35133,27.07435    46.21849,31.7942  "></polyline><polyline class="st0" points="59.98779,39.12326 60.26312,39.31461 60.48592,39.5652 60.64391,39.86105 60.7281,40.18554    60.73379,40.52085 60.66085,40.84807 60.51329,41.14919 60.29922,41.40725 60.03062,41.60807 51.18399,46.71565 50.80994,46.89005    50.41115,46.99687 49.99995,47.03287 49.58875,46.99687 49.19006,46.89005 48.81591,46.71565 39.96928,41.60807 39.70068,41.40725    39.48671,41.14919 39.33905,40.84807 39.26611,40.52085 39.2719,40.18554 39.3561,39.86105 39.51397,39.5652 39.73679,39.31461    40.01211,39.12326 48.88727,34.3992 49.24143,34.24638 49.61559,34.15292 49.99995,34.12156 50.38442,34.15292 50.75858,34.24638    51.11263,34.3992 59.98779,39.12326  "></polyline><polyline class="st0" points="73.47355,31.29175 73.75909,31.4773 73.99221,31.72538 74.15967,32.02185 74.25185,32.3497    74.26333,32.68997 74.19344,33.02319 74.04641,33.3303 73.83055,33.59352 73.55817,33.79792 64.75394,38.88099 64.39264,39.05075    64.00784,39.15747 63.61074,39.19788 63.21238,39.17115 62.82423,39.07779 62.45723,38.92055 53.78141,34.30268 53.50208,34.10767    53.27706,33.8518 53.11961,33.54974 53.03846,33.21873 53.03846,32.87805 53.11961,32.54715 53.27706,32.24509 53.50208,31.98923    53.78141,31.7942 62.64867,27.07435 63.06135,26.90248 63.49886,26.81134 63.94586,26.80386 64.38622,26.88059 64.80437,27.03878    73.47355,31.29175  "></polyline><polyline class="st0" points="75.82416,46.12574 75.75206,46.56693 75.5983,46.98667 75.36844,47.36998 75.07069,47.7033    74.71548,47.97485 66.19448,53.29408 65.88589,53.43859 65.55183,53.50542 65.21136,53.49079 64.88425,53.39565 64.58924,53.22525    64.34316,52.9896 64.16035,52.70206 64.05121,52.37937 64.02206,52.03984 64.36064,42.21745 64.408,41.82098 64.52124,41.4382    64.69722,41.07983 64.93088,40.75608 65.21568,40.47623 65.5433,40.24826 74.34753,35.16509 74.66064,35.03143 74.9966,34.97607    75.33613,35.00227 75.65965,35.10847 75.94857,35.28855 76.18632,35.5322 76.35934,35.82542 76.45765,36.15147 76.47554,36.49143    75.82416,46.12574  "></polyline><polyline class="st0" points="87.8735,27.35589 88.19145,27.22086 88.53256,27.16644 88.87672,27.19602 89.20361,27.30779    89.49389,27.49514 89.73029,27.74699 89.89899,28.04842 89.98993,28.38164 89.99782,28.72706 89.08343,37.91943 89.00155,38.34369    88.84399,38.74606 88.61602,39.11305 88.32511,39.43248 87.98095,39.69381 79.47175,45.00569 79.15822,45.15178 78.81868,45.21776    78.47326,45.19976 78.14246,45.09883 77.84576,44.92096 77.60096,44.67668 77.42236,44.38051 77.32058,44.04993 77.30174,43.70461    77.93733,34.30311 77.9948,33.92116 78.11352,33.55363 78.29034,33.21032 78.52072,32.90026 78.79837,32.63177 79.116,32.41201    87.8735,27.35589  "></polyline><polyline class="st0" points="51.04296,17.80409 50.63996,17.95807 50.21571,18.03627 49.7843,18.03627 49.36004,17.95807    48.95694,17.80409 40.44794,13.62963 40.17788,13.45692 39.95349,13.22801 39.78604,12.95458 39.68415,12.65062 39.65311,12.33161    39.69426,12.01366 39.80572,11.71307 39.98169,11.44511 40.21324,11.22345 40.48857,11.05927 49.02472,7.20161 49.4034,7.06786    49.79924,7 50.20076,7 50.5966,7.06786 50.97518,7.20161 59.51133,11.05927 59.78666,11.22345 60.01831,11.44511    60.19428,11.71307 60.30564,12.01366 60.34689,12.33161 60.31574,12.65062 60.21386,12.95458 60.04652,13.22801 59.82202,13.45692    59.55196,13.62963 51.04296,17.80409  "></polyline><polyline class="st0" points="37.42522,24.48482 37.00717,24.64301 36.56681,24.71974 36.11982,24.71226 35.6822,24.62112    35.26952,24.44925 26.61318,19.84159 26.32617,19.63983 26.09747,19.37387 25.94086,19.05991 25.86592,18.71712 25.87718,18.36643    25.97411,18.02932 26.15072,17.72611 26.39627,17.47551 26.6957,17.29259 35.17449,13.46082 35.56769,13.32337 35.97879,13.25685    36.39526,13.26348 36.80415,13.34294 37.19273,13.49281 45.91169,17.77021 46.20534,17.9626 46.44288,18.22109 46.6098,18.52999    46.6959,18.87036 46.6959,19.22136 46.6098,19.56174 46.44288,19.87053 46.20534,20.12903 45.91169,20.32142 37.42522,24.48482     "></polyline><polyline class="st0" points="23.9003,31.11999 23.54088,31.26133 23.16325,31.34227 22.77741,31.36069 22.39378,31.31627    22.02247,31.20997 21.67325,31.04483 12.91587,25.98871 12.63991,25.78085 12.42226,25.51258 12.27575,25.19978 12.20913,24.86077    12.22618,24.51577 12.32606,24.18508 12.50288,23.88828 12.746,23.64294 13.04112,23.46339 21.45918,19.65909 21.86744,19.51785    22.29464,19.45312 22.72658,19.46712 23.14873,19.55932 23.54699,19.72666 32.40183,24.43988 32.68516,24.63839 32.91207,24.89939    33.06921,25.20756 33.1472,25.54456 33.14151,25.89042 33.05237,26.22458 32.88513,26.52737 32.6498,26.78071 32.36004,26.96973    23.9003,31.11999  "></polyline><polyline class="st0" points="22.69827,43.70461 22.67943,44.04993 22.57765,44.38051 22.39905,44.67668 22.15413,44.92096    21.85754,45.09883 21.52664,45.19976 21.18122,45.21776 20.84169,45.15178 20.52826,45.00569 12.01905,39.69381 11.67489,39.43248    11.38398,39.11305 11.15591,38.74606 10.99836,38.34369 10.91658,37.91943 10.00218,28.72706 10.00997,28.38164 10.10101,28.04842    10.26962,27.74699 10.50611,27.49514 10.79638,27.30779 11.12318,27.19602 11.46734,27.16644 11.80856,27.22086 12.12651,27.35589    20.88389,32.41201 21.20153,32.63177 21.47928,32.90026 21.70956,33.21032 21.88649,33.55363 22.00521,33.92116 22.06256,34.30311    22.69827,43.70461  "></polyline><polyline class="st0" points="34.45658,40.24826 34.78433,40.47623 35.06903,40.75608 35.30268,41.07983 35.47865,41.4382    35.5919,41.82098 35.63926,42.21745 35.97795,52.03984 35.9488,52.37937 35.83965,52.70206 35.65673,52.9896 35.41077,53.22525    35.11565,53.39565 34.78854,53.49079 34.44817,53.50542 34.11411,53.43859 33.80552,53.29408 25.28442,47.97485 24.92932,47.7033    24.63146,47.36998 24.4016,46.98667 24.24784,46.56693 24.17574,46.12574 23.52436,36.49143 23.54225,36.15147 23.64055,35.82542    23.81358,35.5322 24.05144,35.28855 24.34035,35.10847 24.66388,35.00227 25.0033,34.97607 25.33926,35.03143 25.65248,35.16509    34.45658,40.24826  "></polyline><polyline class="st0" points="60.81999,42.97524 61.12815,42.84305 61.45873,42.78664 61.79321,42.80937 62.11317,42.90989    62.4006,43.08249 62.63962,43.31761 62.81675,43.60231 62.92242,43.92058 62.95042,44.25464 62.60405,54.30288 62.55942,54.68589    62.45313,55.05667 62.2882,55.40526 62.06876,55.72247 61.80079,55.9998 61.49137,56.23009 52.96258,61.55417 52.65915,61.69688    52.33078,61.76456 51.99567,61.7534 51.67245,61.66405 51.37923,61.50144 51.13231,61.27463 50.94539,60.99624 50.82888,60.68187    50.78931,60.34887 50.78931,50.13369 50.82531,49.72249 50.93213,49.3237 51.10663,48.94965 51.34333,48.61148 51.6353,48.31963    51.97336,48.08282 60.81999,42.97524  "></polyline><polyline class="st0" points="48.02655,48.08282 48.36471,48.31963 48.65656,48.61148 48.89337,48.94965 49.06777,49.3237    49.17459,49.72249 49.21059,50.13369 49.21059,60.34887 49.17102,60.68187 49.05462,60.99624 48.86758,61.27463 48.62067,61.50144    48.32745,61.66405 48.00423,61.7534 47.66912,61.76456 47.34075,61.69688 47.03732,61.55417 38.50864,56.23009 38.19921,55.9998    37.93125,55.72247 37.71181,55.40526 37.54678,55.05667 37.44058,54.68589 37.39596,54.30288 37.04948,44.25464 37.07758,43.92058    37.18315,43.60231 37.36039,43.31761 37.5994,43.08249 37.88684,42.90989 38.20668,42.80937 38.54127,42.78664 38.87185,42.84305    39.17991,42.97524 48.02655,48.08282  "></polyline><polyline class="st0" points="48.09653,63.79406 48.41617,64.03329 48.69109,64.32282 48.91347,64.65436 49.07692,65.01852    49.17691,65.40509 49.21059,65.80283 49.21059,75.96906 49.16986,76.30711 49.04977,76.6257 48.85738,76.90661 48.60362,77.13373    48.30325,77.29393 47.97329,77.37801 47.63281,77.38128 47.30139,77.30339 46.99796,77.14889 38.98015,71.76765 38.6341,71.48454    38.3475,71.14153 38.13038,70.75085 37.99061,70.32619 37.93314,69.88298 37.58698,59.84378 37.61614,59.50435 37.72528,59.18156    37.90809,58.89413 38.15417,58.65837 38.44918,58.48808 38.77639,58.39283 39.11676,58.3782 39.45082,58.44513 39.75941,58.58954    48.09653,63.79406  "></polyline><polyline class="st0" points="60.2406,58.58954 60.54908,58.44513 60.88324,58.3782 61.22361,58.39283 61.55072,58.48808    61.84584,58.65837 62.0918,58.89413 62.27462,59.18156 62.38376,59.50435 62.41291,59.84378 62.06686,69.88298 62.00929,70.32619    61.86952,70.75085 61.6525,71.14153 61.3658,71.48454 61.01985,71.76765 53.00204,77.14889 52.69862,77.30339 52.36709,77.38128    52.02661,77.37801 51.69676,77.29393 51.39628,77.13373 51.14263,76.90661 50.95013,76.6257 50.83015,76.30711 50.78931,75.96906    50.78931,65.80283 50.82299,65.40509 50.92297,65.01852 51.08653,64.65436 51.30892,64.32282 51.58383,64.03329 51.90336,63.79406    60.2406,58.58954  "></polyline><polyline class="st0" points="73.27357,50.45365 73.58711,50.30756 73.92664,50.24157 74.27207,50.25957 74.60286,50.3605    74.89955,50.53838 75.14447,50.78254 75.32308,51.07882 75.42474,51.4094 75.44358,51.75472 74.7902,61.41903 74.722,61.84497    74.57771,62.25154 74.36195,62.62518 74.08209,62.95344 73.74719,63.22551 65.70445,68.62347 65.39596,68.77988 65.05875,68.85702    64.71291,68.8505 64.37895,68.76051 64.07657,68.59254 63.82377,68.35657 63.63548,68.0664 63.52287,67.7394 63.49266,67.39481    63.83103,57.58084 63.87566,57.19773 63.98185,56.82695 64.14688,56.47836 64.36622,56.16125 64.63417,55.88382 64.94361,55.65364    73.27357,50.45365  "></polyline><polyline class="st0" points="86.34834,42.29165 86.66661,42.1441 87.01131,42.07895 87.36156,42.10032 87.69584,42.20672    87.99379,42.39196 88.23734,42.64445 88.41163,42.94893 88.50594,43.28688 88.51456,43.63757 87.59354,52.89635 87.51608,53.30566    87.3681,53.69498 87.15413,54.05229 86.88091,54.36666 86.55685,54.62821 78.49294,60.04039 78.1795,60.19857 77.83682,60.27498    77.48592,60.26509 77.14818,60.16941 76.84412,59.99397 76.59236,59.74926 76.40839,59.45026 76.30325,59.11525 76.28346,58.76478    76.92116,49.33359 76.99326,48.8924 77.14703,48.47267 77.37688,48.08936 77.67464,47.75592 78.02985,47.48449 86.34834,42.29165     "></polyline><polyline class="st0" points="84.81067,57.37897 85.09526,57.23142 85.40574,57.15154 85.72623,57.14322 86.04039,57.207    86.33224,57.33961 86.58704,57.53422 86.79165,57.78102 86.93562,58.0674 87.01183,58.37883 87.01635,58.69931 86.08912,68.02071    86.01566,68.4155 85.87652,68.79219 85.6757,69.13993 85.41901,69.44883 85.11388,69.70985 77.50497,75.17348 77.22512,75.32989    76.91737,75.41956 76.59731,75.43797 76.28125,75.38419 75.9854,75.26095 75.72459,75.07445 75.51231,74.83427 75.35928,74.55263    75.27319,74.24373 75.25866,73.92356 75.89793,64.46722 75.96614,64.04129 76.11054,63.63471 76.32619,63.26109 76.60616,62.93281    76.94095,62.66074 84.81067,57.37897  "></polyline><polyline class="st0" points="72.19521,65.84587 72.50863,65.68779 72.85133,65.61127 73.20222,65.62117 73.54006,65.71684    73.84402,65.89229 74.09577,66.13709 74.27975,66.436 74.38489,66.771 74.40468,67.12148 73.74951,76.81105 73.68499,77.22256    73.54943,77.61629 73.34694,77.98025 73.08371,78.30315 72.76807,78.57489 65.2103,84.00191 64.90224,84.16978 64.56239,84.25703    64.2115,84.2584 63.87103,84.17368 63.5617,84.00822 63.30237,83.77195 63.10881,83.47935 62.99283,83.14825 62.96157,82.79883    63.29942,72.99832 63.35689,72.55502 63.49665,72.13045 63.71378,71.73977 64.00037,71.39666 64.34643,71.11365 72.19521,65.84587     "></polyline><polyline class="st0" points="59.66184,74.25783 59.97031,74.10143 60.30753,74.02428 60.65338,74.03081 60.98733,74.12069    61.28971,74.28867 61.54251,74.52473 61.7308,74.81491 61.84342,75.14191 61.87362,75.4865 61.52799,85.5116 61.47379,85.94027    61.34254,86.35201 61.13868,86.733 60.86903,87.07064 60.54255,87.35355 53.03888,92.74162 52.73588,92.90749 52.40182,92.99537    52.0564,93 51.72013,92.92117 51.41269,92.7635 51.15252,92.53628 50.95486,92.25305 50.8313,91.93036 50.78931,91.58757    50.78931,81.47522 50.82088,81.09032 50.91445,80.71565 51.06779,80.36106 51.27671,80.03627 51.53563,79.74968 51.83768,79.50898    59.66184,74.25783  "></polyline><polyline class="st0" points="48.16221,79.50898 48.46427,79.74968 48.72319,80.03627 48.9321,80.36106 49.08545,80.71565    49.17912,81.09032 49.21059,81.47522 49.21059,91.58757 49.16859,91.93036 49.04514,92.25305 48.84738,92.53628 48.5872,92.7635    48.27988,92.92117 47.9435,93 47.59808,92.99537 47.26402,92.90749 46.96102,92.74162 39.45745,87.35355 39.13087,87.07064    38.86122,86.733 38.65736,86.35201 38.52621,85.94027 38.47191,85.5116 38.12628,75.4865 38.15659,75.14191 38.2692,74.81491    38.45749,74.52473 38.71029,74.28867 39.01267,74.12069 39.34663,74.03081 39.69247,74.02428 40.02958,74.10143 40.33817,74.25783    48.16221,79.50898  "></polyline><polyline class="st0" points="35.65358,71.11365 35.99953,71.39666 36.28622,71.73977 36.50324,72.13045 36.64301,72.55502    36.70048,72.99832 37.03843,82.79883 37.00717,83.14825 36.89119,83.47935 36.69764,83.77195 36.4382,84.00822 36.12888,84.17368    35.78839,84.2584 35.43761,84.25703 35.09776,84.16978 34.7897,84.00191 27.23183,78.57489 26.91619,78.30315 26.65307,77.98025    26.45057,77.61629 26.31491,77.22256 26.25039,76.81105 25.59532,67.12148 25.61501,66.771 25.72015,66.436 25.90423,66.13709    26.15588,65.89229 26.45994,65.71684 26.79768,65.62117 27.14868,65.61127 27.49127,65.68779 27.8047,65.84587 35.65358,71.11365     "></polyline><polyline class="st0" points="35.05629,55.65364 35.36572,55.88382 35.63368,56.16125 35.85312,56.47836 36.01815,56.82695    36.12435,57.19773 36.16898,57.58084 36.50735,67.39481 36.47704,67.7394 36.36452,68.0664 36.17624,68.35657 35.92332,68.59254    35.62105,68.76051 35.287,68.8505 34.94115,68.85702 34.60404,68.77988 34.29556,68.62347 26.2527,63.22551 25.91791,62.95344    25.63795,62.62518 25.4223,62.25154 25.2779,61.84497 25.2097,61.41903 24.55632,51.75472 24.57516,51.4094 24.67693,51.07882    24.85554,50.78254 25.10045,50.53838 25.39704,50.3605 25.72794,50.25957 26.07326,50.24157 26.41279,50.30756 26.72632,50.45365    35.05629,55.65364  "></polyline><polyline class="st0" points="21.97016,47.48449 22.32526,47.75592 22.62312,48.08936 22.85298,48.47267 23.00664,48.8924    23.07884,49.33359 23.71643,58.76478 23.69665,59.11525 23.59161,59.45026 23.40753,59.74926 23.15578,59.99397 22.85182,60.16941    22.51398,60.26509 22.16308,60.27498 21.8205,60.19857 21.50707,60.04039 13.44316,54.62821 13.11911,54.36666 12.84588,54.05229    12.63191,53.69498 12.48393,53.30566 12.40637,52.89635 11.48534,43.63757 11.49397,43.28688 11.58838,42.94893 11.76256,42.64445    12.00611,42.39196 12.30417,42.20672 12.63844,42.10032 12.9886,42.07895 13.33339,42.1441 13.65166,42.29165 21.97016,47.48449     "></polyline><polyline class="st0" points="23.05895,62.66074 23.39385,62.93281 23.67371,63.26109 23.88946,63.63471 24.03376,64.04129    24.10196,64.46722 24.74134,73.92356 24.72671,74.24373 24.64073,74.55263 24.4877,74.83427 24.2753,75.07445 24.0146,75.26095    23.71865,75.38419 23.40259,75.43797 23.08253,75.41956 22.77478,75.32989 22.49493,75.17348 14.88612,69.70985 14.5809,69.44883    14.3243,69.13993 14.12349,68.79219 13.98435,68.4155 13.91089,68.02071 12.98365,58.69931 12.98807,58.37883 13.06427,58.0674    13.20836,57.78102 13.41296,57.53422 13.66766,57.33961 13.95962,57.207 14.27378,57.14322 14.59416,57.15154 14.90464,57.23142    15.18934,57.37897 23.05895,62.66074  "></polyline></g></svg></svg> <defs><filter id="colors1782484487"><feColorMatrix type="matrix" values="0 0 0 0 0.9765625  0 0 0 0 0.22265625  0 0 0 0 0.07421875  0 0 0 1 0" class="icon-fecolormatrix"></feColorMatrix></filter> <filter id="colorsf3448667965"><feColorMatrix type="matrix" values="0 0 0 0 0.99609375  0 0 0 0 0.99609375  0 0 0 0 0.99609375  0 0 0 1 0" class="icon-fecolormatrix"></feColorMatrix></filter> <filter id="colorsb6113462342"><feColorMatrix type="matrix" values="0 0 0 0 0  0 0 0 0 0  0 0 0 0 0  0 0 0 1 0" class="icon-fecolormatrix"></feColorMatrix></filter></defs></g></g> <g transform="translate(67,13.526824951171875)"><g data-gra="path-name" fill-rule="" class="tp-name iconsvg-namesvg"><g transform="scale(1)"><g><path d="M10.3 2.53L22 2.53 32.25-25.19 21.96-25.19 16.2-6.04 16.1-6.04 10.35-25.19 0.05-25.19 10.3 2.53ZM53.74-25.75Q51.36-22.75 49.58-19.71L49.58-19.71Q45.36-11.84 43.96-3.84L43.96-3.84Q43.44-0.51 43.44 2.53L43.44 2.53 52.81 2.53Q52.85-5.71 55.85-13.58 58.85-21.44 64.51-27.85L64.51-27.85 64.51-34.17 35.49-34.17 35.49-25.75 53.74-25.75ZM69.52 2.53L96.67 2.53 96.67-4.96 82.16-4.96 96.2-19.29 96.2-25.19 69.99-25.19 69.99-17.7 83.56-17.7 69.52-3.32 69.52 2.53ZM101.35 2.53L111.65 2.53 111.65-7.02 101.35-7.02 101.35 2.53ZM116.33-11.47Q116.33-8.29 117.5-5.45 118.67-2.62 120.83-0.51L120.83-0.51Q122.93 1.45 125.93 2.48L125.93 2.48Q128.41 3.23 130.85 3.28L130.85 3.28Q133.28 3.18 135.48 2.67L135.48 2.67Q139.88 1.4 142.41-1.83L142.41-1.83Q143.2-2.9 143.77-4.14 144.33-5.38 144.7-7.3L144.7-7.3 135.48-7.3Q134.03-4.68 130.99-4.68L130.99-4.68Q129.82-4.68 128.76-5.2 127.71-5.71 127.01-6.6L127.01-6.6Q125.7-8.61 125.7-11.47L125.7-11.47Q125.7-14.37 127.1-16.15L127.1-16.15Q128.6-17.93 130.85-17.98L130.85-17.98Q133.89-17.98 135.48-15.45L135.48-15.45 144.75-15.45Q144.05-18.44 142.74-20.34 141.43-22.24 139.37-23.59L139.37-23.59Q137.59-24.67 135.67-25.28L135.67-25.28Q133.47-25.84 130.85-25.93L130.85-25.93Q128.18-25.84 125.79-25.19L125.79-25.19Q122.89-24.25 120.71-22.21 118.53-20.18 117.41-17.46L117.41-17.46Q116.33-14.51 116.33-11.47L116.33-11.47ZM148.49-11.47Q148.49-8.43 149.59-5.64 150.69-2.86 152.75-0.75L152.75-0.75Q154.95 1.36 158 2.43L158 2.43Q160.62 3.23 163.24 3.28L163.24 3.28Q165.86 3.23 168.44 2.43L168.44 2.43Q171.48 1.36 173.68-0.75L173.68-0.75Q175.74-2.86 176.84-5.64 177.94-8.43 177.99-11.47L177.99-11.47Q177.94-14.47 176.86-17.23 175.79-19.99 173.73-22.05L173.73-22.05Q171.48-24.16 168.48-25.14L168.48-25.14Q166.05-25.84 163.24-25.93L163.24-25.93Q160.38-25.84 157.95-25.14L157.95-25.14Q154.91-24.16 152.71-22L152.71-22Q150.6-19.85 149.52-17.18L149.52-17.18Q148.49-14.51 148.49-11.47L148.49-11.47ZM157.86-11.47Q157.76-14.37 159.31-16.24L159.31-16.24Q160.1-17.09 161.13-17.53 162.16-17.98 163.24-17.98L163.24-17.98Q165.58-17.98 167.13-16.29L167.13-16.29Q168.53-14.51 168.62-11.47L168.62-11.47Q168.53-8.33 167.17-6.51L167.17-6.51Q165.63-4.68 163.24-4.68L163.24-4.68Q160.81-4.68 159.26-6.51L159.26-6.51Q157.76-8.52 157.86-11.47L157.86-11.47Z" transform="translate(-0.05000000447034836, 34.16999816894531)"></path></g> <!----> <!----> <!----> <!----> <!----> <!----> <!----></g></g> <!----></g></g><defs v-gra="od"></defs></svg>