<svg data-v-0dd9719b="" version="1.0" xmlns="http://www.w3.org/2000/svg" xmlns:xlink="http://www.w3.org/1999/xlink" width="100%" height="100%" viewBox="0 0 340.000000 250.000000" preserveAspectRatio="xMidYMid meet" color-interpolation-filters="sRGB" style="margin: auto;"> 
<rect data-v-0dd9719b="" x="0" y="0" width="100%" height="100%" fill="#fff" fill-opacity="1" stroke-opacity="1" class="background"></rect>  <g data-v-0dd9719b="" fill="#ff7500" class="icon-text-wrapper icon-svg-group iconsvg" transform="translate(80.2200012281537,71.98703002929688)"><g class="iconsvg-imagesvg" transform="translate(59.779998779296875,0)"><g><rect fill="#ff7500" fill-opacity="0" stroke-width="2" x="0" y="0" width="60" height="61.1259398113246" class="image-rect"></rect> <svg x="0" y="0" width="60" height="61.1259398113246" filtersec="colorsb1323753104" class="image-svg-svg primary" style="overflow: visible;"><svg version="1.1" id="图层_1" xmlns="http://www.w3.org/2000/svg" xmlns:xlink="http://www.w3.org/1999/xlink" x="0px" y="0px" viewBox="1.2699999809265137 1.0800000429153442 92.7300033569336 94.47000122070312" enable-background="new 0 0 95 96" xml:space="preserve">
<path fill="#FF7500" d="M47.63,68.43H18.07V38.86c0-4.48,1-8.73,2.79-12.54C9.44,30.42,1.27,41.33,1.27,54.16v29.57h29.57
	c11.84,0,22.06-6.97,26.78-17.02C54.49,67.82,51.14,68.43,47.63,68.43z"></path>
<path fill="#00A0EE" d="M54.3,1.08c-16.33,0-29.57,13.24-29.57,29.57v29.57H54.3c16.33,0,29.57-13.24,29.57-29.57
	S70.63,1.08,54.3,1.08z M62.13,38.38c-0.72,1.04-2.15,1.3-3.2,0.58c-0.8-0.55-2.47-1.47-4.72-1.41c-2.14,0.06-3.72,0.98-4.46,1.53
	c-0.41,0.3-0.88,0.44-1.35,0.44c-0.71,0-1.41-0.33-1.86-0.94c-0.75-1.02-0.53-2.46,0.5-3.21c1.18-0.86,3.66-2.32,7.06-2.41
	c3.55-0.09,6.2,1.36,7.46,2.23C62.6,35.91,62.85,37.34,62.13,38.38z M67.25,31.39c-0.45,0.59-1.14,0.9-1.83,0.9
	c-0.49,0-0.97-0.15-1.39-0.47c-1.67-1.27-5.19-3.4-10.05-3.32c-4.54,0.07-7.84,2.05-9.41,3.22c-1.02,0.76-2.45,0.55-3.21-0.46
	c-0.76-1.02-0.55-2.46,0.46-3.21c2.01-1.51,6.26-4.05,12.09-4.14c6.24-0.1,10.77,2.63,12.91,4.26
	C67.82,28.94,68.02,30.39,67.25,31.39z M72.51,24.32c-0.45,0.57-1.12,0.87-1.8,0.87c-0.5,0-1-0.16-1.43-0.5
	c-2.01-1.59-7.47-5.26-15.08-5.26c-0.1,0-0.2,0-0.31,0c-7.08,0.09-12.17,3.25-14.58,5.13c-1,0.78-2.44,0.6-3.22-0.4
	c-0.78-1-0.6-2.44,0.4-3.22c2.86-2.23,8.93-5.99,17.35-6.1c8.9-0.11,15.29,3.87,18.3,6.26C73.13,21.88,73.29,23.33,72.51,24.32z"></path>
<path fill="#FFD100" d="M83.37,35.96c-1.71,9.4-7.86,17.22-16.2,21.27c0.18,1.31,0.3,2.64,0.3,4c0,15.12-11.35,27.58-26,29.34
	c5.22,3.16,11.35,4.98,17.89,4.98H94V60.92C94,51.11,89.92,42.26,83.37,35.96z"></path>
</svg></svg> <!----></g></g> <g transform="translate(0,68.12594223022461)"><g data-gra="path-name" fill-rule="" class="tp-name iconsvg-namesvg" transform="translate(0,0)"><g transform="scale(1)"><g><path d="M0.07 0L4.64-6.01 0.25-12.14 3.99-12.14 6.55-8.55 9.02-12.14 12.96-12.14 8.42-6.01 12.96 0 9.02 0 6.55-3.46 3.99 0 0.07 0ZM19.49-2.59L22.63-2.59 22.63-12.14 25.97-12.14 25.97 0 19.39 0Q17.97 0 17.2-0.21 16.42-0.42 15.82-0.97L15.82-0.97Q14.55-2.12 14.55-4.69L14.55-4.69 14.55-12.14 17.87-12.14 17.87-4.34Q17.87-3.51 18.3-3.05 18.74-2.59 19.49-2.59L19.49-2.59ZM28.36-2.52L35.39-9.54 28.36-9.54 28.36-12.14 39.8-12.14 39.8-9.62 32.77-2.59 39.8-2.59 39.8 0 28.36 0 28.36-2.52ZM42.34-16.62L45.68-16.62 45.68-12.14 49.09-12.14Q50.61-12.14 51.47-11.9 52.33-11.66 52.93-11.06L52.93-11.06Q54.08-10.02 54.08-7.55L54.08-7.55 54.08 0 50.74 0 50.74-6.9Q50.74-7.87 50.65-8.29 50.56-8.7 50.29-9L50.29-9Q49.79-9.52 48.4-9.54L48.4-9.54 45.68-9.54 45.68 0 42.34 0 42.34-16.62ZM61.98-2.59L65.12-2.59 65.12-12.14 68.46-12.14 68.46 0 61.88 0Q60.46 0 59.68-0.21 58.91-0.42 58.31-0.97L58.31-0.97Q57.04-2.12 57.04-4.69L57.04-4.69 57.04-12.14 60.36-12.14 60.36-4.34Q60.36-3.51 60.79-3.05 61.23-2.59 61.98-2.59L61.98-2.59ZM76.01-7.38L80.09-7.38Q80.09-8.65 79.58-9.1 79.07-9.54 77.55-9.54L77.55-9.54 71.92-9.54 71.92-12.14 77.55-12.14Q79.07-12.14 79.65-12.07 80.22-12.01 80.82-11.84L80.82-11.84Q83.58-10.79 83.43-6.83L83.43-6.83 83.43 0 76.41 0Q74.51 0 73.79-0.11 73.07-0.22 72.52-0.57L72.52-0.57Q71.05-1.57 71.05-3.59L71.05-3.59Q71.05-4.81 71.63-5.77 72.22-6.73 73.19-7.08L73.19-7.08Q74.04-7.38 76.01-7.38L76.01-7.38ZM80.09-2.59L80.09-4.78 76.26-4.78 75.68-4.78Q75.11-4.78 74.77-4.49 74.44-4.19 74.44-3.66L74.44-3.66Q74.44-3.09 74.85-2.84 75.26-2.59 76.26-2.59L76.26-2.59 80.09-2.59ZM86.55 0L86.55-12.14 92.98-12.14Q94.42-12.14 95.18-11.92 95.94-11.71 96.57-11.16L96.57-11.16Q97.84-9.99 97.84-7.48L97.84-7.48 97.84 0 94.5 0 94.5-7.85Q94.5-8.75 94.1-9.15 93.7-9.54 92.78-9.54L92.78-9.54 89.89-9.54 89.89 0 86.55 0ZM106.36-12.14L112.59-12.14 112.59-0.07Q112.59 0.95 112.35 1.74 112.12 2.54 111.67 3.09L111.67 3.09Q111.1 3.79 110.29 4.05 109.48 4.31 107.93 4.31L107.93 4.31 101.28 4.31 101.28 1.72 107.48 1.72Q108.58 1.72 108.91 1.38 109.25 1.05 109.25 0L109.25 0 106.19 0Q104.72 0 103.76-0.31 102.8-0.62 102.02-1.35L102.02-1.35Q100.2-3.07 100.2-6.08L100.2-6.08Q100.2-9.52 102.42-11.09L102.42-11.09Q103.22-11.66 104.1-11.9 104.99-12.14 106.36-12.14L106.36-12.14ZM109.25-2.59L109.25-9.54 106.48-9.54Q103.59-9.54 103.59-6.06L103.59-6.06Q103.59-4.36 104.38-3.48 105.16-2.59 106.66-2.59L106.66-2.59 109.25-2.59ZM115.51-3.24L118.52-3.24 118.52 0 115.51 0 115.51-3.24ZM126.6-2.59L128.39-2.59 128.39-12.14 131.73-12.14 131.73-2.59 135.32-2.59 135.32-12.14 138.63-12.14 138.63 0 126.37 0Q124.7 0 123.83-0.25 122.96-0.5 122.38-1.12L122.38-1.12Q121.29-2.32 121.29-4.41L121.29-4.41 121.29-12.14 124.6-12.14 124.6-4.93Q124.6-4.06 124.69-3.71 124.78-3.36 125.03-3.09L125.03-3.09Q125.55-2.59 126.6-2.59L126.6-2.59ZM147.53-12.31L147.53-12.31Q150.89-12.31 152.49-10.37L152.49-10.37Q153.96-8.6 153.96-5.91L153.96-5.91Q153.96-3.07 152.11-1.37L152.11-1.37Q150.42 0.17 147.48 0.17L147.48 0.17Q144.44 0.17 142.72-1.57L142.72-1.57Q141.12-3.14 141.12-6.16L141.12-6.16Q141.12-8.7 142.64-10.39L142.64-10.39Q144.34-12.29 147.53-12.31ZM147.55-9.77L147.55-9.77Q144.54-9.77 144.54-6.03L144.54-6.03Q144.54-4.51 145.04-3.71L145.04-3.71Q145.86-2.37 147.58-2.37L147.58-2.37Q150.54-2.37 150.54-6.08L150.54-6.08Q150.54-9.72 147.55-9.77ZM156.43 0L156.43-12.14 161.36-12.14Q162.88-12.14 163.71-11.92 164.55-11.71 165.1-11.21L165.1-11.21Q165.65-10.72 165.87-9.97 166.09-9.22 166.09-7.83L166.09-7.83 166.09-6.65 162.88-6.65 162.88-7.3Q162.88-8.6 162.43-9.07 161.98-9.54 160.71-9.54L160.71-9.54 159.76-9.54 159.76 0 156.43 0ZM168.09-16.62L171.43-16.62 171.43-7.33 175.89-12.14 179.63-12.14 174.89-7.33 175.79-7.33Q177.53-7.33 178.21-6.3 178.88-5.28 178.88-2.69L178.88-2.69 178.88 0 175.54 0 175.54-2.84Q175.54-3.99 175.17-4.37 174.79-4.76 173.7-4.76L173.7-4.76 171.43-4.76 171.43 0 168.09 0 168.09-16.62Z" transform="translate(-0.07000000774860382, 16.6200008392334)"></path></g> <!----> <!----> <!----> <!----> <!----> <!----> <!----></g></g> <g data-gra="path-slogan" fill-rule="" class="tp-slogan iconsvg-slogansvg" fill="#ff7500" transform="translate(4.299995422363281,26.93000030517578)"><rect width="0"></rect> <rect x="173.9600067138672" width="0"></rect> <g transform="translate(0,0)"><g transform="scale(1)"><path d="M7.41-9.23L7.41-9.23Q7.41-9.14 7.31-9.05L7.31-9.05Q7.17-8.91 7.13-8.67L7.13-8.67Q7.03-8.06 6.89-7.31L6.89-7.31Q6.84-6.75 6.75-6.42L6.75-6.42L8.34-6.42Q9.80-6.47 10.50-6.52L10.50-6.52Q10.45-6.33 10.41-5.72L10.41-5.72Q10.36-5.39 10.36-5.25L10.36-5.25Q10.31-4.78 10.27-3.84L10.27-3.84Q10.03-0.42 9.80-0.05L9.80-0.05Q9.42 0.80 7.50 0.94L7.50 0.94Q7.36 0.94 7.31 0.94L7.31 0.94Q7.27 0.33 6.84-0.23L6.84-0.23Q6.94-0.23 7.13-0.19L7.13-0.19Q8.58 0 8.81-0.66L8.81-0.66Q9-0.70 9.38-5.53L9.38-5.53L6.56-5.53Q5.91-2.63 4.17-0.94L4.17-0.94Q3.28 0 1.64 0.89L1.64 0.89Q1.17 0.38 0.56 0L0.56 0Q4.41-0.98 5.63-5.53L5.63-5.53L3.14-5.53Q2.02-5.53 1.55-5.48L1.55-5.48L1.55-6.47Q1.73-6.47 2.25-6.47L2.25-6.47Q2.86-6.42 3.14-6.42L3.14-6.42L5.77-6.42Q5.95-7.69 6.09-9.52L6.09-9.52Q7.27-9.42 7.41-9.23ZM2.77-8.63L3.75-9.05Q3.80-8.95 3.94-8.77L3.94-8.77Q4.78-7.69 4.92-7.31L4.92-7.31L3.89-6.89Q3.42-7.92 2.77-8.63L2.77-8.63ZM6.05-3.38L6.94-3.89Q7.88-2.95 8.20-2.30L8.20-2.30L7.27-1.73Q6.80-2.63 6.05-3.38L6.05-3.38ZM18.09-9.70L18.09-9.70Q19.41-9.70 19.45-9.56L19.45-9.56Q19.45-9.52 19.41-9.42L19.41-9.42Q19.27-9.05 19.22-8.39L19.22-8.39Q19.17-7.88 19.17-6.28L19.17-6.28L21.66-6.28Q22.78-6.28 23.02-6.33L23.02-6.33L23.02-5.39Q22.83-5.44 21.66-5.44L21.66-5.44L19.17-5.44Q19.31-3.75 19.69-2.44L19.69-2.44Q20.72-3.75 21.14-4.88L21.14-4.88Q22.22-4.36 22.27-4.22L22.27-4.22Q22.27-4.13 22.08-4.03L22.08-4.03Q21.84-3.89 21.75-3.75L21.75-3.75Q21.70-3.66 21.56-3.47L21.56-3.47Q20.81-2.34 20.06-1.64L20.06-1.64Q20.72-0.47 21.80-0.05L21.80-0.05Q22.08-0.05 22.17-1.41L22.17-1.41Q22.73-0.80 23.25-0.61L23.25-0.61Q22.73 1.13 22.27 1.13L22.27 1.13Q20.81 1.13 19.36-0.98L19.36-0.98Q18.28-0.19 17.02 0.42L17.02 0.42Q16.73 0 16.27-0.28L16.27-0.28Q16.17-0.33 16.17-0.33L16.17-0.33Q17.67-0.80 18.94-1.78L18.94-1.78Q18.38-3.56 18.33-5.44L18.33-5.44L15.94-5.44L15.94-3.75Q16.59-3.89 17.39-4.22L17.39-4.22Q17.63-4.27 17.72-4.31L17.72-4.31L17.67-3.23Q17.44-3.19 17.06-3.09L17.06-3.09Q16.69-3.05 15.94-2.86L15.94-2.86L15.94-0.14Q16.13 0.75 13.92 0.98L13.92 0.98Q13.92 0.47 13.64 0L13.64 0Q13.59-0.09 13.59-0.14L13.59-0.14Q15 0 15.05-0.61L15.05-0.61L15.05-2.63Q13.59-2.25 12.89-1.88L12.89-1.88L12.52-3.05Q13.83-3.23 15.05-3.56L15.05-3.56L15.05-5.44L13.97-5.44Q12.89-5.44 12.66-5.39L12.66-5.39L12.66-6.33Q12.84-6.28 13.92-6.28L13.92-6.28L15.05-6.28L15.05-7.83Q15.09-7.78 14.30-7.59L14.30-7.59Q13.64-7.45 13.22-7.36L13.22-7.36Q13.03-7.88 12.70-8.30L12.70-8.30Q14.72-8.34 16.88-9.28L16.88-9.28Q17.02-9.09 17.30-8.86L17.30-8.86Q17.81-8.34 17.72-8.30L17.72-8.30Q17.67-8.20 17.44-8.20L17.44-8.20Q16.73-8.20 15.94-8.02L15.94-8.02L15.94-6.28L18.28-6.28Q18.28-8.16 18.09-9.70ZM20.11-8.48L21-9.09Q21.75-8.30 22.36-7.31L22.36-7.31L21.42-6.70Q20.95-7.64 20.11-8.48L20.11-8.48ZM26.91-9.66L26.91-9.66Q28.17-9.19 28.17-9.05L28.17-9.05Q28.17-9 28.08-8.91L28.08-8.91Q27.56-8.30 27.05-7.17L27.05-7.17L27.05-0.89Q27.05 0.33 27.09 1.03L27.09 1.03L26.02 1.03Q26.06 0.42 26.06-0.84L26.06-0.84L26.06-5.67Q25.59-4.78 25.03-4.03L25.03-4.03Q24.70-4.55 24.28-4.88L24.28-4.88Q26.06-7.13 26.91-9.66ZM29.20-8.95L30.19-9.33Q30.61-8.63 31.08-7.59L31.08-7.59L30.09-7.17Q29.77-8.25 29.20-8.95L29.20-8.95ZM34.78-7.22L34.78-7.22L34.78 0.19Q34.92 0.94 32.91 1.13L32.91 1.13Q32.86 0.70 32.48 0L32.48 0Q32.39-0.09 32.39-0.14L32.39-0.14Q34.03 0.09 33.84-0.52L33.84-0.52L33.84-7.59L32.91-7.59Q32.11-7.59 31.50-7.55L31.50-7.55L31.50-8.53Q32.11-8.48 32.91-8.48L32.91-8.48L33.61-8.48Q34.88-8.48 34.88-8.53L34.88-8.53Q34.78-8.02 34.78-7.22ZM28.45-7.36L28.45-7.36Q29.58-7.36 29.67-7.27L29.67-7.27Q29.67-7.22 29.63-7.13L29.63-7.13Q29.48-6.75 29.48-6L29.48-6L29.48-1.22Q29.48 0.23 29.58 0.75L29.58 0.75L28.45 0.75Q28.55 0.23 28.55-1.22L28.55-1.22L28.55-5.95Q28.55-6.89 28.45-7.36ZM43.41-9.75L43.41-9.75Q44.67-9.38 44.67-9.23L44.67-9.23Q44.67-9.19 44.58-9.14L44.58-9.14Q44.39-9.05 44.34-8.86L44.34-8.86Q43.92-8.16 43.69-7.41L43.69-7.41L45.42-7.41Q46.45-7.41 47.02-7.45L47.02-7.45Q46.64-1.31 46.55-0.23L46.55-0.23Q46.41 1.08 43.97 1.17L43.97 1.17Q43.83 0.47 43.41-0.05L43.41-0.05Q44.67 0.19 45.33-0.09L45.33-0.09Q45.66-0.05 45.80-4.27L45.80-4.27Q45.89-5.77 45.94-6.66L45.94-6.66L43.36-6.66Q42.89-5.77 42.23-4.59L42.23-4.59Q41.81-4.88 41.39-4.97L41.39-4.97L41.39-0.75Q41.39 0.42 41.44 0.75L41.44 0.75L40.36 0.75Q40.41 0.33 40.41-0.38L40.41-0.38L38.11-0.38Q38.11 0.33 38.16 0.84L38.16 0.84L37.08 0.84Q37.13 0.42 37.13-0.70L37.13-0.70L37.13-5.72Q37.13-5.91 37.08-6.61L37.08-6.61Q37.08-7.22 37.08-7.36L37.08-7.36Q37.78-7.31 38.11-7.31L38.11-7.31L38.44-7.31Q38.58-8.06 38.67-9.61L38.67-9.61Q39.98-9.47 39.89-9.28L39.89-9.28Q39.89-9.19 39.80-9.09L39.80-9.09Q39.70-9 39.66-8.86L39.66-8.86Q39.52-8.53 39.38-7.92L39.38-7.92Q39.28-7.55 39.23-7.31L39.23-7.31L40.03-7.31Q40.41-7.31 41.44-7.36L41.44-7.36Q41.39-7.03 41.39-5.86L41.39-5.86L41.39-5.20Q42.84-6.84 43.41-9.75ZM40.41-6.56L38.11-6.56L38.11-4.13L40.41-4.13L40.41-6.56ZM42.61-4.17L43.41-4.64Q43.69-4.27 44.39-2.91L44.39-2.91Q44.58-2.63 44.63-2.48L44.63-2.48L43.73-2.02Q43.59-2.58 42.61-4.17L42.61-4.17ZM40.41-3.42L38.11-3.42L38.11-1.13L40.41-1.13L40.41-3.42ZM55.50-9.56L55.50-9.56Q56.67-9.19 56.63-9.09L56.63-9.09Q56.63-9 56.53-8.95L56.53-8.95Q56.34-8.81 56.16-8.58L56.16-8.58Q55.88-8.34 55.59-7.88L55.59-7.88L56.95-7.88Q58.31-7.88 58.55-7.97L58.55-7.97L58.55-6.98Q58.27-7.08 56.95-7.08L56.95-7.08L54.42-7.08L54.42-6.14L56.20-6.14Q57.52-6.14 57.75-6.19L57.75-6.19L57.75-5.30Q57.75-5.30 57.70-5.30L57.70-5.30Q57.42-5.34 56.11-5.34L56.11-5.34L54.42-5.34L54.42-4.36L57.14-4.36Q58.78-4.36 59.02-4.45L59.02-4.45L59.02-3.52Q58.78-3.56 57.14-3.56L57.14-3.56L50.81-3.56Q49.36-3.56 49.08-3.52L49.08-3.52Q49.03-3.52 49.03-3.52L49.03-3.52L49.03-4.45Q49.03-4.45 49.08-4.45L49.08-4.45Q49.41-4.36 50.77-4.36L50.77-4.36L53.48-4.36L53.48-5.34L51.94-5.34Q50.48-5.34 50.25-5.30L50.25-5.30L50.25-6.19Q50.53-6.14 51.89-6.14L51.89-6.14L53.48-6.14L53.48-7.08L51.09-7.08Q49.92-7.08 49.64-6.98L49.64-6.98Q49.59-6.98 49.59-6.98L49.59-6.98L49.59-7.97Q49.83-7.88 51.09-7.88L51.09-7.88L54.75-7.88Q55.22-8.91 55.50-9.56ZM53.34-3.52L53.34-3.52Q53.39-3.52 53.48-3.52L53.48-3.52Q54.47-3.42 54.56-3.28L54.56-3.28Q54.56-3.23 54.42-3.09L54.42-3.09Q54.19-2.77 54.14-2.48L54.14-2.48L56.30-2.48Q57.75-2.48 58.03-2.53L58.03-2.53Q58.08-2.53 58.08-2.53L58.08-2.53L58.08-1.59Q58.08-1.59 58.03-1.59L58.03-1.59Q57.75-1.69 56.39-1.69L56.39-1.69L54.47-1.69Q56.34 0 59.20-0.19L59.20-0.19Q59.20-0.19 59.16-0.14L59.16-0.14Q58.64 0.42 58.45 0.94L58.45 0.94Q54.98 0.38 53.81-1.36L53.81-1.36Q52.92 0.47 49.55 1.03L49.55 1.03Q49.22 0.38 48.70 0L48.70 0Q52.31 0.09 53.11-1.69L53.11-1.69L51.47-1.69Q50.16-1.69 49.88-1.59L49.88-1.59Q49.83-1.59 49.83-1.59L49.83-1.59L49.83-2.53Q49.83-2.53 49.88-2.53L49.88-2.53Q50.16-2.48 51.56-2.48L51.56-2.48L53.25-2.48Q53.39-2.91 53.34-3.52ZM51.47-9.14L51.47-9.14L52.36-9.52Q52.92-8.95 53.30-8.30L53.30-8.30L52.55-7.97Q51.89-8.77 51.47-9.14ZM62.48-9.61L62.48-9.61Q63.75-9.52 63.80-9.38L63.80-9.38Q63.80-9.33 63.70-9.19L63.70-9.19Q63.52-8.95 63.47-8.81L63.47-8.81Q63.23-7.97 63.09-7.08L63.09-7.08L64.03-7.08Q64.92-7.08 65.39-7.17L65.39-7.17Q64.92-3.84 64.27-1.97L64.27-1.97Q64.41-1.88 64.69-1.69L64.69-1.69Q65.72-1.03 66-0.75L66-0.75L65.30 0Q64.59-0.61 63.89-1.08L63.89-1.08Q63.14 0.09 61.36 1.08L61.36 1.08Q61.08 0.56 60.52 0.19L60.52 0.19Q62.34-0.28 63.19-1.64L63.19-1.64Q62.95-1.78 61.17-2.81L61.17-2.81Q61.64-3.70 62.06-6.19L62.06-6.19L61.88-6.19Q61.17-6.19 60.61-6.05L60.61-6.05L60.61-7.17Q61.27-7.08 61.97-7.08L61.97-7.08L62.20-7.08Q62.20-7.13 62.25-7.31L62.25-7.31Q62.48-9 62.48-9.61ZM71.20-8.86L71.20-8.86L71.20-7.73Q70.64-7.69 69-6.09L69-6.09L69-4.83L69.80-4.83Q70.88-4.83 71.44-4.92L71.44-4.92L71.44-3.80Q70.73-3.89 69.80-3.89L69.80-3.89L69-3.89L69 0.19Q68.95 1.17 67.03 1.08L67.03 1.08Q67.03 0.38 66.38-0.19L66.38-0.19Q68.16 0.14 68.02-0.66L68.02-0.66L68.02-3.84L67.08-3.84Q66.05-3.84 65.25-3.75L65.25-3.75L65.25-4.92Q65.81-4.83 67.13-4.83L67.13-4.83L68.02-4.83L68.02-6.23Q68.48-6.61 69.84-7.92L69.84-7.92L67.08-7.92Q66.19-7.92 65.53-7.83L65.53-7.83L65.53-8.81Q65.91-8.72 67.03-8.72L67.03-8.72L69.56-8.72Q70.64-8.72 71.20-8.86ZM64.27-6.19L64.27-6.19L62.91-6.19Q62.81-5.81 62.67-5.11L62.67-5.11Q62.39-3.75 62.25-3.19L62.25-3.19Q62.48-3.05 63.14-2.67L63.14-2.67Q63.42-2.53 63.52-2.48L63.52-2.48Q63.98-3.84 64.27-6.19ZM74.67-5.86L74.67-6.89Q75.66-6.80 76.64-6.80L76.64-6.80L79.41-6.80Q80.34-6.80 81.47-6.89L81.47-6.89L81.47-5.86Q80.44-5.95 79.41-5.95L79.41-5.95L78.66-5.95Q78.47-5.81 78.05-5.53L78.05-5.53Q77.67-5.25 77.48-5.11L77.48-5.11Q78.33-4.41 78.80-3.66L78.80-3.66Q79.88-4.13 81.14-5.39L81.14-5.39Q81.89-4.88 82.03-4.59L82.03-4.59Q82.03-4.50 81.84-4.45L81.84-4.45Q81.61-4.41 81.38-4.22L81.38-4.22Q81.19-4.13 80.81-3.89L80.81-3.89Q80.63-3.75 80.53-3.70L80.53-3.70Q81.05-1.41 83.39-0.75L83.39-0.75Q82.69-0.38 82.27 0.23L82.27 0.23Q80.20-1.03 79.73-3.33L79.73-3.33Q79.45-3.14 79.13-2.86L79.13-2.86Q79.64-0.28 78.56 0.56L78.56 0.56Q77.91 1.03 76.73 1.08L76.73 1.08Q76.69 0.28 76.31-0.05L76.31-0.05Q77.63 0.05 77.86-0.14L77.86-0.14Q78.52-0.61 78.33-2.39L78.33-2.39Q76.45-0.61 73.45 0.56L73.45 0.56Q73.27 0 72.61-0.33L72.61-0.33Q75.33-0.75 78.09-3.19L78.09-3.19Q77.86-3.56 77.72-3.75L77.72-3.75Q76.08-2.30 73.41-1.31L73.41-1.31Q73.17-1.88 72.66-2.20L72.66-2.20Q75-2.48 77.25-4.27L77.25-4.27Q77.20-4.31 77.16-4.36L77.16-4.36Q77.02-4.59 76.83-4.69L76.83-4.69Q75-3.56 73.36-3.19L73.36-3.19Q73.17-3.70 72.66-4.08L72.66-4.08Q75.09-4.31 77.34-5.95L77.34-5.95L76.69-5.95Q75.52-5.91 74.67-5.86L74.67-5.86ZM77.20-9.47L78.52-9.66Q78.75-8.72 78.80-8.39L78.80-8.39L81.56-8.39Q82.17-8.39 82.92-8.53L82.92-8.53L82.92-7.59Q82.92-6.84 83.02-6.42L83.02-6.42L81.80-6.42Q81.89-6.66 81.89-7.59L81.89-7.59L74.25-7.59Q74.25-6.89 74.34-6.38L74.34-6.38L73.17-6.38Q73.27-6.94 73.27-7.55L73.27-7.55L73.27-8.48Q73.73-8.39 74.53-8.39L74.53-8.39L77.77-8.39Q77.48-9.09 77.20-9.47L77.20-9.47ZM93.70-0.66L93.70-8.30L86.34-8.30L86.34-0.66L93.70-0.66ZM87.52-6.56L87.52-7.45Q88.41-7.36 89.06-7.36L89.06-7.36L91.08-7.36Q91.92-7.41 92.58-7.45L92.58-7.45L92.58-6.56Q92.25-6.61 91.08-6.61L91.08-6.61L89.02-6.61Q88.03-6.61 87.52-6.56L87.52-6.56ZM86.86-4.88L86.86-5.72Q87.23-5.67 88.59-5.67L88.59-5.67L91.69-5.67Q92.77-5.67 93.19-5.72L93.19-5.72L93.19-4.83Q92.77-4.88 91.78-4.88L91.78-4.88L91.17-4.88L91.17-2.72Q91.08-2.20 91.73-2.30L91.73-2.30Q92.39-2.20 92.39-3.42L92.39-3.42Q92.91-2.95 93.38-2.72L93.38-2.72Q93.23-1.17 91.64-1.41L91.64-1.41Q90.05-1.31 90.23-2.20L90.23-2.20L90.23-4.92L89.44-4.92Q89.44-4.73 89.39-4.36L89.39-4.36Q89.30-2.81 88.97-2.39L88.97-2.39Q88.31-1.55 87.42-1.08L87.42-1.08Q87.05-1.45 86.39-1.78L86.39-1.78Q88.64-2.39 88.59-4.92L88.59-4.92Q88.36-4.92 87.80-4.92L87.80-4.92Q87.14-4.88 86.86-4.88L86.86-4.88ZM85.27-9.19L85.27-9.19Q85.83-9.14 87.05-9.14L87.05-9.14L93-9.14Q93.98-9.14 94.78-9.19L94.78-9.19Q94.78-9.09 94.73-8.91L94.73-8.91Q94.69-8.16 94.69-7.59L94.69-7.59L94.69-0.75Q94.69 0.42 94.73 0.98L94.73 0.98L93.70 0.98Q93.75 0.56 93.75 0.09L93.75 0.09L86.30 0.09Q86.30 0.47 86.34 0.94L86.34 0.94L85.27 0.94Q85.31 0.38 85.31-0.75L85.31-0.75L85.31-7.73Q85.31-8.53 85.27-9.19ZM107.16-4.97L107.16-4.97L107.16-3.80Q106.41-3.89 105-3.89L105-3.89L99.05-3.89Q97.55-3.89 96.75-3.80L96.75-3.80L96.75-4.97Q97.64-4.88 98.95-4.88L98.95-4.88L104.91-4.88Q106.41-4.88 107.16-4.97ZM111.09-9.75L111.09-9.75Q112.41-9.66 112.36-9.52L112.36-9.52Q112.36-9.47 112.31-9.33L112.31-9.33Q112.17-9.09 112.17-8.86L112.17-8.86L112.17-8.02Q113.44-8.02 113.91-8.06L113.91-8.06L113.91-7.03Q113.20-7.13 112.17-7.13L112.17-7.13L112.17-5.67L112.59-5.67Q113.20-5.67 114.14-5.77L114.14-5.77L114.14-4.73Q113.34-4.83 112.59-4.83L112.59-4.83L112.22-4.83L112.22-3.42L112.59-3.42Q113.81-3.42 114.19-3.47L114.19-3.47L114.19-2.39Q113.39-2.48 112.59-2.48L112.59-2.48L112.22-2.48L112.22-0.70Q114 0.19 119.67-0.38L119.67-0.38Q119.06 0.23 119.02 0.89L119.02 0.89Q115.45 0.89 113.95 0.70L113.95 0.70Q112.41 0.56 111.75 0.09L111.75 0.09Q110.53-0.80 110.20-1.59L110.20-1.59Q109.88-0.05 109.27 1.17L109.27 1.17Q108.89 0.70 108.33 0.38L108.33 0.38Q109.50-0.89 109.59-4.08L109.59-4.08Q110.86-3.98 110.86-3.80L110.86-3.80Q110.86-3.75 110.81-3.70L110.81-3.70Q110.58-3.33 110.44-2.63L110.44-2.63Q110.86-1.92 111.28-1.41L111.28-1.41L111.28-4.83L110.44-4.83Q109.59-4.83 108.80-4.73L108.80-4.73L108.80-5.77Q109.45-5.72 110.44-5.67L110.44-5.67L111.23-5.67L111.23-7.13Q109.92-7.13 109.08-7.03L109.08-7.03L109.08-8.02Q109.97-7.97 111.23-7.97L111.23-7.97Q111.28-9.23 111.09-9.75ZM114.28-7.92L114.28-8.91Q114.89-8.81 115.22-8.81L115.22-8.81L117.33-8.81Q117.84-8.81 118.50-8.91L118.50-8.91Q118.36-8.25 118.41-7.92L118.41-7.92L118.41-5.63Q118.41-5.20 118.50-4.55L118.50-4.55L117.42-4.55Q117.47-4.88 117.47-5.02L117.47-5.02L115.59-5.02L115.59-2.48Q115.55-2.11 116.02-2.06L116.02-2.06Q117-1.97 117.66-2.16L117.66-2.16Q118.17-2.34 118.17-3.52L118.17-3.52Q118.69-2.95 119.25-2.81L119.25-2.81Q118.97-1.64 118.55-1.36L118.55-1.36Q118.27-1.22 117.09-1.13L117.09-1.13Q116.11-1.08 115.59-1.17L115.59-1.17Q114.61-1.36 114.66-2.06L114.66-2.06L114.66-5.25Q114.61-5.53 114.56-5.95L114.56-5.95Q115.13-5.86 115.45-5.86L115.45-5.86L117.47-5.86L117.47-7.97L115.45-7.97Q114.52-7.97 114.28-7.92L114.28-7.92ZM122.95-9.75L122.95-9.75Q123.98-9.66 124.13-9.56L124.13-9.56Q124.13-9.52 124.08-9.47L124.08-9.47Q123.80-9.14 123.47-8.30L123.47-8.30Q125.06-8.30 125.95-8.34L125.95-8.34Q125.48-6.47 124.92-5.53L124.92-5.53Q125.48-5.30 125.81-5.11L125.81-5.11L125.20-4.31Q124.64-4.73 124.31-4.92L124.31-4.92Q123.33-3.94 121.45-3.23L121.45-3.23Q121.13-3.75 120.70-4.08L120.70-4.08Q122.44-4.36 123.52-5.30L123.52-5.30Q122.25-5.77 121.55-5.95L121.55-5.95L122.30-7.45Q121.08-7.45 120.80-7.41L120.80-7.41L120.80-8.34Q120.94-8.34 121.13-8.30L121.13-8.30Q121.73-8.25 122.53-8.25L122.53-8.25Q122.86-9.05 122.95-9.75ZM130.83-8.58L130.83-8.58Q129.94-6.28 128.95-5.20L128.95-5.20Q129.80-4.73 131.53-4.45L131.53-4.45Q130.97-3.84 130.78-3.38L130.78-3.38Q129-4.08 128.25-4.64L128.25-4.64Q127.17-4.03 126.42-3.70L126.42-3.70Q126.09-4.08 125.63-4.59L125.63-4.59Q126.80-4.73 127.69-5.25L127.69-5.25Q127.27-5.67 126.52-7.41L126.52-7.41Q126.84-7.50 127.13-7.78L127.13-7.78Q127.03-7.78 126.80-7.78L126.80-7.78Q126.47-7.73 126.28-7.73L126.28-7.73L126.28-8.63Q126.52-8.63 127.22-8.58L127.22-8.58Q127.73-8.58 127.88-8.58L127.88-8.58L129-8.58Q129.19-8.58 129.75-8.58L129.75-8.58Q130.50-8.63 130.78-8.63L130.78-8.63Q130.83-8.63 130.83-8.58ZM124.88-7.55L124.88-7.55L123.19-7.55Q122.91-6.89 122.67-6.47L122.67-6.47Q123.19-6.23 124.08-5.86L124.08-5.86Q124.55-6.52 124.88-7.55ZM125.20-3.80L125.20-3.80Q126.42-3.70 126.42-3.61L126.42-3.61Q126.42-3.52 126.33-3.42L126.33-3.42Q126.19-3.19 126.09-2.67L126.09-2.67L127.83-2.67Q129.28-2.67 129.70-2.72L129.70-2.72Q129.84-2.72 129.75-2.63L129.75-2.63Q129.70-2.30 129.66-1.59L129.66-1.59Q129.52 0.28 129.28 0.61L129.28 0.61Q128.91 1.13 127.27 1.22L127.27 1.22Q127.27 0.75 126.89 0.09L126.89 0.09Q128.16 0.28 128.34-0.05L128.34-0.05Q128.58-0.42 128.58-1.83L128.58-1.83L125.95-1.83Q125.30 0.38 121.55 1.22L121.55 1.22Q121.50 1.13 121.36 0.94L121.36 0.94Q121.03 0.47 120.75 0.19L120.75 0.19Q124.17 0 124.92-1.83L124.92-1.83L123.09-1.83Q122.63-1.83 121.92-1.78L121.92-1.78Q121.59-1.78 121.45-1.78L121.45-1.78L121.45-2.72Q121.97-2.67 123.09-2.67L123.09-2.67L125.11-2.67Q125.25-3.38 125.20-3.80ZM128.34-5.77L128.34-5.77Q129.09-6.70 129.47-7.78L129.47-7.78L127.36-7.78Q127.69-6.66 128.34-5.77ZM137.44-9.56L137.44-9.56Q138.80-9.47 138.89-9.28L138.89-9.28Q138.89-9.23 138.84-9.19L138.84-9.19Q138.52-8.63 138.42-6.94L138.42-6.94L140.20-6.94Q141.38-6.94 142.55-7.03L142.55-7.03Q142.69-7.03 142.64-6.98L142.64-6.98Q142.50-6.14 142.22-2.91L142.22-2.91Q142.03-0.80 141.98-0.56L141.98-0.56Q142.03 0.66 139.73 0.94L139.73 0.94Q139.69 0.33 139.22-0.28L139.22-0.28Q140.72-0.19 140.81-0.75L140.81-0.75Q141.23-2.16 141.33-6.09L141.33-6.09L138.33-6.09Q138.05-0.84 133.73 1.03L133.73 1.03Q133.50 0.56 132.89 0.19L132.89 0.19Q132.80 0.14 132.75 0.09L132.75 0.09Q136.97-1.08 137.34-6.09L137.34-6.09L135.38-6.09Q134.44-6.09 133.45-6L133.45-6L133.45-6.98Q133.64-6.98 134.11-6.98L134.11-6.98Q134.86-6.94 135.38-6.94L135.38-6.94L137.39-6.94Q137.53-8.20 137.44-9.56ZM146.48-7.55L147.52-7.55L147.52-4.55L147.23-1.41L146.77-1.41L146.48-4.55L146.48-7.55ZM146.48-0.42L147.52-0.42L147.52 0.66L146.48 0.66L146.48-0.42ZM158.48-7.55L159.52-7.55L159.52-4.55L159.23-1.41L158.77-1.41L158.48-4.55L158.48-7.55ZM158.48-0.42L159.52-0.42L159.52 0.66L158.48 0.66L158.48-0.42ZM170.48-7.55L171.52-7.55L171.52-4.55L171.23-1.41L170.77-1.41L170.48-4.55L170.48-7.55ZM170.48-0.42L171.52-0.42L171.52 0.66L170.48 0.66L170.48-0.42Z" transform="translate(-0.5625, 9.75)"></path></g></g></g></g></g><defs v-gra="od"></defs></svg>