<svg data-v-0dd9719b="" version="1.0" xmlns="http://www.w3.org/2000/svg" xmlns:xlink="http://www.w3.org/1999/xlink" width="100%" height="100%" viewBox="0 0 340.000000 250.000000" preserveAspectRatio="xMidYMid meet" color-interpolation-filters="sRGB" style="margin: auto;">
  <rect data-v-0dd9719b="" x="0" y="0" width="100%" height="100%" fill="#ffffff" fill-opacity="1" stroke-opacity="1" class="background"></rect>
  <g data-v-0dd9719b="" fill="#3780ff" class="icon-text-wrapper icon-svg-group iconsvg" transform="translate(34.95500183105469,90.35876846313477)">
    <g class="iconsvg-imagesvg" transform="translate(0,0)">
      <g>
        <rect fill="#3780ff" fill-opacity="0" stroke-width="2" x="0" y="0" width="60" height="69.28246460820766" class="image-rect"></rect>
        <svg x="0" y="0" width="60" height="69.28246460820766" filtersec="colorsb168629515" class="image-svg-svg primary" style="overflow: visible;">
          <svg viewBox="34.233001708984375 0 442.5679931640625 511.03399658203125" xmlns="http://www.w3.org/2000/svg">
            <path d="M255.517 0L34.233 127.758v255.517l221.284 127.759 221.284-127.759V127.758zm15 151.418H405.82l-135.304 78.118v-78.118zm-30 78.118l-135.304-78.118h135.304zm-14.499 26.27l-68.059 39.08-67.876-117.563zm14.499 26.267v155.802l-67.557-117.01zm30-.576l67.652 39.059-67.652 117.177zm15-25.98l135.304-78.118-67.652 117.177zm-15-134.099V43.301l135.304 78.118H270.517zm-30 0H105.213L240.517 43.3zM64.233 192.55l67.711 117.275-67.711 38.88zm82.71 143.255l67.469 116.857L79.294 374.65zm217.206-.249l67.652 39.059-135.304 78.118zm15-25.981l67.652-117.177v156.235z" fill="#3780ff"></path>
            <path d="M255.517 0v511.034l221.284-127.759V127.758zm15 43.301l135.304 78.118H270.517zm0 108.117H405.82l-135.304 78.118v-78.118zm150.304 25.981l-67.652 117.177-67.652-39.059zM270.517 281.497l67.652 39.059-67.652 117.177zm25.98 171.236l67.652-117.177 67.652 39.059zm150.304-104.099l-67.652-39.059 67.652-117.177z" fill="#fa3913"></path>
          </svg>
        </svg>
        <!---->
      </g>
    </g>
    <g transform="translate(67,13.554981231689453)">
      <g data-gra="path-name" fill-rule="" class="tp-name iconsvg-namesvg" transform="translate(0,0)">
        <g transform="scale(1)">
          <g>
            <path d="M1.5-4.66L18.51-22.2 1.5-22.2 1.5-27.02 24.95-27.02 24.95-22.03 8.51-4.82 24.95-4.82 24.95 0 1.5 0 1.5-4.66ZM45.45-27.02L51.16-27.02 51.16 0 45.45 0 45.45-11.18 35-11.18 35 0 29.24 0 29.24-27.02 35-27.02 35-16 45.45-16 45.45-27.02ZM67.24-27.02L76.92-27.02 76.92-22.2 69.42-22.2Q66.51-22.2 65.17-21.79 63.83-21.39 62.94-20.21L62.94-20.21Q62.34-19.4 62.11-18.59 61.89-17.78 61.73-15.84L61.73-15.84 76.92-15.84 76.92-11.02 61.73-11.02Q62.05-7.53 63.79-6.18 65.54-4.82 69.71-4.82L69.71-4.82 76.92-4.82 76.92 0 69.42 0Q66.39 0 64.08-0.36L64.08-0.36Q60.43-0.97 58.29-3.56L58.29-3.56Q55.21-7.29 55.21-13.65L55.21-13.65Q55.21-20.7 59.54-24.63L59.54-24.63Q61.04-25.96 62.72-26.49 64.4-27.02 67.24-27.02L67.24-27.02ZM97.98 0L86.96-19.81 86.96 0 81.45 0 81.45-27.02 88.83-27.02 99.56-6.89 99.56-27.02 105.03-27.02 105.03 0 97.98 0ZM120.46-11.22L120.46-16.04 133.7-16.04 133.7 0 121.63 0Q118.51 0 116.67-0.47 114.83-0.93 113.33-2.11L113.33-2.11Q109.08-5.39 109.08-13.41L109.08-13.41Q109.08-18.63 111.1-22.12L111.1-22.12Q112.6-24.67 115.19-25.84 117.79-27.02 121.92-27.02L121.92-27.02 133.7-27.02 133.7-22.2 122.57-22.2Q118.96-22.2 117.34-20.62L117.34-20.62Q115.4-18.75 115.4-13.93L115.4-13.93Q115.4-11.46 115.9-9.48 116.41-7.49 117.3-6.52L117.3-6.52Q118.07-5.63 119.43-5.23 120.78-4.82 122.77-4.82L122.77-4.82 127.99-4.82 127.99-11.22 120.46-11.22ZM136.3-27.02L142.25-27.02 148.33-6.68 154-27.02 160.4-27.02 166.07-6.68 172.14-27.02 178.06-27.02 169.35 0 162.79 0 157.2-19.48 151.61 0 145.05 0 136.3-27.02ZM181.01-27.02L186.72-27.02 186.72-10.81Q186.72-8.87 187.05-7.8 187.37-6.72 188.14-5.95L188.14-5.95Q189.84-4.29 192.88-4.29L192.88-4.29Q194.82-4.29 196.26-4.96 197.7-5.63 198.27-6.76L198.27-6.76Q198.83-7.9 198.83-10.81L198.83-10.81 198.83-27.02 204.59-27.02 204.59-11.1Q204.59-7.94 203.92-5.89 203.25-3.85 201.87-2.59L201.87-2.59Q198.67 0.2 192.8 0.2L192.8 0.2Q186.52 0.2 183.65-2.55L183.65-2.55Q182.15-3.97 181.58-5.73 181.01-7.49 181.01-10.69L181.01-10.69 181.01-27.02Z" transform="translate(-1.5, 27.020000457763672)"></path>
          </g>
          <!---->
          <!---->
          <!---->
          <!---->
          <!---->
          <!---->
          <!---->
        </g>
      </g>
      <g data-gra="path-slogan" fill-rule="" class="tp-slogan iconsvg-slogansvg" fill="#38b137" transform="translate(47.19499588012695,33.220001220703125)">
        <!---->
        <!---->
        <g transform="scale(1, 1)">
          <g transform="scale(1)">
            <path d="M1.73-1.03L7.03-1.03L7.03 0L0.28 0L0.28-0.94L5.53-7.59L0.66-7.59L0.66-8.58L7.03-8.58L7.03-7.59L1.73-1.03ZM9.33-5.06L13.83-5.06L13.83-8.58L15-8.58L15 0L13.83 0L13.83-3.98L9.33-3.98L9.33 0L8.16 0L8.16-8.58L9.33-8.58L9.33-5.06ZM18.09-1.03L23.25-1.03L23.25 0L16.92 0L16.92-8.58L23.16-8.58L23.16-7.59L18.09-7.59L18.09-4.92L22.78-4.92L22.78-3.89L18.09-3.89L18.09-1.03ZM26.16-8.58L30.47-1.64L30.47-8.58L31.59-8.58L31.59 0L30.28 0L25.92-6.94L25.88-6.94L25.88 0L24.75 0L24.75-8.58L26.16-8.58ZM39.80-3.61L37.17-3.61L37.17-4.59L40.92-4.59L40.92 0L40.17 0L39.89-1.08Q38.91 0.09 37.08 0.14L37.08 0.14Q35.34 0.14 34.41-0.75L34.41-0.75Q33-2.06 33.05-4.36L33.05-4.36Q33.38-8.63 37.13-8.81L37.13-8.81Q40.31-8.63 40.78-6L40.78-6L39.66-6Q39.19-7.78 37.08-7.83L37.08-7.83Q34.41-7.64 34.27-4.31L34.27-4.31Q34.27-0.75 37.13-0.75L37.13-0.75Q38.16-0.75 38.91-1.31L38.91-1.31Q39.84-2.06 39.80-3.61L39.80-3.61ZM47.48-7.13L47.44-7.13L45.47 0L44.25 0L42-8.58L43.22-8.58L44.86-1.59L44.91-1.59L46.83-8.58L48.09-8.58L50.02-1.59L50.06-1.59L51.66-8.58L52.92-8.58L50.67 0L49.45 0L47.48-7.13ZM59.67-3.19L59.67-8.58L60.84-8.58L60.84-3.05Q60.70 0.05 57.33 0.14L57.33 0.14Q54.19 0.05 54.05-2.86L54.05-2.86L54.05-8.58L55.22-8.58L55.22-3.19Q55.27-0.84 57.38-0.80L57.38-0.80Q59.67-0.84 59.67-3.19L59.67-3.19ZM62.77-1.27L64.03-1.27L64.03 0L62.77 0L62.77-1.27ZM72.75-4.27L72.75-4.27Q72.56-7.64 69.75-7.83L69.75-7.83Q66.89-7.69 66.75-4.27L66.75-4.27Q66.89-0.94 69.75-0.80L69.75-0.80Q72.56-0.98 72.75-4.27ZM73.92-4.27L73.92-4.27Q73.64 0 69.75 0.14L69.75 0.14Q65.81 0 65.53-4.27L65.53-4.27Q65.77-8.72 69.75-8.81L69.75-8.81Q73.64-8.67 73.92-4.27ZM76.69-8.58L81-1.64L81-8.58L82.13-8.58L82.13 0L80.81 0L76.45-6.94L76.41-6.94L76.41 0L75.28 0L75.28-8.58L76.69-8.58ZM83.91-8.58L85.08-8.58L85.08-1.03L89.44-1.03L89.44 0L83.91 0L83.91-8.58ZM90.75-8.58L91.92-8.58L91.92 0L90.75 0L90.75-8.58ZM95.30-8.58L99.61-1.64L99.61-8.58L100.73-8.58L100.73 0L99.42 0L95.06-6.94L95.02-6.94L95.02 0L93.89 0L93.89-8.58L95.30-8.58ZM103.83-1.03L108.98-1.03L108.98 0L102.66 0L102.66-8.58L108.89-8.58L108.89-7.59L103.83-7.59L103.83-4.92L108.52-4.92L108.52-3.89L103.83-3.89L103.83-1.03Z" transform="translate(-0.28125, 8.8125)"></path>
          </g>
        </g>
      </g>
    </g>
  </g>
  <defs v-gra="od"></defs>
</svg>