<svg data-v-0dd9719b="" version="1.0" xmlns="http://www.w3.org/2000/svg" xmlns:xlink="http://www.w3.org/1999/xlink" width="100%" height="100%" viewBox="0 0 340.000000 250.000000" preserveAspectRatio="xMidYMid meet" color-interpolation-filters="sRGB" style="margin: auto;"> <rect data-v-0dd9719b="" x="0" y="0" width="100%" height="100%" fill="#ffffff" fill-opacity="1" class="background"></rect> <rect data-v-0dd9719b="" x="0" y="0" width="100%" height="100%" fill="url(#watermark)" fill-opacity="1" class="watermarklayer"></rect> <g data-v-0dd9719b="" fill="#e83e2e" class="icon-text-wrapper icon-svg-group iconsvg" transform="translate(81.04999542236328,70.77499771118164)"><g class="iconsvg-imagesvg" transform="translate(59,0)"><g><rect fill="#e83e2e" fill-opacity="0" stroke-width="2" x="0" y="0" width="60" height="60" class="image-rect"></rect> <svg filter="url(#colors9183001537)" x="0" y="0" width="60" height="60" filtersec="colorsf9016727314" class="image-svg-svg primary" style="overflow: visible;"><svg xmlns="http://www.w3.org/2000/svg" viewBox="0 0 77.7 77.7"><path d="M75.7 75.7H2V2h73.7v73.7zM14.3 2v12.3h24.6V2M14.3 14.3v12.3h36.8V2M14.3 26.6v12.3h49.1V2m0 49.1H26.6v24.6h12.3V63.4h24.6v12.3-24.6zm0 0V38.8H14.3v36.8" fill="none" stroke="#333" stroke-width="4" stroke-miterlimit="10"></path></svg></svg> <defs><filter id="colors9183001537"><feColorMatrix type="matrix" values="0 0 0 0 0.90625  0 0 0 0 0.2421875  0 0 0 0 0.1796875  0 0 0 1 0" class="icon-fecolormatrix"></feColorMatrix></filter> <filter id="colorsf9016727314"><feColorMatrix type="matrix" values="0 0 0 0 0.99609375  0 0 0 0 0.99609375  0 0 0 0 0.99609375  0 0 0 1 0" class="icon-fecolormatrix"></feColorMatrix></filter> <filter id="colorsb9163269881"><feColorMatrix type="matrix" values="0 0 0 0 0  0 0 0 0 0  0 0 0 0 0  0 0 0 1 0" class="icon-fecolormatrix"></feColorMatrix></filter></defs></g></g> <g transform="translate(0,71.54999923706055)"><g data-gra="path-name" fill-rule="" class="tp-name iconsvg-namesvg" transform="translate(0,0)"><g transform="scale(1)"><g><path d="M9.27-11.01L9.27-10.18Q9.27-9.97 9.19-9.78 9.12-9.59 9-9.44L9-9.44 3.04-1.51 9.05-1.51 9.05 0 0.76 0 0.76-0.8Q0.76-0.95 0.83-1.14 0.9-1.33 1.03-1.5L1.03-1.5 7.02-9.49 1.1-9.49 1.1-11.01 9.27-11.01ZM11.84-11.01L13.78-11.01 13.78 0 11.84 0 11.84-11.01ZM14.21-14.46L14.21-14.46Q14.21-14.18 14.1-13.94 13.98-13.69 13.79-13.5 13.6-13.31 13.35-13.2 13.1-13.09 12.82-13.09L12.82-13.09Q12.54-13.09 12.29-13.2 12.05-13.31 11.86-13.5 11.67-13.69 11.56-13.94 11.45-14.18 11.45-14.46L11.45-14.46Q11.45-14.74 11.56-15 11.67-15.26 11.86-15.45 12.05-15.64 12.29-15.74 12.54-15.85 12.82-15.85L12.82-15.85Q13.1-15.85 13.35-15.74 13.6-15.64 13.79-15.45 13.98-15.26 14.1-15 14.21-14.74 14.21-14.46ZM24.94-11.01L26.09-11.01 26.09 3.73 24.15 3.73 24.15-1.63Q23.46-0.83 22.57-0.34 21.69 0.15 20.55 0.15L20.55 0.15Q19.6 0.15 18.83-0.21 18.06-0.58 17.52-1.28 16.97-1.99 16.68-3.04 16.39-4.1 16.39-5.47L16.39-5.47Q16.39-6.68 16.71-7.73 17.04-8.78 17.65-9.55 18.27-10.32 19.15-10.76 20.03-11.2 21.14-11.2L21.14-11.2Q22.21-11.2 22.95-10.82 23.7-10.44 24.28-9.75L24.28-9.75 24.42-10.6Q24.52-11.01 24.94-11.01L24.94-11.01ZM21.19-1.41L21.19-1.41Q22.13-1.41 22.84-1.85 23.56-2.28 24.15-3.07L24.15-3.07 24.15-8.4Q23.63-9.09 22.99-9.39 22.35-9.69 21.58-9.69L21.58-9.69Q20.04-9.69 19.21-8.59 18.38-7.5 18.38-5.47L18.38-5.47Q18.38-4.39 18.57-3.62 18.75-2.86 19.11-2.36 19.47-1.87 19.99-1.64 20.51-1.41 21.19-1.41ZM29.55-11.01L31.49-11.01 31.49 0 29.55 0 29.55-11.01ZM31.92-14.46L31.92-14.46Q31.92-14.18 31.81-13.94 31.7-13.69 31.5-13.5 31.31-13.31 31.06-13.2 30.81-13.09 30.53-13.09L30.53-13.09Q30.25-13.09 30.01-13.2 29.76-13.31 29.57-13.5 29.38-13.69 29.27-13.94 29.16-14.18 29.16-14.46L29.16-14.46Q29.16-14.74 29.27-15 29.38-15.26 29.57-15.45 29.76-15.64 30.01-15.74 30.25-15.85 30.53-15.85L30.53-15.85Q30.81-15.85 31.06-15.74 31.31-15.64 31.5-15.45 31.7-15.26 31.81-15 31.92-14.74 31.92-14.46ZM42.58-11.01L42.58-10.18Q42.58-9.97 42.51-9.78 42.43-9.59 42.31-9.44L42.31-9.44 36.36-1.51 42.37-1.51 42.37 0 34.07 0 34.07-0.8Q34.07-0.95 34.15-1.14 34.22-1.33 34.35-1.5L34.35-1.5 40.33-9.49 34.41-9.49 34.41-11.01 42.58-11.01ZM46.87 0L44.94 0 44.94-16.01 46.87-16.01 46.87-9.53Q47.58-10.28 48.44-10.73 49.3-11.18 50.42-11.18L50.42-11.18Q51.32-11.18 52.01-10.88 52.7-10.58 53.16-10.03 53.62-9.49 53.86-8.71 54.1-7.94 54.1-7.01L54.1-7.01 54.1 0 52.17 0 52.17-7.01Q52.17-8.26 51.6-8.95 51.02-9.64 49.85-9.64L49.85-9.64Q48.99-9.64 48.25-9.22 47.5-8.81 46.87-8.11L46.87-8.11 46.87 0ZM61.48-11.18L61.48-11.18Q62.68-11.18 63.66-10.78 64.63-10.38 65.31-9.64 65.99-8.9 66.35-7.85 66.71-6.8 66.71-5.51L66.71-5.51Q66.71-4.2 66.35-3.16 65.99-2.12 65.31-1.38 64.63-0.64 63.66-0.24 62.68 0.15 61.48 0.15L61.48 0.15Q60.27 0.15 59.3-0.24 58.33-0.64 57.64-1.38 56.96-2.12 56.59-3.16 56.22-4.2 56.22-5.51L56.22-5.51Q56.22-6.8 56.59-7.85 56.96-8.9 57.64-9.64 58.33-10.38 59.3-10.78 60.27-11.18 61.48-11.18ZM61.48-1.36L61.48-1.36Q63.11-1.36 63.91-2.45 64.72-3.54 64.72-5.5L64.72-5.5Q64.72-7.46 63.91-8.56 63.11-9.66 61.48-9.66L61.48-9.66Q60.65-9.66 60.04-9.38 59.43-9.09 59.03-8.56 58.62-8.03 58.42-7.25 58.22-6.48 58.22-5.5L58.22-5.5Q58.22-4.52 58.42-3.75 58.62-2.98 59.03-2.45 59.43-1.92 60.04-1.64 60.65-1.36 61.48-1.36ZM71.04 0L69.11 0 69.11-11.01 70.26-11.01Q70.67-11.01 70.78-10.6L70.78-10.6 70.93-9.41Q71.65-10.2 72.53-10.69 73.42-11.18 74.58-11.18L74.58-11.18Q75.48-11.18 76.17-10.88 76.86-10.58 77.33-10.03 77.79-9.49 78.03-8.71 78.27-7.94 78.27-7.01L78.27-7.01 78.27 0 76.33 0 76.33-7.01Q76.33-8.26 75.76-8.95 75.19-9.64 74.02-9.64L74.02-9.64Q73.16-9.64 72.41-9.22 71.67-8.81 71.04-8.11L71.04-8.11 71.04 0ZM84.89-11.19L84.89-11.19Q85.61-11.19 86.24-11.03 86.86-10.88 87.37-10.57L87.37-10.57 90.36-10.57 90.36-9.86Q90.36-9.5 89.9-9.4L89.9-9.4 88.65-9.22Q89.02-8.52 89.02-7.65L89.02-7.65Q89.02-6.85 88.71-6.19 88.4-5.53 87.85-5.06 87.31-4.6 86.55-4.35 85.8-4.1 84.89-4.1L84.89-4.1Q84.12-4.1 83.44-4.28L83.44-4.28Q83.09-4.06 82.91-3.81 82.73-3.56 82.73-3.32L82.73-3.32Q82.73-2.93 83.05-2.73 83.36-2.53 83.88-2.44 84.4-2.36 85.07-2.34 85.73-2.31 86.42-2.27 87.11-2.22 87.77-2.1 88.44-1.98 88.96-1.71 89.48-1.43 89.79-0.96 90.11-0.48 90.11 0.28L90.11 0.28Q90.11 0.99 89.76 1.65 89.4 2.31 88.74 2.83 88.08 3.35 87.12 3.66 86.16 3.97 84.96 3.97L84.96 3.97Q83.75 3.97 82.84 3.73 81.94 3.49 81.34 3.09 80.74 2.68 80.44 2.16 80.14 1.63 80.14 1.05L80.14 1.05Q80.14 0.24 80.66-0.33 81.18-0.9 82.08-1.24L82.08-1.24Q81.61-1.46 81.33-1.82 81.06-2.18 81.06-2.79L81.06-2.79Q81.06-3.03 81.14-3.29 81.23-3.54 81.41-3.79 81.59-4.04 81.85-4.27 82.11-4.5 82.46-4.67L82.46-4.67Q81.64-5.13 81.18-5.88 80.72-6.64 80.72-7.65L80.72-7.65Q80.72-8.45 81.03-9.11 81.34-9.77 81.89-10.23 82.45-10.69 83.21-10.94 83.98-11.19 84.89-11.19ZM88.33 0.6L88.33 0.6Q88.33 0.18 88.1-0.07 87.87-0.32 87.48-0.45 87.09-0.59 86.58-0.65 86.07-0.72 85.5-0.74 84.94-0.77 84.35-0.8 83.76-0.84 83.23-0.92L83.23-0.92Q82.61-0.63 82.23-0.21 81.84 0.22 81.84 0.8L81.84 0.8Q81.84 1.17 82.03 1.49 82.22 1.81 82.61 2.05 83 2.28 83.59 2.42 84.19 2.55 84.99 2.55L84.99 2.55Q85.77 2.55 86.39 2.41 87.01 2.27 87.44 2.01 87.87 1.75 88.1 1.39 88.33 1.03 88.33 0.6ZM84.89-5.38L84.89-5.38Q85.48-5.38 85.93-5.54 86.38-5.7 86.69-6 86.99-6.29 87.14-6.7 87.29-7.11 87.29-7.6L87.29-7.6Q87.29-8.61 86.68-9.2 86.07-9.8 84.89-9.8L84.89-9.8Q83.73-9.8 83.12-9.2 82.5-8.61 82.5-7.6L82.5-7.6Q82.5-7.11 82.66-6.7 82.82-6.29 83.12-6 83.43-5.7 83.87-5.54 84.32-5.38 84.89-5.38ZM99.03-9.9L98.59-9.19Q98.46-8.95 98.19-8.95L98.19-8.95Q98.03-8.95 97.82-9.07 97.62-9.19 97.32-9.34 97.02-9.49 96.61-9.61 96.19-9.74 95.63-9.74L95.63-9.74Q95.14-9.74 94.75-9.61 94.36-9.49 94.08-9.27 93.8-9.05 93.66-8.76 93.51-8.48 93.51-8.14L93.51-8.14Q93.51-7.71 93.75-7.43 94-7.15 94.4-6.94 94.8-6.74 95.31-6.58 95.82-6.42 96.36-6.24 96.9-6.06 97.41-5.85 97.92-5.63 98.32-5.3 98.73-4.98 98.97-4.5 99.21-4.03 99.21-3.37L99.21-3.37Q99.21-2.61 98.94-1.96 98.67-1.31 98.14-0.84 97.61-0.37 96.83-0.1 96.06 0.17 95.05 0.17L95.05 0.17Q93.9 0.17 92.97-0.2 92.03-0.58 91.38-1.16L91.38-1.16 91.84-1.9Q91.92-2.04 92.04-2.12 92.16-2.19 92.36-2.19L92.36-2.19Q92.55-2.19 92.77-2.04 92.99-1.89 93.3-1.71 93.61-1.52 94.05-1.37 94.49-1.22 95.15-1.22L95.15-1.22Q95.72-1.22 96.14-1.36 96.56-1.51 96.85-1.76 97.13-2.01 97.26-2.34 97.4-2.66 97.4-3.03L97.4-3.03Q97.4-3.49 97.16-3.79 96.91-4.09 96.51-4.3 96.11-4.51 95.59-4.67 95.07-4.82 94.54-5 94-5.17 93.48-5.39 92.97-5.62 92.56-5.95 92.16-6.29 91.92-6.79 91.67-7.28 91.67-7.99L91.67-7.99Q91.67-8.62 91.93-9.2 92.19-9.78 92.69-10.22 93.19-10.66 93.92-10.92 94.65-11.18 95.58-11.18L95.58-11.18Q96.67-11.18 97.54-10.84 98.4-10.5 99.03-9.9L99.03-9.9ZM103.66 0L101.72 0 101.72-16.01 103.66-16.01 103.66-9.53Q104.36-10.28 105.22-10.73 106.08-11.18 107.2-11.18L107.2-11.18Q108.1-11.18 108.79-10.88 109.48-10.58 109.94-10.03 110.41-9.49 110.64-8.71 110.88-7.94 110.88-7.01L110.88-7.01 110.88 0 108.95 0 108.95-7.01Q108.95-8.26 108.38-8.95 107.81-9.64 106.64-9.64L106.64-9.64Q105.78-9.64 105.03-9.22 104.29-8.81 103.66-8.11L103.66-8.11 103.66 0ZM121.89-7.04L121.89 0 121.03 0Q120.75 0 120.58-0.09 120.4-0.17 120.35-0.46L120.35-0.46 120.13-1.48Q119.7-1.09 119.28-0.78 118.87-0.47 118.41-0.26 117.96-0.04 117.44 0.07 116.93 0.17 116.29 0.17L116.29 0.17Q115.65 0.17 115.09-0.01 114.53-0.18 114.12-0.54 113.71-0.9 113.46-1.45 113.22-2 113.22-2.75L113.22-2.75Q113.22-3.4 113.58-4 113.94-4.61 114.74-5.07 115.53-5.54 116.83-5.84 118.12-6.14 119.99-6.18L119.99-6.18 119.99-7.04Q119.99-8.32 119.44-8.98 118.89-9.64 117.82-9.64L117.82-9.64Q117.11-9.64 116.63-9.46 116.14-9.28 115.79-9.06 115.44-8.83 115.18-8.65 114.93-8.48 114.68-8.48L114.68-8.48Q114.48-8.48 114.33-8.58 114.19-8.68 114.1-8.83L114.1-8.83 113.75-9.45Q114.66-10.33 115.72-10.77 116.77-11.2 118.06-11.2L118.06-11.2Q118.98-11.2 119.7-10.9 120.41-10.59 120.9-10.05 121.39-9.51 121.64-8.74 121.89-7.96 121.89-7.04L121.89-7.04ZM116.87-1.18L116.87-1.18Q117.38-1.18 117.81-1.29 118.23-1.39 118.6-1.58 118.98-1.77 119.32-2.04 119.66-2.31 119.99-2.66L119.99-2.66 119.99-4.95Q118.65-4.91 117.72-4.74 116.78-4.57 116.2-4.3 115.61-4.03 115.34-3.66 115.08-3.29 115.08-2.84L115.08-2.84Q115.08-2.4 115.22-2.09 115.36-1.77 115.6-1.57 115.84-1.37 116.16-1.28 116.49-1.18 116.87-1.18ZM126.76 0L124.82 0 124.82-11.01 125.98-11.01Q126.39-11.01 126.5-10.6L126.5-10.6 126.65-9.41Q127.37-10.2 128.25-10.69 129.14-11.18 130.3-11.18L130.3-11.18Q131.2-11.18 131.89-10.88 132.58-10.58 133.04-10.03 133.51-9.49 133.75-8.71 133.98-7.94 133.98-7.01L133.98-7.01 133.98 0 132.05 0 132.05-7.01Q132.05-8.26 131.48-8.95 130.91-9.64 129.74-9.64L129.74-9.64Q128.88-9.64 128.13-9.22 127.39-8.81 126.76-8.11L126.76-8.11 126.76 0ZM136.28-1.2L136.28-1.2Q136.28-1.48 136.38-1.73 136.48-1.98 136.66-2.16 136.84-2.35 137.09-2.46 137.34-2.56 137.62-2.56L137.62-2.56Q137.91-2.56 138.16-2.46 138.41-2.35 138.59-2.16 138.78-1.98 138.88-1.73 138.98-1.48 138.98-1.2L138.98-1.2Q138.98-0.9 138.88-0.66 138.78-0.41 138.59-0.23 138.41-0.04 138.16 0.06 137.91 0.16 137.62 0.16L137.62 0.16Q137.34 0.16 137.09 0.06 136.84-0.04 136.66-0.23 136.48-0.41 136.38-0.66 136.28-0.9 136.28-1.2ZM149.53-9.75L149.02-9.05Q148.94-8.93 148.85-8.87 148.76-8.8 148.6-8.8L148.6-8.8Q148.44-8.8 148.25-8.94 148.06-9.07 147.76-9.24 147.47-9.4 147.05-9.53 146.63-9.67 146.02-9.67L146.02-9.67Q145.22-9.67 144.6-9.38 143.98-9.09 143.56-8.55 143.14-8.01 142.93-7.24 142.72-6.47 142.72-5.51L142.72-5.51Q142.72-4.51 142.95-3.73 143.18-2.96 143.59-2.43 144-1.9 144.59-1.62 145.19-1.35 145.93-1.35L145.93-1.35Q146.63-1.35 147.09-1.52 147.54-1.68 147.85-1.89 148.15-2.1 148.35-2.27 148.54-2.43 148.74-2.43L148.74-2.43Q148.99-2.43 149.11-2.25L149.11-2.25 149.65-1.54Q148.94-0.66 147.86-0.26 146.78 0.15 145.59 0.15L145.59 0.15Q144.56 0.15 143.67-0.23 142.79-0.61 142.13-1.33 141.48-2.05 141.11-3.11 140.73-4.16 140.73-5.51L140.73-5.51Q140.73-6.74 141.07-7.78 141.42-8.82 142.07-9.58 142.73-10.33 143.7-10.76 144.66-11.18 145.91-11.18L145.91-11.18Q147.07-11.18 147.96-10.81 148.85-10.43 149.53-9.75L149.53-9.75ZM156.12-11.18L156.12-11.18Q157.32-11.18 158.3-10.78 159.27-10.38 159.95-9.64 160.63-8.9 160.99-7.85 161.35-6.8 161.35-5.51L161.35-5.51Q161.35-4.2 160.99-3.16 160.63-2.12 159.95-1.38 159.27-0.64 158.3-0.24 157.32 0.15 156.12 0.15L156.12 0.15Q154.91 0.15 153.94-0.24 152.97-0.64 152.28-1.38 151.6-2.12 151.23-3.16 150.86-4.2 150.86-5.51L150.86-5.51Q150.86-6.8 151.23-7.85 151.6-8.9 152.28-9.64 152.97-10.38 153.94-10.78 154.91-11.18 156.12-11.18ZM156.12-1.36L156.12-1.36Q157.75-1.36 158.55-2.45 159.36-3.54 159.36-5.5L159.36-5.5Q159.36-7.46 158.55-8.56 157.75-9.66 156.12-9.66L156.12-9.66Q155.29-9.66 154.68-9.38 154.07-9.09 153.67-8.56 153.26-8.03 153.06-7.25 152.86-6.48 152.86-5.5L152.86-5.5Q152.86-4.52 153.06-3.75 153.26-2.98 153.67-2.45 154.07-1.92 154.68-1.64 155.29-1.36 156.12-1.36ZM165.68 0L163.75 0 163.75-11.01 164.9-11.01Q165.31-11.01 165.42-10.6L165.42-10.6 165.56-9.47Q166.17-10.22 166.92-10.7 167.68-11.18 168.68-11.18L168.68-11.18Q169.8-11.18 170.49-10.56 171.18-9.94 171.48-8.89L171.48-8.89Q171.71-9.49 172.08-9.92 172.46-10.35 172.93-10.64 173.39-10.92 173.92-11.05 174.45-11.18 174.99-11.18L174.99-11.18Q175.86-11.18 176.54-10.9 177.22-10.63 177.69-10.09 178.16-9.56 178.41-8.78 178.66-8.01 178.66-7.01L178.66-7.01 178.66 0 176.73 0 176.73-7.01Q176.73-8.3 176.16-8.97 175.6-9.64 174.52-9.64L174.52-9.64Q174.05-9.64 173.62-9.47 173.19-9.3 172.86-8.98 172.54-8.65 172.35-8.15 172.16-7.66 172.16-7.01L172.16-7.01 172.16 0 170.22 0 170.22-7.01Q170.22-8.33 169.69-8.99 169.16-9.64 168.13-9.64L168.13-9.64Q167.42-9.64 166.8-9.25 166.19-8.87 165.68-8.2L165.68-8.2 165.68 0Z" transform="translate(-0.7599999904632568, 16.010000228881836)"></path></g> <!----> <!----> <!----> <!----> <!----> <!----> <!----></g></g> <g data-gra="path-slogan" fill-rule="" class="tp-slogan iconsvg-slogansvg" fill="#251f39" transform="translate(3.4000015258789062,25.979999542236328)"><rect width="0"></rect> <rect x="174.10000610351562" width="0"></rect> <g transform="translate(0,0)"><g transform="scale(1)"><path d="M6.75-9.56L6.75-9.56Q7.92-9.52 8.11-9.38L8.11-9.38Q8.11-9.33 8.02-9.23L8.02-9.23Q7.88-9 7.88-8.72L7.88-8.72L7.88-6L8.95-6Q9.98-6.05 10.88-6.09L10.88-6.09L10.88-5.02Q10.36-5.06 9-5.06L9-5.06L7.88-5.06L7.88-0.23L9.19-0.23Q10.45-0.28 11.34-0.33L11.34-0.33L11.34 0.75Q9.89 0.61 9.23 0.61L9.23 0.61L5.72 0.61Q4.55 0.66 3.84 0.70L3.84 0.70L3.84-0.28Q4.08-0.28 4.73-0.28L4.73-0.28Q5.44-0.23 5.72-0.23L5.72-0.23L6.84-0.23L6.84-8.25Q6.84-8.91 6.75-9.56ZM1.64-8.81L2.67-9.33Q3.52-8.11 3.94-7.27L3.94-7.27L2.77-6.75Q2.34-7.83 1.64-8.81L1.64-8.81ZM2.72 0.70L2.72 0.70L1.97-0.09Q2.20-0.42 2.20-1.17L2.20-1.17L2.20-5.02Q0.84-5.02 0.42-4.92L0.42-4.92L0.42-6Q1.50-5.86 3.23-5.95L3.23-5.95Q3.28-5.95 3.28-5.91L3.28-5.91Q3.28-5.91 3.28-5.86L3.28-5.86Q3.28-5.72 3.28-5.25L3.28-5.25Q3.23-4.59 3.23-4.31L3.23-4.31L3.23-1.03Q3.98-1.88 4.59-2.63L4.59-2.63Q4.69-2.02 5.02-1.55L5.02-1.55Q3.61-0.28 2.72 0.70ZM18.09-9.70L18.09-9.70Q19.41-9.70 19.45-9.56L19.45-9.56Q19.45-9.52 19.41-9.42L19.41-9.42Q19.27-9.05 19.22-8.39L19.22-8.39Q19.17-7.88 19.17-6.28L19.17-6.28L21.66-6.28Q22.78-6.28 23.02-6.33L23.02-6.33L23.02-5.39Q22.83-5.44 21.66-5.44L21.66-5.44L19.17-5.44Q19.31-3.75 19.69-2.44L19.69-2.44Q20.72-3.75 21.14-4.88L21.14-4.88Q22.22-4.36 22.27-4.22L22.27-4.22Q22.27-4.13 22.08-4.03L22.08-4.03Q21.84-3.89 21.75-3.75L21.75-3.75Q21.70-3.66 21.56-3.47L21.56-3.47Q20.81-2.34 20.06-1.64L20.06-1.64Q20.72-0.47 21.80-0.05L21.80-0.05Q22.08-0.05 22.17-1.41L22.17-1.41Q22.73-0.80 23.25-0.61L23.25-0.61Q22.73 1.13 22.27 1.13L22.27 1.13Q20.81 1.13 19.36-0.98L19.36-0.98Q18.28-0.19 17.02 0.42L17.02 0.42Q16.73 0 16.27-0.28L16.27-0.28Q16.17-0.33 16.17-0.33L16.17-0.33Q17.67-0.80 18.94-1.78L18.94-1.78Q18.38-3.56 18.33-5.44L18.33-5.44L15.94-5.44L15.94-3.75Q16.59-3.89 17.39-4.22L17.39-4.22Q17.63-4.27 17.72-4.31L17.72-4.31L17.67-3.23Q17.44-3.19 17.06-3.09L17.06-3.09Q16.69-3.05 15.94-2.86L15.94-2.86L15.94-0.14Q16.13 0.75 13.92 0.98L13.92 0.98Q13.92 0.47 13.64 0L13.64 0Q13.59-0.09 13.59-0.14L13.59-0.14Q15 0 15.05-0.61L15.05-0.61L15.05-2.63Q13.59-2.25 12.89-1.88L12.89-1.88L12.52-3.05Q13.83-3.23 15.05-3.56L15.05-3.56L15.05-5.44L13.97-5.44Q12.89-5.44 12.66-5.39L12.66-5.39L12.66-6.33Q12.84-6.28 13.92-6.28L13.92-6.28L15.05-6.28L15.05-7.83Q15.09-7.78 14.30-7.59L14.30-7.59Q13.64-7.45 13.22-7.36L13.22-7.36Q13.03-7.88 12.70-8.30L12.70-8.30Q14.72-8.34 16.88-9.28L16.88-9.28Q17.02-9.09 17.30-8.86L17.30-8.86Q17.81-8.34 17.72-8.30L17.72-8.30Q17.67-8.20 17.44-8.20L17.44-8.20Q16.73-8.20 15.94-8.02L15.94-8.02L15.94-6.28L18.28-6.28Q18.28-8.16 18.09-9.70ZM20.11-8.48L21-9.09Q21.75-8.30 22.36-7.31L22.36-7.31L21.42-6.70Q20.95-7.64 20.11-8.48L20.11-8.48ZM26.91-9.66L26.91-9.66Q28.17-9.19 28.17-9.05L28.17-9.05Q28.17-9 28.08-8.91L28.08-8.91Q27.56-8.30 27.05-7.17L27.05-7.17L27.05-0.89Q27.05 0.33 27.09 1.03L27.09 1.03L26.02 1.03Q26.06 0.42 26.06-0.84L26.06-0.84L26.06-5.67Q25.59-4.78 25.03-4.03L25.03-4.03Q24.70-4.55 24.28-4.88L24.28-4.88Q26.06-7.13 26.91-9.66ZM29.20-8.95L30.19-9.33Q30.61-8.63 31.08-7.59L31.08-7.59L30.09-7.17Q29.77-8.25 29.20-8.95L29.20-8.95ZM34.78-7.22L34.78-7.22L34.78 0.19Q34.92 0.94 32.91 1.13L32.91 1.13Q32.86 0.70 32.48 0L32.48 0Q32.39-0.09 32.39-0.14L32.39-0.14Q34.03 0.09 33.84-0.52L33.84-0.52L33.84-7.59L32.91-7.59Q32.11-7.59 31.50-7.55L31.50-7.55L31.50-8.53Q32.11-8.48 32.91-8.48L32.91-8.48L33.61-8.48Q34.88-8.48 34.88-8.53L34.88-8.53Q34.78-8.02 34.78-7.22ZM28.45-7.36L28.45-7.36Q29.58-7.36 29.67-7.27L29.67-7.27Q29.67-7.22 29.63-7.13L29.63-7.13Q29.48-6.75 29.48-6L29.48-6L29.48-1.22Q29.48 0.23 29.58 0.75L29.58 0.75L28.45 0.75Q28.55 0.23 28.55-1.22L28.55-1.22L28.55-5.95Q28.55-6.89 28.45-7.36ZM47.16-4.97L47.16-4.97L47.16-3.80Q46.41-3.89 45-3.89L45-3.89L39.05-3.89Q37.55-3.89 36.75-3.80L36.75-3.80L36.75-4.97Q37.64-4.88 38.95-4.88L38.95-4.88L44.91-4.88Q46.41-4.88 47.16-4.97ZM51.09-9.75L51.09-9.75Q52.41-9.66 52.36-9.52L52.36-9.52Q52.36-9.47 52.31-9.33L52.31-9.33Q52.17-9.09 52.17-8.86L52.17-8.86L52.17-8.02Q53.44-8.02 53.91-8.06L53.91-8.06L53.91-7.03Q53.20-7.13 52.17-7.13L52.17-7.13L52.17-5.67L52.59-5.67Q53.20-5.67 54.14-5.77L54.14-5.77L54.14-4.73Q53.34-4.83 52.59-4.83L52.59-4.83L52.22-4.83L52.22-3.42L52.59-3.42Q53.81-3.42 54.19-3.47L54.19-3.47L54.19-2.39Q53.39-2.48 52.59-2.48L52.59-2.48L52.22-2.48L52.22-0.70Q54 0.19 59.67-0.38L59.67-0.38Q59.06 0.23 59.02 0.89L59.02 0.89Q55.45 0.89 53.95 0.70L53.95 0.70Q52.41 0.56 51.75 0.09L51.75 0.09Q50.53-0.80 50.20-1.59L50.20-1.59Q49.88-0.05 49.27 1.17L49.27 1.17Q48.89 0.70 48.33 0.38L48.33 0.38Q49.50-0.89 49.59-4.08L49.59-4.08Q50.86-3.98 50.86-3.80L50.86-3.80Q50.86-3.75 50.81-3.70L50.81-3.70Q50.58-3.33 50.44-2.63L50.44-2.63Q50.86-1.92 51.28-1.41L51.28-1.41L51.28-4.83L50.44-4.83Q49.59-4.83 48.80-4.73L48.80-4.73L48.80-5.77Q49.45-5.72 50.44-5.67L50.44-5.67L51.23-5.67L51.23-7.13Q49.92-7.13 49.08-7.03L49.08-7.03L49.08-8.02Q49.97-7.97 51.23-7.97L51.23-7.97Q51.28-9.23 51.09-9.75ZM54.28-7.92L54.28-8.91Q54.89-8.81 55.22-8.81L55.22-8.81L57.33-8.81Q57.84-8.81 58.50-8.91L58.50-8.91Q58.36-8.25 58.41-7.92L58.41-7.92L58.41-5.63Q58.41-5.20 58.50-4.55L58.50-4.55L57.42-4.55Q57.47-4.88 57.47-5.02L57.47-5.02L55.59-5.02L55.59-2.48Q55.55-2.11 56.02-2.06L56.02-2.06Q57-1.97 57.66-2.16L57.66-2.16Q58.17-2.34 58.17-3.52L58.17-3.52Q58.69-2.95 59.25-2.81L59.25-2.81Q58.97-1.64 58.55-1.36L58.55-1.36Q58.27-1.22 57.09-1.13L57.09-1.13Q56.11-1.08 55.59-1.17L55.59-1.17Q54.61-1.36 54.66-2.06L54.66-2.06L54.66-5.25Q54.61-5.53 54.56-5.95L54.56-5.95Q55.13-5.86 55.45-5.86L55.45-5.86L57.47-5.86L57.47-7.97L55.45-7.97Q54.52-7.97 54.28-7.92L54.28-7.92ZM66.05-9.66L66.05-9.66Q66.98-9.47 67.27-9.19L67.27-9.19Q67.27-9.09 67.13-8.95L67.13-8.95Q66.98-8.81 66.89-8.63L66.89-8.63Q66.84-8.53 66.75-8.34L66.75-8.34Q66.52-7.73 66.42-7.55L66.42-7.55L69.28-7.55Q70.59-7.55 70.97-7.59L70.97-7.59L70.97-6.70Q70.55-6.75 69.28-6.75L69.28-6.75L68.81-6.75L68.81-5.34L69.33-5.34Q69.38-5.34 69.70-5.34L69.70-5.34Q70.41-5.39 70.78-5.39L70.78-5.39L70.78-4.55Q70.55-4.59 69.33-4.59L69.33-4.59L68.81-4.59L68.81-3.14L69.19-3.14Q70.36-3.14 70.83-3.19L70.83-3.19L70.83-2.30Q70.17-2.34 69.19-2.39L69.19-2.39L68.81-2.39L68.81-0.75L69.56-0.75Q70.92-0.80 71.48-0.84L71.48-0.84L71.48 0Q71.16 0 69.52 0L69.52 0L66.33 0L66.33 0.19Q66.33 0.80 66.38 1.13L66.38 1.13L65.34 1.13Q65.39 0.61 65.44-0.84L65.44-0.84L65.44-5.58Q65.25-4.88 64.73-4.17L64.73-4.17Q64.41-4.45 63.94-4.64L63.94-4.64Q65.25-6.52 66.05-9.66ZM62.39-9.56L62.39-9.56Q63.47-9.23 63.52-9.05L63.52-9.05Q63.52-9 63.42-8.86L63.42-8.86Q63.28-8.77 63.23-8.63L63.23-8.63Q62.39-7.08 61.55-5.77L61.55-5.77Q61.64-5.72 62.81-5.91L62.81-5.91Q62.91-5.95 62.95-5.95L62.95-5.95Q63.38-6.84 63.52-7.59L63.52-7.59Q64.59-7.17 64.59-7.03L64.59-7.03Q64.59-6.98 64.50-6.89L64.50-6.89Q64.27-6.70 64.17-6.52L64.17-6.52Q63.89-6.05 62.34-3.05L62.34-3.05Q63.38-3.19 64.64-3.52L64.64-3.52L64.55-2.58Q61.41-2.20 61.17-1.97L61.17-1.97L60.89-2.81Q61.27-2.95 61.64-3.38L61.64-3.38Q61.88-3.70 62.48-4.78L62.48-4.78Q62.72-5.20 62.81-5.34L62.81-5.34Q61.83-5.25 60.84-4.92L60.84-4.92L60.52-5.86Q60.80-5.95 61.17-6.52L61.17-6.52Q62.30-8.44 62.39-9.56ZM67.73-9.19L68.63-9.56Q69.19-8.72 69.47-8.16L69.47-8.16L68.48-7.78Q68.11-8.72 67.73-9.19L67.73-9.19ZM67.92-5.34L67.92-6.75L66.33-6.75L66.33-5.34L67.92-5.34ZM67.92-4.59L66.33-4.59L66.33-3.14L67.92-3.14L67.92-4.59ZM67.92-0.75L67.92-2.39L66.33-2.39L66.33-0.75L67.92-0.75ZM64.83-1.69L64.83-1.69L64.69-0.66Q64.59-0.66 64.36-0.56L64.36-0.56Q62.06-0.09 60.94 0.23L60.94 0.23L60.61-0.84Q62.95-1.17 64.83-1.69ZM79.22-9.47L80.25-9.75Q80.77-8.95 81.09-7.97L81.09-7.97L80.06-7.64Q79.88-8.39 79.22-9.47L79.22-9.47ZM74.48-9.66L74.48-9.66Q74.63-9.66 74.95-9.61L74.95-9.61Q75.75-9.61 75.70-9.52L75.70-9.52Q75.70-9.47 75.66-9.38L75.66-9.38Q75.52-9.09 75.52-8.58L75.52-8.58L75.52-7.03L75.89-7.03Q76.59-7.03 77.11-7.13L77.11-7.13Q77.16-7.13 77.16-7.13L77.16-7.13L77.16-6Q77.16-6 77.11-6L77.11-6Q76.69-6.09 75.89-6.09L75.89-6.09L75.52-6.09L75.52-4.41L77.06-4.97L77.16-3.98L75.52-3.47L75.52-0.09Q75.80 0.98 73.78 1.08L73.78 1.08Q73.73 0.38 73.31-0.05L73.31-0.05Q74.72 0.23 74.58-0.56L74.58-0.56L74.58-3.19L72.94-2.53L72.61-3.61L74.58-4.13L74.58-6.09L74.16-6.09Q73.50-6.09 72.84-5.95L72.84-5.95Q72.70-5.95 72.70-5.95L72.70-5.95L72.70-7.13Q72.70-7.13 72.84-7.13L72.84-7.13Q73.41-7.03 74.16-7.03L74.16-7.03L74.58-7.03L74.58-8.58Q74.58-9.09 74.48-9.52L74.48-9.52Q74.48-9.61 74.48-9.66ZM81.89-6.70L78.66-6.70L78.66-4.50L81.89-4.50L81.89-6.70ZM79.08-7.59L81.52-7.59Q82.17-7.59 82.88-7.64L82.88-7.64Q82.97-7.64 82.97-7.64L82.97-7.64Q82.97-7.55 82.97-7.31L82.97-7.31Q82.92-6.70 82.92-6.23L82.92-6.23L82.92-4.50Q82.92-3.61 83.02-2.95L83.02-2.95Q83.02-2.81 83.02-2.77L83.02-2.77L81.80-2.77Q81.89-2.91 81.89-3.66L81.89-3.66L78.70-3.66Q78.70-0.47 77.06 1.17L77.06 1.17Q76.50 0.84 75.84 0.70L75.84 0.70Q77.25-0.33 77.53-1.83L77.53-1.83Q77.91-3.28 77.72-7.69L77.72-7.69Q78.14-7.59 79.08-7.59L79.08-7.59ZM90.09-9.70L90.09-9.70Q91.41-9.70 91.45-9.56L91.45-9.56Q91.45-9.52 91.41-9.42L91.41-9.42Q91.27-9.05 91.22-8.39L91.22-8.39Q91.17-7.88 91.17-6.28L91.17-6.28L93.66-6.28Q94.78-6.28 95.02-6.33L95.02-6.33L95.02-5.39Q94.83-5.44 93.66-5.44L93.66-5.44L91.17-5.44Q91.31-3.75 91.69-2.44L91.69-2.44Q92.72-3.75 93.14-4.88L93.14-4.88Q94.22-4.36 94.27-4.22L94.27-4.22Q94.27-4.13 94.08-4.03L94.08-4.03Q93.84-3.89 93.75-3.75L93.75-3.75Q93.70-3.66 93.56-3.47L93.56-3.47Q92.81-2.34 92.06-1.64L92.06-1.64Q92.72-0.47 93.80-0.05L93.80-0.05Q94.08-0.05 94.17-1.41L94.17-1.41Q94.73-0.80 95.25-0.61L95.25-0.61Q94.73 1.13 94.27 1.13L94.27 1.13Q92.81 1.13 91.36-0.98L91.36-0.98Q90.28-0.19 89.02 0.42L89.02 0.42Q88.73 0 88.27-0.28L88.27-0.28Q88.17-0.33 88.17-0.33L88.17-0.33Q89.67-0.80 90.94-1.78L90.94-1.78Q90.38-3.56 90.33-5.44L90.33-5.44L87.94-5.44L87.94-3.75Q88.59-3.89 89.39-4.22L89.39-4.22Q89.63-4.27 89.72-4.31L89.72-4.31L89.67-3.23Q89.44-3.19 89.06-3.09L89.06-3.09Q88.69-3.05 87.94-2.86L87.94-2.86L87.94-0.14Q88.13 0.75 85.92 0.98L85.92 0.98Q85.92 0.47 85.64 0L85.64 0Q85.59-0.09 85.59-0.14L85.59-0.14Q87 0 87.05-0.61L87.05-0.61L87.05-2.63Q85.59-2.25 84.89-1.88L84.89-1.88L84.52-3.05Q85.83-3.23 87.05-3.56L87.05-3.56L87.05-5.44L85.97-5.44Q84.89-5.44 84.66-5.39L84.66-5.39L84.66-6.33Q84.84-6.28 85.92-6.28L85.92-6.28L87.05-6.28L87.05-7.83Q87.09-7.78 86.30-7.59L86.30-7.59Q85.64-7.45 85.22-7.36L85.22-7.36Q85.03-7.88 84.70-8.30L84.70-8.30Q86.72-8.34 88.88-9.28L88.88-9.28Q89.02-9.09 89.30-8.86L89.30-8.86Q89.81-8.34 89.72-8.30L89.72-8.30Q89.67-8.20 89.44-8.20L89.44-8.20Q88.73-8.20 87.94-8.02L87.94-8.02L87.94-6.28L90.28-6.28Q90.28-8.16 90.09-9.70ZM92.11-8.48L93-9.09Q93.75-8.30 94.36-7.31L94.36-7.31L93.42-6.70Q92.95-7.64 92.11-8.48L92.11-8.48ZM98.91-9.66L98.91-9.66Q100.17-9.19 100.17-9.05L100.17-9.05Q100.17-9 100.08-8.91L100.08-8.91Q99.56-8.30 99.05-7.17L99.05-7.17L99.05-0.89Q99.05 0.33 99.09 1.03L99.09 1.03L98.02 1.03Q98.06 0.42 98.06-0.84L98.06-0.84L98.06-5.67Q97.59-4.78 97.03-4.03L97.03-4.03Q96.70-4.55 96.28-4.88L96.28-4.88Q98.06-7.13 98.91-9.66ZM101.20-8.95L102.19-9.33Q102.61-8.63 103.08-7.59L103.08-7.59L102.09-7.17Q101.77-8.25 101.20-8.95L101.20-8.95ZM106.78-7.22L106.78-7.22L106.78 0.19Q106.92 0.94 104.91 1.13L104.91 1.13Q104.86 0.70 104.48 0L104.48 0Q104.39-0.09 104.39-0.14L104.39-0.14Q106.03 0.09 105.84-0.52L105.84-0.52L105.84-7.59L104.91-7.59Q104.11-7.59 103.50-7.55L103.50-7.55L103.50-8.53Q104.11-8.48 104.91-8.48L104.91-8.48L105.61-8.48Q106.88-8.48 106.88-8.53L106.88-8.53Q106.78-8.02 106.78-7.22ZM100.45-7.36L100.45-7.36Q101.58-7.36 101.67-7.27L101.67-7.27Q101.67-7.22 101.63-7.13L101.63-7.13Q101.48-6.75 101.48-6L101.48-6L101.48-1.22Q101.48 0.23 101.58 0.75L101.58 0.75L100.45 0.75Q100.55 0.23 100.55-1.22L100.55-1.22L100.55-5.95Q100.55-6.89 100.45-7.36ZM115.41-9.75L115.41-9.75Q116.67-9.38 116.67-9.23L116.67-9.23Q116.67-9.19 116.58-9.14L116.58-9.14Q116.39-9.05 116.34-8.86L116.34-8.86Q115.92-8.16 115.69-7.41L115.69-7.41L117.42-7.41Q118.45-7.41 119.02-7.45L119.02-7.45Q118.64-1.31 118.55-0.23L118.55-0.23Q118.41 1.08 115.97 1.17L115.97 1.17Q115.83 0.47 115.41-0.05L115.41-0.05Q116.67 0.19 117.33-0.09L117.33-0.09Q117.66-0.05 117.80-4.27L117.80-4.27Q117.89-5.77 117.94-6.66L117.94-6.66L115.36-6.66Q114.89-5.77 114.23-4.59L114.23-4.59Q113.81-4.88 113.39-4.97L113.39-4.97L113.39-0.75Q113.39 0.42 113.44 0.75L113.44 0.75L112.36 0.75Q112.41 0.33 112.41-0.38L112.41-0.38L110.11-0.38Q110.11 0.33 110.16 0.84L110.16 0.84L109.08 0.84Q109.13 0.42 109.13-0.70L109.13-0.70L109.13-5.72Q109.13-5.91 109.08-6.61L109.08-6.61Q109.08-7.22 109.08-7.36L109.08-7.36Q109.78-7.31 110.11-7.31L110.11-7.31L110.44-7.31Q110.58-8.06 110.67-9.61L110.67-9.61Q111.98-9.47 111.89-9.28L111.89-9.28Q111.89-9.19 111.80-9.09L111.80-9.09Q111.70-9 111.66-8.86L111.66-8.86Q111.52-8.53 111.38-7.92L111.38-7.92Q111.28-7.55 111.23-7.31L111.23-7.31L112.03-7.31Q112.41-7.31 113.44-7.36L113.44-7.36Q113.39-7.03 113.39-5.86L113.39-5.86L113.39-5.20Q114.84-6.84 115.41-9.75ZM112.41-6.56L110.11-6.56L110.11-4.13L112.41-4.13L112.41-6.56ZM114.61-4.17L115.41-4.64Q115.69-4.27 116.39-2.91L116.39-2.91Q116.58-2.63 116.63-2.48L116.63-2.48L115.73-2.02Q115.59-2.58 114.61-4.17L114.61-4.17ZM112.41-3.42L110.11-3.42L110.11-1.13L112.41-1.13L112.41-3.42ZM122.44-9.61L122.44-9.61Q122.67-9.61 123.09-9.56L123.09-9.56Q123.75-9.56 123.70-9.52L123.70-9.52Q123.70-9.47 123.66-9.33L123.66-9.33Q123.42-8.91 123.42-8.34L123.42-8.34L123.42-7.08L123.89-7.08Q124.73-7.08 124.97-7.13L124.97-7.13L124.97-6.19Q124.97-6.19 124.92-6.19L124.92-6.19Q124.64-6.23 123.84-6.23L123.84-6.23L123.42-6.23L123.42-0.61Q123.42 0.75 123.47 1.08L123.47 1.08L122.48 1.08Q122.53 0.70 122.53-0.56L122.53-0.56L122.53-4.88Q121.83-2.63 120.94-1.50L120.94-1.50Q120.89-1.59 120.80-1.78L120.80-1.78Q120.56-2.34 120.38-2.48L120.38-2.48Q121.55-3.66 122.30-6.23L122.30-6.23L121.92-6.23Q120.89-6.23 120.70-6.19L120.70-6.19L120.70-7.13Q120.94-7.08 121.97-7.08L121.97-7.08L122.53-7.08L122.53-8.34Q122.53-9.19 122.44-9.61ZM125.25-7.45L125.25-8.48Q125.77-8.39 126.94-8.39L126.94-8.39L129.19-8.39Q129.70-8.39 130.45-8.48L130.45-8.48Q130.73-8.48 130.73-8.48L130.73-8.48Q129.98-4.03 128.53-1.88L128.53-1.88Q129.80-0.75 131.63-0.38L131.63-0.38Q131.63-0.38 131.58-0.33L131.58-0.33Q131.25 0 130.92 0.66L130.92 0.66Q129-0.09 127.88-1.17L127.88-1.17Q127.08-0.38 125.11 0.80L125.11 0.80Q124.55 0.28 124.03 0L124.03 0Q123.94 0 123.94 0L123.94 0Q126-0.61 127.31-1.88L127.31-1.88Q126.14-3.94 125.63-7.31L125.63-7.31L126.42-7.55Q125.67-7.55 125.25-7.45L125.25-7.45ZM123.61-4.55L123.61-4.55L124.31-5.02Q124.64-4.64 125.48-3.23L125.48-3.23L124.64-2.67Q124.36-3.33 123.61-4.55ZM129.52-7.55L126.66-7.55Q126.84-4.69 127.92-2.63L127.92-2.63Q128.91-4.31 129.52-7.55L129.52-7.55ZM139.59-9.56L139.59-9.56Q141-9.09 140.91-8.95L140.91-8.95Q140.86-8.86 140.72-8.77L140.72-8.77Q140.58-8.67 140.48-8.58L140.48-8.58Q140.34-8.44 139.92-7.88L139.92-7.88Q139.73-7.59 139.64-7.45L139.64-7.45L140.67-7.45Q140.95-7.45 142.17-7.55L142.17-7.55Q142.69-7.59 142.88-7.59L142.88-7.59L142.88-6.52Q141.89-6.61 140.72-6.61L140.72-6.61L135.19-6.61Q134.39-6.61 133.08-6.52L133.08-6.52L133.08-7.59Q133.97-7.45 135.14-7.45L135.14-7.45L138.56-7.45Q138.89-7.88 139.59-9.56ZM135.09-9.14L136.13-9.52Q137.02-8.48 137.30-8.02L137.30-8.02L136.17-7.59Q135.56-8.63 135.09-9.14L135.09-9.14ZM136.69-6.23L136.69-6.23Q137.63-5.53 137.58-5.39L137.58-5.39Q137.58-5.34 137.39-5.30L137.39-5.30Q137.06-5.20 136.73-5.02L136.73-5.02Q136.45-4.88 135.61-4.50L135.61-4.50Q134.81-4.13 134.48-3.98L134.48-3.98Q135.38-3.89 136.22-3.89L136.22-3.89L139.88-3.89Q140.20-3.89 140.81-3.94L140.81-3.94Q141.42-3.94 141.70-3.94L141.70-3.94Q141.75-3.94 141.75-3.89L141.75-3.89Q141.70-3.28 141.70-2.20L141.70-2.20L141.70-0.23L141.94-0.23Q142.92-0.23 143.39-0.28L143.39-0.28L143.39 0.61Q142.78 0.52 141.94 0.52L141.94 0.52L134.16 0.52Q133.59 0.52 132.66 0.61L132.66 0.61L132.66-0.28Q132.94-0.28 133.59-0.23L133.59-0.23Q134.02-0.23 134.16-0.23L134.16-0.23L134.34-0.23L134.34-2.63Q134.34-3.19 134.25-3.75L134.25-3.75Q134.30-3.70 134.25-3.84L134.25-3.84Q134.06-3.70 133.69-3.56L133.69-3.56Q133.36-4.03 132.75-4.36L132.75-4.36Q135.19-5.02 136.69-6.23ZM138.70-5.44L139.45-6.19Q140.95-5.77 143.16-4.73L143.16-4.73L142.31-3.80Q140.48-4.92 138.70-5.44L138.70-5.44ZM136.59-3.05L135.33-3.05L135.33-0.23L136.59-0.23L136.59-3.05ZM138.66-3.05L137.39-3.05L137.39-0.23L138.66-0.23L138.66-3.05ZM140.72-3.05L139.45-3.05L139.45-0.23L140.72-0.23L140.72-3.05ZM146.48-7.55L147.52-7.55L147.52-4.55L147.23-1.41L146.77-1.41L146.48-4.55L146.48-7.55ZM146.48-0.42L147.52-0.42L147.52 0.66L146.48 0.66L146.48-0.42ZM158.48-7.55L159.52-7.55L159.52-4.55L159.23-1.41L158.77-1.41L158.48-4.55L158.48-7.55ZM158.48-0.42L159.52-0.42L159.52 0.66L158.48 0.66L158.48-0.42ZM170.48-7.55L171.52-7.55L171.52-4.55L171.23-1.41L170.77-1.41L170.48-4.55L170.48-7.55ZM170.48-0.42L171.52-0.42L171.52 0.66L170.48 0.66L170.48-0.42Z" transform="translate(-0.421875, 9.75)"></path></g></g></g></g></g><defs v-gra="od"></defs></svg>